<svg xmlns="http://www.w3.org/2000/svg" viewBox="0 0 262.73 350.93"><defs><style>.cls-1{fill:none;stroke:lime;stroke-linecap:round;stroke-linejoin:round;}</style></defs><title>AWS_neural_icon</title><g id="Layer_2" data-name="Layer 2"><g id="Layer_2-2" data-name="Layer 2"><ellipse class="cls-1" cx="105.88" cy="237.3" rx="8.11" ry="8.02"/><ellipse class="cls-1" cx="78.21" cy="342.4" rx="8.11" ry="8.02"/><path class="cls-1" d="M105.11,230.38V198.59s0-14.37,17.31-20.79l26-8.56s17.93,5.5,30.92-3.06S192.91,142,192.91,142s12.06,11,20.71-2.45c0,0,38,1.53,46.68-26.59s-14.84-44.93-14.84-44.93,5.57-10.7.31-18.34-14.53-7.34-14.53-7.34-.31-18.34-16.7-24.45-26.59,0-26.59,0A37.43,37.43,0,0,0,163.85,1.13c-16.7-3.36-30.92,7.95-30.92,7.95S129.53.19,117.47.51,99.85,12.44,99.85,12.44s-11.44-7-24.12-3.36S60.9,27.42,60.9,27.42s-13.29-2.14-23.19,7S27.81,58.9,27.81,58.9,10.81,60.13,5.55,72a24.51,24.51,0,0,0,4.64,26.59s-12.06,8.25-9.28,26.9S26.58,145.1,26.58,145.1s-4.64,22.31,12.06,37.6,39,12.53,39,12.53V334.38"/><path class="cls-1" d="M148.39,169.25s-16.7-.31-16.7-21.09V119.22s1.65-11.41-9.48-11.41h-28"/><path class="cls-1" d="M192.91,142h-40.6V99.25s-3.92-20.38,20.3-20.38h41.94"/><polyline class="cls-1" points="99.85 12.44 99.85 36.59 119.17 55.69 169.11 55.69"/><path class="cls-1" d="M60.9,27.42V113s-.62,17.42,17,17.42H95.52v38.82"/><path class="cls-1" d="M245.47,68.07H214.56s-12.06.31-12.06-12.38V40"/><line class="cls-1" x1="213.63" y1="139.6" x2="183.02" y2="109.34"/><line class="cls-1" x1="27.81" y1="58.9" x2="47.76" y2="78.62"/><path class="cls-1" d="M26.58,145.1"/><line class="cls-1" x1="65.1" y1="145.1" x2="26.58" y2="145.1"/><ellipse class="cls-1" cx="179" cy="104.8" rx="5.72" ry="5.65"/><ellipse class="cls-1" cx="221.36" cy="78.87" rx="5.72" ry="5.65"/><ellipse class="cls-1" cx="202.5" cy="33.07" rx="5.72" ry="5.65"/><ellipse class="cls-1" cx="175.94" cy="55.69" rx="5.72" ry="5.65"/><ellipse class="cls-1" cx="87.07" cy="107.81" rx="5.72" ry="5.65"/><ellipse class="cls-1" cx="121.29" cy="96.7" rx="5.72" ry="5.65"/><ellipse class="cls-1" cx="53.48" cy="82.62" rx="5.72" ry="5.65"/><ellipse class="cls-1" cx="70.82" cy="144.18" rx="5.72" ry="5.65"/><ellipse class="cls-1" cx="37.5" cy="124.77" rx="5.72" ry="5.65"/><ellipse class="cls-1" cx="175.94" cy="27.42" rx="5.72" ry="5.65"/><polyline class="cls-1" points="60.9 58.9 84.08 58.9 116.6 91.05"/><line class="cls-1" x1="33.04" y1="121.23" x2="10.19" y2="98.64"/><polyline class="cls-1" points="132.93 9.08 132.93 27.42 169.11 27.42"/></g></g></svg>