<svg xmlns="http://www.w3.org/2000/svg" viewBox="0 0 658.05 330.45"><defs><style>.cls-1,.cls-2{stroke:lime;}.cls-1{stroke-miterlimit:10;}.cls-2{stroke-linejoin:bevel;}</style></defs><title>landmarks</title><g id="Layer_2" data-name="Layer 2"><g id="Layer_3" data-name="Layer 3"><path class="cls-1" d="M634.3,298.59l-4.16,31.34-4.07-.19,2.51-18.91a5.18,5.18,0,0,0-1.26-4,6.21,6.21,0,0,0-4-2.1,5.89,5.89,0,0,0-6.7,4.74L614,329.19l-6.82-.31,2.68-20.24a5.22,5.22,0,0,0-1.24-4,6.27,6.27,0,0,0-4-2.08,5.89,5.89,0,0,0-6.68,4.72l-2.81,21.09-6.58-.3,2.87-21.55a5.13,5.13,0,0,0-1.26-4,6.15,6.15,0,0,0-4-2.1,5.89,5.89,0,0,0-6.7,4.74l-3,22.4-6.78-.31,3-22.88a5.11,5.11,0,0,0-1.24-4,6.22,6.22,0,0,0-4-2.1,5.88,5.88,0,0,0-6.68,4.74l-3.15,23.73-6.36-.29,3-22.92a5.19,5.19,0,0,0-1.24-4,6.2,6.2,0,0,0-4-2.1,5.86,5.86,0,0,0-6.68,4.74l-3.15,23.77-4.31-.2,5-38.07Z"/><path class="cls-1" d="M551.37,253.59,548,280.5l80.17,10,3.36-26.91Zm9.11,25.86-6.61-.82,2.29-18.37a3.1,3.1,0,0,1,3.44-2.68l.48.06a3.09,3.09,0,0,1,2.68,3.44ZM572.85,281l-6.6-.82,2.29-18.37a3.09,3.09,0,0,1,3.44-2.68l.48.06a3.09,3.09,0,0,1,2.68,3.44Zm13.24,1.65-6.6-.82,2.29-18.37a3.09,3.09,0,0,1,3.44-2.68l.48.06a3.09,3.09,0,0,1,2.68,3.44Zm12.37,1.54-6.6-.82L594.15,265a3.1,3.1,0,0,1,3.44-2.68l.48.06a3.09,3.09,0,0,1,2.68,3.44Zm12.24,1.53-6.6-.82,2.29-18.37a3.1,3.1,0,0,1,3.44-2.68l.48.06a3.09,3.09,0,0,1,2.68,3.44Zm12.37,1.54-6.6-.83,2.29-18.37a3.1,3.1,0,0,1,3.44-2.68l.48.06a3.1,3.1,0,0,1,2.68,3.44Z"/><path class="cls-1" d="M555.82,219.44l-3.36,26.91,80.17,10L636,229.44Zm9.11,25.85-6.61-.82,2.29-18.37a3.1,3.1,0,0,1,3.44-2.68l.48.06a3.1,3.1,0,0,1,2.68,3.44Zm12.37,1.54-6.6-.82L573,227.65a3.09,3.09,0,0,1,3.44-2.68l.48.06a3.09,3.09,0,0,1,2.68,3.44Zm13.24,1.65-6.6-.82,2.29-18.37a3.09,3.09,0,0,1,3.44-2.68l.48.06a3.1,3.1,0,0,1,2.68,3.44ZM602.91,250l-6.6-.82,2.29-18.37a3.09,3.09,0,0,1,3.44-2.68l.48.06a3.1,3.1,0,0,1,2.68,3.45Zm12.24,1.53-6.6-.82,2.29-18.37a3.1,3.1,0,0,1,3.44-2.68l.48.06a3.09,3.09,0,0,1,2.68,3.44Zm12.37,1.54-6.6-.82,2.29-18.37a3.1,3.1,0,0,1,3.44-2.68l.48.06a3.1,3.1,0,0,1,2.68,3.45Z"/><path class="cls-1" d="M560,185l-3.36,26.91,80.17,10L640.19,195Zm9.11,25.85-6.6-.82,2.29-18.37a3.1,3.1,0,0,1,3.45-2.68l.48.06a3.1,3.1,0,0,1,2.68,3.45Zm12.37,1.54-6.6-.82,2.29-18.37a3.09,3.09,0,0,1,3.44-2.68l.48.06a3.1,3.1,0,0,1,2.68,3.44ZM594.74,214l-6.6-.82,2.29-18.37a3.09,3.09,0,0,1,3.44-2.68l.48.06a3.1,3.1,0,0,1,2.68,3.45Zm12.37,1.54-6.6-.82,2.29-18.37a3.09,3.09,0,0,1,3.44-2.68l.48.06a3.1,3.1,0,0,1,2.68,3.45Zm12.24,1.53-6.6-.82L615,197.89a3.09,3.09,0,0,1,3.44-2.68l.48.06a3.09,3.09,0,0,1,2.68,3.44Zm12.37,1.54-6.6-.82,2.29-18.37a3.09,3.09,0,0,1,3.44-2.68l.48.06a3.1,3.1,0,0,1,2.68,3.45Z"/><path class="cls-1" d="M564.47,150.82l-3.36,26.91,80.17,10,3.35-26.91Zm9.11,25.85-6.6-.82,2.29-18.37a3.1,3.1,0,0,1,3.45-2.68l.48.06a3.1,3.1,0,0,1,2.68,3.44Zm12.37,1.54-6.6-.82L581.63,159a3.09,3.09,0,0,1,3.44-2.68l.48.06a3.1,3.1,0,0,1,2.68,3.45Zm13.24,1.65-6.6-.82,2.29-18.37a3.09,3.09,0,0,1,3.44-2.68l.48.06a3.09,3.09,0,0,1,2.68,3.44Zm12.37,1.54-6.6-.82,2.29-18.37a3.09,3.09,0,0,1,3.44-2.68l.48.06a3.1,3.1,0,0,1,2.68,3.45Zm12.24,1.53-6.6-.82,2.29-18.37a3.09,3.09,0,0,1,3.44-2.68l.48.06a3.1,3.1,0,0,1,2.68,3.44Zm12.37,1.54-6.6-.82,2.29-18.37a3.1,3.1,0,0,1,3.44-2.68l.48.06a3.1,3.1,0,0,1,2.68,3.45Z"/><path class="cls-1" d="M568.82,116.66l-3.36,26.91,80.17,10L649,126.66Zm9.11,25.85-6.61-.82,2.29-18.37a3.1,3.1,0,0,1,3.44-2.68l.48.06a3.1,3.1,0,0,1,2.68,3.45Zm12.37,1.54-6.6-.82L586,124.87a3.09,3.09,0,0,1,3.44-2.68l.49.06a3.1,3.1,0,0,1,2.68,3.45Zm13.24,1.65-6.6-.82,2.29-18.37a3.09,3.09,0,0,1,3.44-2.68l.48.06a3.1,3.1,0,0,1,2.68,3.45Zm12.37,1.54-6.6-.82,2.29-18.37a3.09,3.09,0,0,1,3.44-2.68l.48.06a3.1,3.1,0,0,1,2.68,3.45Zm12.24,1.53-6.6-.82,2.29-18.37a3.09,3.09,0,0,1,3.44-2.68l.48.06a3.09,3.09,0,0,1,2.68,3.44Zm12.37,1.54-6.6-.82,2.29-18.37a3.1,3.1,0,0,1,3.44-2.68l.48.06a3.1,3.1,0,0,1,2.68,3.45Z"/><path class="cls-1" d="M573.27,82.51l-3.36,26.91,80.17,10,3.36-26.91Zm9.11,25.85-6.61-.82,2.29-18.37a3.1,3.1,0,0,1,3.44-2.68l.48.06A3.1,3.1,0,0,1,584.66,90Zm12.37,1.54-6.6-.82,2.29-18.37A3.09,3.09,0,0,1,593.87,88l.48.06A3.09,3.09,0,0,1,597,91.54ZM608,111.56l-6.6-.82,2.29-18.37a3.09,3.09,0,0,1,3.44-2.68l.48.06a3.1,3.1,0,0,1,2.68,3.44Zm12.37,1.54-6.6-.82L616,93.91a3.09,3.09,0,0,1,3.44-2.68l.48.06a3.1,3.1,0,0,1,2.68,3.45Zm12.24,1.53-6.6-.82,2.29-18.37a3.1,3.1,0,0,1,3.44-2.68l.48.06a3.09,3.09,0,0,1,2.68,3.44ZM645,116.17l-6.6-.82L640.65,97a3.1,3.1,0,0,1,3.44-2.68l.48.06a3.1,3.1,0,0,1,2.68,3.45Z"/><path class="cls-1" d="M638.1,83.18l3.73-29.94-47.69-5.95-3.74,29.94,2.16.27,6,.75,3.2.4s0-.08,0-.12l2.47-19.81c.29-2.35,1.89-4.11,3.55-3.9a2.69,2.69,0,0,1,2,1.52,5.33,5.33,0,0,1,.51,3.13l-2.47,19.81s0,.08,0,.12l3.4.42v-.12l2.47-19.81c.3-2.35,1.89-4.11,3.55-3.9a2.68,2.68,0,0,1,2,1.52,5.32,5.32,0,0,1,.51,3.13l-2.47,19.81,0,.12,3.3.41s0-.08,0-.12l2.47-19.81c.29-2.35,1.89-4.11,3.55-3.9a2.69,2.69,0,0,1,2,1.52,5.33,5.33,0,0,1,.51,3.13l-2.47,19.81s0,.08,0,.12l3.43.43Z"/><line class="cls-1" x1="570.18" y1="78.08" x2="657.99" y2="89.24"/><line class="cls-1" x1="563.64" y1="112.44" x2="654.65" y2="123.5"/><line class="cls-1" x1="560.91" y1="147.15" x2="651.93" y2="158.21"/><line class="cls-1" x1="554.28" y1="180.54" x2="645.3" y2="191.6"/><line class="cls-1" x1="551.55" y1="215.25" x2="642.57" y2="226.31"/><line class="cls-1" x1="544.84" y1="249.37" x2="635.85" y2="260.44"/><line class="cls-1" x1="542.11" y1="284.08" x2="633.13" y2="295.14"/><path class="cls-2" d="M551.3,114.35l-1.77-2.2-4.84.21-.35-1.5-7.61-.29-5.49,2.56H508.88l-1.9-1.71-25.11-2.36s-.91-8.72-2.09-15.55-6.24-5.87-6.24-5.87-5.06-.95-6.24,5.87-2.09,15.55-2.09,15.55l-25.11,2.36-1.9,1.71H415.85l-5.5-2.56-7.6.29-.36,1.5-4.83-.21-1.78,2.2,2.28.5s-.11,3.13,4.33,3.55,13,.42,13,.42,5.15,11.34,8.89,11.66,15.14,0,15.14,0L451.35,135l-1.11,21.69s3.88,3,3.5,5.21-.42,11.52,1.14,13.27L452,231.82h-1.85L445,234.09l-.57,3.27-3.84,2.14-4.41,46.24h74.64l-4.4-46.24-3.84-2.14-.57-3.27-5.11-2.27h-1.85L492.2,175.2c1.56-1.75,1.51-11.09,1.13-13.27s3.51-5.21,3.51-5.21L495.72,135l11.94-4.55s11.41.32,15.14,0,8.89-11.66,8.89-11.66,8.56,0,13-.42,4.34-3.55,4.34-3.55ZM471.61,95.8a6.13,6.13,0,0,1-2.14.21c0-.7,1-1,1.24-1S472,95.51,471.61,95.8Zm3.86,0c-.36-.29.68-.8.89-.8s1.24.32,1.24,1A6.08,6.08,0,0,1,475.47,95.8ZM468,99.69l3.64,4.54h4.81l2.64-4.54v7.75l-3.74,3.74m-14.85-1.68,6.73,6.73h15.34l2.14-3.36m-32.6-2.57,6.53,20.54,17.81,3.61v54.8l8.92-8.42-2.81-64.6m-28.22,68.61,39.5,23.52m-33-19.63v42.35m5.61-39V224m5.18-28.65v19m7.44-14.75v29.49m5.19-26.23v26.23m5.21-23.65v23.65M507,111.43,495.72,135l11.94-4.55,1.21-17.34m-68.77-1.71L451.35,135l-11.93-4.55-1.21-17.34Zm6.55,126.64h53.14m-57.35,5.4h36.72"/><path class="cls-1" d="M165.88,266.39l-8.82-12H54.15l-8.85,12L1,326.52H41.46l.88-3.61H63.55s.07-27.66,26.34-38a.25.25,0,0,0,.14,0,43.08,43.08,0,0,1,31.19,0c26.37,10.3,26.41,38,26.41,38h21.21l.88,3.61h40.49Zm-115,29.9-16.5,26.63H8.12l39-55.19H68.64Zm85-10.64s-8.84-10.76-30.29-10.76S75,285.65,75,285.65V274.73s7.54-8.85,30.62-8.85,30.27,9,30.27,9Zm24.37,10.64-17.72-28.56h21.52l39,55.19H176.77ZM125,174.22s-10.65-52.63-11.89-135.36l1.88-2V26L112,23.4l2.31-2.73V16.78l-3.49,2.51s-1.64-1.75-2.9-1.56L106.94.5h-2.66l-.92,17.23c-1.29-.19-2.93,1.56-2.93,1.56l-3.49-2.51v3.89l2.31,2.73L96.14,26V36.88l1.93,2c-1.26,82.72-11.89,135.36-11.89,135.36Zm-15.19-147h1.88l.93,2.2v3.18l-1,2.94h-1.78Zm-1.71,11.14h2s2.19,100.82,10.58,135.74h-8S106.08,114.9,108.13,38.34ZM98.54,29.4l1-2.2h1.88v8.32H99.57l-1-2.94Zm2.54,8.94h2c2,76.56-4.54,135.74-4.54,135.74h-8C98.92,139.16,101.09,38.34,101.09,38.34ZM83.47,232.76H70.68l13.39-38.22H93Zm34.76-38.22h8.92l13.38,38.22H127.69Z"/><path class="cls-1" d="M147.19,235.63H119.92l-.07-.29c-.81-2.53-7-22.18-10.41-35.45a93.1,93.1,0,0,1-2.19-9.87H130Z"/><path class="cls-1" d="M103.47,190a99.66,99.66,0,0,1-2.09,9.87c-3.3,13.27-9.2,32.92-10,35.45l-.07.29H64L81.26,190Z"/><polygon class="cls-1" points="112.65 29.41 112.65 32.57 111.61 35.51 109.84 35.51 109.84 27.19 111.71 27.19 112.65 29.41"/><path class="cls-1" d="M120.68,174.07h-8s-6.56-59.17-4.53-135.73h2S112.3,139.17,120.68,174.07Z"/><path class="cls-1" d="M98.55,174.07h-8c8.4-34.9,10.57-135.73,10.57-135.73h2C105.13,114.9,98.55,174.07,98.55,174.07Z"/><polygon class="cls-1" points="140.54 232.77 127.7 232.77 118.24 194.53 127.14 194.53 140.54 232.77"/><polygon class="cls-1" points="92.97 194.53 83.47 232.77 70.69 232.77 84.06 194.53 92.97 194.53"/><polygon class="cls-1" points="203.09 322.91 176.78 322.91 160.26 296.29 142.57 267.73 164.07 267.73 203.09 322.91"/><path class="cls-1" d="M135.91,274.9v10.76S127,274.9,105.6,274.9,75,285.65,75,285.65V274.72s7.54-8.84,30.62-8.84S135.91,274.9,135.91,274.9Z"/><polygon class="cls-1" points="68.63 267.73 50.92 296.29 34.42 322.91 8.12 322.91 47.16 267.73 68.63 267.73"/><rect class="cls-1" x="78.66" y="178.15" width="53.86" height="5.89"/><rect class="cls-1" x="51.74" y="240.62" width="109.47" height="8.7"/><polygon class="cls-2" points="206.04 99.14 201.88 106.29 204.2 88.33 206.04 99.14"/><polygon class="cls-2" points="206.04 99.14 204.2 88.33 204.29 87.64 204.29 87.42 206.04 99.14"/><polygon class="cls-2" points="237.92 104.64 235.81 104.64 235.81 100.51 237.92 104.64"/><path class="cls-2" d="M230.76,76.33l-2.69-.06q.85,0,1.8,0Z"/><path class="cls-2" d="M236.37,78l-2.48-1.11A9.67,9.67,0,0,1,236.37,78Z"/><polygon class="cls-2" points="206.04 99.14 204.2 88.33 203.95 86.86 204.23 87.08 204.29 87.11 204.29 87.42 206.04 99.14"/><polygon class="cls-2" points="240.09 201.73 240.09 201.72 234.54 188.63 234.54 188.61 237.6 112.55 237.92 104.64 241.04 103.43 241.83 105.48 243.44 117 254.21 193.88 240.09 201.73"/><path class="cls-2" d="M241,103.43l-3.13,1.21-2.1-4.13v4.13l-5,2.76-1.14.63-3.4-4.11-2.47-3-5.95-6.47,3-3.39c-2.15-1.24,0-4.44,0-4.44.6-5.64,7.9-5.19,7.9-5.19s8-.83,10.22,5.93c0,0,2.48,1.17,0,5.13l1.51,5-1.2,1.58Z"/><polygon class="cls-2" points="237.92 104.64 234.35 110.06 216.62 137 214.68 141.69 209.85 153.26 205.11 153.26 203.78 147.93 210.83 132.63 232.35 108.53 235.81 104.64 237.92 104.64"/><polygon class="cls-2" points="237.92 104.64 235.81 104.64 235.81 100.51 237.92 104.64"/><path class="cls-2" d="M230.77,76.33h0l-.89-.06q-.94,0-1.8,0h0v-9.1Z"/><path class="cls-2" d="M230.76,76.33l-2.69-.06q.85,0,1.8,0Z"/><path class="cls-2" d="M236.37,78l-2.48-1.11A9.67,9.67,0,0,1,236.37,78Z"/><path class="cls-2" d="M240.09,84.61v.16L239,87.4c-2.22-6.76-10.23-5.93-10.23-5.93s-7.3-.45-7.9,5.19l-.8-1.52-.77-1.49a7.24,7.24,0,0,1,1.1-3.64,6.72,6.72,0,0,1,1.31-1.55,8.19,8.19,0,0,1,2.31-1.39h0a12.6,12.6,0,0,1,4-.79h0l2.69.06h0a15.51,15.51,0,0,1,3.11.6L236.37,78a7.92,7.92,0,0,1,3,3.27A7.86,7.86,0,0,1,240.09,84.61Z"/><path class="cls-2" d="M249.28,76.87l-10,4.44a7.28,7.28,0,0,0-1.39-2v0Z"/><path class="cls-2" d="M241.83,70.78,236.37,78a9.8,9.8,0,0,0-2.48-1.11Z"/><polygon class="cls-2" points="251.76 83.05 240.09 84.78 240.09 84.61 240.11 82.67 251.76 83.05"/><path class="cls-2" d="M224.08,77.06l0,0a8.14,8.14,0,0,0-2.31,1.39l-6.88-7.22Z"/><line class="cls-2" x1="220.43" y1="80.01" x2="211.51" y2="80.01"/><line class="cls-2" x1="211.51" y1="80.79" x2="219.33" y2="81.83"/><polygon class="cls-2" points="220.11 85.14 214.1 85.14 212.79 83.72 219.34 83.65 220.11 85.14"/><path class="cls-2" d="M275,128.94l-4.06,6.82a5.14,5.14,0,0,0-4.29-2.15l-5.08,6.44,2.38,1.8.45,1.64-2.24,2.64,1.78,1.78v0l0,0,0,0-6.54,9.44-2.53,3.65-.63-5.56-2.1-18.66.79-.09,5.51-8.4,4.76-7.27Z"/><polygon class="cls-2" points="258.37 128.37 252.86 136.77 252.07 136.85 250.44 122.33 250.42 122.33 249.28 112.17 251.77 122.55 258.27 128.31 258.37 128.37"/><polygon class="cls-2" points="258.27 193.89 254.21 193.89 243.44 117 241.83 105.47 244.84 106.29 249.28 112.17 250.42 122.33 250.44 122.33 252.07 136.85 254.18 155.51 254.8 161.07 254.21 161.94 254.89 161.88 257.02 180.8 258.27 193.89"/><polygon class="cls-2" points="234.22 196.73 233.89 205.18 237.03 206.2 209.85 225.69 207.22 227.29 207.22 167.93 209.85 153.26 214.67 141.69 216.62 137 234.35 110.06 237.92 104.64 237.59 112.55 234.54 188.61 234.54 188.63 234.22 196.73"/><path class="cls-2" d="M201.87,29.94h-3.42s-4.32-3.81,1.07-6.55,6.77-5.7,6.77-5.7S209.64,30.14,201.87,29.94Z"/><rect class="cls-2" x="198.73" y="29.94" width="5.3" height="3.84"/><rect class="cls-2" x="193.77" y="33.78" width="15.46" height="4.35"/><rect class="cls-2" x="194.8" y="38.12" width="13.36" height="1.58"/><rect class="cls-2" x="197.51" y="41.81" width="7.94" height="1.69"/><polygon class="cls-2" points="202.4 45.58 202.4 56.19 199.51 55.08 197.96 54.49 196.65 46.11 199.51 45.84 202.4 45.58"/><polygon class="cls-2" points="203.78 43.51 203.78 59.27 199.51 59.27 199.51 55.08 202.4 56.19 202.4 45.58 199.51 45.84 199.51 43.51 203.78 43.51"/><path class="cls-2" d="M212.56,87.95l-2.21,3.8L206,99.14l-1.75-11.72v-.31l-.06,0-1.67-11.17L201.5,65.29l-1.43-6h3.71V44.86l3.45,6v8.5s2.06,9.26,2.85,11.74A72.06,72.06,0,0,1,211.5,80c0,.28.07.54.1.79.13,1.12.2,1.87.2,1.87Z"/><polygon class="cls-2" points="201.5 65.29 202.56 75.91 200.06 59.27 201.5 65.29"/><polygon class="cls-2" points="235.81 104.64 232.35 108.53 210.83 132.63 207.59 125.42 205.71 122.86 206.84 120.21 204.96 117.8 205.71 112.69 199.25 110.06 199.25 97.64 203.78 86.73 203.95 86.86 204.2 88.33 201.88 106.29 206.04 99.14 210.35 91.74 212.56 87.94 211.81 82.67 212.79 83.72 214.1 85.14 214.12 85.14 214.82 85.9 214.82 87.4 216.78 89.6 216.38 91.55 217.9 94.49 223.85 100.96 226.32 103.93 229.72 108.03 230.86 107.4 235.81 104.64"/><polygon class="cls-2" points="206.04 99.14 204.2 88.33 203.95 86.86 203.24 82.67 202.56 75.91 204.23 87.08 204.29 87.42 206.04 99.14"/><polygon class="cls-2" points="261.32 242.05 261.32 248.36 198.56 248.36 198.56 242.05 224.99 242.05 224.97 242.15 225.02 242.05 261.32 242.05"/><polygon class="cls-2" points="225.02 242.05 224.97 242.15 224.99 242.05 225.02 242.05"/><polygon class="cls-2" points="264.33 253.63 194.5 253.63 198.56 248.36 261.32 248.36 264.33 253.63"/><polygon class="cls-2" points="263.13 253.63 263.13 267.63 229.94 267.63 229.94 261.76 223.7 261.76 223.7 267.63 197.06 267.63 197.06 253.63 263.13 253.63"/><rect class="cls-2" x="192.09" y="273.05" width="75.25" height="40.7"/><rect class="cls-2" x="188.17" y="267.63" width="85.18" height="5.42"/><polyline class="cls-2" points="229.94 267.63 223.7 267.63 223.7 261.76"/><polygon class="cls-2" points="240.09 201.72 240.09 207.21 226.35 215.61 209.85 225.69 237.03 206.2 233.88 205.18 234.22 196.73 234.54 188.63 240.09 201.72"/><line class="cls-2" x1="233.88" y1="119.6" x2="229.94" y2="173.16"/><polygon class="cls-2" points="258.27 242.05 202.48 242.05 209.85 232.57 209.85 225.69 226.35 215.61 240.09 207.21 240.09 201.73 254.21 193.89 254.21 237.37 258.27 242.05"/><line class="cls-2" x1="250.06" y1="234.23" x2="250.06" y2="202.91"/><path class="cls-2" d="M246.36,229.11"/><path class="cls-2" d="M246.36,209.59"/><line class="cls-2" x1="223.07" y1="222.21" x2="223.07" y2="232.26"/><polygon class="cls-2" points="225.02 242.05 224.97 242.15 224.99 242.05 225.02 242.05"/><path class="cls-1" d="M212.37,313.75h0Z"/><path class="cls-1" d="M246.2,313.75h0Z"/><path class="cls-1" d="M229.57,304.14"/><path class="cls-1" d="M170.43,304.14"/><rect class="cls-1" x="336.72" y="197.24" width="46.36" height="129.28"/><polygon class="cls-1" points="330.9 197.24 330.16 208.6 310.29 208.6 310.29 197.24 330.9 197.24"/><polygon class="cls-1" points="330.16 208.6 329.43 219.96 294.66 219.96 294.66 208.6 330.16 208.6"/><rect class="cls-1" x="324.82" y="166.11" width="70.16" height="3.7"/><rect class="cls-1" x="355.05" y="187.86" width="9.69" height="9.37"/><polygon class="cls-1" points="329.43 219.96 328.69 231.33 282.27 231.33 282.27 219.96 329.43 219.96"/><polygon class="cls-1" points="328.69 231.33 327.95 242.69 269.15 242.69 269.15 231.33 328.69 231.33"/><polygon class="cls-1" points="327.95 242.69 327.22 254.05 253.52 254.05 253.52 242.69 327.95 242.69"/><polygon class="cls-1" points="327.23 254.05 326.47 265.41 241.13 265.41 241.13 254.05 327.23 254.05"/><polygon class="cls-1" points="326.47 265.41 325.73 276.8 222.83 276.8 222.83 265.41 326.47 265.41"/><polygon class="cls-1" points="325.73 276.8 325.02 288.16 210.6 288.16 210.6 276.8 325.73 276.8"/><polygon class="cls-1" points="325.01 288.16 324.26 299.52 192.41 299.52 192.41 288.16 325.01 288.16"/><polygon class="cls-1" points="324.26 299.52 322.52 326.53 155.01 326.53 178.61 299.52 324.26 299.52"/><polygon class="cls-1" points="336.71 197.23 336.71 326.53 322.52 326.53 324.26 299.52 325.01 288.16 325.74 276.8 326.47 265.41 327.23 254.05 327.94 242.69 328.68 231.32 329.44 219.96 330.15 208.6 330.91 197.23 336.71 197.23"/><polygon class="cls-1" points="397.28 326.52 383.07 326.52 383.07 197.24 388.89 197.24 389.63 208.6 390.36 219.96 391.1 231.33 391.85 242.69 392.57 254.05 393.31 265.42 394.06 276.8 394.79 288.16 395.53 299.52 397.28 326.52"/><polygon class="cls-1" points="409.5 197.24 409.5 208.6 389.63 208.6 388.89 197.24 409.5 197.24"/><polygon class="cls-1" points="425.12 208.6 425.12 219.96 390.36 219.96 389.63 208.6 425.12 208.6"/><rect class="cls-1" x="324.82" y="169.81" width="70.16" height="10.08"/><rect class="cls-1" x="324.82" y="179.9" width="70.16" height="3.7"/><polygon class="cls-1" points="388.89 183.6 388.89 197.23 364.74 197.23 364.74 187.86 355.05 187.86 355.05 197.23 330.9 197.23 330.9 183.6 388.89 183.6"/><polygon class="cls-1" points="437.52 219.96 437.52 231.33 391.1 231.33 390.36 219.96 437.52 219.96"/><polygon class="cls-1" points="450.64 231.33 450.64 242.69 391.85 242.69 391.1 231.33 450.64 231.33"/><polygon class="cls-1" points="466.27 242.69 466.27 254.05 392.57 254.05 391.84 242.69 466.27 242.69"/><polygon class="cls-1" points="478.66 254.05 478.66 265.42 393.32 265.42 392.57 254.05 478.66 254.05"/><polygon class="cls-1" points="496.96 265.42 496.96 276.8 394.06 276.8 393.32 265.42 496.96 265.42"/><polygon class="cls-1" points="509.2 276.8 509.2 288.16 394.79 288.16 394.06 276.8 509.2 276.8"/><polygon class="cls-1" points="527.39 288.16 527.39 299.52 395.53 299.52 394.79 288.16 527.39 288.16"/><polygon class="cls-1" points="564.77 326.52 397.28 326.52 395.53 299.52 541.19 299.52 564.77 326.52"/><line class="cls-1" x1="336.72" y1="202.92" x2="383.07" y2="202.92"/><line class="cls-1" x1="336.72" y1="214.28" x2="383.07" y2="214.28"/><line class="cls-1" x1="383.07" y1="226.43" x2="336.72" y2="226.43"/><line class="cls-1" x1="336.72" y1="236.62" x2="383.07" y2="236.62"/><line class="cls-1" x1="336.72" y1="247.98" x2="383.07" y2="247.98"/><line class="cls-1" x1="383.07" y1="260.13" x2="336.72" y2="260.13"/><line class="cls-1" x1="336.72" y1="270.72" x2="383.07" y2="270.72"/><line class="cls-1" x1="336.72" y1="282.09" x2="383.07" y2="282.09"/><line class="cls-1" x1="383.07" y1="294.23" x2="336.72" y2="294.23"/><line class="cls-1" x1="337.59" y1="305.27" x2="383.94" y2="305.27"/><line class="cls-1" x1="337.59" y1="316.64" x2="383.94" y2="316.64"/><path class="cls-1" d="M317.32,316.11"/><path class="cls-1" d="M307,308.84"/><path class="cls-1" d="M250.32,304.61"/></g></g></svg>