<svg xmlns="http://www.w3.org/2000/svg" viewBox="0 0 299.32 306"><defs><style>.cls-1,.cls-3{fill:#141414;}.cls-1{opacity:0.8;}.cls-2,.cls-4,.cls-5,.cls-7,.cls-8{fill:#fff;}.cls-10,.cls-2{stroke:#ff0;stroke-width:6px;}.cls-10,.cls-11,.cls-12,.cls-2,.cls-4,.cls-5{stroke-miterlimit:10;}.cls-4{stroke:#141414;}.cls-12,.cls-4,.cls-5{stroke-width:3px;}.cls-5{stroke:#020000;}.cls-6{fill:#070000;}.cls-7,.cls-9{opacity:0.2;}.cls-10,.cls-12{fill:none;}.cls-11{fill:#60f1fc;stroke:#000;stroke-width:7px;opacity:0.4;}.cls-12{stroke:#ccc;}.cls-13{fill:#e6e6e6;opacity:0.62;}</style></defs><title>logo_audit_cat</title><g id="Layer_2" data-name="Layer 2"><g id="Layer_2-2" data-name="Layer 2"><path class="cls-1" d="M295.7,44.06c-.7-7.91-3.24-21.91-13.84-38.57a5.09,5.09,0,0,0-5.75-2.13A117,117,0,0,0,246.5,16.85c-11,7-18.4,14.45-24.79,20.84a191.62,191.62,0,0,0-15,16.87,5.08,5.08,0,0,1-5.81,1.6,147.13,147.13,0,0,0-50-9.78v0h-2.08v0a147.13,147.13,0,0,0-50,9.78,5.08,5.08,0,0,1-5.81-1.6,191.62,191.62,0,0,0-15-16.87c-6.4-6.39-13.77-13.79-24.79-20.84A117,117,0,0,0,23.69,3.36a5.09,5.09,0,0,0-5.75,2.13C7.33,22.15,4.8,36.14,4.1,44.06,3.35,52.45,4,61.69,4.49,69a177.45,177.45,0,0,0,3,23.68,162.81,162.81,0,0,0,6.33,21.47c2.94,7.54,4.74,10.06,5.65,16.28.6,4.07.4,7.3,0,13.75-.52,8.42-1.24,9.39-2.07,18.42-.7,7.55-1.18,13-.55,20.1a86.57,86.57,0,0,0,2.75,14.87,124.49,124.49,0,0,0,9.91,26.15,120.88,120.88,0,0,0,11.87,18.78C50.52,254.09,61,261,81.65,274.06c16.06,10.17,9.75,4.89,34.64,19.36,5.63,3.27,14.07,8.26,26,9.17a50.08,50.08,0,0,0,7.26,0,5.32,5.32,0,0,1,.73,0,50.08,50.08,0,0,0,7.26,0c11.92-.91,20.35-5.9,26-9.17,24.9-14.47,18.58-9.19,34.64-19.36,20.67-13.1,31.14-20,40.24-31.58a120.89,120.89,0,0,0,11.87-18.78,124.49,124.49,0,0,0,9.91-26.15,86.57,86.57,0,0,0,2.75-14.87c.62-7.07.15-12.54-.55-20.1-.83-9-1.55-10-2.07-18.42-.4-6.45-.6-9.68,0-13.75.92-6.22,2.72-8.75,5.65-16.28a162.8,162.8,0,0,0,6.33-21.47,177.44,177.44,0,0,0,3-23.68C295.83,61.69,296.44,52.45,295.7,44.06Z"/><path class="cls-2" d="M92.86,111.26a39.81,39.81,0,0,1-5.19-6.67c-3.87-7-3.5-14.37-7.09-26.5a127.07,127.07,0,0,0-6.36-16.34c-8.14-18.4-36-63.38-52.45-58.36C9.85,7,4.56,36.69,3.76,42.39c-.16,1.16-.3,2.38-.3,2.38-.83,7-.42,13,.47,24.91A177.44,177.44,0,0,0,7,93.35a162.81,162.81,0,0,0,6.4,21.45c3,7.53,4.77,10,5.7,16.26.61,4.07.42,7.3,0,13.75-.49,8.42-1.21,9.39-2,18.42-.67,7.56-1.13,13-.49,20.1a86.57,86.57,0,0,0,2.8,14.86,124.49,124.49,0,0,0,10,26.12,120.88,120.88,0,0,0,11.93,18.75C50.54,254.65,61,261.5,81.74,274.53c16.09,10.12,9.76,4.86,34.7,19.25,5.64,3.25,14.09,8.21,26,9.09a50.07,50.07,0,0,0,7.26,0,5.34,5.34,0,0,1,.73,0,50.08,50.08,0,0,0,7.26-.05c11.91-1,20.33-6,26-9.25,24.85-14.55,18.55-9.24,34.58-19.47,30.28-19.31,40.14-31.71,40.14-31.71,4.16-15.61,1.29-24.26-2-29.24-15.31-23.37-60.92-3-86.89-29.39-17.5-17.8-1.53-38.31-20.36-51.17C133.13,121.65,109.78,129.82,92.86,111.26Z"/><path class="cls-3" d="M171.79,212.81c-.1-.8-1-1.23-2.77-2.1a17.85,17.85,0,0,0-10.13-1.43,22.48,22.48,0,0,0-5.92,1.56,22.48,22.48,0,0,0-5.92-1.56,17.85,17.85,0,0,0-10.13,1.43c-1.78.87-2.67,1.31-2.77,2.1-.28,2.16,5.26,5.52,10.29,8.59a5.15,5.15,0,0,1,1.73,1.55c1,1.46.34,2.34,1,4.14a6.44,6.44,0,0,0,3.62,3.62,10.2,10.2,0,0,0,4.3,0,6.44,6.44,0,0,0,3.62-3.62c.7-1.8.05-2.68,1-4.14a5.15,5.15,0,0,1,1.73-1.55C166.54,218.34,172.07,215,171.79,212.81Z"/><path class="cls-3" d="M122.87,254.94a29.11,29.11,0,0,0,8,1.6,25.1,25.1,0,0,0,7.77-.77,27.86,27.86,0,0,0,3.62-1.28,26.75,26.75,0,0,0,3.35-1.83,24.34,24.34,0,0,0,5.63-5l1.44-1.79,1.57,1.67a30.94,30.94,0,0,0,5.93,4.91,31.33,31.33,0,0,0,7,3.32,32.16,32.16,0,0,0,7.75,1.5,39.08,39.08,0,0,0,8.16-.28,25.63,25.63,0,0,1-8.11,2.24,28.11,28.11,0,0,1-16.75-3.53,29.69,29.69,0,0,1-6.89-5.42l3-.11a24.86,24.86,0,0,1-6.77,5.76,23.22,23.22,0,0,1-8.33,2.92,22.89,22.89,0,0,1-8.68-.35A21.27,21.27,0,0,1,122.87,254.94Z"/><path class="cls-4" d="M66.5,160.48c24.47-16.92,43.59-8.84,53.28,19a2.29,2.29,0,0,1-1.36,2.91c-18.18,6.48-38-5.55-52.14-17.78A2.62,2.62,0,0,1,66.5,160.48Z"/><circle class="cls-3" cx="94.21" cy="166.54" r="13.45" transform="translate(-84.45 235.05) rotate(-81.48)"/><path class="cls-5" d="M234.16,160.48c-24.47-16.92-43.59-8.84-53.28,19a2.29,2.29,0,0,0,1.36,2.91c18.18,6.48,38-5.55,52.14-17.78A2.62,2.62,0,0,0,234.16,160.48Z"/><circle class="cls-6" cx="206.45" cy="166.54" r="13.45" transform="translate(-22.39 32.41) rotate(-8.52)"/><path class="cls-7" d="M270.07,92.3c3.52-26.27,19.84-72.88-.75-68.57-1,.22-23.94,22.69-32.8,36.61a4.19,4.19,0,0,0,.62,4.92l28.64,28.8C267.42,95.71,269.74,94.76,270.07,92.3Z"/><path class="cls-8" d="M23.82,13.93"/><path class="cls-9" d="M29.35,87.57C25.83,61.3,9.51,14.69,30.1,19c1,.22,23.94,22.69,32.8,36.61a4.19,4.19,0,0,1-.62,4.92L33.64,89.33C32,91,29.68,90,29.35,87.57Z"/><path class="cls-10" d="M296,44.06c-.7-7.91-3.24-21.91-13.84-38.57a5.09,5.09,0,0,0-5.75-2.13,117,117,0,0,0-29.61,13.49c-11,7-18.4,14.45-24.79,20.84a191.62,191.62,0,0,0-15,16.87,5.08,5.08,0,0,1-5.81,1.6,147.13,147.13,0,0,0-50-9.78v0h-2.08v0a147.13,147.13,0,0,0-50,9.78,5.08,5.08,0,0,1-5.81-1.6,191.62,191.62,0,0,0-15-16.87C72,31.3,64.59,23.89,53.57,16.85A115.25,115.25,0,0,0,35,7.26c-4.38-3.14-8.57-4.77-12.25-4.11a5.09,5.09,0,0,0-4.36,2C8.84,12.68,4.48,37.25,3.76,42.39c-.16,1.16-.3,2.38-.3,2.38-.83,7-.42,13,.47,24.91A177.44,177.44,0,0,0,7,93.35a162.81,162.81,0,0,0,6.4,21.45c3,7.53,4.77,10,5.7,16.26.61,4.07.42,7.3,0,13.75-.49,8.42-1.21,9.39-2,18.42-.67,7.56-1.13,13-.49,20.1a86.57,86.57,0,0,0,2.8,14.86,124.49,124.49,0,0,0,10,26.12,120.88,120.88,0,0,0,11.93,18.75C50.54,254.65,61,261.5,81.74,274.53c16.09,10.12,9.76,4.86,34.7,19.25,5.64,3.25,14.09,8.21,26,9.09a50.07,50.07,0,0,0,7.26,0,5.34,5.34,0,0,1,.73,0,50.08,50.08,0,0,0,7.26-.05c11.91-1,20.33-6,26-9.25,12.13-7.1,16.84-9.47,20.34-11.23a126.28,126.28,0,0,0,14.43-8.28c20.67-13.1,31.14-20,40.24-31.58a120.89,120.89,0,0,0,11.87-18.78,124.49,124.49,0,0,0,9.91-26.15,86.57,86.57,0,0,0,2.75-14.87c.62-7.07.15-12.54-.55-20.1-.83-9-1.55-10-2.07-18.42-.4-6.45-.6-9.68,0-13.75.92-6.22,2.72-8.75,5.65-16.28a162.8,162.8,0,0,0,6.33-21.47,177.44,177.44,0,0,0,3-23.68C296.1,61.69,296.72,52.45,296,44.06Z"/><path class="cls-3" d="M115.3,236c-6.27,2.81-12.39,5.78-18.3,9.13-2.94,1.7-5.86,3.41-8.69,5.27s-5.64,3.75-8.34,5.78-5.4,4.09-8,6.27-5.11,4.45-7.59,6.76c-4.94,4.66-9.59,9.64-14.11,14.8a97.26,97.26,0,0,1,12.45-16.45c2.33-2.55,4.84-4.93,7.4-7.26s5.29-4.46,8.06-6.53A112.17,112.17,0,0,1,95.91,243,97.91,97.91,0,0,1,115.3,236Z"/><path class="cls-3" d="M113.8,232.38a163.58,163.58,0,0,0-22.1,5.39c-3.58,1.19-7.14,2.44-10.61,3.92s-6.91,3-10.24,4.75a138.53,138.53,0,0,0-19.16,11.94,164.15,164.15,0,0,0-17.23,14.86,94.22,94.22,0,0,1,15.78-16.7,102.3,102.3,0,0,1,9.26-6.92c3.22-2.12,6.57-4.05,10-5.86A106.08,106.08,0,0,1,91,235.53,94.49,94.49,0,0,1,113.8,232.38Z"/><path class="cls-3" d="M112.91,229.1a186.67,186.67,0,0,0-24.08,2.32l-5.92,1.11c-2,.45-3.92.85-5.86,1.34-3.88,1-7.76,2-11.55,3.33a163.83,163.83,0,0,0-22.24,9.13,221.88,221.88,0,0,0-21,12,111.15,111.15,0,0,1,9.58-7.55c1.66-1.19,3.38-2.28,5.08-3.4s3.47-2.14,5.26-3.13c3.53-2.06,7.23-3.81,10.95-5.52,1.88-.8,3.76-1.62,5.68-2.32l2.87-1.09,2.91-1a119.58,119.58,0,0,1,23.94-5.23A107.19,107.19,0,0,1,112.91,229.1Z"/><path class="cls-3" d="M190.11,236A97.91,97.91,0,0,1,209.5,243a112.17,112.17,0,0,1,17.73,10.71c2.77,2.07,5.47,4.24,8.06,6.53s5.07,4.71,7.4,7.26A97.25,97.25,0,0,1,255.13,284c-4.53-5.17-9.18-10.14-14.11-14.8-2.49-2.31-5-4.6-7.59-6.76s-5.24-4.28-8-6.27-5.49-4-8.34-5.78-5.75-3.58-8.69-5.27C202.51,241.75,196.38,238.77,190.11,236Z"/><path class="cls-3" d="M191.6,232.38a94.49,94.49,0,0,1,22.76,3.15,106.08,106.08,0,0,1,21.57,8.24c3.41,1.8,6.75,3.74,10,5.86a102.34,102.34,0,0,1,9.26,6.92,94.22,94.22,0,0,1,15.78,16.7,164.15,164.15,0,0,0-17.23-14.86,138.53,138.53,0,0,0-19.16-11.94c-3.34-1.74-6.77-3.3-10.24-4.75s-7-2.73-10.61-3.92A163.58,163.58,0,0,0,191.6,232.38Z"/><path class="cls-3" d="M192.5,229.1a107.19,107.19,0,0,1,24.4,0,119.58,119.58,0,0,1,23.94,5.23l2.91,1,2.87,1.09c1.92.7,3.8,1.52,5.68,2.32,3.72,1.71,7.42,3.46,10.95,5.52,1.79,1,3.53,2.06,5.26,3.13s3.42,2.22,5.08,3.4a111.15,111.15,0,0,1,9.58,7.55,221.88,221.88,0,0,0-21-12,163.83,163.83,0,0,0-22.24-9.13c-3.79-1.3-7.66-2.34-11.55-3.33-1.94-.49-3.91-.89-5.86-1.34l-5.92-1.11A186.67,186.67,0,0,0,192.5,229.1Z"/><circle class="cls-11" cx="223.74" cy="161.33" r="55.63" transform="translate(62.12 384.85) rotate(-89.92)"/><circle class="cls-12" cx="224.1" cy="161.33" r="55.63" transform="translate(62.48 385.21) rotate(-89.92)"/><path class="cls-13" d="M267.8,161.45c0,26.19-34.65,38.17-36.35,36.25s23.65-16.83,22.87-38.35c-.73-20.22-23.94-32.89-22.77-34.26C232.89,123.53,267.81,135.15,267.8,161.45Z"/></g></g></svg>