<svg xmlns="http://www.w3.org/2000/svg" viewBox="0 0 398.03 361.38"><defs><style>.cls-1{opacity:0.67;}.cls-2{fill:#754c24;}.cls-3,.cls-4{fill:#fff;}.cls-3{stroke:#ff0;}.cls-3,.cls-4,.cls-7,.cls-8,.cls-9{stroke-miterlimit:10;}.cls-3,.cls-7{stroke-width:6px;}.cls-4{stroke:#020000;stroke-width:5px;}.cls-5{fill:#e0b892;opacity:0.66;}.cls-6{fill:#070000;}.cls-11,.cls-7,.cls-9{fill:none;}.cls-7{stroke:#fff92c;}.cls-8{fill:#60f1fc;stroke:#000;stroke-width:7px;opacity:0.4;}.cls-9{stroke:#ccc;stroke-width:3px;}.cls-10{fill:#e6e6e6;opacity:0.62;}</style></defs><title>arjan_audit_logo_1</title><g id="Layer_2" data-name="Layer 2"><g id="Layer_2-2" data-name="Layer 2"><g class="cls-1"><path class="cls-2" d="M198.58,324.73c20,0,40.73,8,60.55,5.47,11.48-1.46,21.7-4.57,31.66-11.13,7.89-5.2,14.56-15.35,20.32-23.09,10.6-14.25,20.77-34.71,26-52.15,6.36-21.07-3.07-43.26-5.62-64.64-2.61-21.9,7.41-42.35,3.41-64a12.47,12.47,0,0,1,1.14-7.77c6.45-13,11.78-25.4,11.21-40.81-.6-16.44,39.29-4.73,29-16.76-1.38-1.62-46.38-19.69-48.42-19.13-15,4.12-16.22,11-24.33,20.26C299.94,55,295.32,60,290.77,63c-6.2,4.05-8.23,0-15.37-1.87a368.83,368.83,0,0,0-76.46-12,368.83,368.83,0,0,0-76.49,11.82c-7.14,1.89-9.18,5.9-15.37,1.83-4.54-3-9.15-8-12.71-12.09-8-9.21-24.92-18.83-27-17.9C-28.55,75.41,51.2,49.87,50.56,66.2c-.6,15.35,4.65,27.71,11,40.7A13,13,0,0,1,62.75,115c-4,21.6,5.94,42,3.27,63.88-2.61,21.37-12.1,43.53-5.79,64.62,5.22,17.45,15.33,37.95,25.9,52.22,5.74,7.75,12.37,17.92,20.25,23.14,9.94,6.59,20.16,9.72,31.63,11.21C157.83,332.61,178.61,324.7,198.58,324.73Z"/></g><path class="cls-3" d="M279.81,281.66c2-15.05,1.09-22.56-7.5-33.89-13.13-17.32-34.1-35.23-42.46-55.78-9.38-23.06,13.55-44.69,10.62-68.5-1.79-14.55-7.86-26.62-13.54-39.58-5.24-11.94-6.79-20.65-7-32.85-6-.4-11.9-1.64-17.74-1.92-5.84.27-11.78.56-17.75.94-.23,12.21-1.81,21.84-7.08,33.77-5.71,12.94-11.81,25-13.64,39.54-3,23.8,19.87,45.49,10.44,68.53-8.41,20.53-29.43,38.38-42.61,55.67-8.62,11.31-9.57,18.81-7.59,33.87,1.77,13.5,5.84,26.93,10.44,39.53.75,2,1.54,5,2.54,7.66,2.5.58,5,1,7.67,1.4,18.72,2.57,38.36-5.34,57.23-5.31s38.49,8,57.21,5.46c2.62-.35,5.18-2.67,7.67-3.24,1-2.68,1.81-5.61,2.56-7.66C273.9,306.71,278,295.16,279.81,281.66Z"/><path class="cls-4" d="M98.27,154.76c20.34-19,39.16-14.17,52,10.28a2.14,2.14,0,0,1-.86,2.89c-16,8.5-35.95.08-50.74-9.3A2.46,2.46,0,0,1,98.27,154.76Z"/><path class="cls-5" d="M70.06,92.08C67,77.92,54.7,52.52,68.7,55.39c.71.14,16.75,12.8,23.11,20.49a1.85,1.85,0,0,1-.28,2.62L73,93.14A1.85,1.85,0,0,1,70.06,92.08Z"/><path class="cls-6" d="M218.56,242.31c-5.1-2.92-12.27-3.28-19.52-3h-.72c-7.26-.26-14.43.08-19.53,3-19.27,11-10.14,19.57,3.34,26.88,6.23,3.38,11.26,5.57,16.12,5.93a2.32,2.32,0,0,0,.76,0c4.86-.35,9.89-2.52,16.14-5.89C228.65,261.91,237.79,253.35,218.56,242.31Z"/><path class="cls-5" d="M328.15,92.42c3.12-14.15,3.78-22.59,1.45-36.69a1.84,1.84,0,0,0-3.09-1,260.89,260.89,0,0,0-20.07,21.45,1.85,1.85,0,0,0,.27,2.62l18.49,14.69A1.85,1.85,0,0,0,328.15,92.42Z"/><path class="cls-4" d="M307.34,157.83c-20.29-19.09-39.12-14.28-52,10.14a2.14,2.14,0,0,0,.86,2.89c15.93,8.54,35.95.17,50.76-9.17A2.46,2.46,0,0,0,307.34,157.83Z"/><circle class="cls-6" cx="124.77" cy="156.56" r="12.59" transform="translate(-31.96 281.12) rotate(-89.92)"/><circle class="cls-6" cx="280.52" cy="159.57" r="12.59" transform="translate(120.58 439.87) rotate(-89.92)"/><path class="cls-7" d="M198.58,324.73c20,0,40.73,8,60.55,5.47,11.48-1.46,21.7-4.57,31.66-11.13,7.89-5.2,14.56-15.35,20.32-23.09,10.6-14.25,20.77-34.71,26-52.15,6.36-21.07-3.07-43.26-5.62-64.64-2.61-21.9,7.41-42.35,3.41-64a12.47,12.47,0,0,1,1.14-7.77c6.45-13,11.78-25.4,11.21-40.81-.6-16.44,39.29-4.73,29-16.76-1.38-1.62-46.38-19.69-48.42-19.13-15,4.12-16.22,11-24.33,20.26C299.94,55,295.32,60,290.77,63c-6.2,4.05-8.23,0-15.37-1.87a368.83,368.83,0,0,0-76.46-12,368.83,368.83,0,0,0-76.49,11.82c-7.14,1.89-9.18,5.9-15.37,1.83-4.54-3-9.15-8-12.71-12.09-8-9.21-24.92-18.83-27-17.9C-28.55,75.41,51.2,49.87,50.56,66.2c-.6,15.35,4.65,27.71,11,40.7A13,13,0,0,1,62.75,115c-4,21.6,5.94,42,3.27,63.88-2.61,21.37-12.1,43.53-5.79,64.62,5.22,17.45,15.33,37.95,25.9,52.22,5.74,7.75,12.37,17.92,20.25,23.14,9.94,6.59,20.16,9.72,31.63,11.21C157.83,332.61,178.61,324.7,198.58,324.73Z"/><circle class="cls-8" cx="291.12" cy="168.15" r="57.08" transform="translate(122.59 459.05) rotate(-89.92)"/><circle class="cls-9" cx="291.49" cy="168.15" r="57.08" transform="translate(122.95 459.42) rotate(-89.92)"/><path class="cls-10" d="M336.33,168.28c0,26.87-35.55,39.16-37.29,37.2-1.61-1.82,24.26-17.27,23.46-39.34-.75-20.74-24.56-33.75-23.36-35.15C300.5,129.38,336.33,141.3,336.33,168.28Z"/><rect class="cls-11" width="398.03" height="361.38"/></g></g></svg>