<svg xmlns="http://www.w3.org/2000/svg" viewBox="0 0 323.09 300"><defs><style>.cls-1{fill:#141414;}.cls-2,.cls-3,.cls-4,.cls-6,.cls-7{fill:#fff;}.cls-2,.cls-9{stroke:#f0f;stroke-width:6px;}.cls-12,.cls-2,.cls-3,.cls-4,.cls-9{stroke-miterlimit:10;}.cls-3{stroke:#141414;}.cls-3,.cls-4{stroke-width:3px;}.cls-4{stroke:#020000;}.cls-5{fill:#070000;}.cls-6,.cls-8{opacity:0.2;}.cls-9{fill:none;}.cls-10{fill:#fff8a4;}.cls-11{fill:#f0f;}.cls-12,.cls-14{fill:#f90;}.cls-12{stroke:#f90066;stroke-width:4px;}.cls-13{fill:#b7b7b7;}.cls-15{fill:#60f1fc;opacity:0.25;}</style></defs><title>logo_deploy_cat</title><g id="Layer_2" data-name="Layer 2"><g id="Layer_2-2" data-name="Layer 2"><path class="cls-1" d="M277.87,73.62c-.56-6.34-2.59-17.54-11.09-30.89a4.08,4.08,0,0,0-4.6-1.71,93.7,93.7,0,0,0-23.71,10.8c-8.83,5.64-14.73,11.57-19.86,16.69a153.46,153.46,0,0,0-12,13.51,4.07,4.07,0,0,1-4.66,1.28,117.84,117.84,0,0,0-40-7.83v0h-1.66v0a117.84,117.84,0,0,0-40,7.83A4.07,4.07,0,0,1,115.61,82a153.46,153.46,0,0,0-12-13.51c-5.12-5.12-11-11-19.86-16.69A93.7,93.7,0,0,0,60,41a4.08,4.08,0,0,0-4.6,1.71C46.93,56.07,44.89,67.28,44.33,73.62a128.66,128.66,0,0,0,.32,20,142.11,142.11,0,0,0,2.43,19,130.39,130.39,0,0,0,5.07,17.2c2.35,6,3.79,8.06,4.53,13,.48,3.26.32,5.85,0,11-.42,6.74-1,7.52-1.66,14.75-.56,6-.94,10.43-.44,16.1a69.33,69.33,0,0,0,2.2,11.91,99.7,99.7,0,0,0,7.94,20.95,96.81,96.81,0,0,0,9.5,15c7.29,9.3,15.67,14.81,32.23,25.29,12.86,8.15,7.8,3.92,27.74,15.5,4.51,2.62,11.26,6.61,20.81,7.34a40.11,40.11,0,0,0,5.81,0,4.26,4.26,0,0,1,.59,0,40.1,40.1,0,0,0,5.81,0c9.54-.73,16.3-4.72,20.81-7.34,19.94-11.59,14.88-7.36,27.74-15.5,16.56-10.49,24.94-16,32.23-25.29a96.82,96.82,0,0,0,9.5-15,99.7,99.7,0,0,0,7.94-20.95,69.33,69.33,0,0,0,2.2-11.91c.5-5.66.12-10-.44-16.1-.67-7.23-1.24-8-1.66-14.75-.32-5.17-.48-7.75,0-11,.73-5,2.18-7,4.53-13a130.38,130.38,0,0,0,5.07-17.2,142.11,142.11,0,0,0,2.43-19A128.66,128.66,0,0,0,277.87,73.62Z"/><path class="cls-2" d="M115.42,127.44a31.88,31.88,0,0,1-4.16-5.34c-3.1-5.61-2.8-11.51-5.68-21.23a101.76,101.76,0,0,0-5.09-13.09C94,73,71.67,37,58.49,41,48.94,44,44.71,67.72,44.06,72.28c-.13.93-.24,1.91-.24,1.91-.67,5.59-.34,10.44.38,20a142.11,142.11,0,0,0,2.49,19,130.39,130.39,0,0,0,5.13,17.18c2.37,6,3.82,8,4.57,13,.49,3.26.34,5.85,0,11-.4,6.74-1,7.52-1.61,14.75-.54,6.05-.91,10.44-.39,16.1a69.33,69.33,0,0,0,2.24,11.9,99.7,99.7,0,0,0,8,20.92,96.81,96.81,0,0,0,9.55,15c7.32,9.27,15.72,14.76,32.31,25.19,12.89,8.11,7.82,3.89,27.79,15.42,4.52,2.61,11.29,6.58,20.83,7.28a40.1,40.1,0,0,0,5.81,0,4.28,4.28,0,0,1,.59,0,40.11,40.11,0,0,0,5.81,0c9.54-.76,16.28-4.78,20.78-7.41C208,261.79,203,266,215.82,257.85c24.25-15.47,32.15-25.4,32.15-25.4C251.3,220,249,213,246.39,209c-12.26-18.72-48.79-2.37-69.59-23.54-14-14.26-1.22-30.68-16.31-41C147.67,135.76,129,142.31,115.42,127.44Z"/><path class="cls-1" d="M178.64,208.77c-.08-.64-.8-1-2.22-1.68a14.3,14.3,0,0,0-8.12-1.15,18,18,0,0,0-4.74,1.25,18,18,0,0,0-4.74-1.25,14.3,14.3,0,0,0-8.12,1.15c-1.43.7-2.14,1-2.22,1.68-.22,1.73,4.21,4.42,8.24,6.88a4.12,4.12,0,0,1,1.38,1.24c.79,1.17.27,1.88.83,3.32a5.16,5.16,0,0,0,2.9,2.9,8.17,8.17,0,0,0,3.45,0,5.16,5.16,0,0,0,2.9-2.9c.56-1.44,0-2.15.83-3.32a4.12,4.12,0,0,1,1.38-1.24C174.43,213.2,178.86,210.5,178.64,208.77Z"/><path class="cls-1" d="M139.46,242.51a27.5,27.5,0,0,0,6.48.61,21.18,21.18,0,0,0,5.9-1A22.34,22.34,0,0,0,154.5,241a22.66,22.66,0,0,0,2.44-1.45,19.62,19.62,0,0,0,4.11-3.79l2.16-2.69,2.36,2.52a26.16,26.16,0,0,0,9.62,6.47,28.31,28.31,0,0,0,5.91,1.59,40.11,40.11,0,0,0,6.55.46,18,18,0,0,1-6.48,2.48,20.86,20.86,0,0,1-7.18,0,22.08,22.08,0,0,1-6.93-2.4,24.86,24.86,0,0,1-3.1-2,26.72,26.72,0,0,1-2.75-2.5l4.52-.17a20.27,20.27,0,0,1-5.82,4.87,19,19,0,0,1-7.14,2.3,17.9,17.9,0,0,1-7.27-.68A15.35,15.35,0,0,1,139.46,242.51Z"/><path class="cls-3" d="M90.34,166.86c19.6-13.55,34.91-7.08,42.67,15.22a1.83,1.83,0,0,1-1.09,2.33c-14.56,5.19-30.42-4.45-41.75-14.24A2.1,2.1,0,0,1,90.34,166.86Z"/><circle class="cls-1" cx="112.53" cy="171.71" r="10.77" transform="translate(-73.95 257.57) rotate(-81.48)"/><path class="cls-4" d="M232.55,166.86c-19.6-13.55-34.91-7.08-42.67,15.22a1.83,1.83,0,0,0,1.09,2.33c14.56,5.19,30.42-4.45,41.75-14.24A2.1,2.1,0,0,0,232.55,166.86Z"/><circle class="cls-5" cx="210.37" cy="171.71" r="10.77" transform="translate(-23.11 33.04) rotate(-8.52)"/><path class="cls-6" d="M257.34,112.25c2.82-21,15.89-58.37-.6-54.91-.83.17-19.17,18.17-26.27,29.32A3.35,3.35,0,0,0,231,90.6l22.94,23.06C255.22,115,257.08,114.23,257.34,112.25Z"/><path class="cls-7" d="M60.13,49.49"/><path class="cls-8" d="M64.55,108.47c-2.82-21-15.89-58.37.6-54.91.83.17,19.17,18.17,26.27,29.32a3.35,3.35,0,0,1-.49,3.94L68,109.88C66.67,111.2,64.82,110.44,64.55,108.47Z"/><path class="cls-9" d="M278.09,73.62c-.56-6.34-2.59-17.54-11.09-30.89A4.08,4.08,0,0,0,262.4,41a93.7,93.7,0,0,0-23.71,10.8C229.86,57.47,224,63.4,218.83,68.52a153.46,153.46,0,0,0-12,13.51,4.07,4.07,0,0,1-4.66,1.28,117.84,117.84,0,0,0-40-7.83v0h-1.66v0a117.84,117.84,0,0,0-40,7.83A4.07,4.07,0,0,1,115.82,82a153.46,153.46,0,0,0-12-13.51c-5.12-5.12-11-11-19.86-16.69A92.3,92.3,0,0,0,69.1,44.15c-3.51-2.51-6.86-3.82-9.81-3.29a4.07,4.07,0,0,0-3.49,1.63c-7.67,6-11.16,25.68-11.74,29.79-.13.93-.24,1.91-.24,1.91-.67,5.59-.34,10.44.38,20a142.11,142.11,0,0,0,2.49,19,130.39,130.39,0,0,0,5.13,17.18c2.37,6,3.82,8,4.57,13,.49,3.26.34,5.85,0,11-.4,6.74-1,7.52-1.61,14.75-.54,6.05-.91,10.44-.39,16.1a69.33,69.33,0,0,0,2.24,11.9,99.7,99.7,0,0,0,8,20.92,96.81,96.81,0,0,0,9.55,15c7.32,9.27,15.72,14.76,32.31,25.19,12.89,8.11,7.82,3.89,27.79,15.42,4.52,2.61,11.29,6.58,20.83,7.28a40.1,40.1,0,0,0,5.81,0,4.28,4.28,0,0,1,.59,0,40.11,40.11,0,0,0,5.81,0c9.54-.76,16.28-4.78,20.78-7.41,9.71-5.69,13.49-7.59,16.29-9A101.13,101.13,0,0,0,216,257.82c16.56-10.49,24.94-16,32.23-25.29a96.82,96.82,0,0,0,9.5-15,99.7,99.7,0,0,0,7.94-20.95,69.33,69.33,0,0,0,2.2-11.91c.5-5.66.12-10-.44-16.1-.67-7.23-1.24-8-1.66-14.75-.32-5.17-.48-7.75,0-11,.73-5,2.18-7,4.53-13a130.38,130.38,0,0,0,5.07-17.2,142.11,142.11,0,0,0,2.43-19A128.66,128.66,0,0,0,278.09,73.62Z"/><path class="cls-1" d="M133.39,227.05c-4.74,2.28-9.38,4.62-13.86,7.22-2.22,1.32-4.45,2.63-6.59,4.07s-4.29,2.86-6.34,4.42-4.11,3.1-6.09,4.76-3.91,3.37-5.82,5.1c-3.8,3.52-7.4,7.25-11,11.12A68.65,68.65,0,0,1,93,251c1.76-2,3.68-3.81,5.63-5.61s4-3.43,6.17-5a81.89,81.89,0,0,1,13.63-8.14A69.13,69.13,0,0,1,133.39,227.05Z"/><path class="cls-1" d="M132.25,224.32a141,141,0,0,0-16.81,4.38c-2.72.93-5.43,1.89-8.06,3s-5.25,2.3-7.79,3.63a111.48,111.48,0,0,0-14.63,9,141.72,141.72,0,0,0-13.33,11.14,67.65,67.65,0,0,1,11.88-13,75.44,75.44,0,0,1,7.06-5.35c2.47-1.63,5-3.12,7.64-4.51a78.37,78.37,0,0,1,16.56-6.25A67.89,67.89,0,0,1,132.25,224.32Z"/><path class="cls-1" d="M131.57,221.81a161.11,161.11,0,0,0-18.36,2l-4.5.88c-1.49.35-3,.66-4.46,1-3,.76-5.9,1.55-8.79,2.55a132.19,132.19,0,0,0-17,6.88c-5.52,2.66-10.87,5.72-16.19,8.93a83.51,83.51,0,0,1,15.09-11,92.08,92.08,0,0,1,8.36-4.28c1.44-.62,2.88-1.25,4.35-1.79l2.2-.84,2.23-.76a88.29,88.29,0,0,1,18.37-3.93A77,77,0,0,1,131.57,221.81Z"/><path class="cls-1" d="M193.31,226.71a63.35,63.35,0,0,1,14,4.76,75.72,75.72,0,0,1,12.78,7.61c2,1.49,3.93,3.05,5.78,4.71s3.62,3.41,5.26,5.26a62.91,62.91,0,0,1,8.67,12c-3.38-3.59-6.77-7.08-10.33-10.36-1.8-1.62-3.58-3.25-5.46-4.76s-3.74-3-5.7-4.45-3.91-2.82-5.93-4.14-4.08-2.58-6.16-3.82C202.06,231.1,197.73,228.89,193.31,226.71Z"/><path class="cls-1" d="M194.37,224.15a62.5,62.5,0,0,1,16.37,1.93,72.69,72.69,0,0,1,15.53,5.84c2.45,1.3,4.85,2.7,7.16,4.23a70,70,0,0,1,6.61,5,62.28,62.28,0,0,1,11.08,12.21A137.85,137.85,0,0,0,238.6,243a106,106,0,0,0-13.7-8.43c-2.37-1.25-4.81-2.36-7.28-3.4s-5-2-7.53-2.86A137,137,0,0,0,194.37,224.15Z"/><path class="cls-1" d="M195,221.81a70.83,70.83,0,0,1,17.5-.32,81.88,81.88,0,0,1,17.22,3.67l2.09.71,2.06.79c1.38.51,2.73,1.1,4.08,1.68a85.22,85.22,0,0,1,7.83,4,76.72,76.72,0,0,1,14.1,10.36c-5-3-10-5.82-15.19-8.3A125.84,125.84,0,0,0,228.79,228c-2.7-.94-5.45-1.68-8.22-2.39-1.38-.36-2.78-.65-4.17-1s-2.81-.55-4.21-.83A156.71,156.71,0,0,0,195,221.81Z"/><g id="xWrKPt.tif"><path class="cls-10" d="M19.92,113.45a13.2,13.2,0,0,0,9-12.06,12.18,12.18,0,0,0-8.49-11.46c-3.85-1.36-7-1.15-10.21,1.09a14.58,14.58,0,0,0-6.15,11.53c0,1.32-.07,2.64-.08,3.94C9.07,113.27,14.21,115.32,19.92,113.45ZM14.06,93.64c-3,5.56-2.89,10.89,1,16.18a7.82,7.82,0,0,1-7.7-7.54A7.92,7.92,0,0,1,14.06,93.64Z"/><path class="cls-10" d="M303.41,89.91c-5.56,1.59-9.39,6.37-9.34,11.65a13.23,13.23,0,0,0,9.36,12.23c5.41,1.63,10.59-.51,14.6-6a26.35,26.35,0,0,0,.89-10.15C314.2,90.48,309.44,88.18,303.41,89.91Zm12.23,13c-.58,4.29-3.93,7.35-7.83,7.17,3.94-5.89,4.16-8.13,1.57-16.14A7.9,7.9,0,0,1,315.64,102.95Z"/><path class="cls-11" d="M320.44,59.24a7.47,7.47,0,0,0-2.62-2.7A55.32,55.32,0,0,0,295.69,49c-5.68-.61-11.46-.32-17.2-.29a2.15,2.15,0,0,1-2.22-1.21C269,35.47,259.5,30.71,247.68,23c-16-10.48-33.83-16.26-52.56-19.2-10.2-1.6-20.53-2.33-30.8-3.47-.53-.06-1-.21-1.56-.32h-8.52c-3.29.25-6.59.52-9.88.75C130,1.79,116,4,102.49,9.13A113.92,113.92,0,0,0,54.76,43.18a113.81,113.81,0,0,0-6.89,9.56c-.78,1.16-1.55-3.84-2.82-4-12-1.25-23.62.14-34.7,5.14A58,58,0,0,0,4.8,56.86,5,5,0,0,0,2.43,60.4C2,62.1.84,63.61,0,65.2v46a38.34,38.34,0,0,0,3.46,5.15,8.49,8.49,0,0,0,6.67,2.42c6.15-.1,12.3-.16,18.45-.22a5.06,5.06,0,0,1,.84.18L29,128c-2,0-3.91.12-5.76,0-2.47-.2-3.61,1-4.36,3.22a65.46,65.46,0,0,0-3.28,23.23A106.25,106.25,0,0,0,20.18,182c.63,2,1.63,2.91,3.79,2.65a43.59,43.59,0,0,1,4.93,0c.25,2.54.35,5.16.78,7.73,1.4,8.41,2.51,16.9,4.52,25.16,1.41,5.79,3.7,11.38,5.09,17.24,1.65,7,5.6,13,9.33,19.09,2.27,3.69,4.78,7.23,7.11,10.89a7.58,7.58,0,0,1,1.14,2.94c.62,4.63,1.18,9.28,1.63,13.93a3.93,3.93,0,0,0,2.77,3.73c11,4.44,22,9,33,13.52.79.33,1.53.79,2.29,1.19h1.62c4.43-1.35,8.85-2.75,13.3-4,8.3-2.41,16.76-2.52,25.33-1.91,14.1,1,28.23,1.42,42.34-.1a131,131,0,0,0,35.2-9.25c10.7-4.34,21.26-9.09,31.63-14.17,14.41-7,25.23-18.24,34.18-31.36.89-1.3,1.72-1.84,3.28-1.53,2.44.48,4.93.7,7.38,1.13,2.11.37,4.38-.28,5.25-2.2a29.31,29.31,0,0,0,2.64-7.81,79.82,79.82,0,0,0,.74-12.91c-.07-2.92-1.24-3.68-4.1-4-1.75-.19-3.5-.34-5.25-.52a2.57,2.57,0,0,1-.53-.22l3.24-26.53c2.43,0,4.84,0,7.25,0a2.39,2.39,0,0,0,2.74-1.83c4.77-15.74,6.91-31.63,2.78-47.87-.42-1.64-1.08-3.21-1.56-4.83a2.71,2.71,0,0,0-3-2.12c-1.81,0-3.63,0-5.66,0l-.49-9.18h5.74c3.45,0,6.91-.17,10.34.06,6,.4,10-2,12.11-7.67v-46C322.22,63.2,321.49,61.13,320.44,59.24Zm-9.15-1.38c-4.61,0-9.23,0-13.84,0a12.29,12.29,0,0,0-4,.62,9.57,9.57,0,0,0-6.21,8.92A18.31,18.31,0,0,1,287,71c-1.21-3-2.38-6.09-3.64-9.11s-2.62-6.07-4.05-9.36C290.5,51.41,301.14,52.88,311.29,57.85ZM251.68,31.3A88.31,88.31,0,0,1,272.1,52.89a105.61,105.61,0,0,1,11.58,23.88c0,.06,0,.13.05.2,3.9,9.41,3.86,19.3,3.52,29.22-.13,3.86.19,7.47,3.34,10.22a1.69,1.69,0,0,1,.42,1.09c.19,3.24.35,6.48.52,9.9h-6.85c-.32-5.08-.49-10.15-1-15.19-.64-6.47-1.22-13-2.41-19.35-1.56-8.38-10.33-12.26-18-8.24A105.41,105.41,0,0,0,234.7,67.22c-1.28-.54-1-1.4-.87-2.32a80.36,80.36,0,0,0-.08-24.52c-1.11-6.6-2.79-13.11-4.22-19.66-.14-.64-.32-1.28-.57-2.25A106.53,106.53,0,0,1,251.68,31.3ZM43.12,179.23c2-4.74,3.44-9.51,3.24-14.89-.31-8.53.1-17.08.29-25.62,0-2-.56-3.16-2.9-3.13L44.1,133c4-.37,4.82-1.17,5-5.42A112.15,112.15,0,0,1,54.32,97,27.67,27.67,0,0,1,64,83.22c12.53-9.7,26.67-15.92,41.82-20,20.56-5.55,41.55-7.06,62.74-6.36,18.26.6,36.24,3,53.68,8.74A120.1,120.1,0,0,1,258,83.84c6.23,4.73,10.44,10.46,12.4,18.16a123.64,123.64,0,0,1,3.85,25.06c0,.61.06,1.22.1,1.83.33,4.38,1.46,5.34,5.68,4.8l.45.64a12.61,12.61,0,0,0-2.06,1.4c-.65.65-1.58,1.49-1.57,2.24.07,11.19.27,22.37.46,33.56a2.92,2.92,0,0,0,.4,1.54,12.6,12.6,0,0,1,2.33,9.48c-1.69,10.22-2.9,20.57-5.38,30.6-2,8.16-5.55,16-8.58,23.85a12.94,12.94,0,0,1-2.85,3.66c-10.28,11.17-22.59,19.53-36.22,26a152.21,152.21,0,0,1-54.29,14c-21.74,1.66-43.26.21-64.36-5.53-15.8-4.3-30.39-11.06-42.5-22.36a115.44,115.44,0,0,1-9.36-10.4c-4.7-5.6-6.26-12.42-7.61-19.42-2.47-12.77-5.33-25.47-6.52-38.46A10.6,10.6,0,0,1,43.12,179.23Zm-1.31-53.87c.86-10.52,1.85-21,2.79-31.54a7.93,7.93,0,0,1,.18-1c1.35-6.11,4.77-8.42,11.44-7.39-7.12,14-9.79,29-10.06,44.63C42,129.17,41.53,128.82,41.81,125.36Zm225.6-38.89c6.8-1,10.38,1.34,11.34,8,1.1,7.63,1.72,15.33,2.47,23,.28,2.83.35,5.68.46,8.52.15,3.83.12,3.83-4,5.17a32.87,32.87,0,0,1-.48-3.42,100.81,100.81,0,0,0-6.5-33.53C269.7,91.67,268.56,89.16,267.41,86.46ZM283,184.25h6l-3.47,26.66-6.83-.51Zm1.11-4.66-1.31-4.67c2.57-.16,2.72-2,2.92-3.85a118.07,118.07,0,0,0-.45-30.42c-.21-1.4-1.22-2.71-1.3-4.09-.09-1.56.45-3.17.8-5.29C289.3,138.88,288.81,170.57,284.11,179.59ZM224.93,17a1.82,1.82,0,0,1,.78,1.09c4.64,15,7.56,30.23,5.32,46-.06.4-.15.79-.28,1.48-2.43-1.13-4.78-2.13-7-3.34-.43-.23-.63-1.24-.61-1.88q.35-10.26.82-20.51a55.85,55.85,0,0,0-3.9-22.46c-.26-.68-.48-1.37-.89-2.54C221.34,15.62,223.16,16.24,224.93,17ZM102.4,15.23a153.12,153.12,0,0,1,39.8-9.07c24.33-2.18,48.16.74,71.65,7.07a3.89,3.89,0,0,1,2.21,2c3.46,7.91,5.49,16.13,5,24.86-.34,6.57-.55,13.14-.83,19.71,0,.6-.14,1.2-.21,1.86C178.72,51,137.69,50.86,96.54,62.75c-.07-.58-.2-1.22-.22-1.86-.28-7.31-.58-14.63-.81-21.95-.24-7.68,1.76-14.9,4.71-21.88A4,4,0,0,1,102.4,15.23ZM91,20.27c1.71-.88,3.49-1.63,5.77-2.67C94.4,24.33,92.61,30.52,92.65,37c0,6.16.33,12.32.54,18.48.08,2.3.28,4.6.3,6.9a2,2,0,0,1-.81,1.55c-2.14,1-4.35,1.78-6.93,2.79-.28-2.64-.63-5-.78-7.39-.86-13,1.54-25.48,5.17-37.82A2.19,2.19,0,0,1,91,20.27ZM51.39,54.2A100.92,100.92,0,0,1,84.63,23.75c.56-.33,1.17-.59,2-1-1,4.23-1.89,8.17-2.71,12.12a90.17,90.17,0,0,0-1,31.94c.15,1,.13,1.58-.92,2.08A97.5,97.5,0,0,0,60.44,82.51a2.78,2.78,0,0,1-1.79.34c-1.95-.12-3.9-.53-5.84-.47-5.73.18-9.43,3-10.45,8.63-1.16,6.39-1.88,12.87-2.52,19.33-.52,5.19-.63,10.42-.94,15.63,0,.46-.12.92-.2,1.46H33a12,12,0,0,1-.07-1.69c1.1-11.6,1.64-23.29,3.48-34.77A89.88,89.88,0,0,1,51.39,54.2Zm-13.61,118c.2,1.65.85,2.7,2.91,2.53l-1.18,4.41-.77-.08a94.29,94.29,0,0,1-.52-47.25c.69,1.85,2.76,3.56.5,5.67-.37.35-.39,1.13-.48,1.73A121.57,121.57,0,0,0,37.77,172.17ZM44.49,52.58,35.82,72.9c0-2,0-3.73,0-5.44a9.59,9.59,0,0,0-9.67-9.66c-2.37,0-4.73,0-7.1,0s-4.73,0-7.12-.2C22.31,52.69,33.23,51.35,44.49,52.58ZM26.68,114.84c-2.3.07-4.6,0-6.9,0H10.25c-4.53,0-6.41-1.88-6.45-6.41,0-.67,0-1.34,0-2.49l.24.31a86.19,86.19,0,0,1,.51-9.6l-.65.83c0-.77-.09-1.35-.09-1.93q0-13.63,0-27.26c0-4.9,1.85-6.73,6.77-6.74,5.07,0,10.14,0,15.22,0,4.24,0,6.23,2,6.24,6.22,0,7.73.24,15.47,0,23.19-.21,5.67-1.11,11.32-1.69,17-.12,1.21-.2,2.43-.29,3.65C29.82,114.24,29.34,114.76,26.68,114.84ZM24.74,180.7a1.69,1.69,0,0,1-1.19-1c-4.2-15.08-6.12-30.25-1.64-45.67.46-1.59,1.14-2.37,2.91-2.3,3.08.12,6.18,0,9.12,0a100.79,100.79,0,0,0,1.43,49C31.83,180.74,28.29,180.78,24.74,180.7ZM33,184.38c1.11-.07,2.17-.16,3.23-.19s2,0,2.77,0l7.49,42.45H43.19A104.1,104.1,0,0,1,33,184.38ZM62,278l-1.27-10.57L66.22,271,62.46,278Zm34,17.35L63.59,282.05l5.2-9.78,31.77,13.39Zm3.27-.21c1.28-2.73,2.41-5.23,3.63-7.68a1.31,1.31,0,0,1,1.13-.51c4.81,1,9.61,2.1,14.94,3.28Zm166-43.68c-8.54,9.33-19.37,15.3-30.66,20.55-15.18,7.06-30.63,13.39-47.1,16.75-12.82,2.61-25.81,2.54-38.81,2.08-3.24-.11-6.48-.44-9.73-.48-12-.15-23.53-3.62-35-6.67-8.22-2.19-15.88-6.46-23.83-9.73-6.82-2.81-13.66-5.56-19.61-10.07a7.43,7.43,0,0,1-1.91-1.77c-4.27-6.83-8.68-13.59-12.6-20.62-2-3.55-3-7.61-4.69-11.9,2.12,0,3.58-.06,5,0a1.48,1.48,0,0,1,1.08.84c2.16,9,7.82,15.85,14.09,22.19,11.76,11.9,26.24,19.2,42,24,20.87,6.4,42.3,8.21,64,7.17a159.25,159.25,0,0,0,55.74-12.45,125.08,125.08,0,0,0,41.38-28.09,27.19,27.19,0,0,0,6.07-10.4c.92-2.68,2-5.3,3.21-8.37.78,4.6-.9,9.2,2.77,13.45C273.2,242.27,269.4,247,265.3,251.48Zm30.17-30.08.51.06-.86,7h-.58Zm-2.92-5.94-2.33,19c-3.34-.32-7.21-.66-11.07-1.12-.35,0-.85-.82-.89-1.28-.51-5.52-.33-11,1.85-16.19a2.44,2.44,0,0,1,1.84-1.26C285.58,214.77,289.21,215.17,292.56,215.47Zm7.38-83.58c.44,0,1,.93,1.25,1.54a59.48,59.48,0,0,1,2.76,22,109.11,109.11,0,0,1-3.62,22.82c-.49,1.85-1.19,2.65-3.27,2.48-2.94-.24-5.91-.06-8.88-.06a100.79,100.79,0,0,0,1.39-48.88C292.87,131.82,296.41,131.76,299.94,131.89Zm12.77-16.95c-5.2,0-10.41,0-15.61,0-4,0-6-2-6-6q0-20.63,0-41.27c0-3.89,2-6,5.85-6q8.31-.08,16.63,0c3.42,0,5.63,1.87,5.67,5.1.13,10.28,0,20.57,0,31.38l-.33-.5a26.35,26.35,0,0,1-.89,10.15c.32-.43.63-.88.94-1.36C320.45,111.59,318,114.94,312.71,114.94Z"/><path class="cls-12" d="M220.05,61.64C178.72,51,137.69,50.86,96.54,62.75c-.07-.58-.2-1.22-.22-1.86-.28-7.31-.58-14.63-.81-21.95-.24-7.68,1.76-14.9,4.71-21.88a4,4,0,0,1,2.18-1.84,153.12,153.12,0,0,1,39.8-9.07c24.33-2.18,48.16.74,71.65,7.07a3.89,3.89,0,0,1,2.21,2c3.46,7.91,5.49,16.13,5,24.86-.34,6.57-.55,13.14-.83,19.71C220.24,60.38,220.13,61,220.05,61.64Z"/><path class="cls-13" d="M280.52,134.33a12.61,12.61,0,0,0-2.06,1.4c-.65.65-1.58,1.49-1.57,2.24.07,11.19.27,22.37.46,33.56a2.92,2.92,0,0,0,.4,1.54,12.6,12.6,0,0,1,2.33,9.48c-1.69,10.22-2.9,20.57-5.38,30.6-2,8.16-5.55,16-8.58,23.85a12.94,12.94,0,0,1-2.85,3.66c-10.28,11.17-22.59,19.53-36.22,26a152.21,152.21,0,0,1-54.29,14c-21.74,1.66-43.26.21-64.36-5.53-15.8-4.3-30.39-11.06-42.5-22.36a115.44,115.44,0,0,1-9.36-10.4c-4.7-5.6-6.26-12.42-7.61-19.42-2.47-12.77-5.33-25.47-6.52-38.46a10.6,10.6,0,0,1,.73-5.29c2-4.74,3.44-9.51,3.24-14.89-.31-8.53.1-17.08.29-25.62,0-2-.56-3.16-2.9-3.13L44.1,133c4-.37,4.82-1.17,5-5.42A112.14,112.14,0,0,1,54.32,97,27.67,27.67,0,0,1,64,83.22c12.53-9.7,26.67-15.92,41.82-20,20.56-5.55,41.55-7.06,62.74-6.36,18.26.6,36.24,3,53.68,8.74A120.1,120.1,0,0,1,258,83.84c6.23,4.73,10.44,10.46,12.4,18.16a123.63,123.63,0,0,1,3.85,25.06c0,.61.06,1.22.1,1.83.33,4.38,1.46,5.34,5.68,4.8Zm-5.17,27.34a152.33,152.33,0,0,0-10.47-62.13A24.27,24.27,0,0,0,253,86.29c-16.6-8.88-34.29-14.26-52.72-17.45a250,250,0,0,0-52.35-3.11c-14.89.57-29.67,2.1-44.19,5.62C92.34,74.1,81.41,77.9,71.46,84.23,64.31,88.78,58.78,94.41,57,103.18c-1.83,9.16-4.32,18.19-6,27.37a180,180,0,0,0-3,43.72A381.08,381.08,0,0,0,53.26,217a77.32,77.32,0,0,0,2.94,12.83c2,5.47,5.52,10.08,9.46,14.33,11.66,12.57,26.44,19.75,42.59,24.42,16.49,4.77,33.43,6.35,50.53,6.51,20.49.2,40.44-2.71,59.46-10.68,16.68-7,31.2-17,42.78-31,2.35-2.85,5.18-5.86,6.07-9.25a227,227,0,0,0,5.9-29C274.39,184.05,274.62,172.83,275.35,161.67Z"/><path class="cls-7" d="M228.95,18.47A106.53,106.53,0,0,1,251.68,31.3,88.31,88.31,0,0,1,272.1,52.89a105.61,105.61,0,0,1,11.58,23.88c0,.06,0,.13.05.2,3.9,9.41,3.86,19.3,3.52,29.22-.13,3.86.19,7.47,3.34,10.22a1.69,1.69,0,0,1,.42,1.09c.19,3.24.35,6.48.52,9.9h-6.85c-.32-5.08-.49-10.15-1-15.19-.64-6.47-1.22-13-2.41-19.35-1.56-8.38-10.33-12.26-18-8.24A105.41,105.41,0,0,0,234.7,67.22c-1.28-.54-1-1.4-.87-2.32a80.37,80.37,0,0,0-.08-24.52c-1.11-6.6-2.79-13.11-4.22-19.66C229.38,20.07,229.19,19.44,228.95,18.47Z"/><path class="cls-7" d="M274,224.58c.78,4.6-.9,9.2,2.77,13.45-3.61,4.24-7.41,9-11.51,13.45-8.54,9.33-19.37,15.3-30.66,20.55-15.18,7.06-30.63,13.39-47.1,16.75-12.82,2.61-25.81,2.54-38.81,2.08-3.24-.11-6.48-.44-9.73-.48-12-.15-23.53-3.62-35-6.67-8.22-2.19-15.88-6.46-23.83-9.73-6.82-2.81-13.66-5.56-19.61-10.07a7.43,7.43,0,0,1-1.91-1.77c-4.27-6.83-8.68-13.59-12.6-20.62-2-3.55-3-7.61-4.69-11.9,2.12,0,3.58-.06,5,0a1.48,1.48,0,0,1,1.08.84c2.16,9,7.82,15.85,14.09,22.19,11.76,11.9,26.24,19.2,42,24,20.87,6.4,42.3,8.21,64,7.17a159.25,159.25,0,0,0,55.74-12.45,125.08,125.08,0,0,0,41.38-28.09,27.19,27.19,0,0,0,6.07-10.4C271.75,230.27,272.85,227.65,274,224.58Z"/><path class="cls-7" d="M38.7,127.43H33a12,12,0,0,1-.07-1.69c1.1-11.6,1.64-23.29,3.48-34.77a89.88,89.88,0,0,1,15-36.76A100.92,100.92,0,0,1,84.63,23.75c.56-.33,1.17-.59,2-1-1,4.23-1.89,8.17-2.71,12.12a90.17,90.17,0,0,0-1,31.94c.15,1,.13,1.58-.92,2.08A97.5,97.5,0,0,0,60.44,82.51a2.78,2.78,0,0,1-1.79.34c-1.95-.12-3.9-.53-5.84-.47-5.73.18-9.43,3-10.45,8.63-1.16,6.39-1.88,12.87-2.52,19.33-.52,5.19-.63,10.42-.94,15.63C38.87,126.43,38.78,126.88,38.7,127.43Z"/><path class="cls-7" d="M33.94,131.75a100.79,100.79,0,0,0,1.43,49c-3.53,0-7.08,0-10.63,0a1.69,1.69,0,0,1-1.19-1c-4.2-15.08-6.12-30.25-1.64-45.67.46-1.59,1.14-2.37,2.91-2.3C27.9,131.84,31,131.75,33.94,131.75Z"/><path class="cls-7" d="M288.17,180.7a100.79,100.79,0,0,0,1.39-48.88c3.31,0,6.85-.06,10.38.07.44,0,1,.93,1.25,1.54a59.48,59.48,0,0,1,2.76,22,109.1,109.1,0,0,1-3.62,22.82c-.49,1.85-1.19,2.65-3.27,2.48C294.11,180.52,291.14,180.7,288.17,180.7Z"/><path class="cls-13" d="M319.25,98.16c-4.84-7.59-9.67-10-15.84-8.25-5.56,1.59-9.39,6.37-9.34,11.65a13.23,13.23,0,0,0,9.36,12.23c5.84,1.76,11.41-.86,15.53-7.32,1.48,5.14-1,8.48-6.26,8.48s-10.41,0-15.61,0c-4,0-6-2-6-6q0-20.63,0-41.27c0-3.89,2-6,5.85-6q8.31-.08,16.63,0c3.42,0,5.63,1.87,5.67,5.1C319.33,77.07,319.25,87.35,319.25,98.16Zm-.58-22a13,13,0,0,0-12.41-13c-7-.13-13.08,5.38-13.15,11.93A13.13,13.13,0,0,0,305.67,88C312.57,88.08,318.58,82.61,318.68,76.14Z"/><path class="cls-13" d="M3.8,106c5.11,7,10.32,9.36,16.12,7.47a13.2,13.2,0,0,0,9-12.06,12.18,12.18,0,0,0-8.49-11.46c-6.21-2.2-10.48-.28-16.58,7.59,0-.77-.09-1.35-.09-1.93q0-13.63,0-27.26c0-4.9,1.85-6.73,6.77-6.74,5.07,0,10.14,0,15.22,0,4.24,0,6.23,2,6.24,6.22,0,7.73.24,15.47,0,23.19-.21,5.67-1.11,11.32-1.69,17-.12,1.21-.2,2.43-.29,3.65-.18,2.62-.67,3.14-3.33,3.22-2.3.07-4.6,0-6.9,0H10.25c-4.53,0-6.41-1.88-6.45-6.41C3.8,107.8,3.8,107.13,3.8,106ZM17.2,87.72A13.08,13.08,0,0,0,29.94,75c0-6.45-5.89-12.1-12.77-12.16A13.07,13.07,0,0,0,4.38,75.7C4.4,82.23,10.26,87.72,17.2,87.72Z"/><path class="cls-7" d="M63.59,282.05l5.2-9.78,31.77,13.39L96,295.37Z"/><path class="cls-13" d="M230.76,65.57c-2.43-1.13-4.78-2.13-7-3.34-.43-.23-.63-1.24-.61-1.88q.35-10.26.82-20.51a55.85,55.85,0,0,0-3.9-22.46c-.25-.68-.48-1.37-.89-2.54,2.17.78,4,1.4,5.76,2.12a1.82,1.82,0,0,1,.78,1.09c4.64,15,7.56,30.23,5.32,46C231,64.49,230.89,64.88,230.76,65.57Z"/><path class="cls-13" d="M96.8,17.61C94.4,24.33,92.61,30.52,92.65,37c0,6.16.33,12.32.54,18.48.08,2.3.28,4.6.3,6.9A2,2,0,0,1,92.68,64c-2.14,1-4.35,1.78-6.93,2.79-.28-2.64-.63-5-.78-7.39-.86-13,1.54-25.48,5.17-37.82A2.19,2.19,0,0,1,91,20.27C92.74,19.4,94.52,18.64,96.8,17.61Z"/><path class="cls-7" d="M46.16,130.06c-4.21-.89-4.64-1.25-4.35-4.71.86-10.52,1.85-21,2.79-31.54a7.93,7.93,0,0,1,.18-1c1.35-6.11,4.77-8.42,11.44-7.39C49.1,99.43,46.44,114.42,46.16,130.06Z"/><path class="cls-7" d="M46.46,226.64H43.19A104.1,104.1,0,0,1,33,184.38c1.11-.07,2.17-.16,3.23-.19s2,0,2.77,0Z"/><path class="cls-7" d="M267.41,86.46c6.8-1,10.38,1.34,11.34,8,1.1,7.63,1.72,15.33,2.47,23,.28,2.83.35,5.68.46,8.52.15,3.83.12,3.83-4,5.17a32.88,32.88,0,0,1-.48-3.42,100.81,100.81,0,0,0-6.5-33.53C269.7,91.67,268.56,89.16,267.41,86.46Z"/><path class="cls-7" d="M292.56,215.47l-2.33,19c-3.34-.32-7.21-.66-11.07-1.12-.35,0-.85-.82-.89-1.28-.51-5.52-.33-11,1.85-16.19a2.44,2.44,0,0,1,1.84-1.26C285.58,214.77,289.21,215.17,292.56,215.47Z"/><path class="cls-7" d="M44.49,52.58,35.82,72.9c0-2,0-3.73,0-5.44a9.59,9.59,0,0,0-9.67-9.66c-2.37,0-4.73,0-7.1,0s-4.73,0-7.12-.2C22.31,52.69,33.23,51.35,44.49,52.58Z"/><path class="cls-7" d="M279.32,52.56c11.18-1.15,21.82.32,32,5.29-4.61,0-9.23,0-13.84,0a12.29,12.29,0,0,0-4,.62,9.57,9.57,0,0,0-6.21,8.92A18.31,18.31,0,0,1,287,71c-1.21-3-2.38-6.09-3.64-9.11S280.75,55.85,279.32,52.56Z"/><path class="cls-7" d="M289,184.25l-3.47,26.66-6.83-.51L283,184.25Z"/><path class="cls-7" d="M284.11,179.59l-1.31-4.67c2.57-.16,2.72-2,2.92-3.85a118.07,118.07,0,0,0-.45-30.42c-.21-1.4-1.22-2.71-1.3-4.09-.09-1.56.45-3.17.8-5.29C289.3,138.88,288.81,170.57,284.11,179.59Z"/><path class="cls-7" d="M119,290.25l-19.69,4.91c1.28-2.73,2.41-5.23,3.63-7.68a1.31,1.31,0,0,1,1.13-.51C108.88,288,113.68,289.06,119,290.25Z"/><path class="cls-7" d="M38.22,131.78c.69,1.85,2.76,3.56.5,5.67-.37.35-.39,1.13-.48,1.73a121.57,121.57,0,0,0-.47,33c.2,1.65.85,2.7,2.91,2.53l-1.18,4.41-.77-.08A94.29,94.29,0,0,1,38.22,131.78Z"/><path class="cls-14" d="M15.08,109.82a7.82,7.82,0,0,1-7.7-7.54,7.92,7.92,0,0,1,6.69-8.64C11.08,99.2,11.17,104.54,15.08,109.82Z"/><path class="cls-14" d="M307.81,110.11c3.94-5.89,4.16-8.13,1.57-16.14a7.9,7.9,0,0,1,6.26,9C315.06,107.23,311.72,110.29,307.81,110.11Z"/><path class="cls-7" d="M60.74,267.44,66.22,271,62.46,278,62,278Z"/><path class="cls-7" d="M294.55,228.47l.93-7.07.51.06-.86,7Z"/><path class="cls-10" d="M318.68,76.14c-.1,6.47-6.11,11.94-13,11.84a13.13,13.13,0,0,1-12.55-12.92c.08-6.55,6.15-12.06,13.15-11.93A13,13,0,0,1,318.68,76.14Zm-10.52,7.69c4.55-1.34,7.1-5.07,6.59-9.16a7.9,7.9,0,0,0-7.36-7.15C311.18,72.68,311.38,78,308.16,83.83Z"/><path class="cls-10" d="M17.2,87.72c-6.94,0-12.8-5.49-12.82-12A13.07,13.07,0,0,1,17.18,62.85C24.05,62.91,30,68.56,29.94,75A13.08,13.08,0,0,1,17.2,87.72ZM16.16,67C11,67.92,8,71.35,8.27,75.64c.22,4,3,7.38,6.26,7.53C11.64,77.54,12,72.21,16.16,67Z"/><path class="cls-15" d="M264.67,99.89a24.27,24.27,0,0,0-11.91-13.26c-16.6-8.88-34.29-14.26-52.72-17.45a250,250,0,0,0-52.35-3.11c-14.89.57-29.67,2.1-44.19,5.62-11.36,2.75-22.3,6.56-32.25,12.89-7.15,4.55-12.68,10.18-14.43,18.94-1.83,9.16-4.32,18.19-6,27.37a180,180,0,0,0-3,43.72,381.08,381.08,0,0,0,5.22,42.77A77.32,77.32,0,0,0,56,230.22c2,5.47,5.52,10.08,9.46,14.33C77.12,257.11,91.9,264.29,108,269c16.49,4.77,33.43,6.35,50.53,6.51,20.49.2,40.44-2.71,59.46-10.68,16.68-7,31.2-17,42.78-31,2.35-2.85,5.18-5.86,6.07-9.25a227,227,0,0,0,5.9-29c1.39-11.07,1.62-22.29,2.35-33.45A152.33,152.33,0,0,0,264.67,99.89Zm19.24,95.4a5.07,5.07,0,0,1-.21,1.05Z"/><path class="cls-14" d="M308.16,83.83c3.22-5.8,3-11.15-.77-16.31a7.9,7.9,0,0,1,7.36,7.15C315.26,78.76,312.71,82.49,308.16,83.83Z"/><path class="cls-14" d="M16.16,67C12,72.21,11.64,77.54,14.53,83.17c-3.3-.16-6-3.52-6.26-7.53C8,71.35,11,67.92,16.16,67Z"/></g></g></g></svg>