<svg xmlns="http://www.w3.org/2000/svg" viewBox="0 0 304.58 306"><defs><style>.cls-1{fill:#d45d9e;}.cls-2{fill:#24ae5f;}.cls-13,.cls-3{fill:#f90;}.cls-3{stroke:#f90066;}.cls-11,.cls-13,.cls-3,.cls-5,.cls-6,.cls-7{stroke-miterlimit:10;}.cls-3,.cls-6,.cls-7{stroke-width:3px;}.cls-4{fill:#141414;}.cls-5,.cls-6,.cls-7,.cls-9{fill:#fff;}.cls-11,.cls-5{stroke:aqua;stroke-width:6px;}.cls-6{stroke:#141414;}.cls-7{stroke:#020000;}.cls-8{fill:#070000;}.cls-10,.cls-9{opacity:0.2;}.cls-11{fill:none;}.cls-12{fill:#60f1fc;opacity:0.37;}.cls-13{stroke:#000;stroke-width:4px;}</style></defs><title>logo_optimize_cat_3</title><g id="Layer_2" data-name="Layer 2"><g id="Layer_2-2" data-name="Layer 2"><polyline class="cls-1" points="217.21 218.28 236.3 218.28 236.3 191.53 236.3 191.53 217.21 191.53"/><polyline class="cls-2" points="217.21 148.67 236.3 148.67 236.3 121.85 236.3 121.85 217.21 121.85"/><rect class="cls-3" x="276.35" y="81.58" width="14.09" height="68.11" transform="translate(-22.68 114.01) rotate(-21.89)"/><rect class="cls-3" x="11.71" y="88.08" width="13.95" height="58.76" transform="translate(42.02 0.83) rotate(20.35)"/><path class="cls-4" d="M296.73,44.06c-.7-7.91-3.24-21.91-13.84-38.57a5.09,5.09,0,0,0-5.75-2.13,117,117,0,0,0-29.61,13.49c-11,7-18.4,14.45-24.79,20.84a191.62,191.62,0,0,0-15,16.87,5.08,5.08,0,0,1-5.81,1.6,147.13,147.13,0,0,0-50-9.78v0h-2.08v0a147.13,147.13,0,0,0-50,9.78,5.08,5.08,0,0,1-5.81-1.6,191.62,191.62,0,0,0-15-16.87c-6.4-6.39-13.77-13.79-24.79-20.84A117,117,0,0,0,24.71,3.36,5.09,5.09,0,0,0,19,5.49C8.36,22.15,5.83,36.14,5.12,44.06,4.38,52.45,5,61.69,5.52,69a177.45,177.45,0,0,0,3,23.68,162.81,162.81,0,0,0,6.33,21.47c2.94,7.54,4.74,10.06,5.65,16.28.6,4.07.4,7.3,0,13.75-.52,8.42-1.24,9.39-2.07,18.42-.7,7.55-1.18,13-.55,20.1a86.57,86.57,0,0,0,2.75,14.87,124.49,124.49,0,0,0,9.91,26.15,120.88,120.88,0,0,0,11.87,18.78C51.54,254.09,62,261,82.68,274.06c16.06,10.17,9.75,4.89,34.64,19.36,5.63,3.27,14.07,8.26,26,9.17a50.08,50.08,0,0,0,7.26,0,5.32,5.32,0,0,1,.73,0,50.08,50.08,0,0,0,7.26,0c11.92-.91,20.35-5.9,26-9.17,24.9-14.47,18.58-9.19,34.64-19.36,20.67-13.1,31.14-20,40.24-31.58a120.89,120.89,0,0,0,11.87-18.78,124.49,124.49,0,0,0,9.91-26.15,86.57,86.57,0,0,0,2.75-14.87c.62-7.07.15-12.54-.55-20.1-.83-9-1.55-10-2.07-18.42-.4-6.45-.6-9.68,0-13.75.92-6.22,2.72-8.75,5.65-16.28a162.8,162.8,0,0,0,6.33-21.47,177.44,177.44,0,0,0,3-23.68C296.86,61.69,297.47,52.45,296.73,44.06Z"/><path class="cls-5" d="M93.4,111.26a39.81,39.81,0,0,1-5.19-6.67c-3.87-7-3.5-14.37-7.09-26.5a127.07,127.07,0,0,0-6.36-16.34c-8.14-18.4-36-63.38-52.45-58.36C10.38,7,5.1,36.69,4.29,42.39c-.16,1.16-.3,2.38-.3,2.38-.83,7-.42,13,.47,24.91a177.44,177.44,0,0,0,3.1,23.67A162.81,162.81,0,0,0,14,114.81c3,7.53,4.77,10,5.7,16.26.61,4.07.42,7.3,0,13.75-.49,8.42-1.21,9.39-2,18.42-.67,7.56-1.13,13-.49,20.1A86.57,86.57,0,0,0,20,198.21a124.49,124.49,0,0,0,10,26.12,120.88,120.88,0,0,0,11.93,18.75c9.14,11.58,19.63,18.43,40.34,31.46,16.09,10.12,9.76,4.86,34.7,19.25,5.64,3.25,14.09,8.21,26,9.09a50.07,50.07,0,0,0,7.26,0,5.34,5.34,0,0,1,.73,0,50.08,50.08,0,0,0,7.26-.05c11.91-1,20.33-6,26-9.25C209,279,202.73,284.32,218.76,274.1c30.28-19.31,40.14-31.71,40.14-31.71,4.16-15.61,1.29-24.26-2-29.24-15.31-23.37-60.92-3-86.89-29.39-17.5-17.8-1.53-38.31-20.36-51.17C133.66,121.65,110.32,129.82,93.4,111.26Z"/><path class="cls-4" d="M172.33,212.81c-.1-.8-1-1.23-2.77-2.1a17.85,17.85,0,0,0-10.13-1.43,22.48,22.48,0,0,0-5.92,1.56,22.48,22.48,0,0,0-5.92-1.56,17.85,17.85,0,0,0-10.13,1.43c-1.78.87-2.67,1.31-2.77,2.1-.28,2.16,5.26,5.52,10.29,8.59a5.15,5.15,0,0,1,1.73,1.55c1,1.46.34,2.34,1,4.14a6.44,6.44,0,0,0,3.62,3.62,10.2,10.2,0,0,0,4.3,0,6.44,6.44,0,0,0,3.62-3.62c.7-1.8.05-2.68,1-4.14A5.15,5.15,0,0,1,162,221.4C167.07,218.34,172.61,215,172.33,212.81Z"/><path class="cls-4" d="M123.41,254.94a29.1,29.1,0,0,0,8,1.6,25.1,25.1,0,0,0,7.77-.77,27.84,27.84,0,0,0,3.62-1.28,26.7,26.7,0,0,0,3.35-1.83,24.34,24.34,0,0,0,5.63-5l1.44-1.79,1.57,1.67a30.94,30.94,0,0,0,5.93,4.91,31.32,31.32,0,0,0,7,3.32,32.15,32.15,0,0,0,7.75,1.5,39.08,39.08,0,0,0,8.16-.28,25.62,25.62,0,0,1-8.11,2.24,28.11,28.11,0,0,1-16.75-3.53,29.68,29.68,0,0,1-6.89-5.42l3-.11a24.86,24.86,0,0,1-6.77,5.76,23.22,23.22,0,0,1-8.33,2.92,22.89,22.89,0,0,1-8.68-.35A21.27,21.27,0,0,1,123.41,254.94Z"/><path class="cls-6" d="M67,160.48c24.47-16.92,43.59-8.84,53.28,19a2.29,2.29,0,0,1-1.36,2.91c-18.18,6.48-38-5.55-52.14-17.78A2.62,2.62,0,0,1,67,160.48Z"/><circle class="cls-4" cx="94.74" cy="166.54" r="13.45" transform="translate(-83.99 235.58) rotate(-81.48)"/><path class="cls-7" d="M234.69,160.48c-24.47-16.92-43.59-8.84-53.28,19a2.29,2.29,0,0,0,1.36,2.91c18.18,6.48,38-5.55,52.14-17.78A2.62,2.62,0,0,0,234.69,160.48Z"/><circle class="cls-8" cx="206.99" cy="166.54" r="13.45" transform="translate(-22.38 32.49) rotate(-8.52)"/><path class="cls-9" d="M270.6,92.3c3.52-26.27,19.84-72.88-.75-68.57-1,.22-23.94,22.69-32.8,36.61a4.19,4.19,0,0,0,.62,4.92l28.64,28.8C268,95.71,270.27,94.76,270.6,92.3Z"/><path class="cls-10" d="M29.88,87.57C26.36,61.3,10,14.69,30.63,19c1,.22,23.94,22.69,32.8,36.61a4.19,4.19,0,0,1-.62,4.92L34.17,89.33C32.52,91,30.21,90,29.88,87.57Z"/><path class="cls-11" d="M296.51,44.06c-.7-7.91-3.24-21.91-13.84-38.57a5.09,5.09,0,0,0-5.75-2.13,117,117,0,0,0-29.61,13.49c-11,7-18.4,14.45-24.79,20.84a191.62,191.62,0,0,0-15,16.87,5.08,5.08,0,0,1-5.81,1.6,147.13,147.13,0,0,0-50-9.78v0h-2.08v0a147.13,147.13,0,0,0-50,9.78,5.08,5.08,0,0,1-5.81-1.6,191.62,191.62,0,0,0-15-16.87C72.5,31.3,65.13,23.89,54.1,16.85A115.25,115.25,0,0,0,35.56,7.26C31.18,4.12,27,2.49,23.31,3.15a5.09,5.09,0,0,0-4.36,2C9.38,12.68,5,37.25,4.29,42.39c-.16,1.16-.3,2.38-.3,2.38-.83,7-.42,13,.47,24.91a177.44,177.44,0,0,0,3.1,23.67A162.81,162.81,0,0,0,14,114.81c3,7.53,4.77,10,5.7,16.26.61,4.07.42,7.3,0,13.75-.49,8.42-1.21,9.39-2,18.42-.67,7.56-1.13,13-.49,20.1A86.57,86.57,0,0,0,20,198.21a124.49,124.49,0,0,0,10,26.12,120.88,120.88,0,0,0,11.93,18.75c9.14,11.58,19.63,18.43,40.34,31.46,16.09,10.12,9.76,4.86,34.7,19.25,5.64,3.25,14.09,8.21,26,9.09a50.07,50.07,0,0,0,7.26,0,5.34,5.34,0,0,1,.73,0,50.08,50.08,0,0,0,7.26-.05c11.91-1,20.33-6,26-9.25,12.13-7.1,16.84-9.47,20.34-11.23a126.28,126.28,0,0,0,14.43-8.28c20.67-13.1,31.14-20,40.24-31.58a120.89,120.89,0,0,0,11.87-18.78A124.49,124.49,0,0,0,281,197.54a86.57,86.57,0,0,0,2.75-14.87c.62-7.07.15-12.54-.55-20.1-.83-9-1.55-10-2.07-18.42-.4-6.45-.6-9.68,0-13.75.92-6.22,2.72-8.75,5.65-16.28a162.8,162.8,0,0,0,6.33-21.47,177.44,177.44,0,0,0,3-23.68C296.64,61.69,297.25,52.45,296.51,44.06Z"/><path class="cls-4" d="M115.83,236c-6.27,2.81-12.39,5.78-18.3,9.13-2.94,1.7-5.86,3.41-8.69,5.27s-5.64,3.75-8.34,5.78-5.4,4.09-8,6.27-5.11,4.45-7.59,6.76c-4.94,4.66-9.59,9.64-14.11,14.8a97.26,97.26,0,0,1,12.45-16.45c2.33-2.55,4.84-4.93,7.4-7.26s5.29-4.46,8.06-6.53A112.16,112.16,0,0,1,96.45,243,97.9,97.9,0,0,1,115.83,236Z"/><path class="cls-4" d="M114.34,232.38a163.61,163.61,0,0,0-22.1,5.39c-3.58,1.19-7.14,2.44-10.61,3.92s-6.91,3-10.24,4.75a138.54,138.54,0,0,0-19.16,11.94A164.18,164.18,0,0,0,35,273.25a94.21,94.21,0,0,1,15.78-16.7A102.28,102.28,0,0,1,60,249.63c3.22-2.12,6.57-4.05,10-5.86a106.07,106.07,0,0,1,21.57-8.24A94.49,94.49,0,0,1,114.34,232.38Z"/><path class="cls-4" d="M113.44,229.1a186.66,186.66,0,0,0-24.08,2.32l-5.92,1.11c-2,.45-3.92.85-5.86,1.34-3.88,1-7.76,2-11.55,3.33a163.82,163.82,0,0,0-22.24,9.13,221.88,221.88,0,0,0-21,12,111.12,111.12,0,0,1,9.58-7.55c1.66-1.19,3.38-2.28,5.08-3.4s3.47-2.14,5.26-3.13c3.53-2.06,7.23-3.81,10.95-5.52,1.88-.8,3.76-1.62,5.68-2.32l2.87-1.09,2.91-1A119.57,119.57,0,0,1,89,229.11,107.19,107.19,0,0,1,113.44,229.1Z"/><path class="cls-4" d="M190.65,236A97.89,97.89,0,0,1,210,243a112.16,112.16,0,0,1,17.73,10.71c2.77,2.07,5.47,4.24,8.06,6.53s5.07,4.71,7.4,7.26A97.26,97.26,0,0,1,255.67,284c-4.53-5.17-9.18-10.14-14.11-14.8-2.49-2.31-5-4.6-7.59-6.76s-5.24-4.28-8-6.27-5.49-4-8.34-5.78-5.75-3.58-8.69-5.27C203,241.75,196.92,238.77,190.65,236Z"/><path class="cls-4" d="M192.14,232.38a94.49,94.49,0,0,1,22.76,3.15,106.07,106.07,0,0,1,21.57,8.24c3.41,1.8,6.75,3.74,10,5.86a102.28,102.28,0,0,1,9.26,6.92,94.21,94.21,0,0,1,15.78,16.7,164.16,164.16,0,0,0-17.23-14.86,138.52,138.52,0,0,0-19.16-11.94c-3.34-1.74-6.77-3.3-10.24-4.75s-7-2.73-10.61-3.92A163.6,163.6,0,0,0,192.14,232.38Z"/><path class="cls-4" d="M193,229.1a107.18,107.18,0,0,1,24.4,0,119.57,119.57,0,0,1,23.94,5.23l2.91,1,2.87,1.09c1.92.7,3.8,1.52,5.68,2.32,3.72,1.71,7.42,3.46,10.95,5.52,1.79,1,3.53,2.06,5.26,3.13s3.42,2.22,5.08,3.4a111.12,111.12,0,0,1,9.58,7.55,221.91,221.91,0,0,0-21-12,163.83,163.83,0,0,0-22.24-9.13c-3.79-1.3-7.66-2.34-11.55-3.33-1.94-.49-3.91-.89-5.86-1.34l-5.92-1.11A186.66,186.66,0,0,0,193,229.1Z"/><g id="WlWi4P.tif"><path class="cls-3" d="M230.75,132.21a345.18,345.18,0,0,1,44.07,2c4.18.49,24.39.43,26.54,3.11,1.78,2.22-.3,11.53-1.38,13.87-2,4.29-6.42,5.72-8.35,9.68-2.08,4.26-1.69,10.41-2.32,15-1.61,11.69-3.59,23.42-11.15,32.93-14.84,18.67-44.53,20.64-66.13,15.73C187.57,219,175,201.46,166.15,179.21c-3.38-8.54-6.92-21.82-19.43-15.79-9.33,4.5-12.65,29-18.77,38.44-15,23-43.46,28.09-69.25,25.07-23.39-2.74-37.1-17.27-42.06-39.73-1.42-6.42-.52-16.56-3.69-22.51-2.16-4.07-7.16-5.39-9-9.17-8.94-18.25,10.15-17,22.58-18.7,35.17-4.87,67.28-.8,101.94,6.51C162.58,150.54,196.68,137.06,230.75,132.21ZM72,141.43c-30.55,3.4-53.85,7.16-45.83,44.29,6,27.6,29,39.82,56.36,35.93,26.25-3.74,43.62-23.24,44.6-49.83C128.21,141.45,94.16,144.12,72,141.43ZM233.14,140c0-.29-33.43,5.15-38,6.53-13.64,4.16-19.14,11-18.35,25.48C178.37,200,201.39,220.6,228.76,221c26.32.35,44.93-12.38,49.61-38.61C284.72,146.79,263.32,142.83,233.14,140ZM24.46,149.09m269.37-1.16c.76-6.23-14.11-6.58-14.59-1.33Z"/><path class="cls-12" d="M72,141.43c20.45,2.48,54.78-.18,55.31,28,.51,27.36-18.08,48.44-44.77,52.24-26,3.7-49-7.17-55.76-33.46C16.94,149.81,40,145,72,141.43Z"/><path class="cls-12" d="M233.14,140c30,2.76,51.65,6.88,45.23,42.31-4.74,26.17-23.24,39-49.61,38.61-27.35-.36-50.38-21-51.92-48.92-.79-14.33,4.86-21.27,18.35-25.48C199.18,145.32,233.16,139.86,233.14,140Z"/><path class="cls-13" d="M24.46,149.09,9.92,150.44l-.25-2.33a16.85,16.85,0,0,1,14.72-1.46Z"/><path class="cls-13" d="M293.83,147.93l-14.59-1.33.2-2.19c5.08-2.27,9.94-1.31,14.72.8Z"/></g></g></g></svg>