<svg xmlns="http://www.w3.org/2000/svg" viewBox="0 0 62.15 28.26"><defs><style>.cls-1{opacity:0.4;}.cls-2{fill:none;stroke:#f2f2f2;stroke-miterlimit:10;stroke-width:0.5px;}</style></defs><title>npm_logo_3</title><g id="Layer_2" data-name="Layer 2"><g id="Layer_2-2" data-name="Layer 2"><g id="Q9hO1Z" class="cls-1"><path class="cls-2" d="M.25,24.09V.25H61.89c0,.11,0,.22,0,.34q0,11.58,0,23.16v.33H31.06V28H17.4v-.3q0-1.66,0-3.32c0-.31,0-.31-.32-.31H.51ZM51.64,8.24h2.88c.49,0,.49,0,.49.48q0,5.51,0,11v.39h3.45V4.21H37.92V20.15h6.54c.35,0,.35,0,.35-.36q0-5.61,0-11.22V8.26h3.36v.33q0,5.63,0,11.27c0,.23.06.3.3.3,1,0,1.94,0,2.91,0h.28ZM34.5,4.19H21.06c-.23,0-.3.06-.3.29q0,9.67,0,19.34c0,.23.06.3.29.29h6.62v-4H34.5ZM3.68,4.2v16h6.54c.35,0,.35,0,.35-.36q0-5.6,0-11.19V8.26h3.37V20.15h.27c1,0,1.94,0,2.91,0,.24,0,.29-.07.29-.3q0-7.7,0-15.41c0-.08,0-.17,0-.25Z"/><path class="cls-2" d="M27.68,8.26H31v7.81H27.68Z"/></g></g></g></svg>