<svg xmlns="http://www.w3.org/2000/svg" viewBox="0 0 351.17 247.09"><defs><style>.cls-1{fill:#190033;}.cls-2{fill:#1a1a1a;}.cls-10,.cls-11,.cls-3,.cls-8,.cls-9{fill:none;}.cls-3{stroke:#f2f2f2;}.cls-11,.cls-3{stroke-miterlimit:10;}.cls-4{opacity:0.3;}.cls-5{fill:#ff0;}.cls-6{fill:lime;}.cls-7{fill:#f94141;}.cls-8{stroke:#ff0;}.cls-10,.cls-8,.cls-9{stroke-width:0.75px;}.cls-11,.cls-9{stroke:lime;}.cls-10{stroke:#f94141;}.cls-11{stroke-width:3px;}.cls-12{fill:#0d0d0d;}</style></defs><title>oclif_cli</title><g id="Layer_2" data-name="Layer 2"><g id="Layer_2-2" data-name="Layer 2"><rect class="cls-1" x="0.5" y="23.99" width="350.17" height="222.6"/><rect class="cls-2" x="0.5" y="0.5" width="350.17" height="23.49"/><rect class="cls-3" x="0.5" y="0.5" width="350.17" height="23.49"/><rect class="cls-3" x="0.5" y="23.99" width="350.17" height="222.6"/><g class="cls-4"><circle class="cls-5" cx="22.35" cy="11.24" r="4.06"/><circle class="cls-6" cx="35.16" cy="11.24" r="4.06"/><circle class="cls-7" cx="9.55" cy="11.24" r="4.06"/></g><circle class="cls-8" cx="22.35" cy="11.24" r="4.06"/><circle class="cls-9" cx="35.16" cy="11.24" r="4.06"/><circle class="cls-10" cx="9.55" cy="11.24" r="4.06"/><line class="cls-11" x1="30.34" y1="55.5" x2="272.08" y2="55.5"/><line class="cls-11" x1="48.75" y1="70.23" x2="160.17" y2="70.23"/><line class="cls-11" x1="180.06" y1="70.23" x2="245.72" y2="70.23"/><line class="cls-11" x1="78.59" y1="84.97" x2="126.34" y2="84.97"/><line class="cls-11" x1="102.47" y1="99.7" x2="137.29" y2="99.7"/><line class="cls-11" x1="155.19" y1="114.44" x2="246.72" y2="114.44"/><line class="cls-11" x1="38.8" y1="129.17" x2="138.28" y2="129.17"/><line class="cls-11" x1="37.81" y1="143.91" x2="139.28" y2="143.91"/><line class="cls-11" x1="37.81" y1="173.38" x2="136.29" y2="173.38"/><g id="lg9vd0"><path class="cls-6" d="M159.76,138.24h86a10.67,10.67,0,0,1,2.21,1.39c5.25,5.47,10.44,11,15.65,16.49a3.69,3.69,0,0,1,0,5.51q-7.71,8.13-15.41,16.26a4.68,4.68,0,0,1-3.65,1.56q-37.87,0-75.74,0c-2.8,0-5.6,0-8.4,0a3.58,3.58,0,0,1-3.72-3.69q0-16.9,0-33.8a3.56,3.56,0,0,1,2.74-3.56A2,2,0,0,0,159.76,138.24Zm13.14,32.62a6.79,6.79,0,0,0,4.93-1.75,8.51,8.51,0,0,0,.88-11A6.57,6.57,0,0,0,168,158a8.21,8.21,0,0,0-.93,8.63A6.41,6.41,0,0,0,172.9,170.85Zm66-.48v-.92q0-4.53,0-9.07c0-1.83,0-1.83,1.85-1.83h2.61c0-.8,0-1.49,0-2.17s-.19-.71-.72-.69c-1.24,0-2.47,0-3.76,0-.08-1.36,0-2.65,1.15-3.42,1.83-1.21,3.37-.27,4.83,1l1.47-2.3a6.54,6.54,0,0,0-6.51-1.91c-3.31.92-4.48,3.36-4.42,6.64h-3.09v2.83h3.12v11.84Zm-31-2.79V149.2h-7.39c0,.73,0,1.39,0,2.05s.18.76.75.74c1,0,2,0,3,0v15.61c-1.11,0-2.17,0-3.23,0-.61,0-.79.19-.74.76a7,7,0,0,1,0,1.33c-.06.59.15.75.74.75,3.4,0,6.8,0,10.2,0l.64,0v-2.79Zm-11.62-9.37c-1.4-2.34-4.87-3.49-7.89-2.65-3.29.91-5.38,3.89-5.39,7.69a7.35,7.35,0,0,0,5.34,7.35c2.85.78,6.56-.38,7.8-2.45l-1-1.15-.94-1.06a18.19,18.19,0,0,1-2,1.42,3.68,3.68,0,0,1-5.13-1.82,6.05,6.05,0,0,1-.4-3.39,4,4,0,0,1,2.74-3.54,4.12,4.12,0,0,1,4.38,1.2c.2.2.38.41.62.68Zm21.35-2.5v2.86h3.27v9h-3.4v2.82h10.11V167.5h-3.13V155.71Zm4.81-6.72a2.12,2.12,0,0,0-2.19,2.17,2.17,2.17,0,0,0,2.24,2.07,2.12,2.12,0,1,0,0-4.23Z"/><path class="cls-12" d="M172.9,170.85a6.41,6.41,0,0,1-5.81-4.17A8.21,8.21,0,0,1,168,158a6.57,6.57,0,0,1,10.69.09,8.51,8.51,0,0,1-.88,11A6.79,6.79,0,0,1,172.9,170.85Zm3.92-7.82a20.4,20.4,0,0,0-.72-2.88,2.88,2.88,0,0,0-2.88-1.88,2.82,2.82,0,0,0-2.72,1.89,7.35,7.35,0,0,0,0,5.77,3,3,0,0,0,5.65-.09A24.24,24.24,0,0,0,176.82,163Z"/><path class="cls-12" d="M238.94,170.37h-3.46V158.53h-3.12V155.7h3.09c-.06-3.29,1.11-5.72,4.42-6.64a6.54,6.54,0,0,1,6.51,1.91l-1.47,2.3c-1.46-1.27-3-2.21-4.83-1-1.16.77-1.23,2.06-1.15,3.42,1.28,0,2.52,0,3.76,0,.53,0,.77.11.72.69s0,1.37,0,2.17h-2.61c-1.85,0-1.85,0-1.85,1.83q0,4.53,0,9.07Z"/><path class="cls-12" d="M207.95,167.58h3.95v2.79l-.64,0c-3.4,0-6.8,0-10.2,0-.59,0-.8-.16-.74-.75a7,7,0,0,0,0-1.33c-.05-.57.13-.79.74-.76,1.06,0,2.12,0,3.23,0V152c-1,0-2,0-3,0-.58,0-.8-.13-.75-.74s0-1.33,0-2.05h7.39Z"/><path class="cls-12" d="M196.33,158.21l-1.88,2.27c-.24-.26-.42-.48-.62-.68a4.12,4.12,0,0,0-4.38-1.2,4,4,0,0,0-2.74,3.54,6.05,6.05,0,0,0,.4,3.39,3.68,3.68,0,0,0,5.13,1.82,18.19,18.19,0,0,0,2-1.42l.94,1.06,1,1.15c-1.23,2.08-4.95,3.23-7.8,2.45a7.35,7.35,0,0,1-5.34-7.35c0-3.8,2.1-6.77,5.39-7.69C191.46,154.72,194.93,155.87,196.33,158.21Z"/><path class="cls-12" d="M217.68,155.71h6.85V167.5h3.13v2.85H217.55v-2.82h3.4v-9h-3.27Z"/><path class="cls-12" d="M222.48,149a2.12,2.12,0,1,1,0,4.23,2.17,2.17,0,0,1-2.24-2.07A2.12,2.12,0,0,1,222.48,149Z"/><path class="cls-6" d="M287.54,174.39h13.87c1.49,0,2.09.6,2.09,2.11a10.42,10.42,0,0,1-.05,1.46,1.63,1.63,0,0,1-1.57,1.46c-.22,0-.44,0-.67,0h-27.4c-1.67,0-2.25-.57-2.25-2.23,0-.24,0-.49,0-.73,0-1.47.6-2.07,2-2.07Z"/><path class="cls-6" d="M176.82,163a24.24,24.24,0,0,1-.68,2.82,3,3,0,0,1-5.65.09,7.35,7.35,0,0,1,0-5.77,2.82,2.82,0,0,1,2.72-1.89,2.88,2.88,0,0,1,2.88,1.88A20.4,20.4,0,0,1,176.82,163Z"/></g></g></g></svg>