<svg xmlns="http://www.w3.org/2000/svg" viewBox="0 0 163.64 224"><defs><style>.cls-1{fill:#fff;opacity:0.05;}.cls-2,.cls-3{fill:none;stroke-miterlimit:10;}.cls-2{stroke:#fff;}.cls-3{stroke:#ff1d25;stroke-width:4px;opacity:0.5;}</style></defs><title>paper</title><g id="Layer_2" data-name="Layer 2"><g id="Nav"><rect class="cls-1" x="0.5" y="0.5" width="162.64" height="223"/><rect class="cls-2" x="0.5" y="0.5" width="162.64" height="32.25"/><rect class="cls-2" x="0.5" y="32.75" width="162.64" height="15.9"/><rect class="cls-2" x="0.5" y="48.64" width="162.64" height="15.9"/><rect class="cls-2" x="0.5" y="64.54" width="162.64" height="15.9"/><rect class="cls-2" x="0.5" y="80.44" width="162.64" height="15.9"/><rect class="cls-2" x="0.5" y="96.33" width="162.64" height="15.9"/><rect class="cls-2" x="0.5" y="112.23" width="162.64" height="15.9"/><rect class="cls-2" x="0.5" y="128.12" width="162.64" height="15.9"/><rect class="cls-2" x="0.5" y="144.02" width="162.64" height="15.9"/><rect class="cls-2" x="0.5" y="159.92" width="162.64" height="15.9"/><rect class="cls-2" x="0.5" y="175.81" width="162.64" height="15.9"/><rect class="cls-2" x="0.5" y="191.71" width="162.64" height="15.9"/><rect class="cls-2" x="0.5" y="207.6" width="162.64" height="15.9"/><line class="cls-3" x1="33.51" y1="1.48" x2="33.51" y2="223.3"/></g></g></svg>