<svg xmlns="http://www.w3.org/2000/svg" viewBox="0 0 414.79 165.35"><defs><style>.cls-1,.cls-10,.cls-4,.cls-6,.cls-8{fill:none;stroke-miterlimit:10;stroke-width:2px;}.cls-1{stroke:#ff9210;}.cls-2{opacity:0.1;}.cls-3{fill:#ff9210;}.cls-4{stroke:#ff008c;}.cls-5{fill:#ff008c;}.cls-6{stroke:#f1ff33;}.cls-7{fill:#f1ff33;}.cls-8{stroke:#1abeff;}.cls-9{fill:#1abeff;}.cls-10{stroke:#81e2a8;}.cls-11{fill:#81e2a8;}</style></defs><title>plugins_icon</title><g id="Layer_2" data-name="Layer 2"><g id="Layer_2-2" data-name="Layer 2"><rect class="cls-1" x="1" y="108.2" width="127.73" height="56.02"/><rect class="cls-1" x="17.81" y="85.79" width="19.05" height="22.41"/><rect class="cls-1" x="89.52" y="85.79" width="19.05" height="22.41"/><g class="cls-2"><rect class="cls-3" x="1" y="108.2" width="127.73" height="56.02"/><rect class="cls-3" x="17.81" y="85.79" width="19.05" height="22.41"/><rect class="cls-3" x="89.52" y="85.79" width="19.05" height="22.41"/></g><rect class="cls-4" x="73" y="23.41" width="127.73" height="56.02"/><rect class="cls-4" x="89.81" y="1" width="19.05" height="22.41"/><rect class="cls-4" x="161.52" y="1" width="19.05" height="22.41"/><g class="cls-2"><rect class="cls-5" x="73" y="23.41" width="127.73" height="56.02"/><rect class="cls-5" x="89.81" y="1" width="19.05" height="22.41"/><rect class="cls-5" x="161.52" y="1" width="19.05" height="22.41"/></g><rect class="cls-6" x="143.53" y="108.2" width="127.73" height="56.02"/><rect class="cls-6" x="160.34" y="85.79" width="19.05" height="22.41"/><rect class="cls-6" x="232.04" y="85.79" width="19.05" height="22.41"/><g class="cls-2"><rect class="cls-7" x="143.53" y="109.32" width="127.73" height="56.02"/><rect class="cls-7" x="160.34" y="86.91" width="19.05" height="22.41"/><rect class="cls-7" x="232.04" y="86.91" width="19.05" height="22.41"/></g><rect class="cls-8" x="215.54" y="23.41" width="127.73" height="56.02"/><rect class="cls-8" x="232.35" y="1" width="19.05" height="22.41"/><rect class="cls-8" x="304.05" y="1" width="19.05" height="22.41"/><g class="cls-2"><rect class="cls-9" x="215.54" y="23.41" width="127.73" height="56.02"/><rect class="cls-9" x="232.35" y="1" width="19.05" height="22.41"/><rect class="cls-9" x="304.05" y="1" width="19.05" height="22.41"/></g><rect class="cls-10" x="286.06" y="108.2" width="127.73" height="56.02"/><rect class="cls-10" x="302.86" y="85.79" width="19.05" height="22.41"/><rect class="cls-10" x="374.57" y="85.79" width="19.05" height="22.41"/><g class="cls-2"><rect class="cls-11" x="286.06" y="108.2" width="127.73" height="56.02"/><rect class="cls-11" x="302.86" y="85.79" width="19.05" height="22.41"/><rect class="cls-11" x="374.57" y="85.79" width="19.05" height="22.41"/></g></g></g></svg>