<svg xmlns="http://www.w3.org/2000/svg" xmlns:xlink="http://www.w3.org/1999/xlink" viewBox="0 0 135.53 135.53"><defs><style>.cls-1,.cls-27{fill:none;}.cls-2{clip-path:url(#clip-path);}.cls-3{fill:url(#linear-gradient);}.cls-4{fill:url(#radial-gradient);}.cls-5{fill:url(#linear-gradient-2);}.cls-6{fill:url(#radial-gradient-2);}.cls-7{fill:url(#linear-gradient-3);}.cls-8{fill:url(#linear-gradient-4);}.cls-9{clip-path:url(#clip-path-7);}.cls-10{fill:url(#linear-gradient-5);}.cls-11{fill:url(#radial-gradient-3);}.cls-12{fill:url(#linear-gradient-6);}.cls-13{fill:url(#linear-gradient-7);}.cls-14{fill:url(#linear-gradient-8);}.cls-15{clip-path:url(#clip-path-12);}.cls-16{fill:url(#linear-gradient-9);}.cls-17{fill:url(#radial-gradient-4);}.cls-18{fill:url(#radial-gradient-5);}.cls-19{fill:url(#linear-gradient-10);}.cls-20{fill:url(#linear-gradient-11);}.cls-21{fill:url(#linear-gradient-12);}.cls-22{clip-path:url(#clip-path-18);}.cls-23{fill:url(#linear-gradient-13);}.cls-24{fill:url(#radial-gradient-6);}.cls-25{fill:url(#radial-gradient-7);}.cls-26{fill:#191919;opacity:0.31;isolation:isolate;}.cls-27{stroke:#e4eaf4;stroke-miterlimit:10;stroke-width:3px;}.cls-28{clip-path:url(#clip-path-22);}.cls-29{fill:url(#radial-gradient-8);}.cls-30{fill:url(#radial-gradient-9);}.cls-31{clip-path:url(#clip-path-24);}.cls-32{fill:url(#radial-gradient-10);}.cls-33{fill:url(#radial-gradient-11);}.cls-34{clip-path:url(#clip-path-26);}.cls-35{fill:url(#radial-gradient-12);}.cls-36{fill:url(#radial-gradient-13);}.cls-37{clip-path:url(#clip-path-28);}.cls-38{fill:url(#radial-gradient-14);}.cls-39{fill:url(#radial-gradient-15);}.cls-40{clip-path:url(#clip-path-30);}.cls-41{fill:url(#radial-gradient-16);}.cls-42{fill:url(#radial-gradient-17);}.cls-43{clip-path:url(#clip-path-32);}.cls-44{fill:url(#radial-gradient-18);}.cls-45{fill:url(#radial-gradient-19);}.cls-46{clip-path:url(#clip-path-34);}.cls-47{fill:url(#radial-gradient-20);}.cls-48{fill:url(#radial-gradient-21);}.cls-49{clip-path:url(#clip-path-36);}.cls-50{fill:url(#radial-gradient-22);}.cls-51{fill:url(#radial-gradient-23);}.cls-52{clip-path:url(#clip-path-38);}.cls-53{fill:url(#radial-gradient-24);}.cls-54{fill:url(#radial-gradient-25);}</style><clipPath id="clip-path"><path class="cls-1" d="M135.26,72.54V63l-8.33-1.51a59.22,59.22,0,0,0-2.09-10.56L132,46.34l-3.65-8.82L120,39.31a59.61,59.61,0,0,0-6-8.94l4.82-7-6.75-6.75-7,4.82a59.64,59.64,0,0,0-8.94-6L98,7.23,89.19,3.58,84.6,10.68A59.26,59.26,0,0,0,74,8.59L72.54.26H63L61.48,8.59a59.2,59.2,0,0,0-10.56,2.09L46.34,3.58,37.52,7.23l1.79,8.27a59.6,59.6,0,0,0-8.94,6l-7-4.82-6.75,6.75,4.82,7a59.61,59.61,0,0,0-6,8.94L7.23,37.52,3.58,46.34l7.11,4.58A59.21,59.21,0,0,0,8.59,61.48L.26,63v9.54L8.59,74A59.19,59.19,0,0,0,10.68,84.6L3.58,89.19,7.23,98l8.27-1.79a59.59,59.59,0,0,0,6,8.94l-4.82,7,6.75,6.75,7-4.82a59.58,59.58,0,0,0,8.94,6l-1.79,8.27L46.34,132l4.58-7.11a59.31,59.31,0,0,0,10.56,2.09L63,135.26h9.54L74,126.94a59.23,59.23,0,0,0,10.55-2.09L89.19,132,98,128.3,96.22,120a59.61,59.61,0,0,0,8.94-6l7,4.82,6.75-6.75-4.82-7a59.72,59.72,0,0,0,6-8.94L128.3,98,132,89.19l-7.11-4.58A59.31,59.31,0,0,0,126.94,74l8.33-1.51Z"/></clipPath><linearGradient id="linear-gradient" x1="127.04" y1="-1232.09" x2="8.49" y2="-1166.38" gradientTransform="matrix(1, 0, 0, -1, 0, -1131.47)" gradientUnits="userSpaceOnUse"><stop offset="0" stop-color="#bdc6c9"/><stop offset="0.09" stop-color="#abb4b7"/><stop offset="0.28" stop-color="#7d8588"/><stop offset="0.48" stop-color="#444a4d"/><stop offset="0.58" stop-color="#5e6669"/><stop offset="0.77" stop-color="#899396"/><stop offset="0.92" stop-color="#a3afb2"/><stop offset="1" stop-color="#adbabd"/></linearGradient><radialGradient id="radial-gradient" cx="67.76" cy="-1199.23" r="67.76" gradientTransform="matrix(1, 0, 0, -1, 0, -1131.47)" gradientUnits="userSpaceOnUse"><stop offset="0.73" stop-color="#004ed4" stop-opacity="0.4"/><stop offset="0.78" stop-color="#437cde" stop-opacity="0.32"/><stop offset="0.84" stop-color="#83a8e7" stop-opacity="0.23"/><stop offset="0.89" stop-color="#b5caee" stop-opacity="0.16"/><stop offset="0.94" stop-color="#dae3f4" stop-opacity="0.09"/><stop offset="0.98" stop-color="#f0f2f7" stop-opacity="0.04"/><stop offset="1" stop-color="#f8f8f8" stop-opacity="0"/></radialGradient><linearGradient id="linear-gradient-2" x1="93.16" y1="-1262.08" x2="42.37" y2="-1136.39" gradientTransform="matrix(1, 0, 0, -1, 0, -1131.47)" gradientUnits="userSpaceOnUse"><stop offset="0" stop-color="#fff" stop-opacity="0"/><stop offset="0.5" stop-color="#4d5057" stop-opacity="0.75"/><stop offset="1" stop-color="#fff" stop-opacity="0"/></linearGradient><radialGradient id="radial-gradient-2" cx="67.76" cy="-1199.23" r="67.76" gradientTransform="matrix(1, 0, 0, -1, 0, -1131.47)" gradientUnits="userSpaceOnUse"><stop offset="0.8" stop-color="#6b6b6b" stop-opacity="0"/><stop offset="0.83" stop-color="#848484" stop-opacity="0.02"/><stop offset="0.88" stop-color="#b5b5b5" stop-opacity="0.07"/><stop offset="0.93" stop-color="#dadada" stop-opacity="0.11"/><stop offset="0.97" stop-color="#f0f0f0" stop-opacity="0.14"/><stop offset="1" stop-color="#f8f8f8" stop-opacity="0.16"/></radialGradient><linearGradient id="linear-gradient-3" x1="19.85" y1="-1247.15" x2="115.68" y2="-1151.32" gradientTransform="matrix(1, 0, 0, -1, 0, -1131.47)" gradientUnits="userSpaceOnUse"><stop offset="0" stop-color="#fff" stop-opacity="0"/><stop offset="0.5" stop-color="#828282" stop-opacity="0.6"/><stop offset="1" stop-color="#fff" stop-opacity="0"/></linearGradient><linearGradient id="linear-gradient-4" x1="12.25" y1="-1238.11" x2="123.28" y2="-1160.36" gradientTransform="matrix(1, 0, 0, -1, 0, -1131.47)" gradientUnits="userSpaceOnUse"><stop offset="0.2" stop-color="#fff" stop-opacity="0"/><stop offset="0.5" stop-color="#fff" stop-opacity="0.36"/><stop offset="0.8" stop-color="#fff" stop-opacity="0"/></linearGradient><clipPath id="clip-path-7"><circle class="cls-1" cx="67.76" cy="67.76" r="54.05"/></clipPath><linearGradient id="linear-gradient-5" x1="5797.58" y1="5569.7" x2="5699.94" y2="5623.83" gradientTransform="matrix(0, -1, -1, 0, 5664.53, 5816.53)" xlink:href="#linear-gradient"/><radialGradient id="radial-gradient-3" cx="5732.14" cy="5783.05" r="57.48" gradientTransform="matrix(0, -0.97, -0.97, 0, 5683.11, 5633.67)" gradientUnits="userSpaceOnUse"><stop offset="0.86" stop-color="#0058d4" stop-opacity="0.6"/><stop offset="1" stop-color="#f8f8f8" stop-opacity="0"/></radialGradient><linearGradient id="linear-gradient-6" x1="5769.68" y1="5545" x2="5727.85" y2="5648.52" gradientTransform="matrix(0, -1, -1, 0, 5664.53, 5816.53)" xlink:href="#linear-gradient-2"/><linearGradient id="linear-gradient-7" x1="5709.3" y1="5557.3" x2="5788.23" y2="5636.23" gradientTransform="matrix(0, -1, -1, 0, 5664.53, 5816.53)" xlink:href="#linear-gradient-3"/><linearGradient id="linear-gradient-8" x1="5703.04" y1="5564.75" x2="5794.48" y2="5628.78" gradientTransform="matrix(0, -1, -1, 0, 5664.53, 5816.53)" xlink:href="#linear-gradient-4"/><clipPath id="clip-path-12"><path class="cls-1" d="M117.86,67.76a50.1,50.1,0,1,0-50.1,50.1,50.1,50.1,0,0,0,50.1-50.1Z"/></clipPath><linearGradient id="linear-gradient-9" x1="113.01" y1="-1224.32" x2="22.51" y2="-1174.16" xlink:href="#linear-gradient"/><radialGradient id="radial-gradient-4" cx="-117.24" cy="-1217.21" r="50.49" gradientTransform="matrix(0.97, 0, 0, -0.97, 182.85, -1112.89)" gradientUnits="userSpaceOnUse"><stop offset="0.88" stop-color="#0037d4"/><stop offset="1" stop-color="#f8f8f8" stop-opacity="0"/></radialGradient><radialGradient id="radial-gradient-5" cx="-105.4" cy="-1214.66" r="52.03" gradientTransform="matrix(0.97, 0, 0, -0.97, 170.32, -1114.1)" gradientUnits="userSpaceOnUse"><stop offset="0.88" stop-color="#0066d4"/><stop offset="1" stop-color="#f8f8f8" stop-opacity="0"/></radialGradient><linearGradient id="linear-gradient-10" x1="87.15" y1="-1247.21" x2="48.38" y2="-1151.27" xlink:href="#linear-gradient-2"/><linearGradient id="linear-gradient-11" x1="31.19" y1="-1235.81" x2="104.34" y2="-1162.66" xlink:href="#linear-gradient-3"/><linearGradient id="linear-gradient-12" x1="25.39" y1="-1228.91" x2="110.14" y2="-1169.57" xlink:href="#linear-gradient-4"/><clipPath id="clip-path-18"><circle class="cls-1" cx="67.76" cy="67.76" r="46.14"/></clipPath><linearGradient id="linear-gradient-13" x1="35.04" y1="-1166.51" x2="100.48" y2="-1231.96" gradientTransform="matrix(1, 0, 0, -1, 0, -1131.47)" gradientUnits="userSpaceOnUse"><stop offset="0" stop-color="#14b9ff"/><stop offset="1" stop-color="#48007f"/></linearGradient><radialGradient id="radial-gradient-6" cx="67.76" cy="-1199.23" r="46.27" gradientTransform="matrix(1, 0, 0, -1, 0, -1131.47)" gradientUnits="userSpaceOnUse"><stop offset="0.33" stop-color="#006cc2" stop-opacity="0"/><stop offset="0.63" stop-color="#016ec3" stop-opacity="0.23"/><stop offset="0.74" stop-color="#0575c7" stop-opacity="0.31"/><stop offset="0.81" stop-color="#0d80ce" stop-opacity="0.37"/><stop offset="0.87" stop-color="#1791d8" stop-opacity="0.42"/><stop offset="0.93" stop-color="#25a7e4" stop-opacity="0.46"/><stop offset="0.97" stop-color="#36c2f4" stop-opacity="0.5"/><stop offset="1" stop-color="#42d5ff" stop-opacity="0.52"/></radialGradient><radialGradient id="radial-gradient-7" cx="53.53" cy="-1182.62" r="33.49" gradientTransform="matrix(1, 0, 0, -1, 0, -1131.47)" gradientUnits="userSpaceOnUse"><stop offset="0" stop-color="#e1ffff" stop-opacity="0.5"/><stop offset="0.09" stop-color="#d9f9fd" stop-opacity="0.45"/><stop offset="0.24" stop-color="#c3e7f6" stop-opacity="0.38"/><stop offset="0.42" stop-color="#9ecaec" stop-opacity="0.29"/><stop offset="0.63" stop-color="#6ca2de" stop-opacity="0.19"/><stop offset="0.85" stop-color="#2c6fcc" stop-opacity="0.07"/><stop offset="1" stop-color="#004cbf" stop-opacity="0"/></radialGradient><clipPath id="clip-path-22"><circle class="cls-1" cx="61.24" cy="64.12" r="9.05"/></clipPath><radialGradient id="radial-gradient-8" cx="58.12" cy="-1192.47" r="13.58" gradientTransform="matrix(1, 0, 0, -1, 0, -1131.47)" gradientUnits="userSpaceOnUse"><stop offset="0" stop-color="#fff"/><stop offset="1" stop-color="#b8c4d1"/></radialGradient><radialGradient id="radial-gradient-9" cx="428.06" cy="-1158.39" r="9.14" gradientTransform="matrix(1.06, 0, 0, -1.06, -394.13, -1167.61)" gradientUnits="userSpaceOnUse"><stop offset="0" stop-color="#fff" stop-opacity="0"/><stop offset="0.26" stop-color="#fcfdfe" stop-opacity="0.21"/><stop offset="0.45" stop-color="#f3f6fd" stop-opacity="0.36"/><stop offset="0.61" stop-color="#e4ebf9" stop-opacity="0.49"/><stop offset="0.76" stop-color="#cedbf5" stop-opacity="0.6"/><stop offset="0.89" stop-color="#b2c7ef" stop-opacity="0.71"/><stop offset="1" stop-color="#95b2e9" stop-opacity="0.8"/></radialGradient><clipPath id="clip-path-24"><circle class="cls-1" cx="47.87" cy="82.66" r="6.34"/></clipPath><radialGradient id="radial-gradient-10" cx="45.69" cy="-1211.95" r="9.5" xlink:href="#radial-gradient-8"/><radialGradient id="radial-gradient-11" cx="415.58" cy="-1175.94" r="6.4" gradientTransform="matrix(1.06, 0, 0, -1.06, -394.13, -1167.61)" gradientUnits="userSpaceOnUse"><stop offset="0" stop-color="#fff" stop-opacity="0"/><stop offset="0.26" stop-color="#fcfdfe" stop-opacity="0.21"/><stop offset="0.45" stop-color="#f3f6fd" stop-opacity="0.36"/><stop offset="0.61" stop-color="#e4eaf9" stop-opacity="0.49"/><stop offset="0.76" stop-color="#ced9f5" stop-opacity="0.6"/><stop offset="0.89" stop-color="#b2c4ef" stop-opacity="0.71"/><stop offset="1" stop-color="#95aee9" stop-opacity="0.8"/></radialGradient><clipPath id="clip-path-26"><circle class="cls-1" cx="76.41" cy="81.08" r="6.34"/></clipPath><radialGradient id="radial-gradient-12" cx="74.23" cy="-1210.37" r="9.5" xlink:href="#radial-gradient-8"/><radialGradient id="radial-gradient-13" cx="442.43" cy="-1174.45" r="6.4" gradientTransform="matrix(1.06, 0, 0, -1.06, -394.13, -1167.61)" gradientUnits="userSpaceOnUse"><stop offset="0" stop-color="#fff" stop-opacity="0"/><stop offset="0.26" stop-color="#fcfdfe" stop-opacity="0.21"/><stop offset="0.45" stop-color="#f3f5fd" stop-opacity="0.36"/><stop offset="0.61" stop-color="#e4e7f9" stop-opacity="0.49"/><stop offset="0.76" stop-color="#ced4f5" stop-opacity="0.6"/><stop offset="0.89" stop-color="#b2bbef" stop-opacity="0.71"/><stop offset="1" stop-color="#95a2e9" stop-opacity="0.8"/></radialGradient><clipPath id="clip-path-28"><circle class="cls-1" cx="38.77" cy="57.79" r="4.53"/></clipPath><radialGradient id="radial-gradient-14" cx="37.21" cy="-1187.7" r="6.79" xlink:href="#radial-gradient-8"/><radialGradient id="radial-gradient-15" cx="407.08" cy="-1152.61" r="4.57" gradientTransform="matrix(1.06, 0, 0, -1.06, -394.13, -1167.61)" gradientUnits="userSpaceOnUse"><stop offset="0" stop-color="#fff" stop-opacity="0"/><stop offset="0.26" stop-color="#fcfefe" stop-opacity="0.21"/><stop offset="0.45" stop-color="#f3f9fd" stop-opacity="0.36"/><stop offset="0.61" stop-color="#e4f1f9" stop-opacity="0.49"/><stop offset="0.76" stop-color="#cee5f5" stop-opacity="0.6"/><stop offset="0.89" stop-color="#b2d6ef" stop-opacity="0.71"/><stop offset="1" stop-color="#95c7e9" stop-opacity="0.8"/></radialGradient><clipPath id="clip-path-30"><circle class="cls-1" cx="78.47" cy="49.75" r="4.53"/></clipPath><radialGradient id="radial-gradient-16" cx="76.91" cy="-1179.66" r="6.79" xlink:href="#radial-gradient-8"/><radialGradient id="radial-gradient-17" cx="444.43" cy="-1145.04" r="4.57" gradientTransform="matrix(1.06, 0, 0, -1.06, -394.13, -1167.61)" gradientUnits="userSpaceOnUse"><stop offset="0" stop-color="#fff" stop-opacity="0"/><stop offset="0.26" stop-color="#fcfdfe" stop-opacity="0.21"/><stop offset="0.45" stop-color="#f3f7fd" stop-opacity="0.36"/><stop offset="0.61" stop-color="#e4ecf9" stop-opacity="0.49"/><stop offset="0.76" stop-color="#cedef5" stop-opacity="0.6"/><stop offset="0.89" stop-color="#b2cbef" stop-opacity="0.71"/><stop offset="1" stop-color="#95b7e9" stop-opacity="0.8"/></radialGradient><clipPath id="clip-path-32"><circle class="cls-1" cx="67.05" cy="97.7" r="4.53"/></clipPath><radialGradient id="radial-gradient-18" cx="65.49" cy="-1227.61" r="6.79" xlink:href="#radial-gradient-8"/><radialGradient id="radial-gradient-19" cx="433.69" cy="-1190.14" r="4.56" gradientTransform="matrix(1.06, 0, 0, -1.06, -394.13, -1167.61)" gradientUnits="userSpaceOnUse"><stop offset="0" stop-color="#fff" stop-opacity="0"/><stop offset="0.26" stop-color="#fcfcfe" stop-opacity="0.21"/><stop offset="0.45" stop-color="#f3f3fd" stop-opacity="0.36"/><stop offset="0.61" stop-color="#e4e4f9" stop-opacity="0.49"/><stop offset="0.76" stop-color="#cecff5" stop-opacity="0.6"/><stop offset="0.89" stop-color="#b2b4ef" stop-opacity="0.71"/><stop offset="1" stop-color="#9598e9" stop-opacity="0.8"/></radialGradient><clipPath id="clip-path-34"><circle class="cls-1" cx="95.41" cy="87.42" r="4.53"/></clipPath><radialGradient id="radial-gradient-20" cx="93.85" cy="-1217.33" r="6.79" xlink:href="#radial-gradient-8"/><radialGradient id="radial-gradient-21" cx="460.37" cy="-1180.47" r="4.56" gradientTransform="matrix(1.06, 0, 0, -1.06, -394.13, -1167.61)" gradientUnits="userSpaceOnUse"><stop offset="0" stop-color="#fff" stop-opacity="0"/><stop offset="0.26" stop-color="#fdfcfe" stop-opacity="0.21"/><stop offset="0.45" stop-color="#f5f3fd" stop-opacity="0.36"/><stop offset="0.61" stop-color="#e9e4f9" stop-opacity="0.49"/><stop offset="0.76" stop-color="#d7cef5" stop-opacity="0.6"/><stop offset="0.89" stop-color="#c0b2ef" stop-opacity="0.71"/><stop offset="1" stop-color="#a995e9" stop-opacity="0.8"/></radialGradient><clipPath id="clip-path-36"><circle class="cls-1" cx="65.09" cy="36.26" r="3.62"/></clipPath><radialGradient id="radial-gradient-22" cx="63.84" cy="-1166.48" r="5.43" xlink:href="#radial-gradient-8"/><radialGradient id="radial-gradient-23" cx="431.88" cy="-1132.38" r="3.65" xlink:href="#radial-gradient-15"/><clipPath id="clip-path-38"><circle class="cls-1" cx="83.61" cy="36.77" r="3.62"/></clipPath><radialGradient id="radial-gradient-24" cx="82.36" cy="-1166.99" r="5.43" xlink:href="#radial-gradient-8"/><radialGradient id="radial-gradient-25" cx="449.29" cy="-1132.86" r="3.66" gradientTransform="matrix(1.06, 0, 0, -1.06, -394.13, -1167.61)" gradientUnits="userSpaceOnUse"><stop offset="0" stop-color="#fff" stop-opacity="0"/><stop offset="0.26" stop-color="#fcfdfe" stop-opacity="0.21"/><stop offset="0.45" stop-color="#f3f7fd" stop-opacity="0.36"/><stop offset="0.61" stop-color="#e4ecf9" stop-opacity="0.49"/><stop offset="0.76" stop-color="#ceddf5" stop-opacity="0.6"/><stop offset="0.89" stop-color="#b2c9ef" stop-opacity="0.71"/><stop offset="1" stop-color="#95b5e9" stop-opacity="0.8"/></radialGradient></defs><title>svgo_logo</title><g id="Layer_2" data-name="Layer 2"><g id="Layer_3" data-name="Layer 3"><g class="cls-2"><circle class="cls-3" cx="67.76" cy="67.76" r="67.76"/></g><g class="cls-2"><circle class="cls-4" cx="67.76" cy="67.76" r="67.76"/></g><g class="cls-2"><circle class="cls-5" cx="67.76" cy="67.76" r="67.76"/></g><g class="cls-2"><circle class="cls-6" cx="67.76" cy="67.76" r="67.76"/></g><g class="cls-2"><circle class="cls-7" cx="67.76" cy="67.76" r="67.76"/></g><g class="cls-2"><circle class="cls-8" cx="67.76" cy="67.76" r="67.76"/></g><g class="cls-9"><path class="cls-10" d="M67.76,12A55.81,55.81,0,1,1,12,67.76,55.81,55.81,0,0,1,67.76,12Z"/></g><g class="cls-9"><path class="cls-11" d="M67.76,12A55.81,55.81,0,1,1,12,67.76,55.81,55.81,0,0,1,67.76,12Z"/></g><g class="cls-9"><path class="cls-12" d="M67.76,12A55.81,55.81,0,1,1,12,67.76,55.81,55.81,0,0,1,67.76,12Z"/></g><g class="cls-9"><path class="cls-13" d="M67.76,12A55.81,55.81,0,1,1,12,67.76,55.81,55.81,0,0,1,67.76,12Z"/></g><g class="cls-9"><path class="cls-14" d="M67.76,12A55.81,55.81,0,1,1,12,67.76,55.81,55.81,0,0,1,67.76,12Z"/></g><g class="cls-15"><path class="cls-16" d="M119.49,67.76A51.73,51.73,0,1,1,67.76,16a51.73,51.73,0,0,1,51.73,51.72Z"/></g><g class="cls-15"><path class="cls-17" d="M118,69A49,49,0,1,1,69,20,49,49,0,0,1,118,69Z"/></g><g class="cls-15"><path class="cls-18" d="M118.39,67.76A50.63,50.63,0,1,1,67.76,17.14,50.63,50.63,0,0,1,118.39,67.76Z"/></g><g class="cls-15"><path class="cls-19" d="M119.49,67.76A51.73,51.73,0,1,1,67.76,16a51.73,51.73,0,0,1,51.73,51.72Z"/></g><g class="cls-15"><path class="cls-20" d="M119.49,67.76A51.73,51.73,0,1,1,67.76,16a51.73,51.73,0,0,1,51.73,51.72Z"/></g><g class="cls-15"><path class="cls-21" d="M119.49,67.76A51.73,51.73,0,1,1,67.76,16a51.73,51.73,0,0,1,51.73,51.72Z"/></g><g class="cls-22"><path class="cls-23" d="M67.76,21.49A46.27,46.27,0,1,0,114,67.76,46.28,46.28,0,0,0,67.76,21.49Z"/></g><g class="cls-22"><path class="cls-24" d="M67.76,21.49A46.27,46.27,0,1,0,114,67.76,46.28,46.28,0,0,0,67.76,21.49Z"/></g><g class="cls-22"><path class="cls-25" d="M53.53,17.67A33.49,33.49,0,1,0,87,51.15,33.49,33.49,0,0,0,53.53,17.67Z"/></g><g class="cls-22"><path class="cls-26" d="M67.76,17.93A49.83,49.83,0,1,0,117.6,67.76,49.83,49.83,0,0,0,67.76,17.93Zm0,95.31a45.48,45.48,0,1,1,45.48-45.48,45.48,45.48,0,0,1-45.48,45.48Z"/></g><line class="cls-27" x1="61.24" y1="64.12" x2="78.47" y2="49.75"/><line class="cls-27" x1="78.47" y1="49.75" x2="65.09" y2="36.26"/><line class="cls-27" x1="78.47" y1="49.75" x2="83.61" y2="36.77"/><line class="cls-27" x1="61.24" y1="64.12" x2="38.77" y2="57.79"/><line class="cls-27" x1="61.24" y1="64.12" x2="47.87" y2="82.66"/><line class="cls-27" x1="61.24" y1="64.12" x2="76.17" y2="80.83"/><line class="cls-27" x1="76.17" y1="80.83" x2="95.24" y2="87.24"/><line class="cls-27" x1="76.17" y1="80.83" x2="67.05" y2="97.7"/><g class="cls-28"><circle class="cls-29" cx="58.12" cy="61" r="13.58"/></g><g class="cls-28"><circle class="cls-30" cx="60.89" cy="63.77" r="9.71"/></g><g class="cls-31"><circle class="cls-32" cx="45.69" cy="80.48" r="9.5"/></g><g class="cls-31"><circle class="cls-33" cx="47.63" cy="82.42" r="6.8"/></g><g class="cls-34"><circle class="cls-35" cx="74.23" cy="78.9" r="9.5"/></g><g class="cls-34"><circle class="cls-36" cx="76.17" cy="80.83" r="6.8"/></g><g class="cls-37"><circle class="cls-38" cx="37.21" cy="56.23" r="6.79"/></g><g class="cls-37"><circle class="cls-39" cx="38.59" cy="57.61" r="4.86"/></g><g class="cls-40"><circle class="cls-41" cx="76.91" cy="48.19" r="6.79"/></g><g class="cls-40"><circle class="cls-42" cx="78.29" cy="49.57" r="4.86"/></g><g class="cls-43"><circle class="cls-44" cx="65.49" cy="96.14" r="6.79"/></g><g class="cls-43"><circle class="cls-45" cx="66.88" cy="97.52" r="4.86"/></g><g class="cls-46"><circle class="cls-47" cx="93.85" cy="85.86" r="6.79"/></g><g class="cls-46"><circle class="cls-48" cx="95.24" cy="87.24" r="4.86"/></g><g class="cls-49"><circle class="cls-50" cx="63.84" cy="35.01" r="5.43"/></g><g class="cls-49"><circle class="cls-51" cx="64.95" cy="36.11" r="3.88"/></g><g class="cls-52"><circle class="cls-53" cx="82.36" cy="35.52" r="5.43"/></g><g class="cls-52"><circle class="cls-54" cx="83.47" cy="36.63" r="3.88"/></g></g></g></svg>