<svg xmlns="http://www.w3.org/2000/svg" viewBox="0 0 135.53 111"><defs><style>.cls-1{opacity:0.8;}.cls-2{fill:none;stroke:#1da1f2;stroke-width:2px;}.cls-3{opacity:0.2;}.cls-4{fill:#1da1f2;}</style></defs><title>twitter_logo_2</title><g id="Layer_2" data-name="Layer 2"><g id="Layer_2-2" data-name="Layer 2"><g class="cls-1"><path class="cls-2" d="M134.7,13.9a57.34,57.34,0,0,1-15.85,4.34A27.35,27.35,0,0,0,130.95,3,55,55,0,0,1,113.51,9.7,27.5,27.5,0,0,0,65.93,28.51a28.32,28.32,0,0,0,.64,6.27A77.85,77.85,0,0,1,9.88,6a27.51,27.51,0,0,0,8.45,36.76A27.16,27.16,0,0,1,5.91,39.38v.3a27.63,27.63,0,0,0,22,27,27.45,27.45,0,0,1-7.21.91,24.32,24.32,0,0,1-5.21-.47,27.76,27.76,0,0,0,25.7,19.16A55.26,55.26,0,0,1,7.12,98a51.51,51.51,0,0,1-6.58-.38A77.43,77.43,0,0,0,42.73,110C93.34,110,121,68.08,121,31.74c0-1.22,0-2.39-.1-3.56A54.87,54.87,0,0,0,134.7,13.9Z"/></g><g class="cls-3"><path class="cls-4" d="M134.7,13.9a57.34,57.34,0,0,1-15.85,4.34A27.35,27.35,0,0,0,130.95,3,55,55,0,0,1,113.51,9.7,27.5,27.5,0,0,0,65.93,28.51a28.32,28.32,0,0,0,.64,6.27A77.85,77.85,0,0,1,9.88,6a27.51,27.51,0,0,0,8.45,36.76A27.16,27.16,0,0,1,5.91,39.38v.3a27.63,27.63,0,0,0,22,27,27.45,27.45,0,0,1-7.21.91,24.32,24.32,0,0,1-5.21-.47,27.76,27.76,0,0,0,25.7,19.16A55.26,55.26,0,0,1,7.12,98a51.51,51.51,0,0,1-6.58-.38A77.43,77.43,0,0,0,42.73,110C93.34,110,121,68.08,121,31.74c0-1.22,0-2.39-.1-3.56A54.87,54.87,0,0,0,134.7,13.9Z"/></g></g></g></svg>