<svg xmlns="http://www.w3.org/2000/svg" viewBox="0 0 351.73 290.89"><defs><style>.cls-1,.cls-11{fill:#cacaca;}.cls-1{stroke:#000;stroke-width:3px;}.cls-1,.cls-10,.cls-3,.cls-4,.cls-5{stroke-miterlimit:10;}.cls-2{opacity:0.65;}.cls-3{fill:#a67c52;}.cls-3,.cls-4{stroke:lime;stroke-width:6px;}.cls-4,.cls-5{fill:#fff;}.cls-5{stroke:#020000;stroke-width:5px;}.cls-6{fill:#e0b892;}.cls-7{fill:#1a1a1a;}.cls-8{fill:#070000;}.cls-9{fill:#515151;}.cls-10{fill:#f90;stroke:#f90066;stroke-width:4px;}</style></defs><title>arjan_localize_logo</title><g id="Layer_2" data-name="Layer 2"><g id="Layer_2-2" data-name="Layer 2"><rect class="cls-1" x="8.38" y="74.22" width="24.93" height="76.29" transform="translate(12.24 -1.59) rotate(6.19)"/><g class="cls-2"><path class="cls-3" d="M194.59,273.84c17.19,0,35.08,6.83,52.14,4.64,9.88-1.27,18.68-4,27.25-9.62,6.79-4.49,12.52-13.24,17.47-19.9,9.11-12.28,17.84-29.91,22.36-44.93,5.46-18.15-2.69-37.25-4.91-55.65-2.28-18.86,6.33-36.47,2.87-55.12a10.74,10.74,0,0,1,1-6.69c5.54-11.22,10.11-21.88,9.61-35.15-.54-14.15,33.82-4.12,24.93-14.47-1.19-1.39-40-16.9-41.71-16.41C292.65,24.1,291.59,30,284.62,38c-3.07,3.52-7,7.83-11,10.4-5.34,3.5-7.09,0-13.23-1.59a317.56,317.56,0,0,0-65.85-10.26,317.56,317.56,0,0,0-65.85,10.26c-6.15,1.64-7.9,5.09-13.23,1.59-3.91-2.56-7.89-6.88-11-10.4-6.91-7.92-21.48-16.19-23.29-15.38C-1.25,59.43,67.38,37.35,66.85,51.41c-.5,13.22,4,23.85,9.55,35a11.18,11.18,0,0,1,1,6.94c-3.41,18.6,5.16,36.18,2.89,55-2.22,18.4-10.37,37.5-4.91,55.65C79.9,219,88.62,236.68,97.74,249c4.95,6.67,10.67,15.42,17.47,19.9,8.57,5.66,17.37,8.35,27.25,9.62C159.51,280.66,177.39,273.84,194.59,273.84Z"/></g><path class="cls-4" d="M265.39,236.66c1.72-13,.91-19.42-6.5-29.17-11.32-14.9-29.4-30.29-36.62-48-8.1-19.84,11.62-38.5,9.06-59-1.56-12.53-6.8-22.91-11.7-34.06-4.52-10.27-5.87-17.77-6.06-28.28-5.14-.33-10.25-1.39-15.28-1.64-5,.24-10.14.5-15.28.83-.19,10.51-1.54,18.81-6.06,29.08-4.9,11.14-10.14,21.53-11.7,34.06-2.55,20.49,17.16,39.15,9.06,59-7.22,17.68-25.3,33.08-36.62,48-7.41,9.75-8.22,16.21-6.5,29.17,1.54,11.62,5.05,23.18,9,34,.65,1.76,1.33,4.28,2.2,6.59,2.15.49,4.35.89,6.6,1.19,16.12,2.19,33-4.64,49.27-4.64s33.15,6.83,49.27,4.64c2.26-.31,4.45-2.3,6.6-2.8.87-2.31,1.55-4.83,2.2-6.59C260.34,258.23,263.85,248.28,265.39,236.66Z"/><path class="cls-5" d="M108,132.18c17.49-16.41,33.7-12.25,44.75,8.79a1.84,1.84,0,0,1-.74,2.49c-13.72,7.34-31,.11-43.69-8A2.11,2.11,0,0,1,108,132.18Z"/><path class="cls-6" d="M83.67,78.25C81,66.07,70.4,44.21,82.46,46.66c.61.12,14.44,11,19.92,17.62a1.59,1.59,0,0,1-.24,2.26L86.2,79.16A1.59,1.59,0,0,1,83.67,78.25Z"/><path class="cls-7" d="M211.7,207.43c-4.39-2.51-10.57-2.81-16.81-2.59h-.62c-6.25-.22-12.42.08-16.81,2.59-16.57,9.48-8.71,16.86,2.91,23.14,5.37,2.91,9.7,4.78,13.89,5.09a2,2,0,0,0,.66,0c4.19-.31,8.52-2.18,13.89-5.09C220.41,224.29,228.27,216.91,211.7,207.43Z"/><path class="cls-6" d="M305.89,78.25c2.67-12.19,3.23-19.45,1.21-31.59a1.59,1.59,0,0,0-2.66-.88,224.63,224.63,0,0,0-17.26,18.5,1.59,1.59,0,0,0,.24,2.26l15.94,12.63A1.59,1.59,0,0,0,305.89,78.25Z"/><path class="cls-5" d="M288,134.59c-17.49-16.41-33.7-12.25-44.75,8.79a1.84,1.84,0,0,0,.74,2.49c13.72,7.34,31,.11,43.69-8A2.11,2.11,0,0,0,288,134.59Z"/><circle class="cls-8" cx="130.85" cy="133.71" r="10.84"/><circle class="cls-8" cx="264.95" cy="136.12" r="10.84"/><path class="cls-9" d="M57.69,53.19c5.09-5.31,7.87-12,13-16.71,19.4-17.87,44.15-30.7,76.81-34.85,48.74-6.19,93,5.41,132.3,31.74,27.71,18.58,44.83,41.15,53.44,66.49a11.47,11.47,0,0,0,3,4.16c2.66,2.54,4.06,5.19,3.55,8.07-1,5.84-2.07,11.67-3.33,17.46-1.13,5.21-7.54,8-14.82,6.67-7.44-1.35-12.49-6-11.76-11.39.83-6.06,2.09-12.05,3.41-18a5.68,5.68,0,0,1,2.61-3.87c2.89-1.48,2.34-3.29,1.5-5.49C304.62,64.23,278.08,40.15,234,24c-49.65-18.22-94-14.42-132.23,7.72-11.18,6.48-16,8.9-23.47,17.78-1.34,1.6-5.11,6.85-7.83,6.2C66.6,54.74,62.68,54.13,57.69,53.19Z"/><path class="cls-9" d="M57.28,154.52C72.49,208.23,104.65,251,162,268.71c2.08-7.9,7.85-9.26,14.88-9.37,11.35-.18,22.7-.93,34-1.4,7.71-.32,11.95,3.42,12.35,10.91.17,3.14.35,6.28.4,9.42.08,6.17-4,10.55-10.45,10.89q-19.68,1-39.38,1.73c-5.34.19-9.26-2.52-10.67-7.45-.63-2.21-1.77-3.09-3.94-3.73-62.39-18.44-97.8-60.43-113.6-119.5-.07-.25-.73-4.47-.75-5C48.64,155,53.17,154.7,57.28,154.52Z"/><path class="cls-9" d="M16.69,72.69c-3.31,25.17-6.54,53-9.77,77.52-6.54.29-6.39-1.4-6.67-6.84A215.13,215.13,0,0,1,8.49,73.92C9.42,71.57,9.42,71.57,16.69,72.69Z"/><circle cx="179.05" cy="269.95" r="2.06" transform="translate(-44.16 35.19) rotate(-10)"/><circle cx="179.15" cy="279.97" r="2.06" transform="translate(-45.89 35.36) rotate(-10)"/><circle cx="185.88" cy="275.43" r="2.06" transform="translate(-45 36.46) rotate(-10)"/><circle cx="192.46" cy="270.09" r="2.06" transform="translate(-43.98 37.52) rotate(-10)"/><circle cx="192.55" cy="280.11" r="2.06" transform="translate(-45.72 37.69) rotate(-10)"/><circle cx="199.28" cy="275.58" r="2.06" transform="translate(-44.83 38.79) rotate(-10)"/><circle cx="205.86" cy="270.24" r="2.06" transform="translate(-43.8 39.85) rotate(-10)"/><circle cx="205.96" cy="280.26" r="2.06" transform="translate(-45.54 40.02) rotate(-10)"/><path class="cls-10" d="M19.19,107.86c1.48-11.3,2.93-22.6,4.46-33.89C25.5,60.41,36.81,51.55,51,52.78a194.86,194.86,0,0,1,20.32,2.77c13.29,2.58,21.8,14.22,20.13,27.09-2.81,13.82-7.62,15.43-8.43,67.62C82.85,164.1,70.7,172.6,56.32,172a118.64,118.64,0,0,1-23.1-3.25,23.84,23.84,0,0,1-18.53-26.65c1.42-11.44,3-22.85,4.49-34.28ZM36.86,87.43c-.51,3.89-1.09,7.78-1.52,11.68-.48,4.42,1.57,7.93,6,9.16A31.74,31.74,0,0,0,51,109.33a7.34,7.34,0,0,0,7.41-6.62q1.84-12.23,3.22-24.52c.48-4.3-2.5-8-7-8.92a51.86,51.86,0,0,0-6.5-.88c-5.15-.43-9,2.44-9.75,7.37C37.8,79.63,37.37,83.53,36.86,87.43Z"/><path class="cls-11" d="M36.86,87.38c.51-3.89.94-7.8,1.55-11.68.77-4.93,4.61-7.8,9.75-7.37a51.86,51.86,0,0,1,6.5.88c4.46,1,7.44,4.62,7,8.92q-1.39,12.29-3.22,24.52A7.34,7.34,0,0,1,51,109.29a31.74,31.74,0,0,1-9.67-1.07c-4.4-1.22-6.45-4.74-6-9.16C35.77,95.16,36.35,91.27,36.86,87.38Z"/></g></g></svg>