<svg xmlns="http://www.w3.org/2000/svg" viewBox="0 0 347.18 291.98"><defs><style>.cls-1{opacity:0.67;}.cls-2{fill:#8c6239;}.cls-3,.cls-4{fill:#fff;}.cls-3{stroke:#ff0;}.cls-3,.cls-4,.cls-7,.cls-8,.cls-9{stroke-miterlimit:10;}.cls-3,.cls-7{stroke-width:6px;}.cls-4{stroke:#020000;stroke-width:5px;}.cls-5{fill:#e0b892;opacity:0.66;}.cls-6{fill:#070000;}.cls-7,.cls-9{fill:none;}.cls-7{stroke:#fff92c;}.cls-8{fill:#60f1fc;stroke:#000;stroke-width:7px;opacity:0.4;}.cls-9{stroke:#ccc;stroke-width:3px;}.cls-10{fill:#e6e6e6;opacity:0.62;}</style></defs><title>arjan_audit_logo</title><g id="Layer_2" data-name="Layer 2"><g id="Layer_2-2" data-name="Layer 2"><g class="cls-1"><path class="cls-2" d="M173.17,283.3c19,0,38.83,7.61,57.72,5.21,10.94-1.39,20.69-4.35,30.18-10.61,7.53-5,13.88-14.64,19.37-22,10.11-13.58,19.8-33.09,24.82-49.72,6.07-20.09-2.93-41.24-5.36-61.62-2.49-20.88,7.06-40.37,3.25-61a11.89,11.89,0,0,1,1.09-7.4c6.15-12.41,11.23-24.21,10.69-38.9-.57-15.67,37.45-4.51,27.62-16C341.24,19.71,298.34,2.48,296.4,3c-14.28,3.93-15.47,10.48-23.19,19.31-3.4,3.89-7.81,8.66-12.14,11.49-5.91,3.86-7.85,0-14.65-1.78a351.59,351.59,0,0,0-72.89-11.46A351.59,351.59,0,0,0,100.6,31.84c-6.81,1.8-8.75,5.62-14.65,1.74C81.62,30.74,77.23,26,73.83,22.06,66.2,13.28,50.08,4.1,48.07,5c-91.41,40.63-15.39,16.29-16,31.86-.58,14.63,4.43,26.42,10.52,38.8a12.38,12.38,0,0,1,1.1,7.68c-3.8,20.59,5.66,40.07,3.12,60.89-2.49,20.37-11.54,41.5-5.52,61.6,5,16.64,14.61,36.18,24.69,49.78,5.47,7.39,11.79,17.08,19.31,22.06,9.48,6.28,19.22,9.27,30.16,10.69C134.33,290.81,154.14,283.28,173.17,283.3Z"/></g><path class="cls-3" d="M250.61,242.24c1.92-14.35,1-21.5-7.15-32.31-12.52-16.51-32.51-33.58-40.48-53.18-8.94-22,12.92-42.61,10.12-65.3-1.71-13.87-7.49-25.38-12.91-37.73-5-11.38-6.47-19.68-6.67-31.32-5.69-.38-11.35-1.56-16.92-1.83-5.57.26-11.23.54-16.92.9-.22,11.64-1.73,20.82-6.75,32.19-5.45,12.33-11.26,23.82-13,37.69-2.85,22.69,18.95,43.37,9.95,65.33-8,19.57-28.06,36.59-40.62,53.07-8.22,10.78-9.12,17.93-7.24,32.29,1.69,12.87,5.56,25.67,9.95,37.69.71,2,1.47,4.75,2.42,7.3,2.38.55,4.81,1,7.31,1.33,17.84,2.45,36.57-5.09,54.55-5.06s36.69,7.61,54.54,5.21c2.5-.34,4.93-2.54,7.31-3.09,1-2.56,1.72-5.35,2.44-7.3C245,266.12,248.89,255.11,250.61,242.24Z"/><path class="cls-4" d="M77.55,121.27c19.39-18.15,37.33-13.51,49.53,9.8a2,2,0,0,1-.82,2.75c-15.21,8.1-34.27.07-48.36-8.87A2.34,2.34,0,0,1,77.55,121.27Z"/><path class="cls-5" d="M50.66,61.52C47.72,48,36,23.81,49.37,26.55c.67.14,16,12.2,22,19.53a1.76,1.76,0,0,1-.27,2.5l-17.66,14A1.76,1.76,0,0,1,50.66,61.52Z"/><path class="cls-6" d="M192.22,204.74c-4.86-2.79-11.69-3.13-18.61-2.9h-.68c-6.92-.25-13.75.07-18.62,2.85-18.37,10.47-9.67,18.65,3.18,25.63,5.94,3.22,10.73,5.31,15.37,5.65a2.21,2.21,0,0,0,.73,0c4.63-.33,9.43-2.4,15.38-5.61C201.84,223.41,210.56,215.25,192.22,204.74Z"/><path class="cls-5" d="M296.7,61.85c3-13.49,3.6-21.53,1.38-35a1.76,1.76,0,0,0-2.94-1A248.7,248.7,0,0,0,276,46.35a1.76,1.76,0,0,0,.26,2.5l17.63,14A1.76,1.76,0,0,0,296.7,61.85Z"/><path class="cls-4" d="M276.85,124.2c-19.34-18.2-37.29-13.61-49.56,9.66a2,2,0,0,0,.82,2.75c15.18,8.14,34.27.16,48.39-8.74A2.34,2.34,0,0,0,276.85,124.2Z"/><circle class="cls-6" cx="102.81" cy="122.99" r="12" transform="translate(-20.31 225.64) rotate(-89.92)"/><circle class="cls-6" cx="251.29" cy="125.86" r="12" transform="translate(125.1 376.97) rotate(-89.92)"/><path class="cls-7" d="M173.17,283.3c19,0,38.83,7.61,57.72,5.21,10.94-1.39,20.69-4.35,30.18-10.61,7.53-5,13.88-14.64,19.37-22,10.11-13.58,19.8-33.09,24.82-49.72,6.07-20.09-2.93-41.24-5.36-61.62-2.49-20.88,7.06-40.37,3.25-61a11.89,11.89,0,0,1,1.09-7.4c6.15-12.41,11.23-24.21,10.69-38.9-.57-15.67,37.45-4.51,27.62-16C341.24,19.71,298.34,2.48,296.4,3c-14.28,3.93-15.47,10.48-23.19,19.31-3.4,3.89-7.81,8.66-12.14,11.49-5.91,3.86-7.85,0-14.65-1.78a351.59,351.59,0,0,0-72.89-11.46A351.59,351.59,0,0,0,100.6,31.84c-6.81,1.8-8.75,5.62-14.65,1.74C81.62,30.74,77.23,26,73.83,22.06,66.2,13.28,50.08,4.1,48.07,5c-91.41,40.63-15.39,16.29-16,31.86-.58,14.63,4.43,26.42,10.52,38.8a12.38,12.38,0,0,1,1.1,7.68c-3.8,20.59,5.66,40.07,3.12,60.89-2.49,20.37-11.54,41.5-5.52,61.6,5,16.64,14.61,36.18,24.69,49.78,5.47,7.39,11.79,17.08,19.31,22.06,9.48,6.28,19.22,9.27,30.16,10.69C134.33,290.81,154.14,283.28,173.17,283.3Z"/><circle class="cls-8" cx="261.4" cy="134.04" r="54.41" transform="translate(127.01 395.26) rotate(-89.92)"/><circle class="cls-9" cx="261.75" cy="134.04" r="54.41" transform="translate(127.36 395.61) rotate(-89.92)"/><path class="cls-10" d="M304.49,134.16c0,25.62-33.89,37.33-35.55,35.46s23.13-16.46,22.37-37.5c-.72-19.77-23.41-32.17-22.27-33.51C270.34,97.08,304.49,108.44,304.49,134.16Z"/></g></g></svg>