<svg xmlns="http://www.w3.org/2000/svg" viewBox="0 0 327.56 277.53"><defs><style>.cls-1,.cls-10{fill:#f90;}.cls-1{stroke:#f90066;stroke-width:3px;}.cls-1,.cls-10,.cls-4,.cls-5,.cls-6{stroke-miterlimit:10;}.cls-2,.cls-7{opacity:0.66;}.cls-3{fill:#754c24;}.cls-4{fill:none;}.cls-4,.cls-5{stroke:aqua;stroke-width:6px;}.cls-5,.cls-6{fill:#fff;}.cls-6{stroke:#020000;stroke-width:5px;}.cls-7{fill:#e0b892;}.cls-8{fill:#070000;}.cls-9{fill:#60f1fc;opacity:0.37;}.cls-10{stroke:#000;stroke-width:4px;}</style></defs><title>arjan_optimiza_logo</title><g id="Layer_2" data-name="Layer 2"><g id="Layer_2-2" data-name="Layer 2"><rect class="cls-1" x="289.06" y="53.12" width="13.78" height="66.61" transform="translate(-10.88 116.59) rotate(-21.89)"/><rect class="cls-1" x="30.24" y="59.48" width="13.65" height="57.47" transform="translate(32.99 -7.38) rotate(20.35)"/><g class="cls-2"><path class="cls-3" d="M160.39,264.39c17.91,0,36.53,7.11,54.3,4.83,10.29-1.32,19.46-4.12,28.38-10,7.07-4.67,13-13.79,18.19-20.73,9.49-12.79,18.58-31.15,23.28-46.8,5.68-18.91-2.8-38.79-5.12-58-2.37-19.64,6.59-38,3-57.41a11.18,11.18,0,0,1,1-7c5.77-11.68,10.53-22.79,10-36.6-.56-14.74,35.22-4.29,26-15.07C318.15,16.23,277.78.08,275.95.58c-13.43,3.71-14.54,9.87-21.79,18.19-3.19,3.66-7.34,8.16-11.41,10.83-5.56,3.64-7.38,0-13.78-1.66a330.72,330.72,0,0,0-68.58-10.69A330.72,330.72,0,0,0,91.81,27.95c-6.4,1.71-8.23,5.3-13.78,1.66C74,26.94,69.82,22.44,66.62,18.78c-7.19-8.25-22.37-16.86-24.25-16-85.94,38.34-14.46,15.34-15,30-.52,13.76,4.2,24.84,9.94,36.48a11.64,11.64,0,0,1,1,7.23c-3.55,19.37,5.37,37.68,3,57.27-2.31,19.17-10.8,39-5.12,58,4.7,15.65,13.79,34,23.28,46.8,5.15,6.94,11.12,16.06,18.19,20.73,8.92,5.9,18.09,8.7,28.38,10C123.86,271.5,142.48,264.39,160.39,264.39Z"/></g><path class="cls-4" d="M164,266.82c17.91,0,36.53,7.11,54.3,4.83,10.29-1.32,19.46-4.12,28.38-10,7.07-4.67,13-13.79,18.19-20.73,9.49-12.79,18.58-31.15,23.28-46.8,5.68-18.91-2.8-38.79-5.12-58-2.37-19.64,6.59-38,3-57.41a11.18,11.18,0,0,1,1-7c5.77-11.68,10.53-22.79,10-36.6-.56-14.74,35.22-4.29,26-15.07C321.79,18.66,281.42,2.51,279.59,3c-13.43,3.71-14.54,9.87-21.79,18.19-3.19,3.66-7.34,8.16-11.41,10.83-5.56,3.64-7.38,0-13.78-1.66A330.72,330.72,0,0,0,164,19.69,330.72,330.72,0,0,0,95.45,30.37c-6.4,1.71-8.23,5.3-13.78,1.66-4.07-2.67-8.21-7.16-11.41-10.83C63.07,13,47.9,4.35,46,5.19c-85.94,38.34-14.46,15.34-15,30C30.47,48.94,35.2,60,40.94,71.65a11.64,11.64,0,0,1,1,7.23c-3.55,19.37,5.37,37.68,3,57.27-2.31,19.17-10.8,39-5.12,58,4.7,15.65,13.79,34,23.28,46.8,5.15,6.94,11.12,16.06,18.19,20.73,8.92,5.9,18.09,8.7,28.38,10C127.5,273.93,146.13,266.82,164,266.82Z"/><path class="cls-5" d="M239,230.53c1.79-13.5.95-20.23-6.77-30.38-11.79-15.52-30.62-31.55-38.14-50-8.44-20.67,12.1-40.09,9.44-61.44-1.62-13-7.08-23.86-12.19-35.47-4.71-10.7-6.11-18.5-6.31-29.45-5.35-.35-10.68-1.45-15.91-1.7-5.24.25-10.56.52-15.91.87-.2,10.95-1.6,19.59-6.31,30.29-5.11,11.61-10.56,22.42-12.19,35.47-2.66,21.34,17.87,40.77,9.44,61.44-7.52,18.42-26.35,34.45-38.14,50-7.72,10.15-8.56,16.88-6.77,30.38,1.61,12.11,5.26,24.14,9.4,35.44.67,1.84,1.39,4.46,2.29,6.87,2.24.51,4.53.92,6.88,1.24,16.79,2.28,34.39-4.83,51.31-4.83s34.52,7.11,51.31,4.83c2.35-.32,4.64-2.4,6.88-2.91.9-2.41,1.61-5,2.29-6.87C233.72,253,237.38,242.63,239,230.53Z"/><path class="cls-6" d="M75.1,121.72c18.21-17.1,35.1-12.76,46.6,9.15a1.92,1.92,0,0,1-.77,2.59c-14.29,7.64-32.24.11-45.5-8.28A2.2,2.2,0,0,1,75.1,121.72Z"/><path class="cls-7" d="M49.72,57c-2.78-12.69-13.82-35.46-1.26-32.9.63.13,15,11.45,20.75,18.35A1.66,1.66,0,0,1,69,44.77L52.36,57.92A1.65,1.65,0,0,1,49.72,57Z"/><path class="cls-8" d="M183.06,200.09c-4.57-2.62-11-2.93-17.51-2.7h-.64c-6.51-.23-12.94.09-17.51,2.7-17.26,9.87-9.07,17.56,3,24.1,5.59,3,10.1,5,14.46,5.3a2.08,2.08,0,0,0,.68,0c4.36-.32,8.87-2.27,14.46-5.3C192.14,217.65,200.33,210,183.06,200.09Z"/><path class="cls-7" d="M281.16,57c2.78-12.69,3.36-20.26,1.26-32.9a1.65,1.65,0,0,0-2.77-.92,233.94,233.94,0,0,0-18,19.26,1.66,1.66,0,0,0,.25,2.35l16.6,13.15A1.65,1.65,0,0,0,281.16,57Z"/><path class="cls-6" d="M262.57,124.23c-18.21-17.1-35.1-12.76-46.6,9.15a1.92,1.92,0,0,0,.77,2.59c14.29,7.64,32.24.11,45.5-8.28A2.2,2.2,0,0,0,262.57,124.23Z"/><circle class="cls-8" cx="98.86" cy="123.31" r="11.29"/><circle class="cls-8" cx="238.52" cy="125.82" r="11.29"/><g id="WlWi4P.tif"><path class="cls-1" d="M245.93,94.59a345.18,345.18,0,0,1,44.07,2c4.18.49,24.39.43,26.54,3.11,1.78,2.22-.3,11.53-1.38,13.87-2,4.29-6.42,5.72-8.35,9.68-2.08,4.26-1.69,10.41-2.32,15-1.61,11.69-3.59,23.42-11.15,32.93-14.84,18.67-44.53,20.64-66.13,15.73-24.46-5.56-37.07-23.07-45.88-45.32-3.38-8.54-6.92-21.82-19.43-15.79-9.33,4.5-12.65,29-18.77,38.44-15,23-43.46,28.09-69.25,25.07-23.39-2.74-37.1-17.27-42.06-39.73-1.42-6.42-.52-16.56-3.69-22.51-2.16-4.07-7.16-5.39-9-9.17-8.94-18.25,10.15-17,22.58-18.7,35.17-4.87,67.28-.8,101.94,6.51C177.77,112.92,211.86,99.43,245.93,94.59ZM87.14,103.81C56.59,107.2,33.29,111,41.31,148.1c6,27.6,29,39.82,56.36,35.93,26.25-3.74,43.62-23.24,44.6-49.83C143.39,103.83,109.34,106.5,87.14,103.81Zm161.19-1.39c0-.29-33.43,5.15-38,6.53-13.64,4.16-19.14,11-18.35,25.48,1.53,27.92,24.55,48.55,51.92,48.92,26.32.35,44.93-12.38,49.61-38.61C299.9,109.17,278.51,105.21,248.33,102.42ZM39.64,111.47,309,110.31c.76-6.23-14.11-6.58-14.59-1.33Z"/><path class="cls-9" d="M87.14,103.81c20.45,2.48,54.78-.18,55.31,28,.51,27.36-18.08,48.44-44.77,52.24-26,3.7-49-7.17-55.76-33.46C32.13,112.19,55.18,107.36,87.14,103.81Z"/><path class="cls-9" d="M248.33,102.42c30,2.76,51.65,6.88,45.23,42.31-4.74,26.17-23.24,39-49.61,38.61-27.35-.36-50.38-21-51.92-48.92-.79-14.33,4.86-21.27,18.35-25.48C214.37,107.7,248.34,102.24,248.33,102.42Z"/><path class="cls-10" d="M39.64,111.47l-14.54,1.35-.25-2.33A16.85,16.85,0,0,1,39.58,109Z"/><path class="cls-10" d="M309,110.31,294.43,109l.2-2.19c5.08-2.27,9.94-1.31,14.72.8Z"/></g></g></g></svg>