<svg xmlns="http://www.w3.org/2000/svg" viewBox="0 0 75.41 22.8"><defs><style>.cls-1{fill:#fff;}</style></defs><title>arrow_2</title><g id="Layer_2" data-name="Layer 2"><g id="Layer_2-2" data-name="Layer 2"><path class="cls-1" d="M72.74,12.9H5.64a1.5,1.5,0,0,1,0-3h67.1a1.5,1.5,0,0,1,0,3Z"/><path class="cls-1" d="M57.57,22.06a1.11,1.11,0,0,1,.34-1.53L72.23,11.4,57.91,2.28A1.11,1.11,0,1,1,59.1.41L74.9,10.46a1.11,1.11,0,0,1,0,1.87L59.1,22.4a1.11,1.11,0,0,1-1.53-.34Z"/><path class="cls-1" d="M18.22.52a1.13,1.13,0,0,1-.35,1.56L3.24,11.4l14.62,9.31a1.13,1.13,0,1,1-1.22,1.91L.52,12.36a1.13,1.13,0,0,1,0-1.91L16.65.18a1.14,1.14,0,0,1,1.57.35Z"/></g></g></svg>