<svg xmlns="http://www.w3.org/2000/svg" viewBox="0 0 292.87 299.4"><defs><style>.cls-1,.cls-3{fill:#141414;}.cls-1{opacity:0.8;}.cls-2,.cls-4,.cls-5,.cls-7,.cls-8{fill:#fff;}.cls-10,.cls-2{stroke:#ff0;stroke-width:6px;}.cls-10,.cls-11,.cls-12,.cls-2,.cls-4,.cls-5{stroke-miterlimit:10;}.cls-4{stroke:#141414;}.cls-12,.cls-4,.cls-5{stroke-width:3px;}.cls-5{stroke:#020000;}.cls-6{fill:#070000;}.cls-7,.cls-9{opacity:0.2;}.cls-10,.cls-12{fill:none;}.cls-11{fill:#60f1fc;stroke:#000;stroke-width:7px;opacity:0.4;}.cls-12{stroke:#ccc;}.cls-13{fill:#e6e6e6;opacity:0.62;}</style></defs><title>cat_audit</title><g id="Layer_2" data-name="Layer 2"><g id="Layer_2-2" data-name="Layer 2"><path class="cls-1" d="M289.26,43.15c-.69-7.74-3.17-21.42-13.54-37.72a5,5,0,0,0-5.62-2.09,114.42,114.42,0,0,0-29,13.19c-10.78,6.89-18,14.13-24.25,20.38a187.4,187.4,0,0,0-14.67,16.5A5,5,0,0,1,196.54,55a143.9,143.9,0,0,0-48.86-9.57v0h-2v0A143.9,143.9,0,0,0,96.79,55a5,5,0,0,1-5.69-1.57,187.4,187.4,0,0,0-14.67-16.5C70.18,30.68,63,23.44,52.19,16.54a114.42,114.42,0,0,0-29-13.19,5,5,0,0,0-5.62,2.09C7.24,21.73,4.76,35.41,4.07,43.15c-.73,8.21-.13,17.24.39,24.37a173.55,173.55,0,0,0,3,23.16,159.23,159.23,0,0,0,6.19,21c2.87,7.37,4.63,9.84,5.53,15.92.59,4,.39,7.14,0,13.45-.51,8.23-1.21,9.18-2,18-.68,7.39-1.15,12.74-.54,19.66a84.66,84.66,0,0,0,2.69,14.54A121.75,121.75,0,0,0,29,218.84a118.22,118.22,0,0,0,11.61,18.37c8.91,11.35,19.14,18.08,39.36,30.89,15.7,9.95,9.53,4.78,33.88,18.93,5.51,3.2,13.76,8.07,25.41,9a49,49,0,0,0,7.1,0,5.21,5.21,0,0,1,.72,0,49,49,0,0,0,7.1,0c11.65-.89,19.9-5.77,25.41-9,24.35-14.15,18.17-9,33.88-18.93,20.22-12.81,30.45-19.54,39.36-30.89a118.23,118.23,0,0,0,11.61-18.37,121.76,121.76,0,0,0,9.69-25.58,84.67,84.67,0,0,0,2.69-14.54c.61-6.91.14-12.27-.54-19.66-.81-8.83-1.52-9.78-2-18-.39-6.31-.59-9.47,0-13.45.9-6.09,2.66-8.55,5.53-15.92a159.22,159.22,0,0,0,6.19-21,173.54,173.54,0,0,0,3-23.16C289.39,60.39,290,51.37,289.26,43.15Z"/><path class="cls-2" d="M90.88,108.88a38.94,38.94,0,0,1-5.08-6.52C82,95.5,82.39,88.3,78.87,76.43a124.27,124.27,0,0,0-6.22-16c-8-18-35.19-62-51.29-57.07C9.7,6.93,4.53,35.95,3.74,41.52c-.16,1.13-.3,2.33-.3,2.33C2.63,50.68,3,56.6,3.9,68.22a173.54,173.54,0,0,0,3,23.15,159.23,159.23,0,0,0,6.26,21c2.89,7.36,4.66,9.82,5.58,15.91.6,4,.41,7.14,0,13.45-.48,8.23-1.19,9.18-2,18-.66,7.39-1.11,12.75-.48,19.66a84.66,84.66,0,0,0,2.74,14.53,121.75,121.75,0,0,0,9.77,25.55,118.22,118.22,0,0,0,11.66,18.33c8.94,11.32,19.2,18,39.46,30.76,15.74,9.9,9.55,4.75,33.94,18.82,5.52,3.18,13.78,8,25.44,8.89a49,49,0,0,0,7.1,0,5.22,5.22,0,0,1,.72,0,49,49,0,0,0,7.1,0c11.65-.93,19.89-5.83,25.38-9,24.3-14.23,18.15-9,33.82-19,29.61-18.89,39.26-31,39.26-31,4.07-15.26,1.26-23.73-1.93-28.6-15-22.86-59.58-2.9-85-28.75-17.11-17.41-1.49-37.46-19.91-50C130.26,119,107.43,127,90.88,108.88Z"/><path class="cls-3" d="M168.08,208.2c-.1-.78-1-1.2-2.71-2.06a17.46,17.46,0,0,0-9.91-1.4,22,22,0,0,0-5.79,1.53,22,22,0,0,0-5.79-1.53,17.46,17.46,0,0,0-9.91,1.4c-1.74.85-2.61,1.28-2.71,2.06-.27,2.11,5.14,5.4,10.07,8.4a5,5,0,0,1,1.69,1.52c1,1.43.33,2.29,1,4a6.3,6.3,0,0,0,3.54,3.54,10,10,0,0,0,4.21,0,6.3,6.3,0,0,0,3.54-3.54c.68-1.76.05-2.62,1-4A5,5,0,0,1,158,216.6C162.94,213.6,168.35,210.31,168.08,208.2Z"/><path class="cls-3" d="M120.24,249.4a31.61,31.61,0,0,0,7.86,1.06,25.33,25.33,0,0,0,7.35-1.06,26.56,26.56,0,0,0,3.37-1.29,27,27,0,0,0,3.1-1.77,23.86,23.86,0,0,0,5.21-4.75l2.16-2.69,2.35,2.52a31.16,31.16,0,0,0,12.1,8,33.3,33.3,0,0,0,7.36,1.76,44.59,44.59,0,0,0,8,.24,20.31,20.31,0,0,1-3.81,1.7,23.71,23.71,0,0,1-4.12,1,25.92,25.92,0,0,1-8.62-.15,27.11,27.11,0,0,1-8.28-3,30.21,30.21,0,0,1-3.7-2.44,32.19,32.19,0,0,1-3.28-3l4.52-.17a24.57,24.57,0,0,1-6.92,5.83,23.13,23.13,0,0,1-8.5,2.83,22,22,0,0,1-8.73-.65A19.42,19.42,0,0,1,120.24,249.4Z"/><path class="cls-4" d="M65.11,157c23.93-16.55,42.63-8.64,52.1,18.58a2.24,2.24,0,0,1-1.33,2.85c-17.78,6.34-37.15-5.43-51-17.39A2.56,2.56,0,0,1,65.11,157Z"/><circle class="cls-3" cx="92.2" cy="162.94" r="13.15" transform="translate(-82.6 230) rotate(-81.48)"/><path class="cls-5" d="M229.07,157c-23.93-16.55-42.63-8.64-52.1,18.58a2.24,2.24,0,0,0,1.33,2.85c17.78,6.34,37.15-5.43,51-17.39A2.56,2.56,0,0,0,229.07,157Z"/><circle class="cls-6" cx="201.98" cy="162.94" r="13.15" transform="translate(-21.9 31.71) rotate(-8.52)"/><path class="cls-7" d="M264.19,90.33c3.44-25.69,19.4-71.28-.74-67.06-1,.21-23.41,22.19-32.08,35.8a4.09,4.09,0,0,0,.6,4.82l28,28.16C261.61,93.67,263.87,92.74,264.19,90.33Z"/><path class="cls-8" d="M23.36,13.69"/><path class="cls-9" d="M28.77,85.71C25.33,60,9.36,14.43,29.5,18.65c1,.21,23.41,22.19,32.08,35.8a4.09,4.09,0,0,1-.6,4.82L33,87.43C31.35,89.05,29.09,88.12,28.77,85.71Z"/><path class="cls-10" d="M289.53,43.15c-.69-7.74-3.17-21.42-13.54-37.72a5,5,0,0,0-5.62-2.09,114.42,114.42,0,0,0-29,13.19c-10.78,6.89-18,14.13-24.25,20.38a187.4,187.4,0,0,0-14.67,16.5A5,5,0,0,1,196.81,55a143.9,143.9,0,0,0-48.86-9.57v0h-2v0A143.9,143.9,0,0,0,97.06,55a5,5,0,0,1-5.69-1.57A187.4,187.4,0,0,0,76.7,36.93c-6.26-6.25-13.47-13.49-24.25-20.38A112.71,112.71,0,0,0,34.32,7.17c-4.28-3.07-8.38-4.67-12-4a5,5,0,0,0-4.26,2C8.72,12.46,4.45,36.5,3.74,41.52c-.16,1.13-.3,2.33-.3,2.33C2.63,50.68,3,56.6,3.9,68.22a173.54,173.54,0,0,0,3,23.15,159.23,159.23,0,0,0,6.26,21c2.89,7.36,4.66,9.82,5.58,15.91.6,4,.41,7.14,0,13.45-.48,8.23-1.19,9.18-2,18-.66,7.39-1.11,12.75-.48,19.66a84.66,84.66,0,0,0,2.74,14.53,121.75,121.75,0,0,0,9.77,25.55,118.22,118.22,0,0,0,11.66,18.33c8.94,11.32,19.2,18,39.46,30.76,15.74,9.9,9.55,4.75,33.94,18.82,5.52,3.18,13.78,8,25.44,8.89a49,49,0,0,0,7.1,0,5.22,5.22,0,0,1,.72,0,49,49,0,0,0,7.1,0c11.65-.93,19.89-5.83,25.38-9,11.86-6.94,16.47-9.26,19.9-11a123.5,123.5,0,0,0,14.11-8.1c20.22-12.81,30.45-19.54,39.36-30.89a118.23,118.23,0,0,0,11.61-18.37,121.76,121.76,0,0,0,9.69-25.58A84.67,84.67,0,0,0,277,178.72c.61-6.91.14-12.27-.54-19.66-.81-8.83-1.52-9.78-2-18-.39-6.31-.59-9.47,0-13.45.9-6.09,2.66-8.55,5.53-15.92a159.22,159.22,0,0,0,6.19-21,173.54,173.54,0,0,0,3-23.16C289.66,60.39,290.26,51.37,289.53,43.15Z"/><path class="cls-3" d="M112.83,230.84c-6.13,2.76-12.11,5.68-17.89,9-2.87,1.66-5.73,3.34-8.5,5.16s-5.51,3.67-8.16,5.66-5.28,4-7.8,6.13-5,4.35-7.43,6.6c-4.83,4.55-9.38,9.41-13.82,14.46A94.56,94.56,0,0,1,61.39,261.7c2.28-2.5,4.73-4.83,7.23-7.1s5.17-4.37,7.88-6.39a109.34,109.34,0,0,1,17.35-10.47A95.17,95.17,0,0,1,112.83,230.84Z"/><path class="cls-3" d="M111.37,227.34a161.32,161.32,0,0,0-21.61,5.29c-3.5,1.16-7,2.39-10.37,3.84s-6.75,2.94-10,4.65a136,136,0,0,0-18.74,11.67A161.9,161.9,0,0,0,33.77,267.3a91.71,91.71,0,0,1,15.41-16.35,99.76,99.76,0,0,1,9.05-6.77c3.15-2.07,6.42-4,9.76-5.73a103.48,103.48,0,0,1,21.1-8.06A92,92,0,0,1,111.37,227.34Z"/><path class="cls-3" d="M110.49,224.13a184.1,184.1,0,0,0-23.55,2.29l-5.79,1.08c-1.91.44-3.83.83-5.73,1.31-3.8,1-7.58,2-11.29,3.25A160.86,160.86,0,0,0,42.38,241a219.2,219.2,0,0,0-20.57,11.72,108,108,0,0,1,9.36-7.39c1.62-1.16,3.3-2.23,5-3.33s3.4-2.1,5.14-3.06c3.45-2,7.07-3.73,10.7-5.4,1.84-.78,3.67-1.59,5.56-2.27l2.81-1.06,2.85-1a116.64,116.64,0,0,1,23.42-5.11A104.34,104.34,0,0,1,110.49,224.13Z"/><path class="cls-3" d="M186,230.84a95.18,95.18,0,0,1,19,6.89,109.33,109.33,0,0,1,17.35,10.47c2.71,2,5.35,4.14,7.88,6.39s5,4.61,7.23,7.1a94.54,94.54,0,0,1,12.16,16.11c-4.44-5-9-9.91-13.82-14.46-2.43-2.26-4.87-4.5-7.43-6.6s-5.13-4.19-7.8-6.13-5.37-3.87-8.16-5.66-5.62-3.5-8.5-5.16C198.11,236.51,192.12,233.6,186,230.84Z"/><path class="cls-3" d="M187.45,227.34a92,92,0,0,1,22.26,3.05,103.48,103.48,0,0,1,21.1,8.06c3.34,1.76,6.61,3.66,9.76,5.73a99.79,99.79,0,0,1,9.05,6.77A91.71,91.71,0,0,1,265,267.3a161.92,161.92,0,0,0-16.86-14.52,136,136,0,0,0-18.74-11.67c-3.26-1.71-6.61-3.23-10-4.65s-6.87-2.67-10.37-3.84A161.3,161.3,0,0,0,187.45,227.34Z"/><path class="cls-3" d="M188.33,224.13a104.34,104.34,0,0,1,23.87,0,116.64,116.64,0,0,1,23.42,5.11l2.85,1,2.81,1.06c1.88.68,3.72,1.49,5.56,2.27,3.64,1.67,7.25,3.39,10.7,5.4,1.75,1,3.45,2,5.14,3.06s3.35,2.17,5,3.33a108,108,0,0,1,9.36,7.39A219.21,219.21,0,0,0,256.44,241a160.84,160.84,0,0,0-21.75-8.92c-3.71-1.27-7.49-2.29-11.29-3.25-1.9-.48-3.82-.87-5.73-1.31l-5.79-1.08A184.1,184.1,0,0,0,188.33,224.13Z"/><circle class="cls-11" cx="218.89" cy="157.84" r="54.41" transform="translate(60.76 376.52) rotate(-89.92)"/><circle class="cls-12" cx="219.24" cy="157.84" r="54.41" transform="translate(61.1 376.87) rotate(-89.92)"/><path class="cls-13" d="M262,158c0,25.62-33.89,37.33-35.55,35.46s23.13-16.46,22.37-37.5c-.72-19.77-23.41-32.17-22.27-33.51C227.83,120.88,262,132.24,262,158Z"/></g></g></svg>