<svg xmlns="http://www.w3.org/2000/svg" viewBox="0 0 303.42 299.4"><defs><style>.cls-1{fill:#d45d9e;}.cls-2{fill:#24ae5f;}.cls-13,.cls-3{fill:#f90;}.cls-3{stroke:#f90066;}.cls-11,.cls-13,.cls-3,.cls-5,.cls-6,.cls-7{stroke-miterlimit:10;}.cls-3,.cls-6,.cls-7{stroke-width:3px;}.cls-4{fill:#141414;}.cls-5,.cls-6,.cls-7,.cls-9{fill:#fff;}.cls-11,.cls-5{stroke:aqua;stroke-width:6px;}.cls-6{stroke:#141414;}.cls-7{stroke:#020000;}.cls-8{fill:#070000;}.cls-10,.cls-9{opacity:0.2;}.cls-11{fill:none;}.cls-12{fill:#60f1fc;opacity:0.37;}.cls-13{stroke:#000;stroke-width:4px;}</style></defs><title>cat_optimize_1</title><g id="Layer_2" data-name="Layer 2"><g id="Layer_2-2" data-name="Layer 2"><polyline class="cls-1" points="216.53 213.54 235.21 213.54 235.21 187.39 235.21 187.39 216.53 187.39"/><polyline class="cls-2" points="216.53 145.47 235.21 145.47 235.21 119.23 235.21 119.23 216.53 119.23"/><rect class="cls-3" x="274.38" y="79.85" width="13.78" height="66.61" transform="translate(-21.91 113.04) rotate(-21.89)"/><rect class="cls-3" x="15.56" y="86.21" width="13.65" height="57.47" transform="matrix(0.94, 0.35, -0.35, 0.94, 41.38, -0.61)"/><path class="cls-4" d="M294.31,43.15c-.69-7.74-3.17-21.42-13.54-37.72a5,5,0,0,0-5.62-2.09,114.42,114.42,0,0,0-29,13.19c-10.78,6.89-18,14.13-24.25,20.38a187.4,187.4,0,0,0-14.67,16.5A5,5,0,0,1,201.58,55a143.9,143.9,0,0,0-48.86-9.57v0h-2v0A143.9,143.9,0,0,0,101.84,55a5,5,0,0,1-5.69-1.57,187.4,187.4,0,0,0-14.67-16.5C75.23,30.68,68,23.44,57.23,16.54a114.42,114.42,0,0,0-29-13.19,5,5,0,0,0-5.62,2.09C12.28,21.73,9.8,35.41,9.12,43.15,8.39,51.37,9,60.39,9.5,67.52a173.55,173.55,0,0,0,3,23.16,159.23,159.23,0,0,0,6.19,21c2.87,7.37,4.63,9.84,5.53,15.92.59,4,.39,7.14,0,13.45-.51,8.23-1.21,9.18-2,18-.68,7.39-1.15,12.74-.54,19.66a84.66,84.66,0,0,0,2.69,14.54A121.75,121.75,0,0,0,34,218.84a118.22,118.22,0,0,0,11.61,18.37C54.52,248.56,64.75,255.29,85,268.1c15.7,9.95,9.53,4.78,33.88,18.93,5.51,3.2,13.76,8.07,25.41,9a49,49,0,0,0,7.1,0,5.21,5.21,0,0,1,.72,0,49,49,0,0,0,7.1,0c11.65-.89,19.9-5.77,25.41-9,24.35-14.15,18.17-9,33.88-18.93,20.22-12.81,30.45-19.54,39.36-30.89a118.23,118.23,0,0,0,11.61-18.37,121.76,121.76,0,0,0,9.69-25.58,84.67,84.67,0,0,0,2.69-14.54c.61-6.91.14-12.27-.54-19.66-.81-8.83-1.52-9.78-2-18-.39-6.31-.59-9.47,0-13.45.9-6.09,2.66-8.55,5.53-15.92a159.22,159.22,0,0,0,6.19-21,173.54,173.54,0,0,0,3-23.16C294.43,60.39,295,51.37,294.31,43.15Z"/><path class="cls-5" d="M95.45,108.88a38.94,38.94,0,0,1-5.08-6.52c-3.78-6.85-3.42-14.05-6.93-25.92a124.27,124.27,0,0,0-6.22-16c-8-18-35.19-62-51.29-57.07C14.26,6.93,9.09,35.95,8.3,41.52c-.16,1.13-.3,2.33-.3,2.33-.81,6.83-.41,12.74.46,24.37a173.54,173.54,0,0,0,3,23.15,159.23,159.23,0,0,0,6.26,21c2.89,7.36,4.66,9.82,5.58,15.91.6,4,.41,7.14,0,13.45-.48,8.23-1.19,9.18-2,18-.66,7.39-1.11,12.75-.48,19.66a84.66,84.66,0,0,0,2.74,14.53,121.75,121.75,0,0,0,9.77,25.55,118.22,118.22,0,0,0,11.66,18.33c8.94,11.32,19.2,18,39.46,30.76,15.74,9.9,9.55,4.75,33.94,18.82,5.52,3.18,13.78,8,25.44,8.89a49,49,0,0,0,7.1,0,5.22,5.22,0,0,1,.72,0,49,49,0,0,0,7.1,0c11.65-.93,19.89-5.83,25.38-9,24.3-14.23,18.15-9,33.82-19,29.61-18.89,39.26-31,39.26-31,4.07-15.26,1.26-23.73-1.93-28.6-15-22.86-59.58-2.9-85-28.75-17.11-17.41-1.49-37.46-19.91-50C134.83,119,112,127,95.45,108.88Z"/><path class="cls-4" d="M172.64,208.2c-.1-.78-1-1.2-2.71-2.06a17.46,17.46,0,0,0-9.91-1.4,22,22,0,0,0-5.79,1.53,22,22,0,0,0-5.79-1.53,17.46,17.46,0,0,0-9.91,1.4c-1.74.85-2.61,1.28-2.71,2.06-.27,2.11,5.14,5.4,10.07,8.4a5,5,0,0,1,1.69,1.52c1,1.43.33,2.29,1,4a6.3,6.3,0,0,0,3.54,3.54,10,10,0,0,0,4.21,0,6.3,6.3,0,0,0,3.54-3.54c.68-1.76.05-2.62,1-4a5,5,0,0,1,1.69-1.52C167.5,213.6,172.92,210.31,172.64,208.2Z"/><path class="cls-4" d="M124.8,249.4a31.61,31.61,0,0,0,7.86,1.06A25.33,25.33,0,0,0,140,249.4a26.57,26.57,0,0,0,3.37-1.29,27,27,0,0,0,3.1-1.77,23.86,23.86,0,0,0,5.21-4.75l2.16-2.69,2.35,2.52a31.16,31.16,0,0,0,12.1,8,33.3,33.3,0,0,0,7.36,1.76,44.59,44.59,0,0,0,8,.24,20.3,20.3,0,0,1-3.81,1.7,23.71,23.71,0,0,1-4.12,1,25.92,25.92,0,0,1-8.62-.15,27.12,27.12,0,0,1-8.28-3,30.21,30.21,0,0,1-3.7-2.44,32.19,32.19,0,0,1-3.28-3l4.52-.17a24.57,24.57,0,0,1-6.92,5.83,23.13,23.13,0,0,1-8.5,2.83,22,22,0,0,1-8.73-.65A19.42,19.42,0,0,1,124.8,249.4Z"/><path class="cls-6" d="M69.67,157c23.93-16.55,42.63-8.64,52.1,18.58a2.24,2.24,0,0,1-1.33,2.85c-17.78,6.34-37.15-5.43-51-17.39A2.56,2.56,0,0,1,69.67,157Z"/><circle class="cls-4" cx="96.77" cy="162.94" r="13.15" transform="translate(-78.71 234.51) rotate(-81.48)"/><path class="cls-7" d="M233.64,157c-23.93-16.55-42.63-8.64-52.1,18.58a2.24,2.24,0,0,0,1.33,2.85c17.78,6.34,37.15-5.43,51-17.39A2.56,2.56,0,0,0,233.64,157Z"/><circle class="cls-8" cx="206.54" cy="162.94" r="13.15" transform="translate(-21.85 32.38) rotate(-8.52)"/><path class="cls-9" d="M268.76,90.33c3.44-25.69,19.4-71.28-.74-67.06-1,.21-23.41,22.19-32.08,35.8a4.09,4.09,0,0,0,.6,4.82l28,28.16C266.17,93.67,268.43,92.74,268.76,90.33Z"/><path class="cls-10" d="M33.33,85.71c-3.44-25.69-19.4-71.28.74-67.06,1,.21,23.41,22.19,32.08,35.8a4.09,4.09,0,0,1-.6,4.82l-28,28.16C35.91,89.05,33.65,88.12,33.33,85.71Z"/><path class="cls-11" d="M294.09,43.15c-.69-7.74-3.17-21.42-13.54-37.72a5,5,0,0,0-5.62-2.09,114.42,114.42,0,0,0-29,13.19c-10.78,6.89-18,14.13-24.25,20.38a187.4,187.4,0,0,0-14.67,16.5A5,5,0,0,1,201.37,55a143.9,143.9,0,0,0-48.86-9.57v0h-2v0A143.9,143.9,0,0,0,101.63,55a5,5,0,0,1-5.69-1.57,187.4,187.4,0,0,0-14.67-16.5C75,30.68,67.8,23.44,57,16.54A112.71,112.71,0,0,0,38.89,7.17c-4.28-3.07-8.38-4.67-12-4a5,5,0,0,0-4.26,2C13.28,12.46,9,36.5,8.3,41.52c-.16,1.13-.3,2.33-.3,2.33-.81,6.83-.41,12.74.46,24.37a173.54,173.54,0,0,0,3,23.15,159.23,159.23,0,0,0,6.26,21c2.89,7.36,4.66,9.82,5.58,15.91.6,4,.41,7.14,0,13.45-.48,8.23-1.19,9.18-2,18-.66,7.39-1.11,12.75-.48,19.66a84.66,84.66,0,0,0,2.74,14.53,121.75,121.75,0,0,0,9.77,25.55,118.22,118.22,0,0,0,11.66,18.33c8.94,11.32,19.2,18,39.46,30.76,15.74,9.9,9.55,4.75,33.94,18.82,5.52,3.18,13.78,8,25.44,8.89a49,49,0,0,0,7.1,0,5.22,5.22,0,0,1,.72,0,49,49,0,0,0,7.1,0c11.65-.93,19.89-5.83,25.38-9,11.86-6.94,16.47-9.26,19.9-11a123.5,123.5,0,0,0,14.11-8.1c20.22-12.81,30.45-19.54,39.36-30.89a118.23,118.23,0,0,0,11.61-18.37,121.76,121.76,0,0,0,9.69-25.58,84.67,84.67,0,0,0,2.69-14.54c.61-6.91.14-12.27-.54-19.66-.81-8.83-1.52-9.78-2-18-.39-6.31-.59-9.47,0-13.45.9-6.09,2.66-8.55,5.53-15.92a159.22,159.22,0,0,0,6.19-21,173.54,173.54,0,0,0,3-23.16C294.22,60.39,294.82,51.37,294.09,43.15Z"/><path class="cls-4" d="M117.39,230.84c-6.13,2.76-12.11,5.68-17.89,9-2.87,1.66-5.73,3.34-8.5,5.16s-5.51,3.67-8.16,5.66-5.28,4-7.8,6.13-5,4.35-7.43,6.6c-4.83,4.55-9.38,9.41-13.82,14.46A94.56,94.56,0,0,1,66,261.7c2.28-2.5,4.73-4.83,7.23-7.1s5.17-4.37,7.88-6.39a109.35,109.35,0,0,1,17.35-10.47A95.18,95.18,0,0,1,117.39,230.84Z"/><path class="cls-4" d="M115.93,227.34a161.32,161.32,0,0,0-21.61,5.29c-3.5,1.16-7,2.39-10.37,3.84s-6.75,2.94-10,4.65A136,136,0,0,0,55.2,252.79,161.93,161.93,0,0,0,38.34,267.3a91.72,91.72,0,0,1,15.41-16.35,99.8,99.8,0,0,1,9.05-6.77c3.15-2.07,6.42-4,9.76-5.73a103.48,103.48,0,0,1,21.1-8.06A92,92,0,0,1,115.93,227.34Z"/><path class="cls-4" d="M115.05,224.13a184.1,184.1,0,0,0-23.55,2.29l-5.79,1.08c-1.91.44-3.83.83-5.73,1.31-3.8,1-7.58,2-11.29,3.26A160.84,160.84,0,0,0,46.95,241a219.22,219.22,0,0,0-20.57,11.72,108,108,0,0,1,9.36-7.39c1.62-1.16,3.3-2.23,5-3.33s3.4-2.1,5.14-3.06c3.45-2,7.07-3.73,10.7-5.4,1.84-.78,3.67-1.59,5.56-2.27l2.81-1.06,2.85-1a116.64,116.64,0,0,1,23.42-5.11A104.34,104.34,0,0,1,115.05,224.13Z"/><path class="cls-4" d="M190.56,230.84a95.18,95.18,0,0,1,19,6.89,109.33,109.33,0,0,1,17.35,10.47c2.71,2,5.35,4.14,7.88,6.39s5,4.61,7.23,7.1a94.56,94.56,0,0,1,12.16,16.11c-4.44-5-9-9.91-13.82-14.46-2.43-2.26-4.87-4.5-7.43-6.6s-5.13-4.19-7.8-6.13-5.37-3.87-8.16-5.66-5.62-3.5-8.5-5.16C202.67,236.51,196.69,233.6,190.56,230.84Z"/><path class="cls-4" d="M192,227.34a92,92,0,0,1,22.26,3.05,103.48,103.48,0,0,1,21.1,8.06c3.34,1.76,6.61,3.66,9.76,5.73a99.8,99.8,0,0,1,9.05,6.77,91.71,91.71,0,0,1,15.41,16.35,161.9,161.9,0,0,0-16.86-14.52A136,136,0,0,0,234,241.11c-3.26-1.71-6.61-3.23-10-4.65s-6.87-2.67-10.37-3.84A161.32,161.32,0,0,0,192,227.34Z"/><path class="cls-4" d="M192.89,224.13a104.34,104.34,0,0,1,23.87,0,116.64,116.64,0,0,1,23.42,5.11l2.85,1,2.81,1.06c1.88.68,3.72,1.49,5.56,2.27,3.64,1.67,7.25,3.39,10.7,5.4,1.75,1,3.45,2,5.14,3.06s3.35,2.17,5,3.33a108,108,0,0,1,9.36,7.39A219.22,219.22,0,0,0,261,241a160.84,160.84,0,0,0-21.75-8.92c-3.71-1.27-7.49-2.29-11.29-3.25-1.9-.48-3.82-.87-5.73-1.31l-5.79-1.08A184.1,184.1,0,0,0,192.89,224.13Z"/><g id="WlWi4P.tif"><path class="cls-3" d="M230.61,127.11a345.18,345.18,0,0,1,44.07,2c4.18.49,24.39.43,26.54,3.11,1.78,2.22-.3,11.53-1.38,13.87-2,4.29-6.42,5.72-8.35,9.68-2.08,4.26-1.69,10.41-2.32,15-1.61,11.69-3.59,23.42-11.15,32.93-14.84,18.67-44.53,20.64-66.13,15.73-24.46-5.56-37.07-23.07-45.88-45.32-3.38-8.54-6.92-21.82-19.43-15.79-9.33,4.5-12.65,29-18.77,38.44-15,23-43.46,28.09-69.25,25.07-23.39-2.74-37.1-17.27-42.06-39.73-1.42-6.42-.52-16.56-3.69-22.51-2.16-4.07-7.16-5.39-9-9.17-8.94-18.25,10.15-17,22.58-18.7,35.17-4.87,67.28-.8,101.94,6.51C162.45,145.44,196.54,132,230.61,127.11ZM71.82,136.33C41.27,139.72,18,143.49,26,180.61c6,27.6,29,39.82,56.36,35.93C108.61,212.8,126,193.3,127,166.71,128.07,136.35,94,139,71.82,136.33ZM233,134.94c0-.29-33.43,5.15-38,6.53-13.64,4.16-19.14,11-18.35,25.48,1.53,27.92,24.55,48.55,51.92,48.92,26.32.35,44.93-12.38,49.61-38.61C284.58,141.69,263.18,137.72,233,134.94ZM24.32,144m269.37-1.16c.76-6.23-14.11-6.58-14.59-1.33Z"/><path class="cls-12" d="M71.82,136.33c20.45,2.48,54.78-.18,55.31,28,.51,27.36-18.08,48.44-44.77,52.24-26,3.7-49-7.17-55.76-33.46C16.81,144.71,39.86,139.88,71.82,136.33Z"/><path class="cls-12" d="M233,134.94c30,2.76,51.65,6.88,45.23,42.31-4.74,26.17-23.24,39-49.61,38.61-27.35-.36-50.38-21-51.92-48.92-.79-14.33,4.86-21.27,18.35-25.48C199,140.22,233,134.76,233,134.94Z"/><path class="cls-13" d="M24.32,144,9.79,145.33,9.53,143a16.85,16.85,0,0,1,14.72-1.46Z"/><path class="cls-13" d="M293.7,142.83l-14.59-1.33.2-2.19c5.08-2.27,9.94-1.31,14.72.8Z"/></g></g></g></svg>