<svg xmlns="http://www.w3.org/2000/svg" viewBox="0 0 330.08 306.49"><defs><style>.cls-1{fill:#141414;}.cls-2,.cls-3,.cls-4,.cls-6,.cls-7{fill:#fff;}.cls-2,.cls-9{stroke:#f0f;stroke-width:6px;}.cls-12,.cls-2,.cls-3,.cls-4,.cls-9{stroke-miterlimit:10;}.cls-3{stroke:#141414;}.cls-3,.cls-4{stroke-width:3px;}.cls-4{stroke:#020000;}.cls-5{fill:#070000;}.cls-6,.cls-8{opacity:0.2;}.cls-9{fill:none;}.cls-10{fill:#fff8a4;}.cls-11{fill:#f0f;}.cls-12,.cls-14{fill:#f90;}.cls-12{stroke:#f90066;stroke-width:4px;}.cls-13{fill:#b7b7b7;}.cls-15{fill:#60f1fc;opacity:0.25;}</style></defs><title>cat_deploy_1</title><g id="Layer_2" data-name="Layer 2"><g id="Layer_2-2" data-name="Layer 2"><path class="cls-1" d="M283.88,75.21c-.57-6.48-2.65-17.92-11.33-31.55a4.16,4.16,0,0,0-4.7-1.75,95.73,95.73,0,0,0-24.23,11c-9,5.77-15.05,11.82-20.29,17.05a156.78,156.78,0,0,0-12.28,13.8,4.16,4.16,0,0,1-4.76,1.31,120.38,120.38,0,0,0-40.87-8v0h-1.7v0a120.38,120.38,0,0,0-40.87,8,4.16,4.16,0,0,1-4.76-1.31A156.78,156.78,0,0,0,105.83,70c-5.23-5.23-11.27-11.29-20.29-17.05a95.73,95.73,0,0,0-24.23-11,4.16,4.16,0,0,0-4.7,1.75C47.94,57.29,45.87,68.73,45.29,75.21a131.44,131.44,0,0,0,.32,20.39A145.19,145.19,0,0,0,48.09,115a133.21,133.21,0,0,0,5.18,17.57c2.4,6.17,3.88,8.23,4.63,13.32.49,3.33.33,6,0,11.25-.43,6.89-1,7.68-1.7,15.07-.57,6.18-1,10.66-.45,16.44A70.83,70.83,0,0,0,58,200.79a101.85,101.85,0,0,0,8.11,21.4,98.9,98.9,0,0,0,9.71,15.37c7.45,9.5,16,15.13,32.93,25.84,13.14,8.32,8,4,28.34,15.84,4.61,2.68,11.51,6.76,21.26,7.5a41,41,0,0,0,5.94,0,4.36,4.36,0,0,1,.6,0,41,41,0,0,0,5.94,0c9.75-.75,16.65-4.83,21.26-7.5,20.37-11.84,15.2-7.52,28.34-15.84,16.92-10.72,25.48-16.34,32.93-25.84a98.91,98.91,0,0,0,9.71-15.37,101.86,101.86,0,0,0,8.11-21.4,70.83,70.83,0,0,0,2.25-12.16c.51-5.78.12-10.26-.45-16.44-.68-7.39-1.27-8.18-1.7-15.07-.33-5.28-.49-7.92,0-11.25.75-5.09,2.22-7.16,4.63-13.32A133.2,133.2,0,0,0,281.08,115a145.18,145.18,0,0,0,2.48-19.37A131.44,131.44,0,0,0,283.88,75.21Z"/><path class="cls-2" d="M117.92,130.19a32.57,32.57,0,0,1-4.25-5.46c-3.16-5.73-2.86-11.76-5.8-21.69a104,104,0,0,0-5.2-13.37C96,74.62,73.22,37.83,59.75,41.94,50,44.91,45.67,69.18,45,73.84c-.13.95-.25,2-.25,2-.68,5.71-.35,10.66.39,20.38a145.18,145.18,0,0,0,2.54,19.36,133.21,133.21,0,0,0,5.24,17.55c2.42,6.16,3.9,8.22,4.67,13.31.5,3.33.35,6,0,11.25-.4,6.89-1,7.68-1.65,15.07-.55,6.18-.93,10.66-.4,16.44a70.83,70.83,0,0,0,2.29,12.16A101.85,101.85,0,0,0,66,222.71,98.9,98.9,0,0,0,75.81,238c7.48,9.47,16.06,15.08,33,25.74,13.16,8.28,8,4,28.39,15.75,4.61,2.66,11.53,6.72,21.28,7.44a41,41,0,0,0,5.94,0,4.37,4.37,0,0,1,.6,0,41,41,0,0,0,5.94,0c9.75-.78,16.64-4.88,21.23-7.57,20.33-11.9,15.18-7.56,28.29-15.93,24.77-15.8,32.85-25.95,32.85-25.95,3.41-12.77,1.05-19.85-1.62-23.93-12.53-19.12-49.84-2.42-71.09-24-14.31-14.57-1.25-31.34-16.66-41.87C150.86,138.69,131.76,145.38,117.92,130.19Z"/><path class="cls-1" d="M182.5,213.29c-.08-.65-.81-1-2.27-1.72a14.61,14.61,0,0,0-8.29-1.17,18.4,18.4,0,0,0-4.84,1.28,18.4,18.4,0,0,0-4.84-1.28,14.6,14.6,0,0,0-8.29,1.17c-1.46.71-2.18,1.07-2.27,1.72-.23,1.76,4.3,4.52,8.42,7a4.21,4.21,0,0,1,1.41,1.27c.8,1.19.27,1.92.85,3.39a5.27,5.27,0,0,0,3,3,8.35,8.35,0,0,0,3.52,0,5.27,5.27,0,0,0,3-3c.57-1.47,0-2.19.85-3.39a4.21,4.21,0,0,1,1.41-1.27C178.2,217.81,182.73,215.05,182.5,213.29Z"/><path class="cls-1" d="M142.47,247.75a27.91,27.91,0,0,0,6.61.65,21.59,21.59,0,0,0,6-1,22.76,22.76,0,0,0,2.74-1.1,23.08,23.08,0,0,0,2.51-1.48,20,20,0,0,0,4.22-3.89l2.16-2.69,2.36,2.52a26.64,26.64,0,0,0,9.86,6.62A28.79,28.79,0,0,0,185,249a40.53,40.53,0,0,0,6.69.44,18.45,18.45,0,0,1-6.63,2.5,21.35,21.35,0,0,1-7.32,0,22.57,22.57,0,0,1-7.06-2.46,25.38,25.38,0,0,1-3.16-2.07,27.26,27.26,0,0,1-2.8-2.54l4.52-.17a20.69,20.69,0,0,1-5.93,5,19.4,19.4,0,0,1-7.28,2.35,18.3,18.3,0,0,1-7.41-.68A15.74,15.74,0,0,1,142.47,247.75Z"/><path class="cls-3" d="M92.29,170.47c20-13.85,35.66-7.23,43.59,15.54a1.87,1.87,0,0,1-1.12,2.38c-14.88,5.3-31.08-4.54-42.66-14.55A2.15,2.15,0,0,1,92.29,170.47Z"/><circle class="cls-1" cx="114.96" cy="175.43" r="11" transform="translate(-75.55 263.14) rotate(-81.48)"/><path class="cls-4" d="M237.58,170.47c-20-13.85-35.66-7.23-43.59,15.54a1.87,1.87,0,0,0,1.12,2.38c14.88,5.3,31.08-4.54,42.66-14.55A2.15,2.15,0,0,0,237.58,170.47Z"/><circle class="cls-5" cx="214.92" cy="175.43" r="11" transform="translate(-23.61 33.76) rotate(-8.52)"/><path class="cls-6" d="M262.91,114.68c2.88-21.49,16.23-59.63-.62-56.1-.85.18-19.59,18.56-26.84,30a3.42,3.42,0,0,0,.5,4l23.44,23.56C260.74,117.48,262.64,116.7,262.91,114.68Z"/><path class="cls-7" d="M61.43,50.56"/><path class="cls-8" d="M65.95,110.81c-2.88-21.49-16.23-59.63.62-56.1.85.18,19.59,18.56,26.84,30a3.42,3.42,0,0,1-.5,4L69.46,112.25C68.11,113.61,66.22,112.83,65.95,110.81Z"/><path class="cls-9" d="M284.1,75.21c-.57-6.48-2.65-17.92-11.33-31.55a4.16,4.16,0,0,0-4.7-1.75,95.73,95.73,0,0,0-24.23,11c-9,5.77-15.05,11.82-20.29,17.05a156.78,156.78,0,0,0-12.28,13.8,4.16,4.16,0,0,1-4.76,1.31,120.38,120.38,0,0,0-40.87-8v0H164v0a120.38,120.38,0,0,0-40.87,8,4.16,4.16,0,0,1-4.76-1.31A156.78,156.78,0,0,0,106.05,70c-5.23-5.23-11.27-11.29-20.29-17.05A94.29,94.29,0,0,0,70.6,45.1c-3.58-2.57-7-3.9-10-3.36A4.16,4.16,0,0,0,57,43.41c-7.83,6.12-11.4,26.23-12,30.43-.13.95-.25,2-.25,2-.68,5.71-.35,10.66.39,20.38a145.18,145.18,0,0,0,2.54,19.36,133.21,133.21,0,0,0,5.24,17.55c2.42,6.16,3.9,8.22,4.67,13.31.5,3.33.35,6,0,11.25-.4,6.89-1,7.68-1.65,15.07-.55,6.18-.93,10.66-.4,16.44a70.83,70.83,0,0,0,2.29,12.16A101.85,101.85,0,0,0,66,222.71,98.9,98.9,0,0,0,75.81,238c7.48,9.47,16.06,15.08,33,25.74,13.16,8.28,8,4,28.39,15.75,4.61,2.66,11.53,6.72,21.28,7.44a41,41,0,0,0,5.94,0,4.37,4.37,0,0,1,.6,0,41,41,0,0,0,5.94,0c9.75-.78,16.64-4.88,21.23-7.57,9.92-5.81,13.78-7.75,16.65-9.19a103.32,103.32,0,0,0,11.8-6.77c16.92-10.72,25.48-16.34,32.93-25.84a98.91,98.91,0,0,0,9.71-15.37,101.86,101.86,0,0,0,8.11-21.4,70.83,70.83,0,0,0,2.25-12.16c.51-5.78.12-10.26-.45-16.44-.68-7.39-1.27-8.18-1.7-15.07-.33-5.28-.49-7.92,0-11.25.75-5.09,2.22-7.16,4.63-13.32A133.2,133.2,0,0,0,281.3,115a145.18,145.18,0,0,0,2.48-19.37A131.44,131.44,0,0,0,284.1,75.21Z"/><path class="cls-1" d="M136.27,232c-4.85,2.32-9.59,4.7-14.17,7.35-2.27,1.35-4.55,2.69-6.74,4.15S111,246.4,108.89,248s-4.2,3.17-6.22,4.87-4,3.44-5.95,5.22c-3.88,3.6-7.55,7.42-11.2,11.37a70.63,70.63,0,0,1,9.54-13c1.8-2,3.76-3.89,5.75-5.72s4.13-3.5,6.3-5.13A84,84,0,0,1,121,237.25,71.1,71.1,0,0,1,136.27,232Z"/><path class="cls-1" d="M135.11,229.17a142.37,142.37,0,0,0-17.18,4.45c-2.78,1-5.55,1.93-8.24,3.1s-5.37,2.35-8,3.71a113.35,113.35,0,0,0-14.95,9.23,143.12,143.12,0,0,0-13.6,11.4,69.5,69.5,0,0,1,12.15-13.24,77.4,77.4,0,0,1,7.22-5.46c2.52-1.67,5.14-3.19,7.81-4.6a80.3,80.3,0,0,1,16.92-6.39A69.72,69.72,0,0,1,135.11,229.17Z"/><path class="cls-1" d="M134.41,226.61a162.72,162.72,0,0,0-18.76,2.06l-4.6.89c-1.52.36-3,.68-4.56,1.06-3,.78-6,1.59-9,2.61a134.39,134.39,0,0,0-17.34,7c-5.64,2.72-11.1,5.86-16.53,9.15a85.82,85.82,0,0,1,15.43-11.22,94.35,94.35,0,0,1,8.54-4.37c1.47-.63,2.94-1.28,4.44-1.83l2.25-.85,2.28-.77a90.47,90.47,0,0,1,18.76-4A79.05,79.05,0,0,1,134.41,226.61Z"/><path class="cls-1" d="M197.49,231.62a65.19,65.19,0,0,1,14.31,4.89,77.68,77.68,0,0,1,13.05,7.78c2,1.53,4,3.12,5.9,4.81s3.7,3.48,5.38,5.37A64.74,64.74,0,0,1,245,266.71c-3.44-3.68-6.9-7.24-10.54-10.6-1.84-1.66-3.66-3.32-5.58-4.87s-3.83-3.11-5.82-4.55-4-2.89-6.06-4.23-4.17-2.63-6.29-3.9C206.44,236.08,202,233.83,197.49,231.62Z"/><path class="cls-1" d="M198.58,229a64.2,64.2,0,0,1,16.72,2,74.49,74.49,0,0,1,15.86,6c2.5,1.33,5,2.75,7.31,4.32a71.77,71.77,0,0,1,6.76,5.13,64,64,0,0,1,11.33,12.45,139,139,0,0,0-12.78-10.61,107.75,107.75,0,0,0-14-8.62c-2.42-1.28-4.92-2.41-7.44-3.48s-5.1-2-7.7-2.92A138.22,138.22,0,0,0,198.58,229Z"/><path class="cls-1" d="M199.23,226.6a72.78,72.78,0,0,1,17.88-.3,83.92,83.92,0,0,1,17.58,3.75l2.13.73,2.1.8c1.41.52,2.78,1.12,4.16,1.71a87.42,87.42,0,0,1,8,4.11A78.87,78.87,0,0,1,265.5,248c-5.11-3.05-10.22-6-15.51-8.5a127.84,127.84,0,0,0-16.23-6.57c-2.76-1-5.57-1.71-8.4-2.44-1.41-.37-2.84-.67-4.26-1s-2.87-.56-4.3-.84A158,158,0,0,0,199.23,226.6Z"/><g id="xWrKPt.tif"><path class="cls-10" d="M20.35,115.9a13.49,13.49,0,0,0,9.23-12.32c.06-5.18-3.38-9.83-8.67-11.71C17,90.48,13.81,90.71,10.48,93A14.89,14.89,0,0,0,4.2,104.77c-.05,1.35-.07,2.69-.08,4C9.26,115.72,14.52,117.81,20.35,115.9Zm-6-20.24c-3,5.68-3,11.13,1,16.53a8,8,0,0,1-7.87-7.7A8.1,8.1,0,0,1,14.37,95.67Z"/><path class="cls-10" d="M310,91.85c-5.68,1.63-9.59,6.5-9.55,11.9A13.52,13.52,0,0,0,310,116.24c5.53,1.67,10.82-.52,14.91-6.1a26.92,26.92,0,0,0,.91-10.37C321,92.43,316.13,90.09,310,91.85Zm12.49,13.32c-.6,4.38-4,7.51-8,7.32,4-6,4.25-8.31,1.61-16.49A8.07,8.07,0,0,1,322.47,105.17Z"/><path class="cls-11" d="M327.37,60.52a7.64,7.64,0,0,0-2.68-2.75,56.52,56.52,0,0,0-22.6-7.67c-5.8-.63-11.71-.32-17.57-.3a2.2,2.2,0,0,1-2.27-1.24C274.79,36.24,265.12,31.37,253,23.48,236.65,12.77,218.48,6.87,199.35,3.87c-10.42-1.64-21-2.38-31.47-3.54-.54-.06-1.07-.21-1.6-.32h-8.71c-3.36.26-6.73.53-10.09.77-14.7,1.06-29,3.35-42.77,8.56A116.38,116.38,0,0,0,55.94,44.12a116.27,116.27,0,0,0-7,9.76C48.11,55.07,47.32,50,46,49.82c-12.26-1.27-24.14.14-35.45,5.25a59.22,59.22,0,0,0-5.66,3,5.16,5.16,0,0,0-2.43,3.62C2.09,63.44.86,65,0,66.61v47a39.17,39.17,0,0,0,3.53,5.26c1.76,1.91,4.22,2.51,6.82,2.47,6.28-.1,12.57-.16,18.85-.23a5.17,5.17,0,0,1,.86.19l-.47,9.45c-2.08,0-4,.12-5.89,0-2.53-.2-3.69,1-4.46,3.29a66.87,66.87,0,0,0-3.35,23.73,108.55,108.55,0,0,0,4.73,28.19c.65,2.09,1.67,3,3.87,2.71a44.53,44.53,0,0,1,5,0c.25,2.6.36,5.28.79,7.9,1.43,8.59,2.56,17.27,4.62,25.71,1.44,5.92,3.78,11.62,5.19,17.61,1.69,7.17,5.72,13.32,9.54,19.5,2.32,3.77,4.89,7.39,7.26,11.12a7.74,7.74,0,0,1,1.16,3c.64,4.73,1.21,9.48,1.66,14.24a4,4,0,0,0,2.83,3.81c11.28,4.53,22.51,9.18,33.76,13.81.81.33,1.56.81,2.34,1.22h1.66c4.53-1.38,9-2.81,13.59-4.12,8.48-2.46,17.12-2.57,25.88-2,14.41,1,28.84,1.45,43.25-.11a133.83,133.83,0,0,0,36-9.45c10.93-4.43,21.72-9.29,32.31-14.47,14.72-7.2,25.78-18.63,34.92-32,.91-1.33,1.75-1.88,3.36-1.57,2.49.49,5,.72,7.54,1.16,2.16.38,4.47-.29,5.36-2.25a29.94,29.94,0,0,0,2.7-8,81.54,81.54,0,0,0,.75-13.19c-.07-3-1.27-3.76-4.19-4.07-1.79-.19-3.57-.35-5.36-.53a2.63,2.63,0,0,1-.54-.23l3.31-27.11c2.49,0,4.95,0,7.41,0a2.45,2.45,0,0,0,2.8-1.86c4.87-16.08,7.06-32.31,2.84-48.91-.43-1.67-1.11-3.28-1.59-4.93a2.77,2.77,0,0,0-3.09-2.16c-1.85,0-3.71,0-5.79,0l-.5-9.37h5.86c3.52,0,7.06-.18,10.57.06,6.11.41,10.25-2,12.37-7.84v-47C329.19,64.57,328.44,62.45,327.37,60.52ZM318,59.1c-4.71,0-9.43,0-14.14,0a12.56,12.56,0,0,0-4,.64,9.77,9.77,0,0,0-6.35,9.11,18.71,18.71,0,0,1-.27,3.68c-1.24-3.1-2.43-6.22-3.72-9.31s-2.68-6.2-4.14-9.56C296.78,52.52,307.65,54,318,59.1ZM257.12,32A90.22,90.22,0,0,1,278,54a107.89,107.89,0,0,1,11.83,24.4c0,.07,0,.14.05.2,4,9.61,3.94,19.72,3.59,29.85-.13,3.94.2,7.63,3.41,10.44a1.73,1.73,0,0,1,.43,1.11c.2,3.31.36,6.63.53,10.11h-7c-.33-5.19-.5-10.37-1-15.51-.65-6.61-1.25-13.25-2.47-19.77-1.6-8.56-10.55-12.52-18.34-8.41a107.69,107.69,0,0,0-29.25-17.77c-1.31-.55-1-1.43-.89-2.37a82.1,82.1,0,0,0-.09-25.05c-1.13-6.75-2.85-13.39-4.31-20.08-.14-.66-.33-1.31-.58-2.3A108.83,108.83,0,0,1,257.12,32ZM44.05,183.11c2-4.84,3.51-9.72,3.31-15.21-.32-8.71.11-17.45.3-26.18,0-2-.57-3.23-3-3.2l.36-2.62c4.09-.38,4.92-1.2,5.1-5.53a114.57,114.57,0,0,1,5.33-31.22A28.27,28.27,0,0,1,65.4,85c12.8-9.91,27.24-16.26,42.72-20.44,21-5.67,42.44-7.21,64.09-6.5,18.66.61,37,3.11,54.84,8.93a122.7,122.7,0,0,1,36.57,18.65c6.37,4.83,10.67,10.68,12.67,18.55a126.31,126.31,0,0,1,3.93,25.61c0,.62.06,1.25.11,1.87.33,4.48,1.49,5.46,5.8,4.91l.46.65a12.88,12.88,0,0,0-2.11,1.43c-.66.66-1.61,1.52-1.61,2.28.07,11.43.27,22.86.47,34.29a3,3,0,0,0,.41,1.57,12.87,12.87,0,0,1,2.38,9.69c-1.73,10.44-3,21-5.5,31.26-2.07,8.34-5.67,16.3-8.77,24.37a13.22,13.22,0,0,1-2.91,3.74c-10.5,11.41-23.08,20-37,26.57a155.5,155.5,0,0,1-55.47,14.32c-22.21,1.7-44.19.21-65.76-5.65-16.14-4.39-31-11.3-43.42-22.84a117.93,117.93,0,0,1-9.56-10.62C53,241.92,51.35,235,50,227.8c-2.52-13.05-5.44-26-6.66-39.29A10.83,10.83,0,0,1,44.05,183.11Zm-1.34-55c.88-10.75,1.89-21.48,2.85-32.22a8.1,8.1,0,0,1,.18-1c1.38-6.24,4.88-8.6,11.69-7.55-7.28,14.3-10,29.61-10.28,45.6C42.87,132,42.43,131.61,42.72,128.07ZM273.19,88.33c6.94-1.05,10.61,1.37,11.59,8.19,1.12,7.79,1.76,15.66,2.52,23.5.28,2.89.36,5.8.47,8.7.15,3.91.13,3.91-4.09,5.28a33.58,33.58,0,0,1-.49-3.49c-.43-11.77-2.32-23.25-6.64-34.25C275.53,93.65,274.36,91.09,273.19,88.33Zm15.93,99.9h6.15l-3.54,27.24-7-.52Zm1.14-4.77-1.34-4.77c2.62-.16,2.78-2,3-3.93a120.62,120.62,0,0,0-.46-31.08c-.21-1.43-1.25-2.76-1.33-4.18-.09-1.6.46-3.24.82-5.4C295.56,141.88,295.06,174.26,290.26,183.47ZM229.79,17.33a1.86,1.86,0,0,1,.8,1.11c4.74,15.34,7.72,30.88,5.44,47-.06.4-.15.8-.29,1.52-2.48-1.15-4.88-2.18-7.17-3.41-.43-.23-.64-1.27-.62-1.92q.36-10.48.84-21a57.06,57.06,0,0,0-4-22.95c-.26-.69-.49-1.4-.91-2.59C226.12,16,228,16.59,229.79,17.33ZM104.61,15.56a156.43,156.43,0,0,1,40.66-9.27c24.86-2.22,49.2.75,73.19,7.22a4,4,0,0,1,2.26,2c3.54,8.08,5.61,16.48,5.15,25.4-.34,6.71-.56,13.42-.85,20.13,0,.61-.14,1.22-.22,1.9-42.23-10.91-84.14-11-126.19,1.14-.07-.59-.2-1.24-.23-1.9-.29-7.47-.59-14.95-.83-22.42-.25-7.84,1.8-15.22,4.82-22.35A4.11,4.11,0,0,1,104.61,15.56ZM93,20.71c1.75-.89,3.57-1.66,5.89-2.72-2.45,6.87-4.28,13.19-4.24,19.84,0,6.29.34,12.58.55,18.88.08,2.35.29,4.7.31,7a2,2,0,0,1-.83,1.58c-2.19,1-4.45,1.81-7.08,2.85-.29-2.69-.64-5.11-.8-7.55-.88-13.24,1.58-26,5.28-38.64A2.24,2.24,0,0,1,93,20.71ZM52.5,55.38a103.1,103.1,0,0,1,34-31.11c.58-.33,1.19-.6,2.05-1-1,4.33-1.94,8.34-2.77,12.39a92.12,92.12,0,0,0-1,32.63c.15,1,.13,1.62-.94,2.12a99.61,99.61,0,0,0-22,13.92,2.84,2.84,0,0,1-1.83.35c-2-.12-4-.54-6-.48-5.86.19-9.63,3.06-10.68,8.81-1.19,6.52-1.92,13.14-2.58,19.75-.53,5.3-.65,10.64-1,16,0,.47-.13.94-.2,1.49H33.68a12.26,12.26,0,0,1-.07-1.73c1.12-11.85,1.67-23.79,3.55-35.52A91.82,91.82,0,0,1,52.5,55.38ZM38.59,175.89c.2,1.69.87,2.75,3,2.58l-1.2,4.5-.79-.08A96.33,96.33,0,0,1,39,134.63c.7,1.89,2.82,3.63.51,5.79-.38.36-.4,1.16-.49,1.77A124.2,124.2,0,0,0,38.59,175.89ZM45.45,53.72,36.59,74.48c0-2.07,0-3.81,0-5.55A9.8,9.8,0,0,0,26.71,59c-2.42,0-4.84,0-7.25,0s-4.83,0-7.27-.21C22.79,53.83,33.95,52.46,45.45,53.72ZM27.26,117.32c-2.35.07-4.7,0-7,0H10.47c-4.63,0-6.55-1.92-6.59-6.55,0-.69,0-1.37,0-2.55l.24.32a88.06,88.06,0,0,1,.52-9.81L4,99.63c0-.78-.09-1.38-.09-2q0-13.92,0-27.85c0-5,1.89-6.87,6.92-6.88,5.18,0,10.36,0,15.55,0,4.33,0,6.36,2,6.37,6.35,0,7.9.25,15.8,0,23.69-.22,5.8-1.14,11.56-1.73,17.35-.13,1.24-.2,2.48-.29,3.73C30.47,116.71,30,117.24,27.26,117.32Zm-2,67.28a1.72,1.72,0,0,1-1.22-1c-4.29-15.41-6.25-30.91-1.68-46.65.47-1.63,1.17-2.42,3-2.35,3.15.13,6.31,0,9.32,0a103,103,0,0,0,1.47,50C32.52,184.65,28.9,184.69,25.27,184.6Zm8.41,3.77c1.14-.07,2.22-.16,3.3-.2s2.06,0,2.83,0l7.65,43.37H44.13A106.35,106.35,0,0,1,33.69,188.37ZM63.35,284l-1.29-10.8,5.59,3.62-3.83,7.21Zm34.77,17.72L65,288.15l5.32-10,32.46,13.68Zm3.34-.22c1.3-2.79,2.46-5.34,3.71-7.85a1.34,1.34,0,0,1,1.15-.52c4.91,1,9.81,2.14,15.26,3.35ZM271,256.92c-8.72,9.53-19.79,15.63-31.32,21-15.51,7.21-31.29,13.68-48.12,17.11-13.1,2.67-26.37,2.59-39.65,2.13-3.31-.12-6.62-.45-9.94-.49-12.31-.16-24-3.69-35.72-6.81-8.4-2.24-16.23-6.6-24.34-9.94-7-2.87-14-5.68-20-10.28a7.59,7.59,0,0,1-1.95-1.8c-4.36-7-8.87-13.89-12.87-21.07-2-3.62-3.1-7.78-4.79-12.16,2.16,0,3.65-.06,5.14,0a1.51,1.51,0,0,1,1.11.86c2.2,9.22,8,16.19,14.39,22.67,12,12.15,26.81,19.62,42.95,24.56,21.32,6.53,43.21,8.39,65.38,7.32a162.69,162.69,0,0,0,56.94-12.72c15.92-6.84,30.19-16.14,42.28-28.7a27.78,27.78,0,0,0,6.2-10.63c.94-2.74,2.07-5.41,3.28-8.55.8,4.7-.92,9.4,2.83,13.74C279.11,247.51,275.22,252.35,271,256.92Zm30.83-30.73.52.06-.88,7.16h-.59Zm-3-6.07L296.5,239.5c-3.41-.33-7.37-.67-11.31-1.14-.36,0-.87-.83-.91-1.31-.52-5.64-.34-11.23,1.89-16.54a2.49,2.49,0,0,1,1.88-1.29C291.76,219.42,295.46,219.82,298.89,220.13Zm7.54-85.39c.45,0,1.07.95,1.27,1.57a60.77,60.77,0,0,1,2.82,22.52,111.47,111.47,0,0,1-3.7,23.32c-.5,1.89-1.22,2.71-3.34,2.53-3-.25-6-.06-9.08-.06a103,103,0,0,0,1.42-49.94C299.2,134.67,302.82,134.61,306.43,134.74Zm13-17.31c-5.32,0-10.63,0-16,0-4.09,0-6.16-2.06-6.16-6.12q0-21.08,0-42.16c0-4,2.05-6.08,6-6.12q8.49-.08,17,0c3.49,0,5.75,1.91,5.79,5.21.13,10.51,0,21,0,32.05l-.34-.51a26.92,26.92,0,0,1-.91,10.37c.33-.44.65-.9,1-1.39C327.38,114,324.86,117.43,319.47,117.43Z"/><path class="cls-12" d="M224.81,63c-42.23-10.91-84.14-11-126.19,1.14-.07-.59-.2-1.24-.23-1.9-.29-7.47-.59-14.95-.83-22.42-.25-7.84,1.8-15.22,4.82-22.35a4.11,4.11,0,0,1,2.23-1.88,156.43,156.43,0,0,1,40.66-9.27c24.86-2.22,49.2.75,73.19,7.22a4,4,0,0,1,2.26,2c3.54,8.08,5.61,16.48,5.15,25.4-.34,6.71-.56,13.42-.85,20.13C225,61.68,224.89,62.29,224.81,63Z"/><path class="cls-13" d="M286.59,137.23a12.88,12.88,0,0,0-2.11,1.43c-.66.66-1.61,1.52-1.61,2.28.07,11.43.27,22.86.47,34.29a3,3,0,0,0,.41,1.57,12.87,12.87,0,0,1,2.38,9.69c-1.73,10.44-3,21-5.5,31.26-2.07,8.34-5.67,16.3-8.77,24.37a13.22,13.22,0,0,1-2.91,3.74c-10.5,11.41-23.08,20-37,26.57a155.5,155.5,0,0,1-55.47,14.32c-22.21,1.7-44.19.21-65.76-5.65-16.14-4.39-31-11.3-43.42-22.84a117.93,117.93,0,0,1-9.56-10.62C53,241.92,51.35,235,50,227.8c-2.52-13.05-5.44-26-6.66-39.29a10.83,10.83,0,0,1,.74-5.4c2-4.84,3.51-9.72,3.31-15.21-.32-8.71.11-17.45.3-26.18,0-2-.57-3.23-3-3.2l.36-2.62c4.09-.38,4.92-1.2,5.1-5.53a114.57,114.57,0,0,1,5.33-31.22A28.27,28.27,0,0,1,65.4,85c12.8-9.91,27.24-16.26,42.72-20.44,21-5.67,42.44-7.21,64.09-6.5,18.66.61,37,3.11,54.84,8.93a122.7,122.7,0,0,1,36.57,18.65c6.37,4.83,10.67,10.68,12.67,18.55a126.31,126.31,0,0,1,3.93,25.61c0,.62.06,1.25.11,1.87.33,4.48,1.49,5.46,5.8,4.91Zm-5.28,27.93a155.62,155.62,0,0,0-10.7-63.47,24.79,24.79,0,0,0-12.17-13.54c-17-9.07-35-14.57-53.86-17.83a255.45,255.45,0,0,0-53.48-3.18c-15.21.58-30.31,2.15-45.15,5.74C94.34,75.7,83.17,79.59,73,86.05c-7.3,4.65-13,10.4-14.74,19.35-1.87,9.36-4.41,18.59-6.17,28a183.87,183.87,0,0,0-3,44.67,389.32,389.32,0,0,0,5.34,43.69,79,79,0,0,0,3,13.11c2,5.59,5.64,10.3,9.66,14.64,11.91,12.84,27,20.18,43.51,24.95,16.85,4.87,34.16,6.48,51.63,6.66,20.93.21,41.31-2.76,60.75-10.91,17-7.14,31.87-17.4,43.71-31.72,2.4-2.91,5.29-6,6.2-9.45a231.91,231.91,0,0,0,6-29.66C280.33,188,280.56,176.57,281.31,165.17Z"/><path class="cls-7" d="M233.9,18.87A108.83,108.83,0,0,1,257.12,32,90.22,90.22,0,0,1,278,54a107.89,107.89,0,0,1,11.83,24.4c0,.07,0,.14.05.2,4,9.61,3.94,19.72,3.59,29.85-.13,3.94.2,7.63,3.41,10.44a1.73,1.73,0,0,1,.43,1.11c.2,3.31.36,6.63.53,10.11h-7c-.33-5.19-.5-10.37-1-15.51-.65-6.61-1.25-13.25-2.47-19.77-1.6-8.56-10.55-12.52-18.34-8.41a107.69,107.69,0,0,0-29.25-17.77c-1.31-.55-1-1.43-.89-2.37a82.1,82.1,0,0,0-.09-25.05c-1.13-6.75-2.85-13.39-4.31-20.08C234.34,20.51,234.15,19.86,233.9,18.87Z"/><path class="cls-7" d="M280,229.44c.8,4.7-.92,9.4,2.83,13.74-3.69,4.33-7.57,9.18-11.75,13.74-8.72,9.53-19.79,15.63-31.32,21-15.51,7.21-31.29,13.68-48.12,17.11-13.1,2.67-26.37,2.59-39.65,2.13-3.31-.12-6.62-.45-9.94-.49-12.31-.16-24-3.69-35.72-6.81-8.4-2.24-16.23-6.6-24.34-9.94-7-2.87-14-5.68-20-10.28a7.59,7.59,0,0,1-1.95-1.8c-4.36-7-8.87-13.89-12.87-21.07-2-3.62-3.1-7.78-4.79-12.16,2.16,0,3.65-.06,5.14,0a1.51,1.51,0,0,1,1.11.86c2.2,9.22,8,16.19,14.39,22.67,12,12.15,26.81,19.62,42.95,24.56,21.32,6.53,43.21,8.39,65.38,7.32a162.69,162.69,0,0,0,56.94-12.72c15.92-6.84,30.19-16.14,42.28-28.7a27.78,27.78,0,0,0,6.2-10.63C277.62,235.25,278.75,232.58,280,229.44Z"/><path class="cls-7" d="M39.54,130.19H33.68a12.26,12.26,0,0,1-.07-1.73c1.12-11.85,1.67-23.79,3.55-35.52A91.82,91.82,0,0,1,52.5,55.38a103.1,103.1,0,0,1,34-31.11c.58-.33,1.19-.6,2.05-1-1,4.33-1.94,8.34-2.77,12.39a92.12,92.12,0,0,0-1,32.63c.15,1,.13,1.62-.94,2.12a99.6,99.6,0,0,0-22,13.92,2.84,2.84,0,0,1-1.83.35c-2-.12-4-.54-6-.48-5.86.19-9.63,3.06-10.68,8.81-1.19,6.52-1.92,13.14-2.58,19.75-.53,5.3-.65,10.64-1,16C39.72,129.16,39.62,129.63,39.54,130.19Z"/><path class="cls-7" d="M34.67,134.6a103,103,0,0,0,1.47,50c-3.61,0-7.24,0-10.86,0a1.72,1.72,0,0,1-1.22-1c-4.29-15.41-6.25-30.91-1.68-46.65.47-1.63,1.17-2.42,3-2.35C28.5,134.69,31.66,134.6,34.67,134.6Z"/><path class="cls-7" d="M294.4,184.61a103,103,0,0,0,1.42-49.94c3.39,0,7-.06,10.61.07.45,0,1.07.95,1.27,1.57a60.77,60.77,0,0,1,2.82,22.52,111.46,111.46,0,0,1-3.7,23.32c-.5,1.89-1.22,2.71-3.34,2.53C300.48,184.42,297.44,184.61,294.4,184.61Z"/><path class="cls-13" d="M326.16,100.28C321.22,92.53,316.28,90,310,91.85c-5.68,1.63-9.59,6.5-9.55,11.9A13.52,13.52,0,0,0,310,116.24c6,1.8,11.66-.88,15.87-7.48,1.51,5.25-1,8.67-6.39,8.67s-10.63,0-16,0c-4.09,0-6.16-2.06-6.16-6.12q0-21.08,0-42.16c0-4,2.05-6.08,6-6.12q8.49-.08,17,0c3.49,0,5.75,1.91,5.79,5.21C326.24,78.73,326.16,89.24,326.16,100.28Zm-.59-22.5A13.29,13.29,0,0,0,312.89,64.5c-7.16-.13-13.36,5.49-13.44,12.19a13.42,13.42,0,0,0,12.83,13.2C319.33,90,325.47,84.39,325.57,77.78Z"/><path class="cls-13" d="M3.88,108.27c5.22,7.19,10.55,9.57,16.47,7.63a13.49,13.49,0,0,0,9.23-12.32c.06-5.18-3.38-9.83-8.67-11.71C14.56,89.63,10.2,91.59,4,99.63c0-.78-.09-1.38-.09-2q0-13.92,0-27.85c0-5,1.89-6.87,6.92-6.88,5.18,0,10.36,0,15.55,0,4.33,0,6.36,2,6.37,6.35,0,7.9.25,15.8,0,23.69-.22,5.8-1.14,11.56-1.73,17.35-.13,1.24-.2,2.48-.29,3.73-.19,2.67-.68,3.21-3.4,3.29-2.35.07-4.7,0-7,0H10.47c-4.63,0-6.55-1.92-6.59-6.55C3.88,110.13,3.88,109.45,3.88,108.27ZM17.57,89.61a13.37,13.37,0,0,0,13-13c0-6.59-6-12.36-13-12.42A13.35,13.35,0,0,0,4.48,77.34C4.49,84,10.48,89.62,17.57,89.61Z"/><path class="cls-7" d="M65,288.15l5.32-10,32.46,13.68-4.62,9.92Z"/><path class="cls-13" d="M235.75,67c-2.48-1.15-4.88-2.18-7.17-3.41-.43-.23-.64-1.27-.62-1.92q.36-10.48.84-21a57.06,57.06,0,0,0-4-22.95c-.26-.69-.49-1.4-.91-2.59,2.21.8,4.07,1.43,5.88,2.17a1.86,1.86,0,0,1,.8,1.11c4.74,15.34,7.72,30.88,5.44,47C236,65.88,235.88,66.28,235.75,67Z"/><path class="cls-13" d="M98.89,18c-2.45,6.87-4.28,13.19-4.24,19.84,0,6.29.34,12.58.55,18.88.08,2.35.29,4.7.31,7a2,2,0,0,1-.83,1.58c-2.19,1-4.45,1.81-7.08,2.85-.29-2.69-.64-5.11-.8-7.55-.88-13.24,1.58-26,5.28-38.64A2.24,2.24,0,0,1,93,20.71C94.75,19.81,96.56,19,98.89,18Z"/><path class="cls-7" d="M47.16,132.88c-4.3-.91-4.74-1.27-4.45-4.81.88-10.75,1.89-21.48,2.85-32.22a8.1,8.1,0,0,1,.18-1c1.38-6.24,4.88-8.6,11.69-7.55C50.16,101.58,47.44,116.89,47.16,132.88Z"/><path class="cls-7" d="M47.47,231.54H44.13a106.35,106.35,0,0,1-10.44-43.17c1.14-.07,2.22-.16,3.3-.2s2.06,0,2.83,0Z"/><path class="cls-7" d="M273.19,88.33c6.94-1.05,10.61,1.37,11.59,8.19,1.12,7.79,1.76,15.66,2.52,23.5.28,2.89.36,5.8.47,8.7.15,3.91.13,3.91-4.09,5.28a33.59,33.59,0,0,1-.49-3.49c-.43-11.77-2.32-23.25-6.64-34.25C275.53,93.65,274.36,91.09,273.19,88.33Z"/><path class="cls-7" d="M298.89,220.13,296.5,239.5c-3.41-.33-7.37-.67-11.31-1.14-.36,0-.87-.83-.91-1.31-.52-5.64-.34-11.23,1.89-16.54a2.49,2.49,0,0,1,1.88-1.29C291.76,219.42,295.46,219.82,298.89,220.13Z"/><path class="cls-7" d="M45.45,53.72,36.59,74.48c0-2.07,0-3.81,0-5.55A9.8,9.8,0,0,0,26.71,59c-2.42,0-4.84,0-7.25,0s-4.83,0-7.27-.21C22.79,53.83,33.95,52.46,45.45,53.72Z"/><path class="cls-7" d="M285.36,53.7c11.42-1.17,22.3.32,32.66,5.41-4.71,0-9.43,0-14.14,0a12.56,12.56,0,0,0-4,.64,9.77,9.77,0,0,0-6.35,9.11,18.7,18.7,0,0,1-.27,3.68c-1.24-3.1-2.43-6.22-3.72-9.31S286.82,57.06,285.36,53.7Z"/><path class="cls-7" d="M295.27,188.24l-3.54,27.24-7-.52,4.37-26.72Z"/><path class="cls-7" d="M290.26,183.47l-1.34-4.77c2.62-.16,2.78-2,3-3.93a120.62,120.62,0,0,0-.46-31.08c-.21-1.43-1.25-2.76-1.33-4.18-.09-1.6.46-3.24.82-5.4C295.56,141.88,295.06,174.26,290.26,183.47Z"/><path class="cls-7" d="M121.59,296.52l-20.12,5c1.3-2.79,2.46-5.34,3.71-7.85a1.34,1.34,0,0,1,1.15-.52C111.24,294.21,116.14,295.32,121.59,296.52Z"/><path class="cls-7" d="M39,134.63c.7,1.89,2.82,3.63.51,5.79-.38.36-.4,1.16-.49,1.77a124.2,124.2,0,0,0-.48,33.71c.2,1.69.87,2.75,3,2.58l-1.2,4.5-.79-.08A96.33,96.33,0,0,1,39,134.63Z"/><path class="cls-14" d="M15.4,112.2a8,8,0,0,1-7.87-7.7,8.1,8.1,0,0,1,6.83-8.83C11.32,101.35,11.41,106.8,15.4,112.2Z"/><path class="cls-14" d="M314.47,112.5c4-6,4.25-8.31,1.61-16.49a8.07,8.07,0,0,1,6.39,9.17C321.87,109.55,318.46,112.68,314.47,112.5Z"/><path class="cls-7" d="M62.06,273.23l5.59,3.62-3.83,7.21-.46,0Z"/><path class="cls-7" d="M300.92,233.41l.95-7.22.52.06-.88,7.16Z"/><path class="cls-10" d="M325.57,77.78c-.1,6.61-6.24,12.2-13.29,12.1a13.42,13.42,0,0,1-12.83-13.2c.08-6.7,6.28-12.32,13.44-12.19A13.29,13.29,0,0,1,325.57,77.78Zm-10.74,7.86c4.65-1.36,7.26-5.18,6.73-9.36A8.07,8.07,0,0,0,314,69C317.91,74.25,318.12,79.72,314.83,85.64Z"/><path class="cls-10" d="M17.57,89.61c-7.09,0-13.08-5.61-13.1-12.27A13.35,13.35,0,0,1,17.55,64.21c7,.06,13.08,5.83,13,12.42A13.37,13.37,0,0,1,17.57,89.61ZM16.51,68.44c-5.24,1-8.3,4.46-8.06,8.84.22,4.1,3,7.54,6.4,7.7C11.89,79.22,12.27,73.77,16.51,68.44Z"/><path class="cls-15" d="M270.4,102.05a24.79,24.79,0,0,0-12.17-13.54c-17-9.07-35-14.57-53.86-17.83a255.45,255.45,0,0,0-53.48-3.18c-15.21.58-30.31,2.15-45.15,5.74C94.13,76.06,83,79.95,72.79,86.41c-7.3,4.65-13,10.4-14.74,19.35-1.87,9.36-4.41,18.59-6.17,28a183.87,183.87,0,0,0-3,44.67,389.32,389.32,0,0,0,5.34,43.69,79,79,0,0,0,3,13.11c2,5.59,5.64,10.3,9.66,14.64,11.91,12.84,27,20.18,43.51,24.95,16.85,4.87,34.16,6.48,51.63,6.66,20.93.21,41.31-2.76,60.75-10.91,17-7.14,31.87-17.4,43.71-31.72,2.4-2.91,5.29-6,6.2-9.45a231.91,231.91,0,0,0,6-29.66c1.42-11.31,1.65-22.78,2.4-34.17A155.62,155.62,0,0,0,270.4,102.05Zm19.65,97.46a5.18,5.18,0,0,1-.21,1.08Z"/><path class="cls-14" d="M314.83,85.64c3.29-5.92,3.08-11.39-.79-16.67a8.07,8.07,0,0,1,7.52,7.31C322.08,80.46,319.48,84.28,314.83,85.64Z"/><path class="cls-14" d="M16.51,68.44C12.27,73.77,11.89,79.22,14.85,85c-3.37-.16-6.18-3.59-6.4-7.7C8.21,72.89,11.27,69.39,16.51,68.44Z"/></g></g></g></svg>