<svg xmlns="http://www.w3.org/2000/svg" viewBox="0 0 341.42 299.4"><defs><style>.cls-1{fill:#141414;}.cls-2,.cls-3,.cls-4,.cls-6,.cls-7{fill:#fff;}.cls-2,.cls-9{stroke:lime;stroke-width:6px;}.cls-11,.cls-12,.cls-2,.cls-3,.cls-4,.cls-9{stroke-miterlimit:10;}.cls-3{stroke:#141414;}.cls-11,.cls-3,.cls-4{stroke-width:3px;}.cls-4{stroke:#020000;}.cls-5{fill:#070000;}.cls-6,.cls-8{opacity:0.2;}.cls-9{fill:none;}.cls-10{fill:#515151;}.cls-11,.cls-13{fill:#cacaca;}.cls-11{stroke:#000;}.cls-12{fill:#f90;stroke:#f90066;stroke-width:4px;}</style></defs><title>cat_localize_1</title><g id="Layer_2" data-name="Layer 2"><g id="Layer_2-2" data-name="Layer 2"><path class="cls-1" d="M326,43.15c-.69-7.74-3.17-21.42-13.54-37.72a5,5,0,0,0-5.62-2.09,114.42,114.42,0,0,0-29,13.19c-10.78,6.89-18,14.13-24.25,20.38A187.4,187.4,0,0,0,239,53.42,5,5,0,0,1,233.27,55a143.9,143.9,0,0,0-48.86-9.57v0h-2v0A143.9,143.9,0,0,0,133.53,55a5,5,0,0,1-5.69-1.57,187.4,187.4,0,0,0-14.67-16.5c-6.26-6.25-13.47-13.49-24.25-20.38A114.42,114.42,0,0,0,60,3.35a5,5,0,0,0-5.62,2.09C44,21.73,41.5,35.41,40.81,43.15c-.73,8.21-.13,17.24.39,24.37a173.55,173.55,0,0,0,3,23.16,159.23,159.23,0,0,0,6.19,21c2.87,7.37,4.63,9.84,5.53,15.92.59,4,.39,7.14,0,13.45-.51,8.23-1.21,9.18-2,18-.68,7.39-1.15,12.74-.54,19.66A84.66,84.66,0,0,0,56,193.26a121.75,121.75,0,0,0,9.69,25.58A118.22,118.22,0,0,0,77.3,237.21c8.91,11.35,19.14,18.08,39.36,30.89,15.7,9.95,9.53,4.78,33.88,18.93,5.51,3.2,13.76,8.07,25.41,9a49,49,0,0,0,7.1,0,5.21,5.21,0,0,1,.72,0,49,49,0,0,0,7.1,0c11.65-.89,19.9-5.77,25.41-9,24.35-14.15,18.17-9,33.88-18.93,20.22-12.81,30.45-19.54,39.36-30.89a118.23,118.23,0,0,0,11.61-18.37,121.76,121.76,0,0,0,9.69-25.58,84.67,84.67,0,0,0,2.69-14.54c.61-6.91.14-12.27-.54-19.66-.81-8.83-1.52-9.78-2-18-.39-6.31-.59-9.47,0-13.45.9-6.09,2.66-8.55,5.53-15.92a159.22,159.22,0,0,0,6.19-21,173.54,173.54,0,0,0,3-23.16C326.13,60.39,326.73,51.37,326,43.15Z"/><path class="cls-2" d="M127.62,108.88a38.94,38.94,0,0,1-5.08-6.52c-3.78-6.85-3.42-14.05-6.93-25.92a124.27,124.27,0,0,0-6.22-16c-8-18-35.19-62-51.29-57.07C46.43,6.93,41.26,35.95,40.48,41.52c-.16,1.13-.3,2.33-.3,2.33-.81,6.83-.41,12.74.46,24.37a173.54,173.54,0,0,0,3,23.15,159.23,159.23,0,0,0,6.26,21c2.89,7.36,4.66,9.82,5.58,15.91.6,4,.41,7.14,0,13.45-.48,8.23-1.19,9.18-2,18-.66,7.39-1.11,12.75-.48,19.66a84.66,84.66,0,0,0,2.74,14.53,121.75,121.75,0,0,0,9.77,25.55,118.22,118.22,0,0,0,11.66,18.33c8.94,11.32,19.2,18,39.46,30.76,15.74,9.9,9.55,4.75,33.94,18.82,5.52,3.18,13.78,8,25.44,8.89a49,49,0,0,0,7.1,0,5.22,5.22,0,0,1,.72,0,49,49,0,0,0,7.1,0c11.65-.93,19.89-5.83,25.38-9,24.3-14.23,18.15-9,33.82-19,29.61-18.89,39.26-31,39.26-31,4.07-15.26,1.26-23.73-1.93-28.6-15-22.86-59.58-2.9-85-28.75-17.11-17.41-1.49-37.46-19.91-50C167,119,144.17,127,127.62,108.88Z"/><path class="cls-1" d="M204.82,208.2c-.1-.78-1-1.2-2.71-2.06a17.46,17.46,0,0,0-9.91-1.4,22,22,0,0,0-5.79,1.53,22,22,0,0,0-5.79-1.53,17.46,17.46,0,0,0-9.91,1.4c-1.74.85-2.61,1.28-2.71,2.06-.27,2.11,5.14,5.4,10.07,8.4a5,5,0,0,1,1.69,1.52c1,1.43.33,2.29,1,4a6.3,6.3,0,0,0,3.54,3.54,10,10,0,0,0,4.21,0,6.3,6.3,0,0,0,3.54-3.54c.68-1.76.05-2.62,1-4a5,5,0,0,1,1.69-1.52C199.68,213.6,205.09,210.31,204.82,208.2Z"/><path class="cls-1" d="M157,249.4a31.61,31.61,0,0,0,7.86,1.06,25.33,25.33,0,0,0,7.35-1.06,26.55,26.55,0,0,0,3.37-1.29,27,27,0,0,0,3.1-1.77,23.86,23.86,0,0,0,5.21-4.75L186,238.9l2.35,2.52a31.16,31.16,0,0,0,12.1,8,33.3,33.3,0,0,0,7.36,1.76,44.6,44.6,0,0,0,8,.24,20.31,20.31,0,0,1-3.81,1.7,23.71,23.71,0,0,1-4.12,1,25.92,25.92,0,0,1-8.62-.15,27.12,27.12,0,0,1-8.28-3,30.21,30.21,0,0,1-3.7-2.44,32.15,32.15,0,0,1-3.28-3l4.52-.17a24.57,24.57,0,0,1-6.92,5.83,23.13,23.13,0,0,1-8.5,2.83,22,22,0,0,1-8.73-.65A19.42,19.42,0,0,1,157,249.4Z"/><path class="cls-3" d="M101.84,157c23.93-16.55,42.63-8.64,52.1,18.58a2.24,2.24,0,0,1-1.33,2.85c-17.78,6.34-37.15-5.43-51-17.39A2.56,2.56,0,0,1,101.84,157Z"/><circle class="cls-1" cx="128.94" cy="162.94" r="13.15" transform="translate(-51.3 266.33) rotate(-81.48)"/><path class="cls-4" d="M265.81,157c-23.93-16.55-42.63-8.64-52.1,18.58a2.24,2.24,0,0,0,1.33,2.85c17.78,6.34,37.15-5.43,51-17.39A2.56,2.56,0,0,0,265.81,157Z"/><circle class="cls-5" cx="238.71" cy="162.94" r="13.15" transform="translate(-21.5 37.14) rotate(-8.52)"/><path class="cls-6" d="M300.93,90.33c3.44-25.69,19.4-71.28-.74-67.06-1,.21-23.41,22.19-32.08,35.8a4.09,4.09,0,0,0,.6,4.82l28,28.16C298.34,93.67,300.61,92.74,300.93,90.33Z"/><path class="cls-7" d="M60.09,13.69"/><path class="cls-8" d="M65.5,85.71C62.06,60,46.1,14.43,66.24,18.65c1,.21,23.41,22.19,32.08,35.8a4.09,4.09,0,0,1-.6,4.82l-28,28.16C68.09,89.05,65.83,88.12,65.5,85.71Z"/><path class="cls-9" d="M326.27,43.15c-.69-7.74-3.17-21.42-13.54-37.72a5,5,0,0,0-5.62-2.09,114.42,114.42,0,0,0-29,13.19c-10.78,6.89-18,14.13-24.25,20.38a187.4,187.4,0,0,0-14.67,16.5A5,5,0,0,1,233.54,55a143.9,143.9,0,0,0-48.86-9.57v0h-2v0A143.9,143.9,0,0,0,133.8,55a5,5,0,0,1-5.69-1.57,187.4,187.4,0,0,0-14.67-16.5C107.18,30.68,100,23.44,89.19,16.54A112.71,112.71,0,0,0,71.06,7.17c-4.28-3.07-8.38-4.67-12-4a5,5,0,0,0-4.26,2C45.45,12.46,41.19,36.5,40.48,41.52c-.16,1.13-.3,2.33-.3,2.33-.81,6.83-.41,12.74.46,24.37a173.54,173.54,0,0,0,3,23.15,159.23,159.23,0,0,0,6.26,21c2.89,7.36,4.66,9.82,5.58,15.91.6,4,.41,7.14,0,13.45-.48,8.23-1.19,9.18-2,18-.66,7.39-1.11,12.75-.48,19.66a84.66,84.66,0,0,0,2.74,14.53,121.75,121.75,0,0,0,9.77,25.55,118.22,118.22,0,0,0,11.66,18.33c8.94,11.32,19.2,18,39.46,30.76,15.74,9.9,9.55,4.75,33.94,18.82,5.52,3.18,13.78,8,25.44,8.89a49,49,0,0,0,7.1,0,5.22,5.22,0,0,1,.72,0,49,49,0,0,0,7.1,0c11.65-.93,19.89-5.83,25.38-9,11.86-6.94,16.47-9.26,19.9-11a123.5,123.5,0,0,0,14.11-8.1c20.22-12.81,30.45-19.54,39.36-30.89a118.23,118.23,0,0,0,11.61-18.37,121.76,121.76,0,0,0,9.69-25.58,84.67,84.67,0,0,0,2.69-14.54c.61-6.91.14-12.27-.54-19.66-.81-8.83-1.52-9.78-2-18-.39-6.31-.59-9.47,0-13.45.9-6.09,2.66-8.55,5.53-15.92a159.22,159.22,0,0,0,6.19-21,173.54,173.54,0,0,0,3-23.16C326.39,60.39,327,51.37,326.27,43.15Z"/><path class="cls-1" d="M149.56,230.84c-6.13,2.76-12.11,5.68-17.89,9-2.87,1.66-5.73,3.34-8.5,5.16s-5.51,3.67-8.16,5.66-5.28,4-7.8,6.13-5,4.35-7.43,6.6C95,267.9,90.41,272.76,86,277.8A94.54,94.54,0,0,1,98.13,261.7c2.28-2.5,4.73-4.83,7.23-7.1s5.17-4.37,7.88-6.39a109.32,109.32,0,0,1,17.35-10.47A95.18,95.18,0,0,1,149.56,230.84Z"/><path class="cls-1" d="M148.1,227.34a161.32,161.32,0,0,0-21.61,5.29c-3.5,1.16-7,2.39-10.37,3.84s-6.75,2.94-10,4.65a136,136,0,0,0-18.74,11.67A161.9,161.9,0,0,0,70.51,267.3a91.71,91.71,0,0,1,15.41-16.35A99.84,99.84,0,0,1,95,244.18c3.15-2.07,6.42-4,9.76-5.73a103.48,103.48,0,0,1,21.1-8.06A92,92,0,0,1,148.1,227.34Z"/><path class="cls-1" d="M147.23,224.13a184.1,184.1,0,0,0-23.55,2.29l-5.79,1.08c-1.91.44-3.83.83-5.73,1.31-3.8,1-7.58,2-11.29,3.25A160.85,160.85,0,0,0,79.12,241a219.22,219.22,0,0,0-20.57,11.72,108,108,0,0,1,9.36-7.39c1.62-1.16,3.3-2.23,5-3.33s3.4-2.1,5.14-3.06c3.45-2,7.07-3.73,10.7-5.4,1.84-.78,3.68-1.59,5.56-2.27l2.81-1.06,2.85-1a116.64,116.64,0,0,1,23.42-5.11A104.34,104.34,0,0,1,147.23,224.13Z"/><path class="cls-1" d="M222.73,230.84a95.18,95.18,0,0,1,19,6.89,109.33,109.33,0,0,1,17.35,10.47c2.71,2,5.35,4.14,7.88,6.39s5,4.61,7.23,7.1a94.56,94.56,0,0,1,12.16,16.11c-4.44-5-9-9.91-13.82-14.46-2.43-2.26-4.87-4.5-7.43-6.6s-5.13-4.19-7.8-6.13-5.37-3.87-8.16-5.66-5.62-3.5-8.5-5.16C234.85,236.51,228.86,233.6,222.73,230.84Z"/><path class="cls-1" d="M224.19,227.34a92,92,0,0,1,22.26,3.05,103.48,103.48,0,0,1,21.1,8.06c3.34,1.76,6.61,3.66,9.76,5.73a99.8,99.8,0,0,1,9.05,6.77,91.71,91.71,0,0,1,15.41,16.35,161.9,161.9,0,0,0-16.86-14.52,136,136,0,0,0-18.74-11.67c-3.26-1.71-6.61-3.23-10-4.65s-6.87-2.67-10.37-3.84A161.32,161.32,0,0,0,224.19,227.34Z"/><path class="cls-1" d="M225.07,224.13a104.34,104.34,0,0,1,23.87,0,116.64,116.64,0,0,1,23.42,5.11l2.85,1,2.81,1.06c1.88.68,3.72,1.49,5.56,2.27,3.64,1.67,7.25,3.39,10.7,5.4,1.75,1,3.45,2,5.14,3.06s3.35,2.17,5,3.33a108,108,0,0,1,9.36,7.39A219.22,219.22,0,0,0,293.17,241a160.84,160.84,0,0,0-21.75-8.92c-3.71-1.27-7.49-2.29-11.29-3.25-1.9-.48-3.82-.87-5.73-1.31l-5.79-1.08A184.1,184.1,0,0,0,225.07,224.13Z"/><path class="cls-10" d="M53.69,70.77C58.93,65.15,61.8,58.08,67,53.13,86.94,34.22,112.28,20.59,145.65,16c49.8-6.8,95,5.13,134.88,32.57C308.7,68,326,91.59,334.69,118.19a11.86,11.86,0,0,0,3,4.36c2.7,2.65,4.11,5.43,3.58,8.46-1.08,6.14-2.19,12.28-3.51,18.38-1.19,5.48-7.74,8.45-15.16,7.1-7.59-1.38-12.72-6.24-11.94-11.91.88-6.38,2.2-12.68,3.59-19a6.07,6.07,0,0,1,2.68-4.08c3-1.57,2.41-3.48,1.56-5.78-12.81-34.84-39.77-60-84.72-76.75-50.58-18.86-95.89-14.6-135,8.9C87.31,54.78,82.34,57.35,74.7,66.73c-1.37,1.69-5.26,7.23-8,6.56C62.77,72.35,58.78,71.74,53.69,70.77Z"/><rect class="cls-11" x="5.43" y="74.1" width="23.3" height="71.29" transform="translate(11.93 -1.2) rotate(6.19)"/><path class="cls-10" d="M48.14,160.14C62.35,210.34,92.41,250.33,146,266.86c1.94-7.39,7.33-8.66,13.91-8.76,10.61-.17,21.21-.87,31.82-1.31,7.21-.3,11.16,3.2,11.54,10.19.16,2.93.33,5.87.37,8.81.07,5.77-3.72,9.86-9.77,10.18q-18.39,1-36.8,1.62c-5,.18-8.65-2.36-10-7-.59-2.07-1.65-2.89-3.68-3.49C85.11,259.89,52,220.65,37.25,165.45c-.06-.23-.68-4.18-.7-4.7C40.06,160.6,44.3,160.31,48.14,160.14Z"/><circle cx="161.94" cy="268.01" r="1.92" transform="translate(-44.08 32.19) rotate(-10)"/><circle cx="162.02" cy="277.38" r="1.92" transform="translate(-45.7 32.35) rotate(-10)"/><circle cx="168.31" cy="273.14" r="1.92" transform="translate(-44.87 33.38) rotate(-10)"/><circle cx="174.46" cy="268.15" r="1.92" transform="translate(-43.91 34.37) rotate(-10)"/><circle cx="174.55" cy="277.51" r="1.92" transform="translate(-45.54 34.53) rotate(-10)"/><circle cx="180.84" cy="273.28" r="1.92" transform="translate(-44.71 35.55) rotate(-10)"/><circle cx="186.99" cy="268.28" r="1.92" transform="translate(-43.75 36.55) rotate(-10)"/><circle cx="187.08" cy="277.65" r="1.92" transform="translate(-45.37 36.7) rotate(-10)"/><path class="cls-12" d="M15.54,105.53C16.92,95,18.28,84.41,19.71,73.86c1.72-12.67,12.29-21,25.6-19.81a182.1,182.1,0,0,1,19,2.59C76.72,59.05,84.67,69.93,83.11,82c-2.62,12.92-7.13,14.42-7.88,63.2-.2,12.93-11.56,20.88-25,20.35a110.87,110.87,0,0,1-21.59-3,22.28,22.28,0,0,1-17.32-24.91c1.33-10.69,2.79-21.36,4.19-32ZM32,86.44c-.48,3.64-1,7.27-1.42,10.92-.45,4.13,1.47,7.41,5.58,8.56a29.66,29.66,0,0,0,9,1,6.86,6.86,0,0,0,6.92-6.19q1.72-11.43,3-22.92c.45-4-2.33-7.45-6.5-8.34a48.46,48.46,0,0,0-6.08-.82c-4.81-.41-8.39,2.28-9.11,6.89C32.93,79.15,32.52,82.8,32,86.44Z"/><path class="cls-13" d="M32,86.39c.48-3.64.88-7.29,1.45-10.91.72-4.61,4.3-7.29,9.11-6.89a48.46,48.46,0,0,1,6.08.82c4.17.89,7,4.32,6.5,8.34q-1.29,11.48-3,22.92a6.86,6.86,0,0,1-6.92,6.19,29.66,29.66,0,0,1-9-1c-4.11-1.14-6-4.43-5.58-8.56C31,93.66,31.57,90,32,86.39Z"/></g></g></svg>