<svg xmlns="http://www.w3.org/2000/svg" viewBox="0 0 321.2 625.51"><defs><style>.cls-1{fill:#fff;opacity:0.08;}.cls-2,.cls-3,.cls-4,.cls-6{fill:none;stroke-miterlimit:10;}.cls-2{stroke:#fff;}.cls-3{stroke:#ffff6c;}.cls-4{stroke:aqua;}.cls-5,.cls-7{fill:aqua;}.cls-6{stroke:lime;}.cls-7{opacity:0.25;}</style></defs><title>checklist_2</title><g id="Layer_2" data-name="Layer 2"><g id="Layer_3" data-name="Layer 3"><rect class="cls-1" x="30.78" y="87.96" width="260.56" height="390.59"/><rect class="cls-2" x="30.78" y="87.96" width="260.56" height="390.59"/><path class="cls-3" d="M251.77,35.85H181.15V17.44a16.94,16.94,0,0,0-33.88,0V35.85H70.21A11.91,11.91,0,0,0,58.3,47.76v17H263.68v-17A11.9,11.9,0,0,0,251.77,35.85ZM164.21,8.15a9.5,9.5,0,1,1-9.5,9.5A9.5,9.5,0,0,1,164.21,8.15Z"/><g id="_Group_" data-name="&lt;Group&gt;"><rect id="_Rectangle_" data-name="&lt;Rectangle&gt;" class="cls-4" x="45.23" y="122.48" width="39.22" height="39.22" rx="2.1" ry="2.1"/><rect id="_Rectangle_2" data-name="&lt;Rectangle&gt;" class="cls-4" x="45.23" y="220.21" width="39.22" height="39.22" rx="2.1" ry="2.1"/><rect id="_Rectangle_3" data-name="&lt;Rectangle&gt;" class="cls-4" x="45.23" y="317.93" width="39.22" height="39.22" rx="2.1" ry="2.1"/><rect id="_Rectangle_4" data-name="&lt;Rectangle&gt;" class="cls-4" x="45.23" y="415.66" width="39.22" height="39.22" rx="2.1" ry="2.1"/><g id="_Group_2" data-name="&lt;Group&gt;"><path class="cls-5" d="M64.84,156a3,3,0,0,1-2.29-1.08L47.76,137.08a3,3,0,1,1,4.58-3.8L64.52,148l26.25-41.42a3,3,0,0,1,5,3.19L67.35,154.63A3,3,0,0,1,65,156Z"/></g><g id="_Group_3" data-name="&lt;Group&gt;"><path class="cls-5" d="M64.84,252.93a3,3,0,0,1-2.29-1.08L47.76,234a3,3,0,1,1,4.58-3.8l12.17,14.7,26.25-41.42a3,3,0,0,1,5,3.19L67.35,251.54A3,3,0,0,1,65,252.92Z"/></g><g id="_Group_4" data-name="&lt;Group&gt;"><path class="cls-5" d="M64.84,350.26a3,3,0,0,1-2.29-1.08L47.76,331.33a3,3,0,1,1,4.58-3.8l12.17,14.7,26.25-41.42a3,3,0,0,1,5,3.19L67.35,348.88A3,3,0,0,1,65,350.25Z"/></g></g><g id="_Group_5" data-name="&lt;Group&gt;"><path class="cls-5" d="M67.11,449a3,3,0,0,1-2.29-1.08L50,430.06a3,3,0,1,1,4.58-3.8L66.79,441,93,399.54a3,3,0,0,1,5,3.19L69.63,447.61A3,3,0,0,1,67.3,449Z"/></g><path class="cls-4" d="M57.12,58H11.51A7.47,7.47,0,0,0,4,65.49V495a7.47,7.47,0,0,0,7.47,7.47H311.06a7.47,7.47,0,0,0,7.47-7.47l-.06-430.55A7.47,7.47,0,0,0,311,57H264"/><path class="cls-6" d="M265,53"/><line class="cls-2" x1="114.53" y1="142.69" x2="264.53" y2="142.69"/><line class="cls-2" x1="114.53" y1="157" x2="264.53" y2="157"/><line class="cls-2" x1="114.53" y1="128.38" x2="264.53" y2="128.38"/><line class="cls-2" x1="115.53" y1="238.69" x2="265.53" y2="238.69"/><line class="cls-2" x1="115.53" y1="253" x2="265.53" y2="253"/><line class="cls-2" x1="115.53" y1="224.38" x2="265.53" y2="224.38"/><line class="cls-2" x1="115.53" y1="336.69" x2="265.53" y2="336.69"/><line class="cls-2" x1="115.53" y1="351" x2="265.53" y2="351"/><line class="cls-2" x1="115.53" y1="322.38" x2="265.53" y2="322.38"/><line class="cls-2" x1="116.53" y1="436.69" x2="266.53" y2="436.69"/><line class="cls-2" x1="116.53" y1="451" x2="266.53" y2="451"/><line class="cls-2" x1="116.53" y1="422.38" x2="266.53" y2="422.38"/><path class="cls-7" d="M160.6,625.51C71.9,625.51,0,617.84,0,608.38s71.9-17.13,160.6-17.13,160.6,7.67,160.6,17.13-71.9,17.13-160.6,17.13"/></g></g></svg>