<svg xmlns="http://www.w3.org/2000/svg" viewBox="0 0 315.5 503"><defs><style>.cls-1{fill:#fff;opacity:0.08;}.cls-2,.cls-3,.cls-4,.cls-6{fill:none;stroke-miterlimit:10;}.cls-2{stroke:#fff;}.cls-3{stroke:#ffff6c;}.cls-4{stroke:aqua;}.cls-5{fill:aqua;}.cls-6{stroke:lime;}</style></defs><title>checklist_3</title><g id="Layer_2" data-name="Layer 2"><g id="Layer_3" data-name="Layer 3"><rect class="cls-1" x="27.25" y="87.96" width="260.56" height="390.59"/><rect class="cls-2" x="27.25" y="87.96" width="260.56" height="390.59"/><path class="cls-3" d="M248.24,35.85H177.62V17.44a16.94,16.94,0,0,0-33.88,0V35.85H66.68A11.91,11.91,0,0,0,54.77,47.76v17H260.15v-17A11.9,11.9,0,0,0,248.24,35.85ZM160.68,8.15a9.5,9.5,0,1,1-9.5,9.5A9.5,9.5,0,0,1,160.68,8.15Z"/><g id="_Group_" data-name="&lt;Group&gt;"><rect id="_Rectangle_" data-name="&lt;Rectangle&gt;" class="cls-4" x="41.7" y="122.48" width="39.22" height="39.22" rx="2.1" ry="2.1"/><rect id="_Rectangle_2" data-name="&lt;Rectangle&gt;" class="cls-4" x="41.7" y="220.21" width="39.22" height="39.22" rx="2.1" ry="2.1"/><rect id="_Rectangle_3" data-name="&lt;Rectangle&gt;" class="cls-4" x="41.7" y="317.93" width="39.22" height="39.22" rx="2.1" ry="2.1"/><rect id="_Rectangle_4" data-name="&lt;Rectangle&gt;" class="cls-4" x="41.7" y="415.66" width="39.22" height="39.22" rx="2.1" ry="2.1"/><g id="_Group_2" data-name="&lt;Group&gt;"><path class="cls-5" d="M61.31,156A3,3,0,0,1,59,154.94L44.23,137.08a3,3,0,1,1,4.58-3.8L61,148l26.25-41.42a3,3,0,0,1,5,3.19L63.82,154.63A3,3,0,0,1,61.5,156Z"/></g><g id="_Group_3" data-name="&lt;Group&gt;"><path class="cls-5" d="M61.31,252.93A3,3,0,0,1,59,251.85L44.23,234a3,3,0,1,1,4.58-3.8L61,244.9l26.25-41.42a3,3,0,0,1,5,3.19L63.82,251.54a3,3,0,0,1-2.32,1.38Z"/></g><g id="_Group_4" data-name="&lt;Group&gt;"><path class="cls-5" d="M61.31,350.26A3,3,0,0,1,59,349.18L44.23,331.33a3,3,0,1,1,4.58-3.8L61,342.23l26.25-41.42a3,3,0,0,1,5,3.19L63.82,348.88a3,3,0,0,1-2.32,1.38Z"/></g></g><g id="_Group_5" data-name="&lt;Group&gt;"><path class="cls-5" d="M63.58,449a3,3,0,0,1-2.29-1.08L46.51,430.06a3,3,0,1,1,4.58-3.8L63.26,441l26.25-41.42a3,3,0,0,1,5,3.19L66.09,447.61A3,3,0,0,1,63.77,449Z"/></g><path class="cls-4" d="M53.59,58H8A7.47,7.47,0,0,0,.5,65.49V495A7.47,7.47,0,0,0,8,502.5H307.53A7.47,7.47,0,0,0,315,495l-.06-430.55A7.47,7.47,0,0,0,307.47,57h-47"/><path class="cls-6" d="M261.5,53"/><line class="cls-2" x1="111" y1="142.69" x2="261" y2="142.69"/><line class="cls-2" x1="111" y1="157" x2="261" y2="157"/><line class="cls-2" x1="111" y1="128.38" x2="261" y2="128.38"/><line class="cls-2" x1="112" y1="238.69" x2="262" y2="238.69"/><line class="cls-2" x1="112" y1="253" x2="262" y2="253"/><line class="cls-2" x1="112" y1="224.38" x2="262" y2="224.38"/><line class="cls-2" x1="112" y1="336.69" x2="262" y2="336.69"/><line class="cls-2" x1="112" y1="351" x2="262" y2="351"/><line class="cls-2" x1="112" y1="322.38" x2="262" y2="322.38"/><line class="cls-2" x1="113" y1="436.69" x2="263" y2="436.69"/><line class="cls-2" x1="113" y1="451" x2="263" y2="451"/><line class="cls-2" x1="113" y1="422.38" x2="263" y2="422.38"/></g></g></svg>