<svg xmlns="http://www.w3.org/2000/svg" viewBox="0 0 365.74 565.19"><defs><style>.cls-1{fill:#fff;opacity:0.08;}.cls-2,.cls-3,.cls-4,.cls-5{fill:none;stroke-miterlimit:10;}.cls-2{stroke:#fff;}.cls-3,.cls-5{stroke:#00a551;}.cls-4{stroke:#ffb127;}.cls-5{stroke-width:1.11px;}.cls-6{fill:#00a551;}</style></defs><title>checklist</title><g id="Layer_2" data-name="Layer 2"><g id="Layer_3" data-name="Layer 3"><rect class="cls-1" x="37.66" y="90.41" width="297.66" height="446.21" rx="4.96" ry="4.96"/><rect class="cls-2" x="37.66" y="90.41" width="297.66" height="446.21" rx="4.96" ry="4.96"/><rect class="cls-3" x="0.5" y="48.99" width="364.74" height="515.7" rx="6.94" ry="6.94"/><path class="cls-4" d="M290.12,40.88H209.43v-21a19.35,19.35,0,0,0-38.7,0v21h-88A13.61,13.61,0,0,0,69.09,54.49V73.87H303.72V54.49A13.6,13.6,0,0,0,290.12,40.88Zm-100-31.64A10.86,10.86,0,1,1,179.23,20.1,10.86,10.86,0,0,1,190.08,9.24Z"/><g id="_Group_" data-name="&lt;Group&gt;"><rect id="_Rectangle_" data-name="&lt;Rectangle&gt;" class="cls-5" x="55.93" y="126.52" width="44.33" height="44.33" rx="2.1" ry="2.1"/><rect id="_Rectangle_2" data-name="&lt;Rectangle&gt;" class="cls-5" x="55.93" y="236.97" width="44.33" height="44.33" rx="2.1" ry="2.1"/><rect id="_Rectangle_3" data-name="&lt;Rectangle&gt;" class="cls-5" x="55.93" y="347.42" width="44.33" height="44.33" rx="2.1" ry="2.1"/><rect id="_Rectangle_4" data-name="&lt;Rectangle&gt;" class="cls-5" x="55.93" y="457.87" width="44.33" height="44.33" rx="2.1" ry="2.1"/><g id="_Group_2" data-name="&lt;Group&gt;"><path class="cls-6" d="M78.1,164.42a3.36,3.36,0,0,1-2.59-1.22L58.8,143A3.36,3.36,0,1,1,64,138.73l13.76,16.61,29.67-46.81a3.36,3.36,0,0,1,5.68,3.6L80.94,162.86a3.36,3.36,0,0,1-2.63,1.56Z"/></g><g id="_Group_3" data-name="&lt;Group&gt;"><path class="cls-6" d="M78.1,274a3.36,3.36,0,0,1-2.59-1.22L58.8,252.56A3.36,3.36,0,1,1,64,248.27l13.76,16.61,29.67-46.81a3.36,3.36,0,0,1,5.68,3.6L80.94,272.39a3.36,3.36,0,0,1-2.63,1.56Z"/></g><g id="_Group_4" data-name="&lt;Group&gt;"><path class="cls-6" d="M78.1,384a3.36,3.36,0,0,1-2.59-1.22L58.8,362.56A3.36,3.36,0,1,1,64,358.27l13.76,16.61,29.67-46.81a3.36,3.36,0,0,1,5.68,3.6L80.94,382.4A3.36,3.36,0,0,1,78.31,384Z"/></g></g><g id="_Group_5" data-name="&lt;Group&gt;"><path class="cls-6" d="M80.67,495.54a3.36,3.36,0,0,1-2.59-1.22L61.37,474.15a3.36,3.36,0,1,1,5.18-4.29L80.3,486.47,110,439.66a3.36,3.36,0,0,1,5.68,3.6L83.51,494a3.36,3.36,0,0,1-2.63,1.56Z"/></g></g></g></svg>