<svg xmlns="http://www.w3.org/2000/svg" viewBox="0 0 351.17 247.09"><defs><style>.cls-1{fill:#190033;}.cls-2{fill:#1a1a1a;}.cls-10,.cls-11,.cls-3,.cls-8,.cls-9{fill:none;}.cls-3{stroke:#f2f2f2;}.cls-11,.cls-3{stroke-miterlimit:10;}.cls-4{opacity:0.3;}.cls-5{fill:#ff0;}.cls-12,.cls-6{fill:lime;}.cls-7{fill:#f94141;}.cls-8{stroke:#ff0;}.cls-10,.cls-8,.cls-9{stroke-width:0.75px;}.cls-11,.cls-9{stroke:lime;}.cls-10{stroke:#f94141;}.cls-11{stroke-width:3px;}.cls-12{font-size:75.07px;font-family:MyriadPro-Regular, Myriad Pro;letter-spacing:-0.09em;}</style></defs><title>cli_icon_1</title><g id="Layer_2" data-name="Layer 2"><g id="Layer_2-2" data-name="Layer 2"><rect class="cls-1" x="0.5" y="23.99" width="350.17" height="222.6"/><rect class="cls-2" x="0.5" y="0.5" width="350.17" height="23.49"/><rect class="cls-3" x="0.5" y="0.5" width="350.17" height="23.49"/><rect class="cls-3" x="0.5" y="23.99" width="350.17" height="222.6"/><g class="cls-4"><circle class="cls-5" cx="22.35" cy="11.24" r="4.06"/><circle class="cls-6" cx="35.16" cy="11.24" r="4.06"/><circle class="cls-7" cx="9.55" cy="11.24" r="4.06"/></g><circle class="cls-8" cx="22.35" cy="11.24" r="4.06"/><circle class="cls-9" cx="35.16" cy="11.24" r="4.06"/><circle class="cls-10" cx="9.55" cy="11.24" r="4.06"/><line class="cls-11" x1="30.34" y1="55.5" x2="272.08" y2="55.5"/><text class="cls-12" transform="translate(226.45 210.85)">&gt;_</text><line class="cls-11" x1="48.75" y1="70.23" x2="160.17" y2="70.23"/><line class="cls-11" x1="180.06" y1="70.23" x2="245.72" y2="70.23"/><line class="cls-11" x1="78.59" y1="84.97" x2="126.34" y2="84.97"/><line class="cls-11" x1="102.47" y1="99.7" x2="137.29" y2="99.7"/><line class="cls-11" x1="155.19" y1="114.44" x2="246.72" y2="114.44"/><line class="cls-11" x1="38.8" y1="129.17" x2="138.28" y2="129.17"/><line class="cls-11" x1="37.81" y1="143.91" x2="139.28" y2="143.91"/><line class="cls-11" x1="37.81" y1="173.38" x2="136.29" y2="173.38"/></g></g></svg>