<svg xmlns="http://www.w3.org/2000/svg" viewBox="0 0 435 403.91"><defs><style>.cls-1,.cls-10,.cls-3,.cls-4{fill:#fff;}.cls-1{stroke:#000;stroke-width:3px;}.cls-1,.cls-2,.cls-3,.cls-4{stroke-miterlimit:10;}.cls-2{fill:#c69c6d;}.cls-2,.cls-3,.cls-4{stroke:#020000;}.cls-2,.cls-3{stroke-width:6px;}.cls-4{stroke-width:5px;}.cls-5{fill:#e0b892;}.cls-6{fill:#070000;}.cls-7{fill:#fff8a4;}.cls-8{fill:#f90;}.cls-9{fill:#b7b7b7;}.cls-11,.cls-12{fill:#60f1fc;}.cls-11{opacity:0.37;}</style></defs><title>deploy</title><g id="Layer_2" data-name="Layer 2"><g id="Layer_1-2" data-name="Layer 1"><path class="cls-1" d="M351,332.94c0,14.36-52.92,48-133,48s-139-33.64-139-48,58.92-26,139-26S351,318.58,351,332.94Z"/><path class="cls-2" d="M219.07,340.62c16.61,0,33.88,6.59,50.35,4.48,9.54-1.22,18-3.82,26.31-9.29,6.56-4.33,12.09-12.78,16.86-19.22,8.8-11.85,17.23-28.88,21.59-43.38,5.27-17.53-2.6-36-4.74-53.74-2.2-18.21,6.11-35.22,2.77-53.23a10.33,10.33,0,0,1,.93-6.45c5.36-10.84,9.77-21.14,9.28-33.94-.52-13.67,32.66-4,24.08-14-1.16-1.34-38.59-16.32-40.28-15.85-12.45,3.44-13.48,9.15-20.21,16.87-3,3.39-6.8,7.56-10.57,10-5.16,3.37-6.85,0-12.78-1.54a306.32,306.32,0,0,0-63.59-9.91,306.33,306.33,0,0,0-63.58,9.91c-5.93,1.58-7.63,4.91-12.78,1.54-3.77-2.48-7.61-6.65-10.57-10-6.67-7.65-20.74-15.63-22.49-14.85C30,133.59,96.24,112.27,95.73,125.85c-.49,12.76,3.89,23,9.22,33.82a10.76,10.76,0,0,1,1,6.7c-3.29,18,5,34.94,2.79,53.1-2.14,17.77-10,36.21-4.74,53.74,4.36,14.5,12.78,31.53,21.58,43.38,4.78,6.44,10.31,14.89,16.87,19.22,8.27,5.47,16.77,8.07,26.31,9.29C185.2,347.21,202.47,340.62,219.07,340.62Z"/><path class="cls-3" d="M283.93,306.29c1.66-12.52.88-18.75-6.28-28.16-10.93-14.39-28.39-29.26-35.36-46.33-7.82-19.17,11.22-37.18,8.75-57-1.5-12.09-6.56-22.12-11.3-32.88-4.36-9.92-5.66-17.16-5.85-27.31-5-.32-9.89-1.35-14.75-1.58-4.86.23-9.79.48-14.75.8C204.21,124,202.9,132,198.54,142c-4.74,10.76-9.8,20.79-11.3,32.88-2.47,19.79,16.57,37.8,8.75,57-7,17.07-24.43,31.94-35.36,46.33-7.16,9.41-7.94,15.64-6.28,28.16,1.49,11.23,4.88,22.38,8.72,32.86.63,1.7,1.29,4.14,2.12,6.37,2.08.47,4.2.85,6.38,1.15,15.56,2.11,31.88-4.48,47.57-4.48s32,6.59,47.57,4.48c2.18-.3,4.3-2.23,6.38-2.7.83-2.24,1.49-4.67,2.12-6.37C279.05,327.12,282.44,317.52,283.93,306.29Z"/><path class="cls-4" d="M135.76,204.62c16.89-15.85,32.55-11.83,43.21,8.48a1.77,1.77,0,0,1-.71,2.4c-13.25,7.09-29.89.1-42.19-7.68A2,2,0,0,1,135.76,204.62Z"/><path class="cls-5" d="M112.24,144.59c-2.58-11.77-12.81-32.87-1.17-30.51.59.12,13.94,10.62,19.24,17a1.54,1.54,0,0,1-.24,2.18l-15.39,12.19A1.53,1.53,0,0,1,112.24,144.59Z"/><path class="cls-6" d="M235.86,277.28c-4.24-2.43-10.2-2.72-16.23-2.51H219c-6-.21-12,.08-16.23,2.51-16,9.15-8.41,16.27,2.81,22.34,5.18,2.81,9.36,4.62,13.4,4.92a1.24,1.24,0,0,0,.32,0,1.2,1.2,0,0,0,.32,0c4-.3,8.22-2.11,13.41-4.92C244.28,293.55,251.87,286.43,235.86,277.28Z"/><path class="cls-5" d="M326.82,144.59c2.58-11.77,3.11-18.79,1.16-30.51a1.53,1.53,0,0,0-2.57-.85,218.24,218.24,0,0,0-16.66,17.86,1.54,1.54,0,0,0,.23,2.18l15.39,12.19A1.53,1.53,0,0,0,326.82,144.59Z"/><path class="cls-4" d="M309.58,206.94c-16.89-15.85-32.54-11.83-43.21,8.49a1.78,1.78,0,0,0,.72,2.4c13.25,7.08,29.88.1,42.19-7.68A2,2,0,0,0,309.58,206.94Z"/><circle class="cls-6" cx="157.79" cy="206.09" r="10.47"/><circle class="cls-6" cx="287.29" cy="208.41" r="10.47"/><g id="xWrKPt.tif"><path class="cls-7" d="M26.82,152.75A17.79,17.79,0,0,0,39,136.51c.08-6.83-4.45-12.95-11.42-15.43-5.19-1.84-9.37-1.54-13.75,1.47a19.63,19.63,0,0,0-8.27,15.52c-.07,1.78-.1,3.55-.11,5.31C12.21,152.51,19.14,155.26,26.82,152.75Zm-7.89-26.67c-4,7.48-3.89,14.67,1.37,21.78-5.6,0-9.94-4.38-10.37-10.14A10.66,10.66,0,0,1,18.93,126.08Z"/><path class="cls-7" d="M408.51,121.05c-7.49,2.15-12.64,8.57-12.58,15.68a17.83,17.83,0,0,0,12.6,16.47c7.29,2.19,14.26-.69,19.66-8a35.48,35.48,0,0,0,1.2-13.67C423,121.82,416.62,118.73,408.51,121.05ZM425,138.6c-.79,5.78-5.29,9.9-10.54,9.66,5.31-7.94,5.6-10.95,2.11-21.74A10.65,10.65,0,0,1,425,138.6Z"/><path d="M431.43,79.75a10.15,10.15,0,0,0-3.53-3.63A74.47,74.47,0,0,0,398.12,66c-7.65-.82-15.44-.42-23.16-.39A2.89,2.89,0,0,1,372,64c-9.83-16.24-22.58-22.65-38.49-33C311.87,16.83,287.93,9.06,262.72,5.09,249,2.94,235.07,2,221.25.43c-.71-.08-1.41-.28-2.11-.43H207.66c-4.43.34-8.86.7-13.3,1C175,2.42,156.15,5.43,138,12.29A153.36,153.36,0,0,0,73.73,58.14,154.83,154.83,0,0,0,64.45,71c-1.05,1.57-2.08-5.17-3.8-5.34C44.5,64,28.84,65.85,13.93,72.58a79.56,79.56,0,0,0-7.46,4,6.82,6.82,0,0,0-3.2,4.78C2.75,83.61,1.14,85.64,0,87.78V149.7c1.53,2.33,2.79,4.9,4.66,6.92,2.32,2.52,5.55,3.31,9,3.26,8.28-.13,16.56-.21,24.85-.3a5.77,5.77,0,0,1,1.12.24c-.19,3.94-.39,7.89-.61,12.45-2.75,0-5.27.16-7.76,0-3.33-.27-4.87,1.29-5.88,4.34A87.93,87.93,0,0,0,21,207.84,143,143,0,0,0,27.18,245c.85,2.76,2.2,3.92,5.1,3.57a58,58,0,0,1,6.64-.05c.33,3.43.47,7,1,10.41,1.89,11.32,3.38,22.76,6.09,33.88C48,300.6,51,308.12,52.9,316c2.23,9.44,7.54,17.55,12.57,25.7,3.06,5,6.44,9.73,9.57,14.66a10.23,10.23,0,0,1,1.53,3.95c.84,6.24,1.59,12.5,2.19,18.77a5.29,5.29,0,0,0,3.73,5c14.87,6,29.68,12.1,44.49,18.2,1.07.44,2.06,1.07,3.08,1.6h2.19c6-1.81,11.92-3.69,17.91-5.43,11.18-3.24,22.57-3.39,34.1-2.58,19,1.35,38,1.91,57-.14,16.42-1.77,32.18-6.28,47.38-12.45,14.41-5.84,28.62-12.24,42.59-19.07,19.4-9.48,34-24.55,46-42.22,1.2-1.75,2.31-2.47,4.42-2.06,3.29.64,6.64.94,9.94,1.53,2.84.5,5.89-.39,7.07-3A39.75,39.75,0,0,0,402.24,308a107.48,107.48,0,0,0,1-17.39c-.08-3.92-1.67-5-5.52-5.36-2.35-.25-4.71-.46-7.06-.7a4,4,0,0,1-.71-.3q2.16-17.75,4.37-35.73c3.27,0,6.52-.06,9.76,0,1.89.05,3.11-.55,3.69-2.46,6.42-21.19,9.3-42.58,3.74-64.46-.56-2.2-1.46-4.31-2.1-6.5a3.65,3.65,0,0,0-4.07-2.85c-2.44.05-4.88,0-7.62,0-.23-4.32-.44-8.2-.66-12.35h7.72c4.64,0,9.3-.23,13.93.07,8.05.54,13.51-2.69,16.3-10.32V87.78C433.83,85.09,432.85,82.3,431.43,79.75Zm-12.32-1.86c-6.21,0-12.42-.06-18.63,0a16.47,16.47,0,0,0-5.33.84,12.87,12.87,0,0,0-8.37,12,24.29,24.29,0,0,1-.36,4.85c-1.63-4.09-3.21-8.2-4.9-12.26S378,75.2,376.07,70.76C391.12,69.22,405.45,71.19,419.11,77.89ZM338.85,42.14a119,119,0,0,1,27.5,29.07,142.37,142.37,0,0,1,15.59,32.15,2.68,2.68,0,0,0,.07.27c5.25,12.67,5.19,26,4.74,39.34-.18,5.19.25,10.05,4.5,13.76a2.25,2.25,0,0,1,.57,1.46c.26,4.36.46,8.73.7,13.33h-9.23c-.43-6.84-.66-13.67-1.33-20.45-.86-8.71-1.65-17.47-3.25-26.06-2.1-11.28-13.9-16.5-24.17-11.09C343.06,103.93,330,96.41,316,90.5c-1.72-.72-1.35-1.88-1.18-3.12a108.16,108.16,0,0,0-.11-33C313.21,45.47,311,36.71,309,27.89c-.19-.86-.44-1.72-.77-3A144,144,0,0,1,338.85,42.14ZM58.06,241.31c2.63-6.38,4.63-12.81,4.36-20-.42-11.48.14-23,.39-34.5.06-2.67-.75-4.25-3.9-4.22.17-1.24.32-2.37.47-3.46,5.4-.5,6.49-1.57,6.72-7.29a151.21,151.21,0,0,1,7-41.14,37.23,37.23,0,0,1,13.06-18.61c16.87-13.06,35.9-21.43,56.3-26.94,27.68-7.48,55.94-9.5,84.47-8.57,24.59.8,48.79,4.11,72.27,11.77,17.33,5.65,33.55,13.47,48.19,24.57,8.39,6.36,14.06,14.08,16.69,24.45a166.3,166.3,0,0,1,5.18,33.74c0,.82.08,1.64.14,2.46.44,5.91,2,7.2,7.64,6.47l.62.86a16.33,16.33,0,0,0-2.78,1.88c-.87.87-2.12,2-2.12,3,.1,15.06.37,30.12.63,45.18A3.93,3.93,0,0,0,374,233a17,17,0,0,1,3.13,12.77c-2.28,13.77-3.9,27.7-7.24,41.2-2.73,11-7.48,21.49-11.55,32.12-.72,1.86-2.43,3.4-3.84,4.93-13.85,15-30.42,26.3-48.77,35-23.15,11-47.64,16.93-73.1,18.88-29.27,2.23-58.24.28-86.66-7.45-21.27-5.78-40.91-14.89-57.23-30.11a153.75,153.75,0,0,1-12.59-14c-6.33-7.53-8.43-16.72-10.25-26.15-3.33-17.2-7.18-34.29-8.78-51.78A14.3,14.3,0,0,1,58.06,241.31Zm-1.77-72.53c1.16-14.17,2.49-28.31,3.77-42.47A10.17,10.17,0,0,1,60.3,125c1.82-8.23,6.42-11.33,15.4-10-9.59,18.85-13.18,39-13.54,60.1C56.49,173.92,55.91,173.44,56.29,168.78ZM360,116.41c9.16-1.38,14,1.81,15.27,10.8,1.48,10.27,2.32,20.63,3.33,31,.37,3.81.47,7.64.62,11.47.19,5.15.16,5.15-5.39,6.95a42,42,0,0,1-.64-4.6c-.57-15.5-3.05-30.63-8.75-45.13C363.12,123.42,361.58,120,360,116.41Zm21,131.67h8.1c-1.59,12.24-3.12,24-4.67,35.9l-9.2-.69C377.19,271.51,379.12,259.75,381,248.08Zm1.5-6.29c-.68-2.4-1.18-4.2-1.77-6.28,3.46-.21,3.66-2.63,3.94-5.18a159.1,159.1,0,0,0-.61-41c-.28-1.88-1.65-3.64-1.76-5.5-.12-2.11.6-4.26,1.08-7.12C389.51,187,388.85,229.65,382.53,241.79ZM302.84,22.84a2.46,2.46,0,0,1,1.06,1.47c6.25,20.21,10.17,40.69,7.16,62-.07.53-.19,1.06-.37,2-3.27-1.53-6.43-2.88-9.45-4.5-.57-.3-.85-1.67-.82-2.53.32-9.21.67-18.42,1.11-27.62.51-10.48-1.59-20.49-5.25-30.24-.34-.92-.64-1.85-1.19-3.42C298,21,300.45,21.86,302.84,22.84Zm-165-2.34A206.13,206.13,0,0,1,191.46,8.29c32.76-2.93,64.84,1,96.46,9.52a5.21,5.21,0,0,1,3,2.66c4.67,10.66,7.4,21.72,6.79,33.48-.45,8.84-.74,17.69-1.12,26.53,0,.81-.18,1.62-.29,2.51C240.62,68.6,185.39,68.48,130,84.49c-.09-.78-.27-1.64-.3-2.51-.38-9.85-.78-19.7-1.09-29.55-.33-10.33,2.37-20,6.35-29.45A5.42,5.42,0,0,1,137.87,20.5Zm-15.31,6.79c2.31-1.18,4.7-2.19,7.77-3.59-3.24,9.05-5.64,17.39-5.59,26.16.05,8.29.45,16.58.73,24.87.1,3.1.38,6.19.4,9.29a2.67,2.67,0,0,1-1.08,2.08c-2.88,1.31-5.86,2.39-9.33,3.76-.38-3.55-.84-6.74-1-9.94-1.16-17.45,2.08-34.31,7-50.93A2.91,2.91,0,0,1,122.56,27.29ZM69.19,73A135.89,135.89,0,0,1,114,32c.76-.44,1.57-.79,2.71-1.36-1.28,5.7-2.55,11-3.66,16.32a121.46,121.46,0,0,0-1.36,43c.2,1.33.18,2.13-1.23,2.8a130.76,130.76,0,0,0-29,18.34,3.76,3.76,0,0,1-2.41.45c-2.62-.15-5.25-.71-7.86-.62-7.72.24-12.69,4-14.08,11.61-1.56,8.6-2.52,17.32-3.39,26-.7,7-.85,14-1.26,21,0,.62-.17,1.24-.27,2H44.38a17.12,17.12,0,0,1-.09-2.28c1.48-15.61,2.21-31.35,4.68-46.81A121,121,0,0,1,69.19,73ZM50.86,231.8c.27,2.23,1.14,3.63,3.92,3.41-.59,2.2-1.08,4.07-1.58,5.93l-1-.1a126.9,126.9,0,0,1-.7-63.61c.92,2.48,3.72,4.78.67,7.62-.5.47-.52,1.53-.65,2.33A164,164,0,0,0,50.86,231.8Zm9-161c-3.85,9-7.66,17.95-11.67,27.36,0-2.72,0-5,0-7.32a12.91,12.91,0,0,0-13-13c-3.18,0-6.37,0-9.56,0s-6.36,0-9.58-.27C30,70.94,44.74,69.14,59.9,70.79Zm-24,83.83c-3.09.09-6.19,0-9.28,0q-6.42,0-12.84,0c-6.1,0-8.63-2.52-8.68-8.62,0-.91,0-1.81,0-3.36.1.15.21.28.32.42a116.28,116.28,0,0,1,.68-12.93c-.29.37-.59.74-.88,1.12,0-1-.12-1.81-.12-2.6q0-18.34,0-36.69c0-6.6,2.5-9.06,9.12-9.08,6.83,0,13.66,0,20.49,0,5.7,0,8.38,2.68,8.4,8.37,0,10.41.33,20.83-.06,31.22-.29,7.64-1.5,15.24-2.28,22.86-.17,1.64-.27,3.28-.39,4.92C40.15,153.81,39.5,154.51,35.92,154.62Zm-2.61,88.66a2.26,2.26,0,0,1-1.61-1.36c-5.66-20.31-8.24-40.74-2.21-61.49.62-2.14,1.54-3.18,3.92-3.09,4.15.17,8.31,0,12.28,0-4.56,21.75-4.39,43.53,1.93,66C42.86,243.35,38.08,243.39,33.31,243.28Zm11.08,5c1.5-.09,2.93-.21,4.35-.26s2.71,0,3.73,0l10.09,57.16h-4.4C49.4,287.09,45.14,268.22,44.39,248.25Zm39.1,126.07c-.54-4.49-1.08-9-1.7-14.24l7.36,4.77-5.05,9.5Zm45.83,23.36-43.7-17.93c2.38-4.49,4.63-8.71,7-13.17l42.78,18C133.34,389,131.39,393.21,129.32,397.68Zm4.4-.29c1.72-3.68,3.24-7,4.88-10.34a1.76,1.76,0,0,1,1.52-.68c6.48,1.37,12.94,2.82,20.12,4.41Zm223.48-58.8c-11.5,12.56-26.07,20.6-41.28,27.67-20.44,9.5-41.24,18-63.42,22.54-17.26,3.52-34.76,3.42-52.26,2.81-4.37-.16-8.73-.59-13.09-.65-16.22-.21-31.68-4.87-47.08-9-11.07-3-21.38-8.7-32.08-13.1-9.18-3.78-18.39-7.49-26.4-13.56A9.93,9.93,0,0,1,79,352.94c-5.74-9.2-11.68-18.29-17-27.76-2.66-4.78-4.09-10.25-6.31-16,2.85,0,4.82-.09,6.77,0A2,2,0,0,1,64,310.35c2.9,12.14,10.53,21.34,19,29.87,15.84,16,35.33,25.85,56.6,32.37,28.1,8.61,56.94,11.05,86.17,9.64,26-1.25,51.08-6.47,75-16.76,21-9,39.78-21.27,55.72-37.82a36.75,36.75,0,0,0,8.17-14c1.23-3.61,2.72-7.13,4.32-11.27,1.05,6.19-1.21,12.38,3.73,18.11C367.83,326.19,362.71,332.57,357.2,338.59Zm40.63-40.49.68.08c-.39,3.15-.77,6.29-1.16,9.44h-.77Q397.2,302.86,397.83,298.1Zm-3.93-8-3.15,25.53c-4.49-.43-9.71-.88-14.91-1.5-.47-.06-1.14-1.1-1.2-1.73-.68-7.43-.45-14.8,2.49-21.8a3.31,3.31,0,0,1,2.47-1.7C384.5,289.16,389.39,289.69,393.9,290.1Zm9.93-112.53c.6,0,1.41,1.25,1.68,2.07a80,80,0,0,1,3.71,29.67A146.78,146.78,0,0,1,404.34,240c-.66,2.48-1.6,3.56-4.39,3.33-4-.33-8-.08-12-.08,6.26-22.28,6.42-44.06,1.86-65.81C394.31,177.48,399.08,177.4,403.83,177.57ZM421,154.75c-7,0-14,0-21,0-5.39,0-8.11-2.71-8.12-8.06q0-27.78,0-55.56c0-5.24,2.7-8,7.87-8.07q11.21-.1,22.39,0c4.6.07,7.58,2.53,7.63,6.86.17,13.85.07,27.7.07,42.25l-.45-.67a35.48,35.48,0,0,1-1.2,13.67q.65-.87,1.26-1.83C431.44,150.25,428.13,154.75,421,154.75Z"/><path class="cls-8" d="M296.27,83C240.62,68.6,185.39,68.48,130,84.49c-.09-.78-.27-1.64-.3-2.51-.38-9.85-.78-19.7-1.09-29.55-.33-10.33,2.37-20,6.35-29.45a5.42,5.42,0,0,1,2.94-2.48A206.13,206.13,0,0,1,191.46,8.29c32.76-2.93,64.84,1,96.46,9.52a5.21,5.21,0,0,1,3,2.66c4.67,10.66,7.4,21.72,6.79,33.48-.45,8.84-.74,17.69-1.12,26.53C296.53,81.29,296.38,82.1,296.27,83Z"/><path class="cls-9" d="M377.69,180.86a16.33,16.33,0,0,0-2.78,1.88c-.87.87-2.12,2-2.12,3,.1,15.06.37,30.12.63,45.18A3.93,3.93,0,0,0,374,233a17,17,0,0,1,3.13,12.77c-2.28,13.77-3.9,27.7-7.24,41.2-2.73,11-7.48,21.49-11.55,32.12-.72,1.86-2.43,3.4-3.84,4.93-13.85,15-30.42,26.3-48.77,35-23.15,11-47.64,16.93-73.1,18.88-29.27,2.23-58.24.28-86.66-7.45-21.27-5.78-40.91-14.89-57.23-30.11a153.75,153.75,0,0,1-12.59-14c-6.33-7.53-8.43-16.72-10.25-26.15-3.33-17.2-7.18-34.29-8.78-51.78a14.3,14.3,0,0,1,1-7.12c2.63-6.38,4.63-12.81,4.36-20-.42-11.48.14-23,.39-34.5.06-2.67-.75-4.25-3.9-4.22l.47-3.46c5.4-.5,6.49-1.57,6.72-7.29a151.21,151.21,0,0,1,7-41.14,37.23,37.23,0,0,1,13.06-18.61c16.87-13.06,35.9-21.43,56.3-26.94,27.68-7.48,55.94-9.5,84.47-8.57,24.59.8,48.79,4.11,72.27,11.77,17.33,5.65,33.55,13.47,48.19,24.57,8.39,6.36,14.06,14.08,16.69,24.45a166.3,166.3,0,0,1,5.18,33.74c0,.82.08,1.64.14,2.46.44,5.91,2,7.2,7.64,6.47Zm-7,36.81A205.29,205.29,0,0,0,356.63,134a32.73,32.73,0,0,0-16-17.85c-22.35-12-46.17-19.19-71-23.49-23.33-4-46.86-5.09-70.49-4.19-20.05.77-40,2.83-59.5,7.57-15.29,3.7-30,8.83-43.41,17.35-9.62,6.12-17.07,13.7-19.42,25.51-2.46,12.33-5.82,24.49-8.13,36.85a241.92,241.92,0,0,0-4,58.86,515.67,515.67,0,0,0,7,57.58c1,5.82,2,11.75,4,17.28,2.62,7.36,7.43,13.57,12.73,19.29,15.7,16.92,35.6,26.59,57.34,32.87,22.21,6.43,45,8.55,68,8.78,27.59.27,54.44-3.65,80.06-14.38,22.45-9.4,42-22.92,57.6-41.79,3.17-3.84,7-7.89,8.17-12.46a307,307,0,0,0,7.95-39.09C369.44,247.8,369.74,232.69,370.73,217.67Z"/><path class="cls-10" d="M308.25,24.86a144,144,0,0,1,30.6,17.28,119,119,0,0,1,27.5,29.07,142.37,142.37,0,0,1,15.59,32.15,2.68,2.68,0,0,0,.07.27c5.25,12.67,5.19,26,4.74,39.34-.18,5.19.25,10.05,4.5,13.76a2.25,2.25,0,0,1,.57,1.46c.26,4.36.46,8.73.7,13.33h-9.23c-.43-6.84-.66-13.67-1.33-20.45-.86-8.71-1.65-17.47-3.25-26.06-2.1-11.28-13.9-16.5-24.17-11.09C343.06,103.93,330,96.41,316,90.5c-1.72-.72-1.35-1.88-1.18-3.12a108.16,108.16,0,0,0-.11-33C313.21,45.47,311,36.71,309,27.89,308.83,27,308.58,26.17,308.25,24.86Z"/><path class="cls-10" d="M369,302.37c1.05,6.19-1.21,12.38,3.73,18.11-4.86,5.71-10,12.09-15.49,18.11-11.5,12.56-26.07,20.6-41.28,27.67-20.44,9.5-41.24,18-63.42,22.54-17.26,3.52-34.76,3.42-52.26,2.81-4.37-.16-8.73-.59-13.09-.65-16.22-.21-31.68-4.87-47.08-9-11.07-3-21.38-8.7-32.08-13.1-9.18-3.78-18.39-7.49-26.4-13.56A9.93,9.93,0,0,1,79,352.94c-5.74-9.2-11.68-18.29-17-27.76-2.66-4.78-4.09-10.25-6.31-16,2.85,0,4.82-.09,6.77,0A2,2,0,0,1,64,310.35c2.9,12.14,10.53,21.34,19,29.87,15.84,16,35.33,25.85,56.6,32.37,28.1,8.61,56.94,11.05,86.17,9.64,26-1.25,51.08-6.47,75-16.76,21-9,39.78-21.27,55.72-37.82a36.75,36.75,0,0,0,8.17-14C365.87,310,367.36,306.51,369,302.37Z"/><path class="cls-10" d="M52.11,171.57H44.38a17.12,17.12,0,0,1-.09-2.28c1.48-15.61,2.21-31.35,4.68-46.81A121,121,0,0,1,69.19,73,135.89,135.89,0,0,1,114,32c.76-.44,1.57-.79,2.71-1.36-1.28,5.7-2.55,11-3.66,16.32a121.46,121.46,0,0,0-1.36,43c.2,1.33.18,2.13-1.23,2.8a130.76,130.76,0,0,0-29,18.34,3.76,3.76,0,0,1-2.41.45c-2.62-.15-5.25-.71-7.86-.62-7.72.24-12.69,4-14.08,11.61-1.56,8.6-2.52,17.32-3.39,26-.7,7-.85,14-1.26,21C52.34,170.22,52.21,170.84,52.11,171.57Z"/><path class="cls-10" d="M45.69,177.39c-4.56,21.75-4.39,43.53,1.93,66-4.76,0-9.54,0-14.31-.07a2.26,2.26,0,0,1-1.61-1.36c-5.66-20.31-8.24-40.74-2.21-61.49.62-2.14,1.54-3.18,3.92-3.09C37.56,177.51,41.72,177.39,45.69,177.39Z"/><path class="cls-10" d="M388,243.29c6.26-22.28,6.42-44.06,1.86-65.81,4.46,0,9.23-.08,14,.09.6,0,1.41,1.25,1.68,2.07a80,80,0,0,1,3.71,29.67A146.78,146.78,0,0,1,404.34,240c-.66,2.48-1.6,3.56-4.39,3.33C396,243,392,243.29,388,243.29Z"/><path class="cls-9" d="M429.84,132.16c-6.51-10.22-13-13.49-21.33-11.11-7.49,2.15-12.64,8.57-12.58,15.68a17.83,17.83,0,0,0,12.6,16.47c7.87,2.37,15.37-1.17,20.92-9.87,2,6.92-1.32,11.42-8.43,11.42s-14,0-21,0c-5.39,0-8.11-2.71-8.12-8.06q0-27.78,0-55.56c0-5.24,2.7-8,7.87-8.07q11.21-.1,22.39,0c4.6.07,7.58,2.53,7.63,6.86C429.94,103.76,429.84,117.61,429.84,132.16Zm-.78-29.65c.14-9.22-7.61-17.34-16.71-17.51-9.43-.17-17.6,7.24-17.71,16.07-.1,9.09,7.83,17.26,16.91,17.39C420.84,118.59,428.93,111.22,429.06,102.51Z"/><path class="cls-9" d="M5.12,142.69C12,152.16,19,155.3,26.82,152.75A17.79,17.79,0,0,0,39,136.51c.08-6.83-4.45-12.95-11.42-15.43-8.37-3-14.12-.38-22.32,10.22,0-1-.12-1.81-.12-2.6q0-18.34,0-36.69c0-6.6,2.5-9.06,9.12-9.08,6.83,0,13.66,0,20.49,0,5.7,0,8.38,2.68,8.4,8.37,0,10.41.33,20.83-.06,31.22-.29,7.64-1.5,15.24-2.28,22.86-.17,1.64-.27,3.28-.39,4.92-.25,3.52-.9,4.22-4.48,4.33-3.09.09-6.19,0-9.28,0q-6.42,0-12.84,0c-6.1,0-8.63-2.52-8.68-8.62C5.11,145.14,5.12,144.24,5.12,142.69Zm18-24.59A17.61,17.61,0,0,0,40.31,101c.06-8.69-7.93-16.29-17.18-16.37s-17.25,8-17.23,17.31C5.92,110.71,13.81,118.11,23.16,118.1Z"/><path class="cls-10" d="M85.62,379.75c2.38-4.49,4.63-8.71,7-13.17l42.78,18c-2.06,4.43-4,8.6-6.08,13.07Z"/><path class="cls-9" d="M310.69,88.29c-3.27-1.53-6.43-2.88-9.45-4.5-.57-.3-.85-1.67-.82-2.53.32-9.21.67-18.42,1.11-27.62.51-10.48-1.59-20.49-5.25-30.24-.34-.92-.64-1.85-1.19-3.42,2.91,1.06,5.36,1.88,7.75,2.86a2.46,2.46,0,0,1,1.06,1.47c6.25,20.21,10.17,40.69,7.16,62C311,86.82,310.87,87.35,310.69,88.29Z"/><path class="cls-9" d="M130.33,23.7c-3.24,9.05-5.64,17.39-5.59,26.16.05,8.29.45,16.58.73,24.87.1,3.1.38,6.19.4,9.29a2.67,2.67,0,0,1-1.08,2.08c-2.88,1.31-5.86,2.39-9.33,3.76-.38-3.55-.84-6.74-1-9.94-1.16-17.45,2.08-34.31,7-50.93a2.91,2.91,0,0,1,1.19-1.7C124.87,26.11,127.26,25.1,130.33,23.7Z"/><path class="cls-10" d="M62.16,175.12c-5.67-1.2-6.25-1.68-5.87-6.34,1.16-14.17,2.49-28.31,3.77-42.47A10.17,10.17,0,0,1,60.3,125c1.82-8.23,6.42-11.33,15.4-10C66.11,133.87,62.52,154.05,62.16,175.12Z"/><path class="cls-10" d="M62.56,305.14h-4.4c-8.76-18.05-13-36.92-13.77-56.89,1.5-.09,2.93-.21,4.35-.26s2.71,0,3.73,0Z"/><path class="cls-10" d="M360,116.41c9.16-1.38,14,1.81,15.27,10.8,1.48,10.27,2.32,20.63,3.33,31,.37,3.81.47,7.64.62,11.47.19,5.15.16,5.15-5.39,6.95a42,42,0,0,1-.64-4.6c-.57-15.5-3.05-30.63-8.75-45.13C363.12,123.42,361.58,120,360,116.41Z"/><path class="cls-10" d="M393.9,290.1l-3.15,25.53c-4.49-.43-9.71-.88-14.91-1.5-.47-.06-1.14-1.1-1.2-1.73-.68-7.43-.45-14.8,2.49-21.8a3.31,3.31,0,0,1,2.47-1.7C384.5,289.16,389.39,289.69,393.9,290.1Z"/><path class="cls-10" d="M59.9,70.79,48.23,98.15c0-2.72,0-5,0-7.32a12.91,12.91,0,0,0-13-13c-3.18,0-6.37,0-9.56,0s-6.36,0-9.58-.27C30,70.94,44.74,69.14,59.9,70.79Z"/><path class="cls-10" d="M376.07,70.76c15.05-1.54,29.38.43,43,7.13-6.21,0-12.42-.06-18.63,0a16.47,16.47,0,0,0-5.33.84,12.87,12.87,0,0,0-8.37,12,24.29,24.29,0,0,1-.36,4.85c-1.63-4.09-3.21-8.2-4.9-12.26S378,75.2,376.07,70.76Z"/><path class="cls-10" d="M389.13,248.08c-1.59,12.24-3.12,24-4.67,35.9l-9.2-.69c1.93-11.78,3.86-23.54,5.77-35.21Z"/><path class="cls-10" d="M382.53,241.79c-.68-2.4-1.18-4.2-1.77-6.28,3.46-.21,3.66-2.63,3.94-5.18a159.1,159.1,0,0,0-.61-41c-.28-1.88-1.65-3.64-1.76-5.5-.12-2.11.6-4.26,1.08-7.12C389.51,187,388.85,229.65,382.53,241.79Z"/><path class="cls-10" d="M160.24,390.78l-26.52,6.61c1.72-3.68,3.24-7,4.88-10.34a1.76,1.76,0,0,1,1.52-.68C146.6,387.74,153.06,389.19,160.24,390.78Z"/><path class="cls-10" d="M51.46,177.43c.92,2.48,3.72,4.78.67,7.62-.5.47-.52,1.53-.65,2.33a164,164,0,0,0-.62,44.42c.27,2.23,1.14,3.63,3.92,3.41l-1.58,5.93-1-.1A126.9,126.9,0,0,1,51.46,177.43Z"/><path class="cls-8" d="M20.3,147.86c-5.6,0-9.94-4.38-10.37-10.14a10.66,10.66,0,0,1,9-11.64C14.91,133.56,15,140.75,20.3,147.86Z"/><path class="cls-8" d="M414.44,148.26c5.31-7.94,5.6-10.95,2.11-21.74A10.65,10.65,0,0,1,425,138.6C424.19,144.38,419.69,148.5,414.44,148.26Z"/><path class="cls-10" d="M81.79,360.08l7.36,4.77-5.05,9.5-.61,0C83,369.83,82.41,365.33,81.79,360.08Z"/><path class="cls-10" d="M396.58,307.61l1.25-9.51.68.08c-.39,3.15-.77,6.29-1.16,9.44Z"/><path d="M251.69,317.82a3.55,3.55,0,0,1-3.76-1.42A24,24,0,0,0,236,309a41.6,41.6,0,0,0-21.58-.86c-6.51,1.5-9.88,5.18-10.78,11.83a47.6,47.6,0,0,0-.26,8.19,7.51,7.51,0,0,0,5,6.95,34.26,34.26,0,0,0,8.12,2.2c8.68,1.17,17.37,1,25.53-2.48a51.86,51.86,0,0,1,16.82-4c23.47-1.8,45.51-9.2,67.57-17,24.09-8.48,23.73-14.37,28.74-16.24,0,.17,8.53-13.18,7.76-9.3,0-7.75,4.65-21.71,3.1-30.24-24.33,51-77.63,53.19-96,56.56C263.9,315.81,257.78,316.75,251.69,317.82Z"/><path class="cls-7" d="M429.06,102.51c-.13,8.71-8.22,16.08-17.51,15.95-9.08-.13-17-8.3-16.91-17.39.11-8.83,8.28-16.24,17.71-16.07C421.45,85.17,429.2,93.29,429.06,102.51ZM414.9,112.86c6.13-1.79,9.57-6.82,8.88-12.33a10.65,10.65,0,0,0-9.92-9.63C419,97.85,419.24,105.06,414.9,112.86Z"/><path class="cls-7" d="M23.16,118.1c-9.35,0-17.24-7.39-17.26-16.17,0-9.3,8-17.4,17.23-17.31S40.37,92.3,40.31,101A17.61,17.61,0,0,1,23.16,118.1ZM21.75,90.19c-6.9,1.26-10.93,5.88-10.62,11.65.29,5.41,4,9.93,8.44,10.14C15.67,104.4,16.17,97.22,21.75,90.19Z"/><path class="cls-11" d="M356.63,134a32.73,32.73,0,0,0-16-17.85c-22.35-12-46.17-19.19-71-23.49-23.33-4-46.86-5.09-70.49-4.19-20.05.77-40,2.83-59.5,7.57-15.29,3.7-30,8.83-43.41,17.35-9.62,6.12-17.07,13.7-19.42,25.51-2.46,12.33-5.82,24.49-8.13,36.85a241.92,241.92,0,0,0-4,58.86,515.67,515.67,0,0,0,7,57.58c1,5.82,2,11.75,4,17.28,2.62,7.36,7.43,13.57,12.73,19.29,15.7,16.92,35.6,26.59,57.34,32.87,22.21,6.43,45,8.55,68,8.78,27.59.27,54.44-3.65,80.06-14.38,22.45-9.4,42-22.92,57.6-41.79,3.17-3.84,7-7.89,8.17-12.46a307,307,0,0,0,7.95-39.09c1.87-14.91,2.17-30,3.16-45A205.29,205.29,0,0,0,356.63,134Zm6.13,127.13a6.62,6.62,0,0,1-.28,1.42Z"/><path class="cls-8" d="M414.9,112.86c4.34-7.8,4.06-15-1-22a10.65,10.65,0,0,1,9.92,9.63C424.47,106,421,111.07,414.9,112.86Z"/><path class="cls-8" d="M21.75,90.19c-5.58,7-6.08,14.21-2.18,21.79-4.44-.21-8.15-4.73-8.44-10.14C10.82,96.07,14.85,91.45,21.75,90.19Z"/></g><path class="cls-12" d="M117.86,164.6h0Z"/></g></g></svg>