<svg xmlns="http://www.w3.org/2000/svg" viewBox="0 0 428 428"><defs><style>.cls-1{fill:#e0b892;}.cls-10,.cls-2,.cls-4,.cls-5{fill:#fff;}.cls-2{stroke:#000;stroke-width:4px;}.cls-2,.cls-3,.cls-4,.cls-5{stroke-miterlimit:10;}.cls-3{fill:#c69c6d;}.cls-3,.cls-4,.cls-5{stroke:#020000;}.cls-3,.cls-4{stroke-width:6px;}.cls-5{stroke-width:5px;}.cls-6{fill:#070000;}.cls-7{fill:#fff8a4;}.cls-8{fill:#f90;}.cls-9{fill:#b7b7b7;}.cls-11,.cls-12{fill:#60f1fc;}.cls-11{opacity:0.37;}.cls-13{fill:none;}</style></defs><title>deploy_1</title><g id="Layer_2" data-name="Layer 2"><g id="Layer_2-2" data-name="Layer 2"><path class="cls-1" d="M207.31,140.82c-2.93-13.36-14.54-37.3-1.33-34.62.67.14,15.82,12,21.83,19.31a1.74,1.74,0,0,1-.26,2.47l-17.47,13.83A1.73,1.73,0,0,1,207.31,140.82Z"/><path class="cls-1" d="M223.12,140.82c2.93-13.36,3.54-21.32,1.32-34.62a1.73,1.73,0,0,0-2.91-1,245.11,245.11,0,0,0-18.91,20.27,1.74,1.74,0,0,0,.26,2.47l17.46,13.83A1.74,1.74,0,0,0,223.12,140.82Z"/><path class="cls-2" d="M349.56,336.32c0,14-51.95,46.68-130.56,46.68S82.56,350.29,82.56,336.32,140.39,311,219,311,349.56,322.36,349.56,336.32Z"/><path class="cls-3" d="M212.3,363.26c18.84,0,38.43,7.48,57.12,5.08,10.83-1.39,20.47-4.34,29.86-10.54,7.44-4.92,13.71-14.5,19.14-21.81,10-13.45,19.54-32.77,24.49-49.23,6-19.89-3-40.81-5.38-61-2.5-20.66,6.93-40,3.14-60.4a11.82,11.82,0,0,1,1.06-7.33c6.08-12.29,11.08-24,10.53-38.51-.59-15.5,37.06-4.51,27.32-15.85-1.31-1.52-43.78-18.52-45.71-18-14.12,3.9-15.29,10.38-22.92,19.14-3.36,3.85-7.72,8.58-12,11.39-5.85,3.83-7.77,0-14.5-1.75a348.65,348.65,0,0,0-72.15-11.24,348.44,348.44,0,0,0-72.15,11.24c-6.73,1.8-8.65,5.58-14.5,1.75-4.28-2.81-8.64-7.54-12-11.39C106.08,96.18,90.12,87.12,88.13,88c-90.41,40.33-15.21,16.14-15.79,31.54-.55,14.48,4.41,26.14,10.46,38.38a12.24,12.24,0,0,1,1.1,7.6c-3.73,20.38,5.66,39.65,3.17,60.26-2.43,20.16-11.36,41.08-5.38,61,4.94,16.46,14.51,35.78,24.49,49.23,5.42,7.31,11.7,16.89,19.14,21.81,9.38,6.2,19,9.15,29.85,10.54C173.86,370.74,193.46,363.26,212.3,363.26Z"/><path class="cls-4" d="M285.89,324.3c1.88-14.2,1-21.28-7.12-32-12.41-16.32-32.22-33.19-40.13-52.57-8.87-21.74,12.73-42.18,9.93-64.63-1.71-13.73-7.44-25.11-12.82-37.32-4.95-11.26-6.43-19.47-6.64-31-5.63-.36-11.23-1.52-16.74-1.79-5.51.27-11.11.55-16.74.91-.2,11.52-1.68,20.61-6.64,31.87-5.37,12.21-11.11,23.59-12.82,37.32C173.38,197.59,195,218,186.1,239.77,178.19,259.15,158.39,276,146,292.34c-8.12,10.68-9,17.76-7.12,32,1.69,12.74,5.54,25.4,9.89,37.29.71,1.93,1.46,4.69,2.41,7.22,2.35.54,4.76,1,7.23,1.31,17.66,2.4,36.18-5.08,54-5.08s36.32,7.48,54,5.08c2.48-.34,4.88-2.53,7.24-3.07,1-2.53,1.69-5.29,2.4-7.22C280.35,347.94,284.2,337,285.89,324.3Z"/><path class="cls-5" d="M117.76,208.93c19.17-18,36.93-13.42,49,9.63a2,2,0,0,1-.81,2.72c-15,8-33.91.12-47.87-8.71A2.32,2.32,0,0,1,117.76,208.93Z"/><path class="cls-6" d="M231.35,291.38c-4.81-2.75-11.58-3.08-18.42-2.84h-.68c-6.84-.24-13.61.09-18.42,2.84-18.16,10.38-9.55,18.47,3.18,25.36,5.89,3.18,10.63,5.24,15.22,5.57a2.17,2.17,0,0,0,.72,0c4.59-.33,9.33-2.39,15.21-5.57C240.89,309.85,249.51,301.76,231.35,291.38Z"/><path class="cls-5" d="M315,211.57c-19.17-18-36.93-13.42-49,9.63a2,2,0,0,0,.81,2.72c15,8,33.91.12,47.87-8.71A2.31,2.31,0,0,0,315,211.57Z"/><circle class="cls-6" cx="142.76" cy="210.6" r="11.88"/><circle class="cls-6" cx="289.7" cy="213.24" r="11.88"/><g id="xWrKPt.tif"><path class="cls-7" d="M27.65,167a17.39,17.39,0,0,0,11.89-15.87c.08-6.67-4.35-12.66-11.17-15.08-5.06-1.79-9.15-1.5-13.43,1.44a19.21,19.21,0,0,0-8.09,15.17c-.06,1.74-.09,3.46-.1,5.18C13.37,166.8,20.15,169.48,27.65,167ZM20,141c-3.93,7.31-3.81,14.33,1.33,21.29-5.47,0-9.71-4.28-10.14-9.92A10.43,10.43,0,0,1,20,141Z"/><path class="cls-7" d="M400.67,136.05c-7.32,2.1-12.35,8.38-12.29,15.33a17.41,17.41,0,0,0,12.31,16.09c7.13,2.15,13.93-.67,19.21-7.85a34.9,34.9,0,0,0,1.18-13.36C414.86,136.8,408.6,133.78,400.67,136.05Zm16.09,17.16c-.77,5.64-5.16,9.66-10.3,9.43,5.19-7.75,5.48-10.7,2.07-21.24A10.41,10.41,0,0,1,416.76,153.21Z"/><path d="M423.07,95.69a9.84,9.84,0,0,0-3.45-3.54,72.75,72.75,0,0,0-29.11-9.88c-7.47-.81-15.08-.42-22.63-.38a2.84,2.84,0,0,1-2.92-1.6C355.35,64.43,342.89,58.16,327.34,48c-21.11-13.8-44.52-21.39-69.15-25.27-13.42-2.11-27-3.07-40.53-4.56-.69-.08-1.37-.27-2.06-.42H204.39q-6.51.51-13,1c-18.94,1.36-37.35,4.31-55.09,11A149.94,149.94,0,0,0,73.5,74.57a149.54,149.54,0,0,0-9.07,12.57c-1,1.53-2-5-3.72-5.22-15.78-1.64-31.08.18-45.65,6.76a78.54,78.54,0,0,0-7.3,3.89,6.61,6.61,0,0,0-3.12,4.66c-.51,2.23-2.09,4.22-3.2,6.31v60.51c1.5,2.27,2.73,4.79,4.55,6.77,2.27,2.45,5.43,3.23,8.78,3.18,8.1-.13,16.19-.21,24.28-.3a7.63,7.63,0,0,1,1.11.24c-.19,3.85-.39,7.72-.61,12.17-2.68,0-5.14.16-7.58,0-3.25-.26-4.76,1.26-5.74,4.24a86,86,0,0,0-4.32,30.56A140.05,140.05,0,0,0,28,257.18c.83,2.69,2.15,3.83,5,3.49a55.39,55.39,0,0,1,6.49-.05c.32,3.35.46,6.79,1,10.17,1.84,11.07,3.3,22.24,6,33.11,1.86,7.62,4.87,15,6.69,22.69,2.18,9.23,7.37,17.15,12.28,25.12,3,4.85,6.3,9.51,9.35,14.32a9.83,9.83,0,0,1,1.5,3.87c.82,6.1,1.56,12.21,2.14,18.33a5.18,5.18,0,0,0,3.65,4.91c14.53,5.83,29,11.82,43.48,17.78,1,.43,2,1,3,1.57h2.14c5.83-1.78,11.64-3.61,17.5-5.31,10.93-3.17,22.06-3.32,33.33-2.52,18.56,1.31,37.14,1.87,55.71-.14,16.05-1.73,31.45-6.14,46.31-12.16,14.08-5.71,28-12,41.62-18.64,18.95-9.27,33.2-24,45-41.26,1.17-1.72,2.26-2.42,4.32-2,3.21.63,6.49.92,9.71,1.49,2.78.49,5.76-.37,6.91-2.89a38.5,38.5,0,0,0,3.47-10.28,103.76,103.76,0,0,0,1-17c-.08-3.83-1.63-4.85-5.39-5.24-2.3-.25-4.61-.45-6.91-.68a4,4,0,0,1-.69-.3q2.12-17.34,4.27-34.91c3.2,0,6.37-.06,9.54,0,1.84,0,3-.53,3.61-2.4,6.28-20.7,9.08-41.61,3.65-63-.55-2.15-1.43-4.22-2-6.36a3.56,3.56,0,0,0-4-2.78c-2.39.05-4.78,0-7.46,0-.22-4.22-.43-8-.65-12.07H397c4.53,0,9.09-.23,13.6.07,7.88.53,13.21-2.63,15.94-10.09V103.54C425.42,100.91,424.45,98.19,423.07,95.69Zm-12-1.82c-6.07,0-12.14-.06-18.21,0a16.28,16.28,0,0,0-5.21.82,12.57,12.57,0,0,0-8.17,11.74,24,24,0,0,1-.36,4.74c-1.59-4-3.13-8-4.79-12s-3.44-8-5.32-12.32C383.68,85.4,397.68,87.33,411,93.87ZM332.6,58.94a116.28,116.28,0,0,1,26.87,28.4,138.71,138.71,0,0,1,15.23,31.43c0,.08,0,.17.07.26,5.13,12.38,5.08,25.4,4.63,38.44-.17,5.08.25,9.83,4.4,13.45a2.23,2.23,0,0,1,.55,1.43c.26,4.26.46,8.53.69,13h-9c-.42-6.68-.65-13.35-1.31-20-.84-8.51-1.61-17.07-3.17-25.46-2.06-11-13.59-16.13-23.62-10.84-11.22-9.77-24-17.12-37.68-22.89-1.68-.71-1.32-1.84-1.15-3A105.8,105.8,0,0,0,309,70.88c-1.45-8.69-3.67-17.25-5.55-25.87-.19-.85-.43-1.68-.75-3A140.52,140.52,0,0,1,332.6,58.94ZM58.18,253.58c2.58-6.23,4.53-12.52,4.27-19.59-.42-11.22.13-22.47.38-33.71.05-2.61-.74-4.16-3.82-4.12.17-1.22.32-2.32.46-3.38,5.28-.49,6.35-1.54,6.57-7.13a147.4,147.4,0,0,1,6.87-40.2,36.34,36.34,0,0,1,12.76-18.19c16.49-12.76,35.09-21,55-26.33,27-7.31,54.66-9.29,82.54-8.38,24,.79,47.69,4,70.63,11.5,16.94,5.53,32.79,13.17,47.1,24,8.2,6.22,13.74,13.75,16.31,23.89a162.43,162.43,0,0,1,5.06,33c0,.8.08,1.6.14,2.4.43,5.77,1.92,7,7.47,6.32l.6.84a16.22,16.22,0,0,0-2.72,1.84c-.85.85-2.07,1.95-2.07,2.94.1,14.72.36,29.44.61,44.16a3.78,3.78,0,0,0,.54,2A16.62,16.62,0,0,1,370,257.94c-2.23,13.45-3.81,27.07-7.08,40.27-2.67,10.74-7.31,21-11.29,31.38-.7,1.82-2.37,3.32-3.76,4.82-13.52,14.7-29.72,25.7-47.65,34.23-22.63,10.75-46.57,16.54-71.44,18.44-28.61,2.19-56.92.28-84.69-7.28-20.79-5.65-40-14.55-55.93-29.42A152.48,152.48,0,0,1,75.82,336.7c-6.18-7.37-8.24-16.34-10-25.56-3.24-16.8-7-33.51-8.58-50.61A14,14,0,0,1,58.18,253.58Zm-1.72-70.89c1.13-13.84,2.43-27.66,3.67-41.49a9.88,9.88,0,0,1,.24-1.32c1.78-8,6.28-11.07,15.05-9.72-9.37,18.42-12.88,38.14-13.23,58.73C56.65,187.72,56.08,187.25,56.46,182.69Zm296.83-51.17c8.95-1.35,13.67,1.77,14.93,10.55,1.44,10,2.26,20.17,3.25,30.27.36,3.72.46,7.47.6,11.21.19,5,.16,5-5.26,6.79a40.35,40.35,0,0,1-.63-4.49c-.55-15.16-3-29.94-8.55-44.11C356.31,138.36,354.8,135.06,353.29,131.52Zm20.52,128.67h7.92c-1.55,12-3,23.43-4.56,35.09l-9-.67Q371,277.33,373.81,260.19Zm1.47-6.14-1.73-6.14c3.38-.21,3.58-2.57,3.85-5.06a155,155,0,0,0-.6-40c-.27-1.84-1.61-3.56-1.71-5.37-.12-2.06.58-4.17,1.05-7C382.1,200.49,381.45,242.19,375.28,254.05Zm-77.88-214a2.38,2.38,0,0,1,1,1.44c6.11,19.75,9.94,39.77,7,60.57-.08.52-.2,1-.37,2-3.2-1.48-6.28-2.81-9.23-4.39-.56-.3-.83-1.63-.8-2.48.31-9,.65-18,1.08-27,.49-10.24-1.55-20-5.13-29.55-.33-.9-.63-1.81-1.16-3.34C292.67,38.31,295.07,39.12,297.4,40.07ZM136.18,37.79a201.52,201.52,0,0,1,52.37-11.93c32-2.87,63.37,1,94.27,9.3a5.16,5.16,0,0,1,2.91,2.6C290.28,48.17,293,59,292.36,70.48c-.44,8.64-.72,17.28-1.09,25.93,0,.79-.18,1.57-.29,2.44-54.38-14-108.36-14.17-162.52,1.47-.09-.76-.26-1.6-.29-2.45-.37-9.62-.76-19.25-1.07-28.87-.32-10.11,2.31-19.61,6.2-28.79A5.38,5.38,0,0,1,136.18,37.79Zm-15,6.63c2.25-1.15,4.59-2.14,7.59-3.5-3.16,8.84-5.51,17-5.46,25.56.05,8.1.44,16.2.71,24.31.1,3,.37,6,.4,9.07a2.62,2.62,0,0,1-1.07,2c-2.81,1.27-5.72,2.33-9.11,3.67-.37-3.47-.82-6.58-1-9.72-1.13-17,2-33.52,6.8-49.76A2.93,2.93,0,0,1,121.22,44.42ZM69.06,89.07A132.72,132.72,0,0,1,112.8,49c.75-.43,1.54-.78,2.65-1.33-1.25,5.57-2.49,10.74-3.57,16a118.53,118.53,0,0,0-1.33,42c.19,1.3.17,2.08-1.21,2.73A128.19,128.19,0,0,0,81,126.32a3.64,3.64,0,0,1-2.35.44c-2.57-.15-5.13-.69-7.68-.61-7.55.24-12.41,3.94-13.76,11.35-1.53,8.4-2.47,16.93-3.32,25.44-.68,6.82-.83,13.7-1.23,20.56,0,.61-.16,1.21-.26,1.92H44.82a14.83,14.83,0,0,1-.09-2.22c1.44-15.26,2.15-30.65,4.57-45.75A118.31,118.31,0,0,1,69.06,89.07ZM51.15,244.29c.26,2.17,1.11,3.55,3.83,3.33-.58,2.15-1.06,4-1.55,5.79l-1-.1a124.05,124.05,0,0,1-.68-62.16c.91,2.43,3.64,4.68.66,7.45-.49.46-.51,1.49-.63,2.27A159.86,159.86,0,0,0,51.15,244.29ZM60,86.94c-3.76,8.83-7.48,17.54-11.41,26.73,0-2.66,0-4.91,0-7.15A12.64,12.64,0,0,0,35.85,93.8c-3.12,0-6.23,0-9.35,0s-6.22,0-9.36-.26C30.8,87.08,45.17,85.32,60,86.94ZM36.55,168.86c-3,.09-6,0-9.07,0q-6.28,0-12.55,0c-6,0-8.44-2.47-8.48-8.43,0-.88,0-1.76,0-3.28l.32.41A113.15,113.15,0,0,1,7.42,145c-.28.35-.57.71-.86,1.09,0-1-.11-1.77-.11-2.54q0-17.92,0-35.86c0-6.44,2.44-8.85,8.91-8.87,6.67,0,13.35,0,20,0,5.58,0,8.19,2.62,8.21,8.18,0,10.17.32,20.36-.06,30.51-.28,7.47-1.46,14.9-2.23,22.34-.16,1.6-.26,3.2-.37,4.8C40.68,168.07,40,168.75,36.55,168.86ZM34,255.51a2.22,2.22,0,0,1-1.57-1.34c-5.53-19.84-8-39.8-2.16-60.08.61-2.1,1.51-3.12,3.83-3,4.06.16,8.13,0,12,0-4.45,21.26-4.29,42.54,1.89,64.46C43.33,255.57,38.66,255.62,34,255.51Zm10.84,4.85c1.46-.09,2.85-.21,4.25-.25s2.64,0,3.64,0c3.3,18.66,6.57,37.2,9.86,55.86h-4.3C49.72,298.32,45.55,279.88,44.83,260.36ZM83,383.57c-.53-4.4-1.06-8.79-1.67-13.92l7.2,4.67c-1.72,3.22-3.33,6.25-4.94,9.28Zm44.78,22.82L85.11,388.87c2.34-4.38,4.53-8.51,6.85-12.87l41.81,17.62Zm4.3-.27c1.68-3.6,3.17-6.89,4.78-10.11a1.73,1.73,0,0,1,1.48-.67c6.33,1.34,12.64,2.76,19.66,4.32Zm218.41-57.47c-11.24,12.27-25.49,20.13-40.35,27-20,9.28-40.3,17.62-62,22-16.87,3.43-34,3.34-51.07,2.74-4.26-.15-8.53-.58-12.79-.63-15.85-.2-31-4.76-46-8.78-10.82-2.88-20.9-8.5-31.35-12.8-9-3.7-18-7.32-25.8-13.25a9.8,9.8,0,0,1-2.51-2.32c-5.62-9-11.42-17.89-16.58-27.14-2.61-4.66-4-10-6.17-15.66,2.78,0,4.7-.08,6.61.06A2,2,0,0,1,64,321.05c2.83,11.87,10.29,20.85,18.53,29.19C98,365.89,117,375.5,137.81,381.87c27.46,8.42,55.65,10.8,84.21,9.43,25.37-1.22,49.92-6.32,73.34-16.38,20.5-8.81,38.87-20.79,54.45-37a35.78,35.78,0,0,0,8-13.68c1.21-3.53,2.66-7,4.23-11,1,6.06-1.19,12.1,3.64,17.7C360.91,336.53,355.91,342.76,350.53,348.65Zm39.7-39.58.67.09-1.14,9.22H389C389.41,315.28,389.82,312.17,390.23,309.07Zm-3.84-7.81c-1,8.4-2,16.48-3.07,25-4.39-.43-9.49-.87-14.57-1.48-.47-.05-1.12-1.07-1.18-1.69-.67-7.26-.44-14.46,2.43-21.3a3.22,3.22,0,0,1,2.42-1.66C377.21,300.35,382,300.86,386.39,301.26Zm9.71-110c.58,0,1.37,1.22,1.64,2a78.29,78.29,0,0,1,3.62,29,143.58,143.58,0,0,1-4.76,30c-.65,2.43-1.57,3.48-4.3,3.25-3.87-.32-7.78-.08-11.69-.08,6.13-21.77,6.28-43,1.82-64.31C386.79,191.2,391.45,191.12,396.1,191.29ZM412.9,169c-6.85,0-13.7,0-20.55,0-5.26,0-7.92-2.65-7.93-7.88q0-27.15,0-54.3c0-5.11,2.64-7.83,7.69-7.88q10.93-.11,21.88,0c4.5.06,7.41,2.46,7.46,6.7.17,13.54.06,27.07.06,41.29-.14-.23-.29-.43-.43-.65a34.9,34.9,0,0,1-1.18,13.36c.42-.57.83-1.16,1.23-1.79C423.08,164.59,419.84,169,412.9,169Z"/><path class="cls-8" d="M291,98.85c-54.38-14-108.36-14.17-162.52,1.47-.09-.76-.26-1.6-.29-2.45-.37-9.62-.76-19.25-1.07-28.87-.32-10.11,2.31-19.61,6.2-28.79a5.38,5.38,0,0,1,2.88-2.42,201.52,201.52,0,0,1,52.37-11.93c32-2.87,63.37,1,94.27,9.3a5.16,5.16,0,0,1,2.91,2.6C290.28,48.17,293,59,292.36,70.48c-.44,8.64-.72,17.28-1.09,25.93C291.23,97.2,291.09,98,291,98.85Z"/><path class="cls-9" d="M370.55,194.5a16.22,16.22,0,0,0-2.72,1.84c-.85.85-2.07,1.95-2.07,2.94.1,14.72.36,29.44.61,44.16a3.78,3.78,0,0,0,.54,2A16.62,16.62,0,0,1,370,257.94c-2.23,13.45-3.81,27.07-7.08,40.27-2.67,10.74-7.31,21-11.29,31.38-.7,1.82-2.37,3.32-3.76,4.82-13.52,14.7-29.72,25.7-47.65,34.23-22.63,10.75-46.57,16.54-71.44,18.44-28.61,2.19-56.92.28-84.69-7.28-20.79-5.65-40-14.55-55.93-29.42A152.48,152.48,0,0,1,75.82,336.7c-6.18-7.37-8.24-16.34-10-25.56-3.24-16.8-7-33.51-8.58-50.61a14,14,0,0,1,1-6.95c2.58-6.23,4.53-12.52,4.27-19.59-.42-11.22.13-22.47.38-33.71.05-2.61-.74-4.16-3.82-4.12l.46-3.38c5.28-.49,6.35-1.54,6.57-7.13a147.4,147.4,0,0,1,6.87-40.2,36.34,36.34,0,0,1,12.76-18.19c16.49-12.76,35.09-21,55-26.33,27-7.31,54.66-9.29,82.54-8.38,24,.79,47.69,4,70.63,11.5,16.94,5.53,32.79,13.17,47.1,24,8.2,6.22,13.74,13.75,16.31,23.89a162.43,162.43,0,0,1,5.06,33c0,.8.08,1.6.14,2.4.43,5.77,1.92,7,7.47,6.32Zm-6.8,36A200.54,200.54,0,0,0,350,148.73a32,32,0,0,0-15.68-17.44c-21.84-11.69-45.12-18.76-69.37-23a328.91,328.91,0,0,0-68.88-4.1c-19.59.75-39,2.77-58.15,7.4-14.94,3.62-29.34,8.63-42.42,17-9.41,6-16.69,13.38-19,24.92-2.4,12.06-5.68,23.94-7.94,36a237,237,0,0,0-3.89,57.52,499.05,499.05,0,0,0,6.88,56.27c1,5.69,1.94,11.49,3.87,16.89,2.57,7.19,7.26,13.26,12.45,18.85,15.34,16.54,34.78,26,56,32.13,21.7,6.28,44,8.35,66.49,8.57,27,.27,53.21-3.56,78.24-14.05,21.95-9.19,41.05-22.4,56.3-40.84,3.09-3.75,6.81-7.71,8-12.17a297,297,0,0,0,7.76-38.21C362.49,259.92,362.78,245.16,363.75,230.48Z"/><path class="cls-10" d="M302.69,42.05A140.52,140.52,0,0,1,332.6,58.94a116.28,116.28,0,0,1,26.87,28.4,138.71,138.71,0,0,1,15.23,31.43c0,.08,0,.17.07.26,5.13,12.38,5.08,25.4,4.63,38.44-.17,5.08.25,9.83,4.4,13.45a2.23,2.23,0,0,1,.55,1.43c.26,4.26.46,8.53.69,13h-9c-.42-6.68-.65-13.35-1.31-20-.84-8.51-1.61-17.07-3.17-25.46-2.06-11-13.59-16.13-23.62-10.84-11.22-9.77-24-17.12-37.68-22.89-1.68-.71-1.32-1.84-1.15-3A105.8,105.8,0,0,0,309,70.88c-1.45-8.69-3.67-17.25-5.55-25.87C303.25,44.16,303,43.33,302.69,42.05Z"/><path class="cls-10" d="M362,313.25c1,6.06-1.19,12.1,3.64,17.7-4.75,5.58-9.75,11.81-15.13,17.7-11.24,12.27-25.49,20.13-40.35,27-20,9.28-40.3,17.62-62,22-16.87,3.43-34,3.34-51.07,2.74-4.26-.15-8.53-.58-12.79-.63-15.85-.2-31-4.76-46-8.78-10.82-2.88-20.9-8.5-31.35-12.8-9-3.7-18-7.32-25.8-13.25a9.8,9.8,0,0,1-2.51-2.32c-5.62-9-11.42-17.89-16.58-27.14-2.61-4.66-4-10-6.17-15.66,2.78,0,4.7-.08,6.61.06A2,2,0,0,1,64,321.05c2.83,11.87,10.29,20.85,18.53,29.19C98,365.89,117,375.5,137.81,381.87c27.46,8.42,55.65,10.8,84.21,9.43,25.37-1.22,49.92-6.32,73.34-16.38,20.5-8.81,38.87-20.79,54.45-37a35.78,35.78,0,0,0,8-13.68C359,320.74,360.45,317.3,362,313.25Z"/><path class="cls-10" d="M52.37,185.42H44.82a14.83,14.83,0,0,1-.09-2.22c1.44-15.26,2.15-30.65,4.57-45.75A118.31,118.31,0,0,1,69.06,89.07,132.72,132.72,0,0,1,112.8,49c.75-.43,1.54-.78,2.65-1.33-1.25,5.57-2.49,10.74-3.57,16a118.53,118.53,0,0,0-1.33,42c.19,1.3.17,2.08-1.21,2.73A128.19,128.19,0,0,0,81,126.32a3.64,3.64,0,0,1-2.35.44c-2.57-.15-5.13-.69-7.68-.61-7.55.24-12.41,3.94-13.76,11.35-1.53,8.4-2.47,16.93-3.32,25.44-.68,6.82-.83,13.7-1.23,20.56C52.59,184.11,52.47,184.71,52.37,185.42Z"/><path class="cls-10" d="M46.09,191.11c-4.45,21.26-4.29,42.54,1.89,64.46-4.65,0-9.32.05-14-.06a2.22,2.22,0,0,1-1.57-1.34c-5.53-19.84-8-39.8-2.16-60.08.61-2.1,1.51-3.12,3.83-3C38.15,191.23,42.22,191.11,46.09,191.11Z"/><path class="cls-10" d="M380.61,255.51c6.13-21.77,6.28-43,1.82-64.31,4.36,0,9-.08,13.67.09.58,0,1.37,1.22,1.64,2a78.29,78.29,0,0,1,3.62,29,143.58,143.58,0,0,1-4.76,30c-.65,2.43-1.57,3.48-4.3,3.25C388.43,255.27,384.52,255.51,380.61,255.51Z"/><path class="cls-9" d="M421.51,146.91c-6.36-10-12.73-13.18-20.84-10.86-7.32,2.1-12.35,8.38-12.29,15.33a17.41,17.41,0,0,0,12.31,16.09c7.69,2.32,15-1.14,20.44-9.64,1.95,6.76-1.29,11.16-8.23,11.16s-13.7,0-20.55,0c-5.26,0-7.92-2.65-7.93-7.88q0-27.15,0-54.3c0-5.11,2.64-7.83,7.69-7.88q10.93-.11,21.88,0c4.5.06,7.41,2.46,7.46,6.7C421.62,119.16,421.51,132.69,421.51,146.91Zm-.76-29c.14-9-7.43-16.94-16.33-17.11-9.21-.17-17.2,7.08-17.3,15.7-.11,8.89,7.65,16.87,16.52,17C412.72,133.65,420.62,126.45,420.75,117.93Z"/><path class="cls-9" d="M6.44,157.2C13.17,166.46,20,169.52,27.65,167a17.39,17.39,0,0,0,11.89-15.87c.08-6.67-4.35-12.66-11.17-15.08-8.17-2.9-13.79-.37-21.81,10,0-1-.11-1.77-.11-2.54q0-17.92,0-35.86c0-6.44,2.44-8.85,8.91-8.87,6.67,0,13.35,0,20,0,5.58,0,8.19,2.62,8.21,8.18,0,10.17.32,20.36-.06,30.51-.28,7.47-1.46,14.9-2.23,22.34-.16,1.6-.26,3.2-.37,4.8-.25,3.45-.89,4.13-4.38,4.24-3,.09-6,0-9.07,0q-6.28,0-12.55,0c-6,0-8.44-2.47-8.48-8.43C6.44,159.6,6.44,158.72,6.44,157.2Zm17.63-24a17.21,17.21,0,0,0,16.77-16.73c0-8.48-7.75-15.91-16.8-16S7.19,108.28,7.21,117.36C7.23,126,14.94,133.18,24.07,133.17Z"/><path class="cls-10" d="M85.11,388.87c2.34-4.38,4.53-8.51,6.85-12.87l41.81,17.62-6,12.77Z"/><path class="cls-9" d="M305.07,104c-3.2-1.48-6.28-2.81-9.23-4.39-.56-.3-.83-1.63-.8-2.47.31-9,.65-18,1.08-27,.49-10.24-1.55-20-5.13-29.55-.33-.9-.63-1.81-1.16-3.34,2.84,1,5.24,1.84,7.57,2.79a2.38,2.38,0,0,1,1,1.44c6.11,19.75,9.94,39.77,7,60.57C305.36,102.6,305.24,103.12,305.07,104Z"/><path class="cls-9" d="M128.81,40.92c-3.16,8.84-5.51,17-5.46,25.56.05,8.1.44,16.2.71,24.31.1,3,.37,6,.4,9.07a2.62,2.62,0,0,1-1.07,2c-2.81,1.27-5.72,2.33-9.11,3.67-.37-3.47-.82-6.58-1-9.72-1.13-17,2-33.52,6.8-49.76a2.93,2.93,0,0,1,1.17-1.67C123.47,43.27,125.81,42.28,128.81,40.92Z"/><path class="cls-10" d="M62.19,188.89c-5.54-1.17-6.11-1.64-5.73-6.2,1.13-13.84,2.43-27.66,3.67-41.49a9.88,9.88,0,0,1,.24-1.32c1.78-8,6.28-11.07,15.05-9.72C66.05,148.58,62.54,168.3,62.19,188.89Z"/><path class="cls-10" d="M62.58,316h-4.3c-8.56-17.64-12.73-36.08-13.45-55.6,1.46-.09,2.85-.21,4.25-.25s2.64,0,3.64,0C56,278.76,59.29,297.3,62.58,316Z"/><path class="cls-10" d="M353.29,131.52c8.95-1.35,13.67,1.77,14.93,10.55,1.44,10,2.26,20.17,3.25,30.27.36,3.72.46,7.47.6,11.21.19,5,.16,5-5.26,6.79a40.35,40.35,0,0,1-.63-4.49c-.55-15.16-3-29.94-8.55-44.11C356.31,138.36,354.8,135.06,353.29,131.52Z"/><path class="cls-10" d="M386.39,301.26c-1,8.4-2,16.48-3.07,25-4.39-.43-9.49-.87-14.57-1.48-.47-.05-1.12-1.07-1.18-1.69-.67-7.26-.44-14.46,2.43-21.3a3.22,3.22,0,0,1,2.42-1.66C377.21,300.35,382,300.86,386.39,301.26Z"/><path class="cls-10" d="M60,86.94,48.57,113.67c0-2.66,0-4.91,0-7.15A12.64,12.64,0,0,0,35.85,93.8c-3.12,0-6.23,0-9.35,0s-6.22,0-9.36-.26C30.8,87.08,45.17,85.32,60,86.94Z"/><path class="cls-10" d="M369,86.91c14.71-1.51,28.71.42,42.06,7-6.07,0-12.14-.06-18.21,0a16.28,16.28,0,0,0-5.21.82,12.57,12.57,0,0,0-8.17,11.74,24,24,0,0,1-.36,4.74c-1.59-4-3.13-8-4.79-12S370.85,91.24,369,86.91Z"/><path class="cls-10" d="M381.73,260.19c-1.55,12-3,23.43-4.56,35.09l-9-.67q2.82-17.28,5.63-34.42Z"/><path class="cls-10" d="M375.28,254.05l-1.73-6.14c3.38-.21,3.58-2.57,3.85-5.06a155,155,0,0,0-.6-40c-.27-1.84-1.61-3.56-1.71-5.37-.12-2.06.58-4.17,1.05-7C382.1,200.49,381.45,242.19,375.28,254.05Z"/><path class="cls-10" d="M158,399.66l-25.92,6.46c1.68-3.6,3.17-6.89,4.78-10.11a1.73,1.73,0,0,1,1.48-.67C144.71,396.68,151,398.1,158,399.66Z"/><path class="cls-10" d="M51.73,191.15c.91,2.43,3.64,4.68.66,7.45-.49.46-.51,1.49-.63,2.27a159.86,159.86,0,0,0-.61,43.42c.26,2.17,1.11,3.55,3.83,3.33l-1.55,5.79-1-.1A124.05,124.05,0,0,1,51.73,191.15Z"/><path class="cls-8" d="M21.28,162.26c-5.47,0-9.71-4.28-10.14-9.92A10.43,10.43,0,0,1,20,141C16,148.28,16.14,155.3,21.28,162.26Z"/><path class="cls-8" d="M406.46,162.64c5.19-7.75,5.48-10.7,2.07-21.24a10.41,10.41,0,0,1,8.23,11.81C416,158.85,411.6,162.87,406.46,162.64Z"/><path class="cls-10" d="M81.37,369.65l7.2,4.67c-1.72,3.22-3.33,6.25-4.94,9.28l-.59,0C82.51,379.17,82,374.78,81.37,369.65Z"/><path class="cls-10" d="M389,318.38l1.22-9.31.67.09-1.14,9.22Z"/><path class="cls-7" d="M420.75,117.93c-.13,8.52-8,15.72-17.11,15.59-8.87-.13-16.63-8.11-16.52-17,.1-8.62,8.09-15.87,17.3-15.7C413.32,101,420.89,108.92,420.75,117.93Zm-13.83,10.12c6-1.75,9.34-6.67,8.67-12.05a10.39,10.39,0,0,0-9.69-9.41C410.88,113.38,411.16,120.43,406.92,128.05Z"/><path class="cls-7" d="M24.07,133.17c-9.13,0-16.84-7.22-16.86-15.81,0-9.08,7.85-17,16.83-16.91s16.85,7.51,16.8,16A17.21,17.21,0,0,1,24.07,133.17ZM22.7,105.9C16,107.12,12,111.64,12.32,117.28c.29,5.28,3.9,9.71,8.24,9.91C16.75,119.78,17.24,112.76,22.7,105.9Z"/><path class="cls-11" d="M354.67,146.85A31.9,31.9,0,0,0,339,129.41c-21.83-11.69-45.12-18.76-69.36-23a329,329,0,0,0-68.89-4.1c-19.59.75-39,2.77-58.14,7.4-14.95,3.62-29.34,8.63-42.43,17-9.4,6-16.68,13.39-19,24.93-2.41,12.06-5.69,23.94-8,36a237.07,237.07,0,0,0-3.89,57.53,503.7,503.7,0,0,0,6.88,56.27c1,5.69,1.94,11.48,3.87,16.89,2.57,7.19,7.26,13.26,12.45,18.85,15.34,16.54,34.79,26,56,32.13,21.71,6.27,44,8.35,66.49,8.57,27,.27,53.21-3.56,78.24-14.05,21.95-9.19,41.05-22.4,56.3-40.84,3.09-3.75,6.82-7.71,8-12.17a298.73,298.73,0,0,0,7.77-38.21c1.83-14.57,2.12-29.33,3.09-44A200.54,200.54,0,0,0,354.67,146.85Zm6,124.23a6.85,6.85,0,0,1-.27,1.39Z"/><path class="cls-8" d="M406.92,128.05c4.24-7.62,4-14.67-1-21.46a10.39,10.39,0,0,1,9.69,9.41C416.26,121.38,412.9,126.3,406.92,128.05Z"/><path class="cls-8" d="M22.7,105.9c-5.46,6.86-5.95,13.88-2.14,21.29-4.34-.2-7.95-4.63-8.24-9.91C12,111.64,16,107.12,22.7,105.9Z"/></g><path class="cls-12" d="M215.32,163.53h0Z"/><rect class="cls-13" width="428" height="428"/></g></g></svg>