<svg xmlns="http://www.w3.org/2000/svg" viewBox="0 0 41.2 56.04"><defs><style>.cls-1{opacity:0.4;}.cls-2{fill:#f2f2f2;}</style></defs><title>docs_icon</title><g id="Layer_2" data-name="Layer 2"><g id="Layer_2-2" data-name="Layer 2"><g class="cls-1"><path class="cls-2" d="M40.88,15.07,26.13.32A1.11,1.11,0,0,0,25.35,0H4.58A4.58,4.58,0,0,0,0,4.58V51.47A4.58,4.58,0,0,0,4.58,56H36.63a4.58,4.58,0,0,0,4.58-4.58V15.85A1.11,1.11,0,0,0,40.88,15.07ZM26.46,3.78l11,11h-8.6a2.36,2.36,0,0,1-2.36-2.36V3.78ZM39,51.47a2.36,2.36,0,0,1-2.36,2.36H4.58a2.36,2.36,0,0,1-2.36-2.36V4.58A2.36,2.36,0,0,1,4.58,2.22H24.24V12.38A4.58,4.58,0,0,0,28.82,17H39Z"/><path class="cls-2" d="M29.46,28.13H11.74a1.11,1.11,0,1,0,0,2.22H29.46a1.11,1.11,0,0,0,0-2.22Z"/><path class="cls-2" d="M29.46,33.08H11.74a1.11,1.11,0,1,0,0,2.22H29.46a1.11,1.11,0,0,0,0-2.22Z"/><path class="cls-2" d="M29.46,38H11.74a1.11,1.11,0,1,0,0,2.22H29.46a1.11,1.11,0,0,0,0-2.22Z"/><path class="cls-2" d="M23.7,43h-12a1.11,1.11,0,1,0,0,2.22h12a1.11,1.11,0,0,0,0-2.22Z"/></g></g></g></svg>