<svg xmlns="http://www.w3.org/2000/svg" viewBox="0 0 93.21 123.5"><defs><style>.cls-1,.cls-5{fill:#e6e6e6;}.cls-1,.cls-4{opacity:0.05;}.cls-2{opacity:0.7;}.cls-3,.cls-6{fill:none;stroke:#e6e6e6;}.cls-3{stroke-miterlimit:10;}.cls-6{stroke-linecap:round;stroke-linejoin:round;stroke-width:0;}</style></defs><title>docs_icon_3</title><g id="Layer_2" data-name="Layer 2"><g id="Layer_2-2" data-name="Layer 2"><path class="cls-1" d="M92.26,26.5h-31V.5Z"/><g class="cls-2"><path class="cls-3" d="M60.91,26.36"/><path class="cls-3" d="M92.71,122.5H.5V.5H61.67l-.13,25.68,31.16.25Z"/><path class="cls-3" d="M61.64.5,92.53,26.36"/><line class="cls-3" x1="9.57" y1="77.73" x2="82.04" y2="77.73"/><line class="cls-3" x1="9.57" y1="46.38" x2="82.04" y2="46.38"/><line class="cls-3" x1="9.57" y1="62.05" x2="82.04" y2="62.05"/><line class="cls-3" x1="9.57" y1="93.41" x2="54.29" y2="93.41"/></g><g class="cls-4"><path class="cls-5" d="M61.55,27.18l.13-25.65,0,0H.5v122H92.71V27.43Zm-52,67.23h0Zm0-15.68h0Zm0-15.68h0Zm0-15.68h0Z"/><path class="cls-5" d="M61.67,1.5h0l0,0Z"/><path class="cls-6" d="M61.64,1.5l0,0"/><path class="cls-6" d="M61.67,1.53,92.53,27.36"/><line class="cls-6" x1="82.04" y1="78.73" x2="9.57" y2="78.73"/><line class="cls-6" x1="82.04" y1="47.38" x2="9.57" y2="47.38"/><line class="cls-6" x1="82.04" y1="63.05" x2="9.57" y2="63.05"/><line class="cls-6" x1="54.29" y1="94.41" x2="9.57" y2="94.41"/></g></g></g></svg>