<svg xmlns="http://www.w3.org/2000/svg" viewBox="0 0 126.94 121.74"><defs><style>.cls-1{opacity:0.13;}.cls-2{fill:#f2f2f2;}.cls-3{opacity:0.75;}.cls-4{fill:none;stroke:#e6e6e6;stroke-miterlimit:10;stroke-width:2px;}.cls-5{fill:#e6e6e6;}</style></defs><title>github_logo_4</title><g id="Layer_2" data-name="Layer 2"><g id="Layer_2-2" data-name="Layer 2"><g class="cls-1"><path class="cls-2" d="M63.47,1C29,1,1,28.49,1,62.39c0,27.13,17.9,50.13,42.71,58.24,3.12.58,4.27-1.32,4.27-3,0-1.46-.05-5.32-.08-10.44-17.38,3.7-21-8.24-21-8.24-2.84-7.09-6.95-9-6.95-9-5.66-3.81.44-3.73.44-3.73,6.27.43,9.57,6.33,9.57,6.33,5.57,9.39,14.62,6.67,18.19,5.11.56-4,2.17-6.67,4-8.21C38.2,88,23.61,82.71,23.61,59.19A23.45,23.45,0,0,1,30,42.72c-.7-1.55-2.81-7.79.55-16.25,0,0,5.23-1.65,17.18,6.29a59.9,59.9,0,0,1,31.24,0c11.87-7.94,17.1-6.29,17.1-6.29,3.36,8.45,1.25,14.7.62,16.25a23.55,23.55,0,0,1,6.4,16.47c0,23.58-14.6,28.77-28.5,30.28,2.19,1.84,4.22,5.61,4.22,11.36,0,8.22-.08,14.82-.08,16.81,0,1.61,1.09,3.53,4.29,2.92,25-8.06,42.88-31.08,42.88-58.17C125.94,28.49,98,1,63.47,1Z"/></g><g class="cls-3"><path class="cls-4" d="M63.47,1C29,1,1,28.49,1,62.39c0,27.13,17.9,50.13,42.71,58.24,3.12.58,4.27-1.32,4.27-3,0-1.46-.05-5.32-.08-10.44-17.38,3.7-21-8.24-21-8.24-2.84-7.09-6.95-9-6.95-9-5.66-3.81.44-3.73.44-3.73,6.27.43,9.57,6.33,9.57,6.33,5.57,9.39,14.62,6.67,18.19,5.11.56-4,2.17-6.67,4-8.21C38.2,88,23.61,82.71,23.61,59.19A23.45,23.45,0,0,1,30,42.72c-.7-1.55-2.81-7.79.55-16.25,0,0,5.23-1.65,17.18,6.29a59.9,59.9,0,0,1,31.24,0c11.87-7.94,17.1-6.29,17.1-6.29,3.36,8.45,1.25,14.7.62,16.25a23.55,23.55,0,0,1,6.4,16.47c0,23.58-14.6,28.77-28.5,30.28,2.19,1.84,4.22,5.61,4.22,11.36,0,8.22-.08,14.82-.08,16.81,0,1.61,1.09,3.53,4.29,2.92,25-8.06,42.88-31.08,42.88-58.17C125.94,28.49,98,1,63.47,1Z"/></g><path class="cls-5" d="M128.32,72.08"/></g></g></svg>