<svg xmlns="http://www.w3.org/2000/svg" viewBox="0 0 96.46 92.48"><defs><style>.cls-1{opacity:0.15;}.cls-2{fill:#f2f2f2;}.cls-2,.cls-4{stroke:#e6e6e6;stroke-miterlimit:10;}.cls-3{opacity:0.6;}.cls-4{fill:none;}</style></defs><title>github_logo_3</title><g id="Layer_2" data-name="Layer 2"><g id="Layer_2-2" data-name="Layer 2"><g class="cls-1"><path class="cls-2" d="M48.23.5C21.86.5.5,21.5.5,47.4A47,47,0,0,0,33.13,91.9c2.39.44,3.26-1,3.26-2.26s0-4.06-.06-8c-13.28,2.83-16.08-6.29-16.08-6.29-2.17-5.41-5.31-6.86-5.31-6.86-4.32-2.91.33-2.85.33-2.85,4.79.33,7.31,4.83,7.31,4.83,4.26,7.17,11.17,5.1,13.9,3.9a9.93,9.93,0,0,1,3-6.27C28.92,67,17.78,62.93,17.78,45a17.92,17.92,0,0,1,4.91-12.58c-.54-1.19-2.15-6,.42-12.41,0,0,4-1.26,13.13,4.81a45.76,45.76,0,0,1,23.86,0C69.17,18.7,73.16,20,73.16,20c2.57,6.46,1,11.23.48,12.41A18,18,0,0,1,78.53,45c0,18-11.16,22-21.78,23.14C58.43,69.5,60,72.38,60,76.77c0,6.28-.06,11.32-.06,12.84,0,1.23.84,2.7,3.28,2.23A46.84,46.84,0,0,0,96,47.4C96,21.5,74.59.5,48.23.5Z"/></g><g class="cls-3"><path class="cls-4" d="M48.23.5C21.86.5.5,21.5.5,47.4A47,47,0,0,0,33.13,91.9c2.39.44,3.26-1,3.26-2.26s0-4.06-.06-8c-13.28,2.83-16.08-6.29-16.08-6.29-2.17-5.41-5.31-6.86-5.31-6.86-4.32-2.91.33-2.85.33-2.85,4.79.33,7.31,4.83,7.31,4.83,4.26,7.17,11.17,5.1,13.9,3.9a9.93,9.93,0,0,1,3-6.27C28.92,67,17.78,62.93,17.78,45a17.92,17.92,0,0,1,4.91-12.58c-.54-1.19-2.15-6,.42-12.41,0,0,4-1.26,13.13,4.81a45.76,45.76,0,0,1,23.86,0C69.17,18.7,73.16,20,73.16,20c2.57,6.46,1,11.23.48,12.41A18,18,0,0,1,78.53,45c0,18-11.16,22-21.78,23.14C58.43,69.5,60,72.38,60,76.77c0,6.28-.06,11.32-.06,12.84,0,1.23.84,2.7,3.28,2.23A46.84,46.84,0,0,0,96,47.4C96,21.5,74.59.5,48.23.5Z"/></g></g></g></svg>