<svg xmlns="http://www.w3.org/2000/svg" viewBox="0 0 61.88 59.34"><defs><style>.cls-1{opacity:0.4;}.cls-2{fill:#f2f2f2;stroke:#e6e6e6;stroke-miterlimit:10;}</style></defs><title>github_logo</title><g id="Layer_2" data-name="Layer 2"><g id="Layer_2-2" data-name="Layer 2"><g class="cls-1"><path class="cls-2" d="M30.94.5C14.12.5.5,13.89.5,30.41A30,30,0,0,0,21.31,58.79c1.52.28,2.08-.64,2.08-1.44s0-2.59,0-5.09c-8.47,1.8-10.25-4-10.25-4-1.38-3.45-3.39-4.38-3.39-4.38C7,42,9.93,42.06,9.93,42.06a6.37,6.37,0,0,1,4.66,3.08c2.71,4.57,7.13,3.25,8.87,2.49a6.33,6.33,0,0,1,1.93-4c-6.76-.75-13.86-3.32-13.86-14.78a11.43,11.43,0,0,1,3.13-8,10.47,10.47,0,0,1,.27-7.92s2.55-.8,8.37,3.07a29.18,29.18,0,0,1,15.22,0c5.78-3.87,8.33-3.07,8.33-3.07a10.75,10.75,0,0,1,.3,7.92,11.47,11.47,0,0,1,3.12,8c0,11.49-7.11,14-13.89,14.75,1.07.9,2.05,2.73,2.05,5.53,0,4,0,7.22,0,8.19,0,.78.53,1.72,2.09,1.42A29.87,29.87,0,0,0,61.38,30.41C61.38,13.89,47.75.5,30.94.5Z"/></g></g></g></svg>