<svg xmlns="http://www.w3.org/2000/svg" viewBox="0 0 61.29 58.78"><defs><style>.cls-1{opacity:0.1;}.cls-2{fill:#f2f2f2;}.cls-2,.cls-4{stroke:#e6e6e6;stroke-miterlimit:10;}.cls-3{opacity:0.84;}.cls-4{fill:none;}</style></defs><title>github_logo_2</title><g id="Layer_2" data-name="Layer 2"><g id="Layer_2-2" data-name="Layer 2"><g class="cls-1"><path class="cls-2" d="M30.65.5C14,.5.5,13.76.5,30.12A29.67,29.67,0,0,0,21.11,58.23c1.51.28,2.06-.64,2.06-1.42s0-2.57,0-5c-8.39,1.79-10.15-4-10.15-4-1.37-3.42-3.35-4.33-3.35-4.33-2.73-1.84.21-1.8.21-1.8a6.31,6.31,0,0,1,4.62,3.05c2.69,4.53,7.06,3.22,8.78,2.46a6.27,6.27,0,0,1,1.91-4c-6.69-.74-13.73-3.29-13.73-14.64a11.32,11.32,0,0,1,3.1-7.95,10.36,10.36,0,0,1,.26-7.84s2.52-.79,8.29,3a28.9,28.9,0,0,1,15.07,0c5.73-3.83,8.25-3,8.25-3a10.65,10.65,0,0,1,.3,7.84,11.36,11.36,0,0,1,3.09,7.95c0,11.38-7,13.88-13.75,14.61,1.06.89,2,2.71,2,5.48,0,4,0,7.15,0,8.11,0,.78.53,1.7,2.07,1.41A29.58,29.58,0,0,0,60.79,30.12C60.79,13.76,47.29.5,30.65.5Z"/></g><g class="cls-3"><path class="cls-4" d="M30.65.5C14,.5.5,13.76.5,30.12A29.67,29.67,0,0,0,21.11,58.23c1.51.28,2.06-.64,2.06-1.42s0-2.57,0-5c-8.39,1.79-10.15-4-10.15-4-1.37-3.42-3.35-4.33-3.35-4.33-2.73-1.84.21-1.8.21-1.8a6.31,6.31,0,0,1,4.62,3.05c2.69,4.53,7.06,3.22,8.78,2.46a6.27,6.27,0,0,1,1.91-4c-6.69-.74-13.73-3.29-13.73-14.64a11.32,11.32,0,0,1,3.1-7.95,10.36,10.36,0,0,1,.26-7.84s2.52-.79,8.29,3a28.9,28.9,0,0,1,15.07,0c5.73-3.83,8.25-3,8.25-3a10.65,10.65,0,0,1,.3,7.84,11.36,11.36,0,0,1,3.09,7.95c0,11.38-7,13.88-13.75,14.61,1.06.89,2,2.71,2,5.48,0,4,0,7.15,0,8.11,0,.78.53,1.7,2.07,1.41A29.58,29.58,0,0,0,60.79,30.12C60.79,13.76,47.29.5,30.65.5Z"/></g></g></g></svg>