<svg xmlns="http://www.w3.org/2000/svg" viewBox="0 0 1420 730.51"><defs><style>.cls-1,.cls-2{fill:#fff92c;}.cls-1{opacity:0.04;}.cls-2{opacity:0.1;}.cls-3{opacity:0.12;}.cls-4,.cls-6{fill:#ff4f5b;}.cls-13,.cls-5{fill:#fff;}.cls-14,.cls-5{opacity:0.35;}.cls-13,.cls-6{opacity:0.2;}.cls-11,.cls-15,.cls-7,.cls-8,.cls-9{fill:none;stroke-miterlimit:10;}.cls-7{stroke:#ff4f5b;}.cls-8{stroke:#b3b3b3;}.cls-9{stroke:#ccc;}.cls-10{fill:#f2f2f2;}.cls-11{stroke:#fff;opacity:0.4;}.cls-12{fill:#ff005c;}.cls-15{stroke:red;}</style></defs><title>lighthouse</title><g id="Layer_2" data-name="Layer 2"><g id="Layer_2-2" data-name="Layer 2"><circle class="cls-1" cx="1159" cy="261" r="261"/><circle class="cls-2" cx="1072.5" cy="260.5" r="129.5"/><g class="cls-3"><path class="cls-4" d="M1017.66,283.08,57.35,645.64h476.1l484.2-317.85Z"/><path class="cls-5" d="M1017.66,290.83,0,709.34,543.7,719l57.09-45.28L1017.66,343.1Z"/></g><rect class="cls-6" x="1018.62" y="329.27" width="60.04" height="35.7"/><polygon class="cls-7" points="1008.19 404.64 998.1 730 1123.78 728.49 1112.77 404.64 1008.19 404.64"/><rect class="cls-8" x="998.1" y="390.45" width="123.27" height="14.18"/><polygon class="cls-6" points="1021.6 292.44 1022.43 290.58 1056.03 275.95 1064.12 275.95 1098.35 291.51 1098.3 292.44 1021.6 292.44"/><polygon class="cls-7" points="1022.43 390.45 1022.43 290.58 1056.03 275.95 1064.12 275.95 1098.35 291.51 1098.35 390.45 1022.43 390.45"/><rect class="cls-9" x="1022.43" y="291.51" width="75.92" height="53.83"/><polyline class="cls-4" points="1056.03 275.95 1056.03 265.06 1063.5 265.06 1063.5 275.95 1057.28 275.95"/><path class="cls-10" d="M1107.89,390.45a5.16,5.16,0,0,1-.11-1.19l-.1-3.44-.17-12.8.37.37c-11.82.11-29,.18-48.08.18s-36.27-.07-48.09-.18l.37-.37c-.07,5.34-.13,9.66-.17,12.8l-.1,3.44a.6.6,0,1,1-.21,0l-.1-3.44c0-3.14-.1-7.46-.17-12.8v-.37h.38c11.82-.11,29-.18,48.09-.18s36.26.07,48.08.18h.38V373c-.07,5.34-.13,9.66-.17,12.8l-.1,3.44A5.18,5.18,0,0,1,1107.89,390.45Z"/><ellipse class="cls-10" cx="1080.5" cy="381.73" rx="0.55" ry="8.72"/><ellipse class="cls-10" cx="1044.98" cy="381.73" rx="0.55" ry="8.72"/><ellipse class="cls-10" cx="1044.31" cy="318.43" rx="0.55" ry="26.91"/><ellipse class="cls-10" cx="1074.14" cy="318.43" rx="0.55" ry="26.91"/><path class="cls-10" d="M1098.35,318.55a15.48,15.48,0,0,1-3,.24l-8.13.24c-6.87.15-16.36.28-26.84.33s-20,0-26.85-.14-11.15-.42-11.11-.67l38-.29h26.84l8.14.11A15.58,15.58,0,0,1,1098.35,318.55Z"/><polygon class="cls-11" points="1000.93 637.7 1120.7 637.7 1123.23 712.09 998.63 711.58 1000.93 637.7"/><path class="cls-12" d="M1006.78,459.13c0-.14,2.49-.26,6.62-.36s9.89-.16,16.44-.19l-.54.54c0-1.49,0-3,0-4.64s0-3.14,0-4.64l.54.54c-6.55,0-12.32-.09-16.44-.19s-6.62-.22-6.62-.36,2.49-.26,6.62-.36,9.89-.16,16.44-.19h.54v.55c0,1.49,0,3.05,0,4.64s0,3.14,0,4.64v.55h-.54c-6.55,0-12.31-.09-16.44-.19S1006.78,459.27,1006.78,459.13Z"/><path class="cls-12" d="M1068.7,359a13.26,13.26,0,0,1-.18-2.37c-.07-1.59-.16-3.95-.21-6.91v-.38h.39c5.85-.1,14-.17,23.06-.17l.55.55h0v2.39q0,1.19,0,2.36c0,1.55,0,3.05,0,4.51v.53h-.53c-6.8,0-12.64-.15-16.72-.25l-4.73-.15a6.91,6.91,0,0,1-1.6-.13,11.71,11.71,0,0,1,1.84-.13l4.85-.15c4.11-.1,9.79-.22,16.36-.25l-.53.53,0-4.51q0-1.16,0-2.36v-2.39h0l.55.55c-9,0-17.21-.06-23.06-.17l.39-.39c0,2.78-.14,5.06-.21,6.67A20.83,20.83,0,0,1,1068.7,359Z"/><path class="cls-12" d="M1055.17,368.46a13.28,13.28,0,0,1-.18-2.37c-.07-1.59-.16-3.95-.21-6.91v-.38h.39c5.85-.1,14-.17,23.06-.17l.55.55h0v2.39q0,1.19,0,2.36c0,1.55,0,3.05,0,4.5V369h-.53c-6.8,0-12.64-.15-16.72-.25l-4.73-.15a6.9,6.9,0,0,1-1.6-.13,11.72,11.72,0,0,1,1.84-.13l4.85-.15c4.11-.1,9.79-.22,16.36-.25l-.53.53c0-1.45,0-3,0-4.5q0-1.16,0-2.36V359.2h0l.55.55c-9,0-17.21-.06-23.06-.17l.39-.39c0,2.78-.14,5.06-.21,6.67A20.78,20.78,0,0,1,1055.17,368.46Z"/><path class="cls-12" d="M1001.42,616.74c0-.14,2.49-.26,6.62-.36s9.89-.16,16.44-.19l-.54.54c0-1.49,0-3,0-4.64s0-3.14,0-4.64l.54.54c-6.55,0-12.32-.09-16.44-.19s-6.62-.22-6.62-.36,2.49-.26,6.62-.36,9.89-.16,16.44-.19h.54v.55c0,1.49,0,3.05,0,4.64s0,3.14,0,4.64v.55h-.54c-6.55,0-12.31-.09-16.44-.19S1001.42,616.87,1001.42,616.74Z"/><path class="cls-12" d="M1045,469.31a25,25,0,0,1-.17-2.82c-.07-1.76-.15-4.27-.2-7.36l.37.37c-6.9.11-16.93.18-28.06.18l.55-.55h0v2.62q0,1.31,0,2.58c0,1.7,0,3.36,0,5l-.53-.53c8,0,14.93.14,19.93.25l5.91.15a16.5,16.5,0,0,1,2.23.13,10.6,10.6,0,0,1-2,.13l-5.79.15c-5,.1-12.07.22-20.3.25h-.53v-.53c0-1.6,0-3.26,0-5q0-1.28,0-2.58v-2.62h0l.55-.55c11.14,0,21.16.07,28.06.18h.38v.37c0,3.26-.14,5.85-.2,7.58A16.83,16.83,0,0,1,1045,469.31Z"/><path class="cls-12" d="M1073.8,587.74a25.1,25.1,0,0,1-.17-2.82c-.07-1.76-.15-4.27-.2-7.36l.37.37c-6.9.11-16.93.18-28.06.18l.55-.55h0v2.62q0,1.31,0,2.58c0,1.7,0,3.36,0,5l-.53-.53c8,0,14.93.14,19.93.25l5.91.15a16.47,16.47,0,0,1,2.23.13,10.63,10.63,0,0,1-2,.13L1066,588c-5,.1-12.07.22-20.3.25h-.53v-.53c0-1.6,0-3.26,0-5q0-1.28,0-2.58v-2.62h0l.55-.55c11.14,0,21.16.07,28.06.18h.38v.37c0,3.26-.14,5.85-.2,7.58A16.78,16.78,0,0,1,1073.8,587.74Z"/><path class="cls-12" d="M1037.21,626.91a25,25,0,0,1-.17-2.82c-.07-1.76-.15-4.27-.2-7.36l.37.37c-6.9.11-16.93.18-28.06.18l.55-.55h0v2.62q0,1.31,0,2.58c0,1.7,0,3.36,0,5l-.53-.53c8,0,14.93.14,19.93.25l5.91.15a16.5,16.5,0,0,1,2.23.13,10.59,10.59,0,0,1-2,.13l-5.79.15c-5,.1-12.07.22-20.3.25h-.53v-.53c0-1.6,0-3.26,0-5q0-1.28,0-2.58v-2.62h0l.55-.55c11.14,0,21.16.07,28.06.18h.38v.37c0,3.26-.14,5.85-.2,7.58A16.83,16.83,0,0,1,1037.21,626.91Z"/><path class="cls-12" d="M1104.93,679.49a25,25,0,0,1-.17-2.82c-.07-1.76-.15-4.27-.2-7.36l.37.37c-6.9.11-16.93.18-28.06.18l.55-.55h0v2.62q0,1.31,0,2.58c0,1.7,0,3.36,0,5l-.53-.53c8,0,14.93.14,19.93.25l5.91.15a16.54,16.54,0,0,1,2.23.13,10.58,10.58,0,0,1-2,.13l-5.79.15c-5,.1-12.07.22-20.3.25h-.53v-.53c0-1.6,0-3.26,0-5q0-1.28,0-2.58v-2.62h0l.55-.55c11.14,0,21.16.07,28.06.18h.38v.37c0,3.26-.14,5.85-.2,7.58A16.81,16.81,0,0,1,1104.93,679.49Z"/><path class="cls-12" d="M1122.62,690.13a25,25,0,0,1-.17-2.82c-.07-1.76-.15-4.27-.2-7.36l.37.37c-6.9.11-16.93.18-28.06.18l.55-.55h0v2.62q0,1.31,0,2.58c0,1.7,0,3.36,0,5l-.53-.53c8,0,14.93.14,19.93.25l5.91.15a16.51,16.51,0,0,1,2.23.13,10.59,10.59,0,0,1-2,.13l-5.79.15c-5,.1-12.07.22-20.3.25H1094v-.53c0-1.6,0-3.26,0-5q0-1.28,0-2.58V680h0l.55-.55c11.14,0,21.16.07,28.06.18h.38V680c0,3.26-.14,5.85-.2,7.58A16.8,16.8,0,0,1,1122.62,690.13Z"/><path class="cls-12" d="M1101.45,517.87a25,25,0,0,1-.17-2.82c-.07-1.76-.15-4.27-.2-7.36l.37.37c-6.9.11-16.93.18-28.06.18l.55-.55h0v2.62q0,1.31,0,2.58c0,1.7,0,3.36,0,5l-.53-.53c8,0,14.93.14,19.93.25l5.91.15a16.54,16.54,0,0,1,2.23.13,10.58,10.58,0,0,1-2,.13l-5.79.15c-5,.1-12.07.22-20.3.25h-.53v-.53c0-1.6,0-3.26,0-5q0-1.28,0-2.58v-2.62h0l.55-.55c11.14,0,21.16.07,28.06.18h.38v.37c0,3.26-.14,5.85-.2,7.58A16.83,16.83,0,0,1,1101.45,517.87Z"/><polygon class="cls-13" points="1008.19 404.64 1080.5 420.95 1085.88 728.48 1123.78 728.48 1112.77 404.64 1008.19 404.64"/><g class="cls-14"><path class="cls-15" d="M1109.74,463.86a21.54,21.54,0,0,1-3.45.74l-9.47,1.61c-8,1.31-19.07,3-31.31,4.89l-4.77.72.32-.17-12.94,13.83-.11.12-.16,0-15.13,2.15-4.24.53a6.08,6.08,0,0,1-1.51.09,6.1,6.1,0,0,1,1.47-.37l4.2-.78,15.07-2.53-.27.14,12.82-13.94.13-.14.19,0,4.77-.72c12.23-1.85,23.32-3.46,31.35-4.57l9.52-1.26A21.61,21.61,0,0,1,1109.74,463.86Z"/></g></g></g></svg>