<svg xmlns="http://www.w3.org/2000/svg" viewBox="0 0 1942.08 1076.51"><defs><style>.cls-1,.cls-2{fill:#fff92c;}.cls-1{opacity:0.06;}.cls-2{opacity:0.03;}.cls-3{opacity:0.04;}.cls-4,.cls-6{fill:#ff4f5b;}.cls-13,.cls-5{fill:#fff;}.cls-14,.cls-5{opacity:0.35;}.cls-13,.cls-6{opacity:0.2;}.cls-11,.cls-15,.cls-7,.cls-8,.cls-9{fill:none;stroke-miterlimit:10;}.cls-7{stroke:#ff4f5b;}.cls-8{stroke:#b3b3b3;}.cls-9{stroke:#ccc;}.cls-10{fill:#f2f2f2;}.cls-11{stroke:#fff;opacity:0.4;}.cls-12{fill:#ff005c;}.cls-15{stroke:red;}</style></defs><title>lighthouse_3</title><g id="Layer_2" data-name="Layer 2"><g id="Layer_2-2" data-name="Layer 2"><circle class="cls-1" cx="1366.55" cy="511.59" r="83.41"/><circle class="cls-2" cx="1579.25" cy="362.84" r="362.84"/><g class="cls-3"><path class="cls-4" d="M1414.73,454.7l-1335,504H741.6l673.13-441.87Z"/><path class="cls-5" d="M1414.73,465.47,0,1047.27l755.84,13.43,79.37-62.95,579.52-459.62Z"/></g><rect class="cls-6" x="1416.06" y="518.91" width="83.46" height="49.63"/><polygon class="cls-7" points="1401.57 623.69 1387.54 1076 1562.26 1073.9 1546.96 623.69 1401.57 623.69"/><rect class="cls-8" x="1387.54" y="603.97" width="171.37" height="19.72"/><polygon class="cls-6" points="1420.21 467.72 1421.36 465.12 1468.07 444.8 1479.32 444.8 1526.9 466.42 1526.83 467.72 1420.21 467.72"/><polygon class="cls-7" points="1421.36 603.97 1421.36 465.12 1468.07 444.8 1479.32 444.8 1526.9 466.42 1526.9 603.97 1421.36 603.97"/><rect class="cls-9" x="1421.36" y="466.42" width="105.54" height="74.83"/><polyline class="cls-4" points="1468.07 444.8 1468.07 429.66 1478.45 429.66 1478.45 444.8 1469.8 444.8"/><path class="cls-10" d="M1540.17,604a7.17,7.17,0,0,1-.15-1.66l-.14-4.79-.24-17.8.52.52c-16.43.15-40.31.25-66.84.25s-50.42-.1-66.85-.25l.52-.52c-.1,7.42-.18,13.43-.24,17.8-.06,2-.1,3.54-.14,4.79a.84.84,0,1,1-.29,0c0-1.25-.08-2.83-.14-4.79-.06-4.36-.14-10.38-.24-17.8v-.51h.53c16.43-.15,40.32-.25,66.85-.25s50.41.1,66.84.25h.53v.51c-.1,7.42-.18,13.43-.24,17.8l-.14,4.79A7.2,7.2,0,0,1,1540.17,604Z"/><ellipse class="cls-10" cx="1502.09" cy="591.85" rx="0.77" ry="12.12"/><ellipse class="cls-10" cx="1452.71" cy="591.85" rx="0.77" ry="12.12"/><ellipse class="cls-10" cx="1451.78" cy="503.84" rx="0.77" ry="37.41"/><ellipse class="cls-10" cx="1493.25" cy="503.84" rx="0.77" ry="37.41"/><path class="cls-10" d="M1526.9,504a21.53,21.53,0,0,1-4.14.33l-11.31.34c-9.55.21-22.74.39-37.32.46s-27.77,0-37.33-.2-15.51-.59-15.44-.93l52.76-.41h37.31l11.31.15A21.66,21.66,0,0,1,1526.9,504Z"/><polygon class="cls-11" points="1391.47 947.69 1557.97 947.69 1561.49 1051.1 1388.27 1050.38 1391.47 947.69"/><path class="cls-12" d="M1399.61,699.45c0-.19,3.46-.36,9.2-.5s13.75-.23,22.86-.26l-.76.76c0-2.08,0-4.24,0-6.44s0-4.37,0-6.45l.76.76c-9.11,0-17.12-.12-22.86-.26s-9.2-.31-9.2-.5,3.46-.36,9.2-.5,13.75-.23,22.86-.26h.76v.76c0,2.08,0,4.24,0,6.45s0,4.37,0,6.44v.76h-.76c-9.11,0-17.12-.12-22.86-.26S1399.61,699.64,1399.61,699.45Z"/><path class="cls-12" d="M1485.69,560.25a18.44,18.44,0,0,1-.25-3.29c-.1-2.2-.22-5.49-.29-9.6v-.53h.55c8.13-.14,19.49-.23,32.05-.23l.77.77h0v3.33q0,1.66,0,3.28c0,2.15,0,4.25,0,6.26V561h-.73c-9.45,0-17.58-.2-23.25-.35l-6.58-.2a9.61,9.61,0,0,1-2.23-.18,16.28,16.28,0,0,1,2.56-.18l6.75-.2c5.71-.14,13.61-.3,22.75-.35l-.73.73,0-6.26q0-1.62,0-3.28v-3.33h0l.76.77c-12.56,0-23.93-.09-32.05-.23l.54-.54c-.07,3.87-.19,7-.29,9.28A29,29,0,0,1,1485.69,560.25Z"/><path class="cls-12" d="M1466.88,573.4a18.47,18.47,0,0,1-.25-3.29c-.1-2.2-.22-5.49-.29-9.6V560h.55c8.13-.14,19.49-.23,32.05-.23l.77.77h0v3.33q0,1.66,0,3.28c0,2.15,0,4.25,0,6.26v.74h-.73c-9.45,0-17.58-.2-23.25-.35l-6.58-.2a9.6,9.6,0,0,1-2.23-.18,16.29,16.29,0,0,1,2.56-.18l6.75-.2c5.71-.14,13.61-.3,22.75-.35l-.73.73c0-2,0-4.11,0-6.26q0-1.62,0-3.28v-3.33h0l.76.77c-12.56,0-23.93-.09-32.05-.23l.54-.54c-.07,3.87-.19,7-.29,9.28A28.89,28.89,0,0,1,1466.88,573.4Z"/><path class="cls-12" d="M1392.16,918.54c0-.19,3.46-.36,9.2-.5s13.75-.23,22.86-.26l-.76.76c0-2.08,0-4.24,0-6.44s0-4.37,0-6.45l.76.76c-9.11,0-17.12-.12-22.86-.26s-9.2-.31-9.2-.5,3.46-.36,9.2-.5,13.75-.23,22.86-.26h.76v.76c0,2.08,0,4.24,0,6.45s0,4.37,0,6.44v.76h-.76c-9.1,0-17.12-.12-22.86-.26S1392.16,918.73,1392.16,918.54Z"/><path class="cls-12" d="M1452.71,713.59a34.75,34.75,0,0,1-.24-3.92c-.09-2.45-.21-5.93-.28-10.23l.52.52c-9.59.15-23.53.25-39,.25l.76-.77h0v3.64q0,1.82,0,3.59c0,2.36,0,4.67,0,6.89l-.74-.74c11.11,0,20.75.2,27.71.35l8.21.21a22.94,22.94,0,0,1,3.09.19,14.74,14.74,0,0,1-2.76.19l-8,.21c-6.92.14-16.79.3-28.21.34H1413v-.74c0-2.22,0-4.53,0-6.89q0-1.77,0-3.59v-3.64h0l.77-.77c15.48,0,29.42.1,39,.25h.53v.51c-.07,4.53-.19,8.13-.28,10.54A23.39,23.39,0,0,1,1452.71,713.59Z"/><path class="cls-12" d="M1492.77,878.23a34.89,34.89,0,0,1-.24-3.92c-.09-2.45-.21-5.93-.28-10.23l.52.52c-9.59.15-23.53.25-39,.25l.76-.77h0v3.64q0,1.82,0,3.59c0,2.36,0,4.67,0,6.89l-.74-.74c11.11,0,20.75.2,27.71.35l8.21.21a22.89,22.89,0,0,1,3.09.19,14.77,14.77,0,0,1-2.76.19l-8,.21c-6.92.14-16.79.3-28.21.35H1453v-.74c0-2.22,0-4.53,0-6.89q0-1.77,0-3.59v-3.64h0l.77-.77c15.48,0,29.42.1,39,.25h.53v.51c-.07,4.53-.19,8.13-.28,10.54A23.33,23.33,0,0,1,1492.77,878.23Z"/><path class="cls-12" d="M1441.91,932.69a34.69,34.69,0,0,1-.24-3.92c-.09-2.45-.21-5.93-.28-10.23l.52.52c-9.59.15-23.53.25-39,.25l.76-.77h0v3.64q0,1.82,0,3.59c0,2.36,0,4.67,0,6.89l-.74-.74c11.11,0,20.75.2,27.71.35l8.21.21a22.94,22.94,0,0,1,3.09.19,14.73,14.73,0,0,1-2.76.19l-8,.21c-6.92.14-16.79.3-28.21.35h-.74v-.74c0-2.22,0-4.53,0-6.89q0-1.77,0-3.59v-3.64h0l.77-.77c15.48,0,29.42.1,39,.25h.53v.51c-.07,4.53-.19,8.13-.28,10.54A23.4,23.4,0,0,1,1441.91,932.69Z"/><path class="cls-12" d="M1536.05,1005.78a34.76,34.76,0,0,1-.24-3.92c-.09-2.45-.21-5.93-.28-10.23l.52.52c-9.59.15-23.53.25-39,.25l.76-.77h0v3.64q0,1.82,0,3.59c0,2.36,0,4.67,0,6.89l-.74-.74c11.11,0,20.75.2,27.71.35l8.21.21a23,23,0,0,1,3.09.19,14.7,14.7,0,0,1-2.76.19l-8,.21c-6.92.14-16.79.3-28.21.35h-.74v-.74c0-2.22,0-4.53,0-6.89q0-1.78,0-3.59v-3.64h0l.77-.77c15.48,0,29.42.1,39,.25h.53v.51c-.07,4.53-.19,8.13-.28,10.54A23.36,23.36,0,0,1,1536.05,1005.78Z"/><path class="cls-12" d="M1560.64,1020.58a34.75,34.75,0,0,1-.24-3.92c-.09-2.45-.21-5.93-.28-10.23l.52.52c-9.59.15-23.53.25-39,.25l.76-.77h0v3.64q0,1.82,0,3.59c0,2.36,0,4.67,0,6.89l-.74-.74c11.11,0,20.75.2,27.71.34l8.21.21a23,23,0,0,1,3.09.19,14.72,14.72,0,0,1-2.76.19l-8,.21c-6.92.14-16.79.3-28.21.35h-.74v-.74c0-2.22,0-4.53,0-6.89q0-1.78,0-3.59v-3.64h0l.77-.77c15.48,0,29.42.1,39,.25h.53v.51c-.07,4.53-.19,8.13-.28,10.54A23.35,23.35,0,0,1,1560.64,1020.58Z"/><path class="cls-12" d="M1531.22,781.1a34.69,34.69,0,0,1-.24-3.92c-.09-2.45-.21-5.93-.28-10.23l.52.52c-9.59.15-23.53.25-39,.25l.76-.77h0v3.64q0,1.82,0,3.59c0,2.36,0,4.67,0,6.89l-.74-.74c11.11,0,20.75.2,27.71.34l8.21.21a23,23,0,0,1,3.09.19,14.71,14.71,0,0,1-2.76.19l-8,.21c-6.92.14-16.79.3-28.21.35h-.74v-.74c0-2.22,0-4.53,0-6.89q0-1.77,0-3.59V767h0l.77-.77c15.48,0,29.42.1,39,.25h.53V767c-.07,4.53-.19,8.13-.28,10.54A23.39,23.39,0,0,1,1531.22,781.1Z"/><polygon class="cls-13" points="1401.57 623.69 1502.09 646.37 1509.57 1073.89 1562.26 1073.89 1546.96 623.69 1401.57 623.69"/><g class="cls-14"><path class="cls-15" d="M1542.74,706a30,30,0,0,1-4.8,1l-13.16,2.23c-11.13,1.82-26.51,4.23-43.52,6.8l-6.63,1,.44-.24-18,19.23-.16.17-.22,0-21,3-5.89.73a8.45,8.45,0,0,1-2.1.13,8.48,8.48,0,0,1,2-.52l5.83-1.08,20.95-3.52-.38.2L1474,715.8l.18-.2.27,0,6.63-1c17-2.57,32.42-4.81,43.59-6.35l13.24-1.75A30,30,0,0,1,1542.74,706Z"/></g></g></g></svg>