<svg xmlns="http://www.w3.org/2000/svg" viewBox="0 0 2160 1110.93"><defs><style>.cls-1,.cls-2{fill:#fff92c;}.cls-1{opacity:0.1;}.cls-2{opacity:0.04;}.cls-3{opacity:0.12;}.cls-4,.cls-6{fill:#ff4f5b;}.cls-13,.cls-5{fill:#fff;}.cls-14,.cls-5{opacity:0.35;}.cls-13,.cls-6{opacity:0.2;}.cls-11,.cls-15,.cls-7,.cls-8,.cls-9{fill:none;stroke-miterlimit:10;}.cls-7{stroke:#ff4f5b;}.cls-8{stroke:#b3b3b3;}.cls-9{stroke:#ccc;}.cls-10{fill:#f2f2f2;}.cls-11{stroke:#fff;opacity:0.4;}.cls-12{fill:#ff005c;}.cls-15{stroke:red;}</style></defs><title>lighthouse_2</title><g id="Layer_2" data-name="Layer 2"><g id="Layer_2-2" data-name="Layer 2"><circle class="cls-1" cx="1495.27" cy="492.85" r="91.27"/><circle class="cls-2" cx="1762.99" cy="397.01" r="397.01"/><circle class="cls-1" cx="1631.41" cy="396.25" r="196.99"/><g class="cls-3"><path class="cls-4" d="M1548,430.6,0,1079.18H767.47L1548,510.57Z"/><path class="cls-5" d="M1548,442.39,0,1079l827,14.7,86.84-68.87L1548,521.9Z"/></g><rect class="cls-6" x="1549.45" y="500.85" width="91.33" height="54.3"/><polygon class="cls-7" points="1533.58 615.5 1518.23 1110.42 1709.42 1108.12 1692.67 615.51 1533.58 615.5"/><rect class="cls-8" x="1518.23" y="593.93" width="187.51" height="21.57"/><polygon class="cls-6" points="1553.99 444.84 1555.24 442.01 1606.36 419.76 1618.66 419.76 1670.72 443.43 1670.65 444.84 1553.99 444.84"/><polygon class="cls-7" points="1555.24 593.93 1555.24 442.01 1606.36 419.76 1618.66 419.76 1670.72 443.43 1670.72 593.93 1555.24 593.93"/><rect class="cls-9" x="1555.24" y="443.43" width="115.48" height="81.88"/><polyline class="cls-4" points="1606.36 419.76 1606.36 403.2 1617.71 403.2 1617.71 419.76 1608.25 419.76"/><path class="cls-10" d="M1685.25,593.93a7.84,7.84,0,0,1-.16-1.82l-.15-5.24-.26-19.47.57.57c-18,.17-44.11.27-73.14.27s-55.17-.1-73.15-.27l.57-.57c-.11,8.12-.19,14.7-.26,19.47-.06,2.14-.11,3.87-.15,5.24a.91.91,0,1,1-.32,0c0-1.37-.09-3.1-.15-5.24-.06-4.77-.15-11.35-.26-19.47v-.56h.58c18-.17,44.11-.27,73.15-.27s55.16.1,73.14.27h.58v.56c-.11,8.12-.19,14.7-.26,19.47l-.15,5.24A7.88,7.88,0,0,1,1685.25,593.93Z"/><ellipse class="cls-10" cx="1643.57" cy="580.67" rx="0.84" ry="13.26"/><ellipse class="cls-10" cx="1589.55" cy="580.67" rx="0.84" ry="13.26"/><path class="cls-10" d="M1588.53,525.3c-.46,0-.84-18.33-.84-40.94s.38-40.94.84-40.94.84,18.33.84,40.94S1589,525.3,1588.53,525.3Z"/><path class="cls-10" d="M1633.91,525.3c-.46,0-.84-18.33-.84-40.94s.38-40.94.84-40.94.84,18.33.84,40.94S1634.37,525.3,1633.91,525.3Z"/><path class="cls-10" d="M1670.72,484.56a23.55,23.55,0,0,1-4.54.37l-12.37.37c-10.45.23-24.88.43-40.83.5s-30.39,0-40.84-.22-17-.65-16.9-1l57.73-.45h40.83l12.38.17A23.7,23.7,0,0,1,1670.72,484.56Z"/><polygon class="cls-11" points="1522.54 970.03 1704.72 970.03 1708.57 1083.17 1519.04 1082.39 1522.54 970.03"/><path class="cls-12" d="M1531.44,698.4c0-.21,3.79-.4,10.07-.54s15-.25,25-.28l-.83.83c0-2.27,0-4.64,0-7.05s0-4.78,0-7.06l.83.83c-10,0-18.73-.14-25-.28s-10.06-.34-10.06-.54,3.79-.4,10.06-.54,15-.25,25-.28h.83v.83c0,2.27,0,4.64,0,7.06s0,4.78,0,7.05v.83h-.83c-10,0-18.73-.14-25-.28S1531.44,698.61,1531.44,698.4Z"/><path class="cls-12" d="M1625.63,546.09a20.17,20.17,0,0,1-.27-3.6c-.11-2.41-.24-6-.32-10.51v-.58h.6c8.89-.16,21.32-.25,35.07-.25l.84.84h0v3.64q0,1.81,0,3.59c0,2.36,0,4.65,0,6.85v.81h-.8c-10.34,0-19.23-.22-25.44-.38l-7.2-.22a10.51,10.51,0,0,1-2.44-.2,17.82,17.82,0,0,1,2.8-.2l7.38-.22c6.25-.16,14.89-.33,24.89-.38l-.8.8,0-6.85q0-1.77,0-3.59V532h0l.84.84c-13.75,0-26.18-.1-35.07-.25l.59-.59c-.08,4.23-.21,7.7-.32,10.15A31.69,31.69,0,0,1,1625.63,546.09Z"/><path class="cls-12" d="M1605.05,560.48a20.21,20.21,0,0,1-.27-3.6c-.11-2.41-.24-6-.32-10.51v-.58h.6c8.89-.16,21.32-.25,35.07-.25l.84.84h0V550q0,1.82,0,3.59c0,2.36,0,4.65,0,6.85v.81h-.8c-10.34,0-19.23-.22-25.44-.38l-7.2-.22a10.5,10.5,0,0,1-2.44-.2,17.82,17.82,0,0,1,2.8-.2l7.38-.22c6.25-.16,14.89-.33,24.89-.38l-.8.8c0-2.21,0-4.5,0-6.85q0-1.77,0-3.59v-3.64h0l.84.84c-13.75,0-26.18-.1-35.07-.25l.59-.59c-.08,4.24-.21,7.7-.32,10.15A31.61,31.61,0,0,1,1605.05,560.48Z"/><path class="cls-12" d="M1523.29,938.13c0-.21,3.79-.4,10.07-.54s15-.25,25-.28l-.83.83c0-2.27,0-4.64,0-7.05s0-4.78,0-7.06l.83.83c-10,0-18.73-.14-25-.28s-10.06-.34-10.06-.54,3.79-.4,10.06-.54,15-.25,25-.28h.83V924c0,2.27,0,4.64,0,7.06s0,4.78,0,7.05V939h-.83c-10,0-18.73-.14-25-.28S1523.29,938.34,1523.29,938.13Z"/><path class="cls-12" d="M1589.55,713.88a38,38,0,0,1-.26-4.29c-.1-2.68-.23-6.49-.31-11.19l.57.57c-10.49.17-25.75.27-42.69.27l.84-.84h0v4q0,2,0,3.93c0,2.59,0,5.11,0,7.54l-.81-.81c12.16,0,22.71.22,30.32.38l9,.23a25.1,25.1,0,0,1,3.39.2,16.13,16.13,0,0,1-3,.21l-8.8.23c-7.57.16-18.37.33-30.87.38h-.81v-.81c0-2.43,0-5,0-7.54q0-1.94,0-3.93v-4h0l.84-.84c16.94,0,32.19.1,42.69.27h.58v.56c-.07,5-.21,8.89-.31,11.53A25.6,25.6,0,0,1,1589.55,713.88Z"/><path class="cls-12" d="M1633.38,894a38.18,38.18,0,0,1-.26-4.29c-.1-2.68-.23-6.49-.31-11.19l.57.57c-10.49.17-25.75.27-42.69.27l.84-.84h0v4q0,2,0,3.93c0,2.59,0,5.11,0,7.54l-.81-.81c12.16,0,22.71.22,30.32.38l9,.23a25,25,0,0,1,3.39.21,16.17,16.17,0,0,1-3,.2l-8.8.23c-7.57.16-18.37.33-30.87.38h-.81V894c0-2.43,0-5,0-7.54q0-1.94,0-3.93v-4h0l.84-.84c16.94,0,32.19.1,42.69.27h.58v.56c-.07,5-.21,8.89-.31,11.53A25.53,25.53,0,0,1,1633.38,894Z"/><path class="cls-12" d="M1577.73,953.61a38,38,0,0,1-.26-4.29c-.1-2.68-.23-6.49-.31-11.19l.57.57c-10.49.17-25.75.27-42.69.27l.84-.84h0v4q0,2,0,3.93c0,2.59,0,5.11,0,7.54l-.81-.81c12.16,0,22.71.22,30.32.38l9,.23a25.1,25.1,0,0,1,3.39.2,16.11,16.11,0,0,1-3,.2l-8.8.23c-7.57.16-18.37.33-30.87.38h-.81v-.81c0-2.43,0-5,0-7.54q0-1.94,0-3.93v-4h0l.84-.84c16.94,0,32.19.1,42.69.27h.58v.56c-.07,5-.21,8.89-.31,11.53A25.6,25.6,0,0,1,1577.73,953.61Z"/><path class="cls-12" d="M1680.74,1033.59a38,38,0,0,1-.26-4.29c-.1-2.68-.23-6.49-.31-11.19l.57.57c-10.49.17-25.75.27-42.69.27l.84-.84h0v4q0,2,0,3.93c0,2.59,0,5.11,0,7.54l-.81-.81c12.16,0,22.71.22,30.32.38l9,.23a25.16,25.16,0,0,1,3.39.2,16.09,16.09,0,0,1-3,.21l-8.8.23c-7.57.16-18.37.33-30.87.38h-.81v-.81c0-2.43,0-5,0-7.54q0-1.94,0-3.93v-4h0l.84-.84c16.94,0,32.19.1,42.69.27h.58v.56c-.07,5-.21,8.89-.31,11.53A25.56,25.56,0,0,1,1680.74,1033.59Z"/><path class="cls-12" d="M1707.65,1049.78a38,38,0,0,1-.26-4.29c-.1-2.68-.23-6.49-.31-11.19l.57.57c-10.49.17-25.75.27-42.69.27l.84-.84h0v4q0,2,0,3.93c0,2.59,0,5.11,0,7.54l-.81-.81c12.16,0,22.71.22,30.32.38l9,.23a25.12,25.12,0,0,1,3.39.21,16.11,16.11,0,0,1-3,.2l-8.8.23c-7.57.16-18.37.33-30.87.38h-.81v-.81c0-2.43,0-5,0-7.54q0-1.94,0-3.93v-4h0l.84-.84c16.94,0,32.19.1,42.69.27h.58v.56c-.07,5-.21,8.89-.31,11.53A25.55,25.55,0,0,1,1707.65,1049.78Z"/><path class="cls-12" d="M1675.45,787.75a38,38,0,0,1-.26-4.29c-.1-2.68-.23-6.49-.31-11.19l.57.57c-10.49.17-25.75.27-42.69.27l.84-.84h0v4q0,2,0,3.93c0,2.59,0,5.11,0,7.54l-.81-.81c12.16,0,22.71.22,30.32.38l9,.23a25.16,25.16,0,0,1,3.39.2,16.09,16.09,0,0,1-3,.21l-8.8.23c-7.57.16-18.37.33-30.87.38H1632v-.81c0-2.43,0-5,0-7.54q0-1.94,0-3.93v-4h0l.84-.84c16.94,0,32.19.1,42.69.27h.58v.56c-.07,5-.21,8.89-.31,11.53A25.59,25.59,0,0,1,1675.45,787.75Z"/><polygon class="cls-13" points="1533.58 615.5 1643.57 640.33 1651.76 1108.12 1709.42 1108.12 1692.67 615.5 1533.58 615.5"/><g class="cls-14"><path class="cls-15" d="M1688.06,705.59a32.77,32.77,0,0,1-5.25,1.12l-14.41,2.44c-12.17,2-29,4.63-47.62,7.44l-7.25,1.09.49-.26-19.68,21-.17.19-.24,0-23,3.26-6.44.8a9.25,9.25,0,0,1-2.3.14,9.28,9.28,0,0,1,2.23-.56l6.38-1.19,22.92-3.85-.41.22,19.5-21.21.2-.21.29,0,7.25-1.1c18.61-2.81,35.47-5.26,47.69-7l14.48-1.92A32.87,32.87,0,0,1,1688.06,705.59Z"/></g></g></g></svg>