<svg xmlns="http://www.w3.org/2000/svg" viewBox="0 0 1781.3 465.94"><defs><style>.cls-1,.cls-8{fill:#f2f2f2;}.cls-1{opacity:0.1;}.cls-2{opacity:0.05;}.cls-3,.cls-5{fill:#ff0;}.cls-4,.cls-6{fill:none;stroke-miterlimit:10;}.cls-4{stroke:#ff0;}.cls-5{opacity:0.2;}.cls-6{stroke:#ccc;opacity:0.62;}.cls-7{opacity:0.6;}.cls-9{opacity:0.66;}.cls-10{opacity:0.48;}.cls-11,.cls-12{fill:#fffddc;}.cls-11,.cls-13{opacity:0.39;}.cls-14{fill:#fff;opacity:0.12;}.cls-15{opacity:0.35;}.cls-16{fill:#fff800;}</style></defs><title>lighthouse_5</title><g id="Layer_2" data-name="Layer 2"><g id="Layer_2-2" data-name="Layer 2"><rect class="cls-1" x="1680" y="26.94" width="76" height="54"/><g class="cls-2"><path class="cls-3" d="M1678,24,0,465.94H831.92L1678,78.51Z"/></g><polygon class="cls-4" points="1665.19 139.57 1655.1 464.94 1780.78 463.42 1769.77 139.57 1665.19 139.57"/><rect class="cls-4" x="1655.1" y="125.39" width="123.27" height="14.18"/><polygon class="cls-5" points="1678.6 27.38 1679.43 25.51 1713.03 10.89 1721.12 10.89 1755.35 26.45 1755.3 27.38 1678.6 27.38"/><polygon class="cls-4" points="1679.43 125.39 1679.43 25.51 1713.03 10.89 1721.12 10.89 1755.35 26.45 1755.35 125.39 1679.43 125.39"/><rect class="cls-6" x="1679.43" y="26.45" width="75.92" height="53.83"/><polyline class="cls-3" points="1713.03 10.89 1713.03 0 1720.5 0 1720.5 10.89 1714.28 10.89"/><g class="cls-7"><path class="cls-8" d="M1764.89,125.39a5.16,5.16,0,0,1-.11-1.19l-.1-3.44-.17-12.8.37.37c-11.82.11-29,.18-48.08.18s-36.27-.07-48.09-.18l.37-.37c-.07,5.34-.13,9.66-.17,12.8l-.1,3.44a.6.6,0,1,1-.21,0l-.1-3.44c0-3.14-.1-7.46-.17-12.8v-.37h.38c11.82-.11,29-.18,48.09-.18s36.26.07,48.08.18h.38V108c-.07,5.34-.13,9.66-.17,12.8l-.1,3.44A5.18,5.18,0,0,1,1764.89,125.39Z"/><ellipse class="cls-8" cx="1737.5" cy="116.67" rx="0.55" ry="8.72"/><ellipse class="cls-8" cx="1701.98" cy="116.67" rx="0.55" ry="8.72"/></g><g class="cls-9"><ellipse class="cls-8" cx="1701.31" cy="53.36" rx="0.55" ry="26.91"/></g><g class="cls-9"><ellipse class="cls-8" cx="1731.14" cy="53.36" rx="0.55" ry="26.91"/></g><g class="cls-9"><path class="cls-8" d="M1755.35,53.49a15.48,15.48,0,0,1-3,.24l-8.13.24c-6.87.15-16.36.28-26.84.33s-20,0-26.85-.14-11.15-.42-11.11-.67l38-.29h26.84l8.14.11A15.58,15.58,0,0,1,1755.35,53.49Z"/></g><polygon class="cls-4" points="1657.93 372.64 1777.7 372.64 1780.23 447.02 1655.63 446.51 1657.93 372.64"/><g class="cls-10"><path class="cls-11" d="M1658.42,351.67c0-.14,2.49-.26,6.62-.36s9.89-.16,16.44-.19l-.54.54c0-1.49,0-3,0-4.64s0-3.14,0-4.64l.54.54c-6.55,0-12.32-.09-16.44-.19s-6.62-.22-6.62-.36,2.49-.26,6.62-.36,9.89-.16,16.44-.19h.54v.55c0,1.49,0,3.05,0,4.64s0,3.14,0,4.64v.55h-.54c-6.55,0-12.31-.09-16.44-.19S1658.42,351.81,1658.42,351.67Z"/></g><g class="cls-9"><path class="cls-12" d="M1730.8,322.67a25.1,25.1,0,0,1-.17-2.82c-.07-1.76-.15-4.27-.2-7.36l.37.37c-6.9.11-16.93.18-28.06.18l.55-.55h0v2.62q0,1.31,0,2.58c0,1.7,0,3.36,0,5l-.53-.53c8,0,14.93.14,19.93.25l5.91.15a16.47,16.47,0,0,1,2.23.13,10.63,10.63,0,0,1-2,.13L1723,323c-5,.1-12.07.22-20.3.25h-.53v-.53c0-1.6,0-3.26,0-5q0-1.28,0-2.58v-2.62h0l.55-.55c11.14,0,21.16.07,28.06.18h.38v.37c0,3.26-.14,5.85-.2,7.58A16.78,16.78,0,0,1,1730.8,322.67Z"/></g><path class="cls-11" d="M1694.21,361.85A25,25,0,0,1,1694,359c-.07-1.76-.15-4.27-.2-7.36l.37.37c-6.9.11-16.93.18-28.06.18l.55-.55h0v2.62q0,1.31,0,2.58c0,1.7,0,3.36,0,5l-.53-.53c8,0,14.93.14,19.93.25l5.91.15a16.5,16.5,0,0,1,2.23.13,10.59,10.59,0,0,1-2,.13l-5.79.15c-5,.1-12.07.22-20.3.25h-.53v-.53c0-1.6,0-3.26,0-5q0-1.28,0-2.58v-2.62h0l.55-.55c11.14,0,21.16.07,28.06.18h.38v.37c0,3.26-.14,5.85-.2,7.58A16.83,16.83,0,0,1,1694.21,361.85Z"/><g class="cls-13"><path class="cls-11" d="M1761.93,414.42a25,25,0,0,1-.17-2.82c-.07-1.76-.15-4.27-.2-7.36l.37.37c-6.9.11-16.93.18-28.06.18l.55-.55h0v2.62q0,1.31,0,2.58c0,1.7,0,3.36,0,5l-.53-.53c8,0,14.93.14,19.93.25l5.91.15a16.54,16.54,0,0,1,2.23.13,10.58,10.58,0,0,1-2,.13l-5.79.15c-5,.1-12.07.22-20.3.25h-.53v-.53c0-1.6,0-3.26,0-5q0-1.28,0-2.58v-2.62h0l.55-.55c11.14,0,21.16.07,28.06.18h.38v.37c0,3.26-.14,5.85-.2,7.58A16.81,16.81,0,0,1,1761.93,414.42Z"/></g><path class="cls-11" d="M1779.62,425.07a25,25,0,0,1-.17-2.82c-.07-1.76-.15-4.27-.2-7.36l.37.37c-6.9.11-16.93.18-28.06.18l.55-.55h0v2.62q0,1.31,0,2.58c0,1.7,0,3.36,0,5l-.53-.53c8,0,14.93.14,19.93.25l5.91.15a16.51,16.51,0,0,1,2.23.13,10.59,10.59,0,0,1-2,.13l-5.79.15c-5,.1-12.07.22-20.3.25H1751v-.53c0-1.6,0-3.26,0-5q0-1.28,0-2.58v-2.62h0l.55-.55c11.14,0,21.16.07,28.06.18h.38v.37c0,3.26-.14,5.85-.2,7.58A16.8,16.8,0,0,1,1779.62,425.07Z"/><path class="cls-11" d="M1758.45,252.81a25,25,0,0,1-.17-2.82c-.07-1.76-.15-4.27-.2-7.36l.37.37c-6.9.11-16.93.18-28.06.18l.55-.55h0v2.62q0,1.31,0,2.58c0,1.7,0,3.36,0,5l-.53-.53c8,0,14.93.14,19.93.25l5.91.15a16.54,16.54,0,0,1,2.23.13,10.58,10.58,0,0,1-2,.13l-5.79.15c-5,.1-12.07.22-20.3.25h-.53v-.53c0-1.6,0-3.26,0-5q0-1.28,0-2.58v-2.62h0l.55-.55c11.14,0,21.16.07,28.06.18h.38v.37c0,3.26-.14,5.85-.2,7.58A16.83,16.83,0,0,1,1758.45,252.81Z"/><polygon class="cls-14" points="1665.19 139.57 1737.5 155.89 1742.88 463.42 1780.78 463.42 1769.77 139.57 1665.19 139.57"/><g class="cls-15"><path class="cls-16" d="M1766.74,198.8a21.54,21.54,0,0,1-3.45.74l-9.47,1.61c-8,1.31-19.07,3-31.31,4.89l-4.77.72.32-.17-12.94,13.83-.11.12-.16,0-15.13,2.15-4.24.53a6.08,6.08,0,0,1-1.51.09,6.1,6.1,0,0,1,1.47-.37l4.2-.78,15.07-2.53-.27.14,12.82-13.94.13-.14.19,0,4.77-.72c12.23-1.85,23.32-3.46,31.35-4.57l9.52-1.26A21.61,21.61,0,0,1,1766.74,198.8Z"/></g><rect class="cls-5" x="1655.1" y="125.39" width="123.27" height="14.18"/></g></g></svg>