<svg xmlns="http://www.w3.org/2000/svg" viewBox="0 0 1099.96 466.94"><defs><style>.cls-1{opacity:0.03;}.cls-11,.cls-2,.cls-5{fill:#ff0;}.cls-13,.cls-3,.cls-4,.cls-6,.cls-9{fill:none;stroke-miterlimit:10;}.cls-3{stroke:#ff4f5b;}.cls-4{stroke:#b3b3b3;}.cls-5{opacity:0.2;}.cls-6{stroke:#ccc;}.cls-7{fill:#ff4f5b;}.cls-8{fill:#f2f2f2;}.cls-9{stroke:#fff;opacity:0.4;}.cls-10{fill:#ff005c;}.cls-11{opacity:0.12;}.cls-12{opacity:0.35;}.cls-13{stroke:red;}</style></defs><title>lighthouse_1</title><g id="Layer_2" data-name="Layer 2"><g id="Layer_2-2" data-name="Layer 2"><g class="cls-1"><path class="cls-2" d="M997.66,25,0,466.94H494.62l503-387.43Z"/></g><polygon class="cls-3" points="983.85 139.57 973.76 464.94 1099.44 463.42 1088.43 139.57 983.85 139.57"/><rect class="cls-4" x="973.76" y="125.39" width="123.27" height="14.18"/><polygon class="cls-5" points="997.26 27.38 998.09 25.51 1031.69 10.89 1039.78 10.89 1074 26.45 1073.95 27.38 997.26 27.38"/><polygon class="cls-3" points="998.09 125.39 998.09 25.51 1031.69 10.89 1039.78 10.89 1074 26.45 1074 125.39 998.09 125.39"/><rect class="cls-6" x="998.09" y="26.45" width="75.92" height="53.83"/><polyline class="cls-7" points="1031.69 10.89 1031.69 0 1039.16 0 1039.16 10.89 1032.93 10.89"/><path class="cls-8" d="M1083.55,125.39a5.16,5.16,0,0,1-.11-1.19l-.1-3.44-.17-12.8.37.37c-11.82.11-29,.18-48.08.18s-36.27-.07-48.09-.18l.37-.37c-.07,5.34-.13,9.66-.17,12.8l-.1,3.44a5.17,5.17,0,0,1-.11,1.19,5.16,5.16,0,0,1-.1-1.19l-.1-3.44c0-3.14-.1-7.46-.17-12.8v-.37h.38c11.82-.11,29-.18,48.09-.18s36.26.07,48.08.18h.38V108c-.07,5.34-.13,9.66-.17,12.8l-.1,3.44A5.18,5.18,0,0,1,1083.55,125.39Z"/><ellipse class="cls-8" cx="1056.16" cy="116.67" rx="0.55" ry="8.72"/><ellipse class="cls-8" cx="1020.64" cy="116.67" rx="0.55" ry="8.72"/><ellipse class="cls-8" cx="1019.97" cy="53.36" rx="0.55" ry="26.91"/><ellipse class="cls-8" cx="1049.8" cy="53.36" rx="0.55" ry="26.91"/><path class="cls-8" d="M1074,53.49a15.48,15.48,0,0,1-3,.24l-8.13.24c-6.87.15-16.36.28-26.84.33s-20,0-26.85-.14-11.15-.42-11.11-.67l38-.29h26.84l8.14.11A15.58,15.58,0,0,1,1074,53.49Z"/><polygon class="cls-9" points="976.59 372.64 1096.36 372.64 1098.88 447.02 974.28 446.51 976.59 372.64"/><path class="cls-10" d="M982.44,194.07c0-.14,2.49-.26,6.62-.36s9.89-.16,16.44-.19l-.54.54c0-1.49,0-3,0-4.64s0-3.14,0-4.64l.54.54c-6.55,0-12.32-.09-16.44-.19s-6.62-.22-6.62-.36,2.49-.26,6.62-.36,9.89-.16,16.44-.19h.54v.55c0,1.49,0,3.05,0,4.64s0,3.14,0,4.64v.55h-.54c-6.55,0-12.31-.09-16.44-.19S982.44,194.2,982.44,194.07Z"/><path class="cls-10" d="M977.08,351.67c0-.14,2.49-.26,6.62-.36s9.89-.16,16.44-.19l-.54.54c0-1.49,0-3,0-4.64s0-3.14,0-4.64l.54.54c-6.55,0-12.32-.09-16.44-.19s-6.62-.22-6.62-.36,2.49-.26,6.62-.36,9.89-.16,16.44-.19h.54v.55c0,1.49,0,3.05,0,4.64s0,3.14,0,4.64v.55h-.54c-6.55,0-12.31-.09-16.44-.19S977.08,351.81,977.08,351.67Z"/><path class="cls-10" d="M1020.64,204.24a25,25,0,0,1-.17-2.82c-.07-1.76-.15-4.27-.2-7.36l.37.37c-6.9.11-16.93.18-28.06.18l.55-.55h0v2.62q0,1.31,0,2.58c0,1.7,0,3.36,0,5l-.53-.53c8,0,14.93.14,19.93.25l5.91.15a16.5,16.5,0,0,1,2.23.13,10.6,10.6,0,0,1-2,.13l-5.79.15c-5,.1-12.07.22-20.3.25H992v-.53c0-1.6,0-3.26,0-5q0-1.28,0-2.58v-2.62h0l.55-.55c11.14,0,21.16.07,28.06.18h.38v.37c0,3.26-.14,5.85-.2,7.58A16.83,16.83,0,0,1,1020.64,204.24Z"/><path class="cls-10" d="M1049.45,322.67a25.1,25.1,0,0,1-.17-2.82c-.07-1.76-.15-4.27-.2-7.36l.37.37c-6.9.11-16.93.18-28.06.18l.55-.55h0v2.62q0,1.31,0,2.58c0,1.7,0,3.36,0,5l-.53-.53c8,0,14.93.14,19.93.25l5.91.15a16.47,16.47,0,0,1,2.23.13,10.63,10.63,0,0,1-2,.13l-5.79.15c-5,.1-12.07.22-20.3.25h-.53v-.53c0-1.6,0-3.26,0-5q0-1.28,0-2.58v-2.62h0l.55-.55c11.14,0,21.16.07,28.06.18h.38v.37c0,3.26-.14,5.85-.2,7.58A16.78,16.78,0,0,1,1049.45,322.67Z"/><path class="cls-10" d="M1012.87,361.85a25,25,0,0,1-.17-2.82c-.07-1.76-.15-4.27-.2-7.36l.37.37c-6.9.11-16.93.18-28.06.18l.55-.55h0v2.62q0,1.31,0,2.58c0,1.7,0,3.36,0,5l-.53-.53c8,0,14.93.14,19.93.25l5.91.15a16.5,16.5,0,0,1,2.23.13,10.59,10.59,0,0,1-2,.13l-5.79.15c-5,.1-12.07.22-20.3.25h-.53v-.53c0-1.6,0-3.26,0-5q0-1.28,0-2.58v-2.62h0l.55-.55c11.14,0,21.16.07,28.06.18h.38v.37c0,3.26-.14,5.85-.2,7.58A16.83,16.83,0,0,1,1012.87,361.85Z"/><path class="cls-10" d="M1080.59,414.42a25,25,0,0,1-.17-2.82c-.07-1.76-.15-4.27-.2-7.36l.37.37c-6.9.11-16.93.18-28.06.18l.55-.55h0v2.62q0,1.31,0,2.58c0,1.7,0,3.36,0,5l-.53-.53c8,0,14.93.14,19.93.25l5.91.15a16.54,16.54,0,0,1,2.23.13,10.58,10.58,0,0,1-2,.13l-5.79.15c-5,.1-12.07.22-20.3.25H1052v-.53c0-1.6,0-3.26,0-5q0-1.28,0-2.58v-2.62h0l.55-.55c11.14,0,21.16.07,28.06.18h.38v.37c0,3.26-.14,5.85-.2,7.58A16.81,16.81,0,0,1,1080.59,414.42Z"/><path class="cls-10" d="M1098.28,425.07a25,25,0,0,1-.17-2.82c-.07-1.76-.15-4.27-.2-7.36l.37.37c-6.9.11-16.93.18-28.06.18l.55-.55h0v2.62q0,1.31,0,2.58c0,1.7,0,3.36,0,5l-.53-.53c8,0,14.93.14,19.93.25l5.91.15a16.51,16.51,0,0,1,2.23.13,10.59,10.59,0,0,1-2,.13l-5.79.15c-5,.1-12.07.22-20.3.25h-.53v-.53c0-1.6,0-3.26,0-5q0-1.28,0-2.58v-2.62h0l.55-.55c11.14,0,21.16.07,28.06.18h.38v.37c0,3.26-.14,5.85-.2,7.58A16.8,16.8,0,0,1,1098.28,425.07Z"/><path class="cls-10" d="M1077.11,252.81a25,25,0,0,1-.17-2.82c-.07-1.76-.15-4.27-.2-7.36l.37.37c-6.9.11-16.93.18-28.06.18l.55-.55h0v2.62q0,1.31,0,2.58c0,1.7,0,3.36,0,5l-.53-.53c8,0,14.93.14,19.93.25l5.91.15a16.54,16.54,0,0,1,2.23.13,10.58,10.58,0,0,1-2,.13l-5.79.15c-5,.1-12.07.22-20.3.25h-.53v-.53c0-1.6,0-3.26,0-5q0-1.28,0-2.58v-2.62h0l.55-.55c11.14,0,21.16.07,28.06.18h.38v.37c0,3.26-.14,5.85-.2,7.58A16.83,16.83,0,0,1,1077.11,252.81Z"/><polygon class="cls-11" points="983.85 139.57 1056.16 155.89 1061.54 463.42 1099.44 463.42 1088.43 139.57 983.85 139.57"/><g class="cls-12"><path class="cls-13" d="M1085.4,198.8a21.54,21.54,0,0,1-3.45.74l-9.47,1.61c-8,1.31-19.07,3-31.31,4.89l-4.77.72.32-.17-12.94,13.83-.11.12-.16,0-15.13,2.15-4.24.53a6.08,6.08,0,0,1-1.51.09,6.1,6.1,0,0,1,1.47-.37l4.2-.78,15.07-2.53-.27.14,12.82-13.94.13-.14.19,0,4.77-.72c12.23-1.85,23.32-3.46,31.35-4.57l9.52-1.26A21.61,21.61,0,0,1,1085.4,198.8Z"/></g></g></g></svg>