<svg xmlns="http://www.w3.org/2000/svg" viewBox="0 0 398.03 361.38"><defs><style>.cls-1{opacity:0.66;}.cls-2{fill:#754c24;}.cls-13,.cls-3{fill:none;}.cls-3,.cls-4{stroke:lime;stroke-width:6px;}.cls-11,.cls-3,.cls-4,.cls-5,.cls-9{stroke-miterlimit:10;}.cls-4,.cls-5{fill:#fff;}.cls-5{stroke:#020000;stroke-width:5px;}.cls-6{fill:#e0b892;}.cls-7{fill:#1a1a1a;}.cls-8{fill:#070000;}.cls-12,.cls-9{fill:#cacaca;}.cls-9{stroke:#000;stroke-width:3px;}.cls-10{fill:#515151;}.cls-11{fill:#f90;stroke:#f90066;stroke-width:4px;}</style></defs><title>arjan_localize_logo_1</title><g id="Layer_2" data-name="Layer 2"><g id="Layer_2-2" data-name="Layer 2"><g class="cls-1"><path class="cls-2" d="M219,324.75c19.58,0,39.95,7.77,59.37,5.28,11.25-1.44,21.27-4.51,31-11,7.73-5.11,14.25-15.07,19.89-22.67,10.38-14,20.32-34.06,25.46-51.17,6.21-20.67-3.07-42.41-5.6-63.37-2.59-21.47,7.21-41.54,3.26-62.77a12.23,12.23,0,0,1,1.11-7.62c6.31-12.78,11.51-24.92,10.94-40C363.87,55.34,403,66.77,392.88,55c-1.36-1.58-45.5-19.25-47.5-18.69-14.68,4.06-15.89,10.8-23.83,19.89-3.49,4-8,8.92-12.47,11.84C303,72,301,68.08,294,66.21a361.63,361.63,0,0,0-75-11.69,361.63,361.63,0,0,0-75,11.69C137,68.08,135,72,129,68c-4.45-2.92-9-7.83-12.47-11.84C108.63,47.17,92,37.75,90,38.67-4,80.59,74.16,55.45,73.55,71.46,73,86.51,78.15,98.62,84.43,111.35a12.73,12.73,0,0,1,1.15,7.9c-3.88,21.18,5.88,41.2,3.29,62.62-2.53,21-11.81,42.7-5.6,63.37,5.14,17.11,15.08,37.19,25.46,51.17,5.63,7.59,12.15,17.56,19.89,22.67,9.76,6.45,19.78,9.51,31,11C179.08,332.52,199.44,324.75,219,324.75Z"/></g><path class="cls-3" d="M219,324.75c19.58,0,39.95,7.77,59.37,5.28,11.25-1.44,21.27-4.51,31-11,7.73-5.11,14.25-15.07,19.89-22.67,10.38-14,20.32-34.06,25.46-51.17,6.21-20.67-3.07-42.41-5.6-63.37-2.59-21.47,7.21-41.54,3.26-62.77a12.23,12.23,0,0,1,1.11-7.62c6.31-12.78,11.51-24.92,10.94-40C363.87,55.34,403,66.77,392.88,55c-1.36-1.58-45.5-19.25-47.5-18.69-14.68,4.06-15.89,10.8-23.83,19.89-3.49,4-8,8.92-12.47,11.84C303,72,301,68.08,294,66.21a361.63,361.63,0,0,0-75-11.69,361.63,361.63,0,0,0-75,11.69C137,68.08,135,72,129,68c-4.45-2.92-9-7.83-12.47-11.84C108.63,47.17,92,37.75,90,38.67-4,80.59,74.16,55.45,73.55,71.46,73,86.51,78.15,98.62,84.43,111.35a12.73,12.73,0,0,1,1.15,7.9c-3.88,21.18,5.88,41.2,3.29,62.62-2.53,21-11.81,42.7-5.6,63.37,5.14,17.11,15.08,37.19,25.46,51.17,5.63,7.59,12.15,17.56,19.89,22.67,9.76,6.45,19.78,9.51,31,11C179.08,332.52,199.44,324.75,219,324.75Z"/><path class="cls-4" d="M300.68,285.49c2-14.76,1-22.12-7.4-33.22-12.9-17-33.48-34.5-41.7-54.64-9.22-22.6,13.23-43.84,10.32-67.18-1.78-14.27-7.74-26.09-13.33-38.79-5.15-11.7-6.68-20.23-6.9-32.2-5.85-.38-11.67-1.59-17.4-1.86-5.73.28-11.55.57-17.4.95-.21,12-1.75,21.42-6.9,33.12-5.59,12.69-11.55,24.52-13.33,38.79C183.74,153.79,206.19,175,197,197.63c-8.22,20.14-28.81,37.67-41.7,54.64-8.44,11.1-9.36,18.46-7.4,33.22,1.76,13.24,5.76,26.4,10.28,38.75.74,2,1.51,4.88,2.5,7.51,2.45.56,4.95,1,7.52,1.36,18.36,2.49,37.6-5.28,56.1-5.28s37.75,7.77,56.1,5.28c2.57-.35,5.07-2.62,7.52-3.19,1-2.63,1.76-5.5,2.5-7.51C294.92,310.05,298.92,298.72,300.68,285.49Z"/><path class="cls-5" d="M121.48,166.51c19.92-18.69,38.38-13.95,51,10a2.1,2.1,0,0,1-.84,2.83c-15.63,8.35-35.25.12-49.76-9.05A2.41,2.41,0,0,1,121.48,166.51Z"/><path class="cls-6" d="M93.73,105.1c-3-13.88-15.11-38.77-1.38-36C93,69.27,108.8,81.65,115,89.19a1.81,1.81,0,0,1-.27,2.57L96.62,106.13A1.81,1.81,0,0,1,93.73,105.1Z"/><path class="cls-7" d="M239.53,252.2c-5-2.86-12-3.2-19.15-3h-.7c-7.12-.25-14.15.09-19.15,3-18.88,10.79-9.92,19.2,3.31,26.35,6.12,3.31,11,5.45,15.81,5.79a2.27,2.27,0,0,0,.75,0c4.77-.35,9.7-2.48,15.81-5.79C249.45,271.4,258.4,263,239.53,252.2Z"/><path class="cls-6" d="M346.79,105.1c3-13.88,3.68-22.15,1.38-36a1.81,1.81,0,0,0-3-1,255.8,255.8,0,0,0-19.65,21.06,1.81,1.81,0,0,0,.27,2.57l18.15,14.38A1.81,1.81,0,0,0,346.79,105.1Z"/><path class="cls-5" d="M326.47,169.26c-19.92-18.69-38.38-13.95-51,10a2.1,2.1,0,0,0,.84,2.83c15.63,8.35,35.25.12,49.76-9.05A2.41,2.41,0,0,0,326.47,169.26Z"/><circle class="cls-8" cx="147.46" cy="168.25" r="12.35"/><circle class="cls-8" cx="300.17" cy="170.99" r="12.35"/><rect class="cls-9" x="12.89" y="100.63" width="28.02" height="85.75" transform="translate(15.63 -2.06) rotate(6.19)"/><path class="cls-10" d="M68.32,77C74,71,77.17,63.48,82.89,58.21,104.7,38.12,132.52,23.7,169.22,19c54.79-7,104.58,6.09,148.71,35.67C349.07,75.59,368.32,101,378,129.45a12.89,12.89,0,0,0,3.37,4.68c3,2.85,4.56,5.83,4,9.07-1.15,6.56-2.33,13.12-3.75,19.63-1.28,5.85-8.47,9-16.65,7.5-8.36-1.52-14-6.76-13.22-12.81.93-6.81,2.34-13.55,3.83-20.26a6.39,6.39,0,0,1,2.93-4.35c3.25-1.66,2.63-3.7,1.69-6.17C345.87,89.4,316,62.34,266.44,44.14c-55.81-20.48-105.67-16.21-148.63,8.68-12.57,7.28-18,10-26.38,20-1.5,1.8-5.74,7.7-8.8,7C78.33,78.74,73.93,78.06,68.32,77Z"/><path class="cls-10" d="M67.86,190.89C85,251.26,121.11,299.36,185.56,319.24c2.33-8.88,8.82-10.41,16.73-10.54,12.76-.2,25.51-1,38.27-1.58,8.67-.37,13.43,3.85,13.88,12.26.19,3.53.4,7.06.44,10.59.09,6.93-4.47,11.85-11.75,12.24q-22.12,1.18-44.26,1.94c-6,.21-10.4-2.84-12-8.38-.71-2.49-2-3.47-4.42-4.19C112.33,310.86,72.53,263.67,54.77,197.27c-.07-.28-.82-5-.84-5.65C58.15,191.44,63.24,191.1,67.86,190.89Z"/><path class="cls-10" d="M22.23,98.91c-3.72,28.3-7.35,59.55-11,87.13-7.35.33-7.18-1.58-7.5-7.69A241.8,241.8,0,0,1,13,100.3C14.07,97.65,14.07,97.65,22.23,98.91Z"/><circle cx="204.73" cy="320.63" r="2.31" transform="translate(-52.57 40.42) rotate(-10)"/><circle cx="204.84" cy="331.89" r="2.31" transform="translate(-54.52 40.61) rotate(-10)"/><circle cx="212.4" cy="326.8" r="2.31" transform="translate(-53.52 41.85) rotate(-10)"/><circle cx="219.8" cy="320.79" r="2.31" transform="translate(-52.37 43.04) rotate(-10)"/><circle cx="219.91" cy="332.05" r="2.31" transform="translate(-54.32 43.23) rotate(-10)"/><circle cx="227.47" cy="326.96" r="2.31" transform="translate(-53.32 44.47) rotate(-10)"/><circle cx="234.87" cy="320.96" r="2.31" transform="translate(-52.17 45.66) rotate(-10)"/><circle cx="234.97" cy="332.22" r="2.31" transform="translate(-54.12 45.85) rotate(-10)"/><path class="cls-11" d="M25,138.44c1.67-12.7,3.29-25.4,5-38.09,2.07-15.24,14.78-25.2,30.79-23.82a219,219,0,0,1,22.84,3.11c14.94,2.89,24.51,16,22.62,30.45-3.15,15.54-8.57,17.34-9.47,76-.24,15.56-13.9,25.11-30.06,24.47a133.35,133.35,0,0,1-26-3.65c-14.22-3.45-22.56-16-20.83-30,1.6-12.85,3.36-25.69,5-38.53Zm19.86-23c-.58,4.38-1.23,8.74-1.7,13.13-.54,5,1.77,8.92,6.71,10.29a35.68,35.68,0,0,0,10.87,1.2,8.25,8.25,0,0,0,8.33-7.44q2.07-13.74,3.62-27.56c.54-4.84-2.81-9-7.82-10a58.29,58.29,0,0,0-7.31-1c-5.79-.49-10.09,2.74-11,8.28C46,106.71,45.48,111.1,44.91,115.48Z"/><path class="cls-12" d="M44.9,115.42c.57-4.38,1.06-8.76,1.75-13.12.87-5.54,5.18-8.77,11-8.28a58.29,58.29,0,0,1,7.31,1c5,1.07,8.37,5.2,7.82,10q-1.56,13.81-3.62,27.56A8.25,8.25,0,0,1,60.79,140a35.68,35.68,0,0,1-10.87-1.2c-4.95-1.38-7.25-5.32-6.71-10.29C43.68,124.17,44.33,119.8,44.9,115.42Z"/><rect class="cls-13" width="398.03" height="361.38"/></g></g></svg>