<svg xmlns="http://www.w3.org/2000/svg" viewBox="0 0 398.03 361.38"><defs><style>.cls-1,.cls-10{fill:#f90;}.cls-1{stroke:#f90066;stroke-width:3px;}.cls-1,.cls-10,.cls-4,.cls-5,.cls-6{stroke-miterlimit:10;}.cls-2,.cls-7{opacity:0.66;}.cls-3{fill:#754c24;}.cls-11,.cls-4{fill:none;}.cls-4,.cls-5{stroke:aqua;stroke-width:6px;}.cls-5,.cls-6{fill:#fff;}.cls-6{stroke:#020000;stroke-width:5px;}.cls-7{fill:#e0b892;}.cls-8{fill:#070000;}.cls-9{fill:#60f1fc;opacity:0.37;}.cls-10{stroke:#000;stroke-width:4px;}</style></defs><title>arjan_optimize_logo</title><g id="Layer_2" data-name="Layer 2"><g id="Layer_2-2" data-name="Layer 2"><rect class="cls-1" x="338.13" y="87.72" width="15.12" height="73.1" transform="translate(-21.41 137.87) rotate(-21.89)"/><rect class="cls-1" x="54.11" y="94.7" width="14.97" height="63.06" transform="translate(47.75 -13.54) rotate(20.35)"/><g class="cls-2"><path class="cls-3" d="M196.94,319.57c19.65,0,40.09,7.8,59.58,5.3,11.29-1.45,21.35-4.52,31.14-11,7.76-5.13,14.31-15.13,20-22.75,10.42-14,20.39-34.18,25.55-51.35,6.24-20.75-3.08-42.57-5.62-63.6-2.6-21.55,7.23-41.69,3.28-63a12.27,12.27,0,0,1,1.11-7.64c6.33-12.82,11.56-25,11-40.17-.61-16.18,38.65-4.71,28.49-16.53-1.36-1.59-45.67-19.31-47.67-18.76-14.73,4.08-16,10.83-23.91,20-3.5,4-8.05,9-12.52,11.88-6.1,4-8.1.05-15.12-1.82a362.93,362.93,0,0,0-75.25-11.73A362.93,362.93,0,0,0,121.68,60.1c-7,1.87-9,5.81-15.12,1.82C102.09,59,97.54,54.06,94,50,86.15,41,69.49,31.54,67.43,32.46-26.88,74.53,51.56,49.3,50.95,65.37c-.57,15.1,4.61,27.26,10.91,40A12.78,12.78,0,0,1,63,113.33c-3.89,21.26,5.9,41.35,3.3,62.85-2.54,21-11.85,42.85-5.62,63.6,5.16,17.17,15.13,37.32,25.55,51.35,5.65,7.62,12.2,17.62,20,22.75,9.79,6.47,19.85,9.54,31.14,11C156.85,327.37,177.29,319.57,196.94,319.57Z"/></g><path class="cls-4" d="M200.93,322.23c19.65,0,40.09,7.8,59.58,5.3,11.29-1.45,21.35-4.52,31.14-11,7.76-5.13,14.31-15.13,20-22.75,10.42-14,20.39-34.18,25.55-51.35,6.24-20.75-3.08-42.57-5.62-63.6-2.6-21.55,7.23-41.69,3.28-63a12.27,12.27,0,0,1,1.11-7.64c6.33-12.82,11.56-25,11-40.17-.61-16.18,38.65-4.71,28.49-16.53-1.36-1.59-45.67-19.31-47.67-18.76-14.73,4.08-16,10.83-23.91,20-3.5,4-8.05,9-12.52,11.88-6.1,4-8.1.05-15.12-1.82A362.93,362.93,0,0,0,200.93,51a362.93,362.93,0,0,0-75.25,11.73c-7,1.87-9,5.81-15.12,1.82-4.47-2.93-9-7.86-12.52-11.88-7.89-9.05-24.55-18.5-26.61-17.58C-22.88,77.19,55.55,52,54.94,68c-.57,15.1,4.61,27.26,10.91,40A12.78,12.78,0,0,1,67,116c-3.89,21.26,5.9,41.35,3.3,62.85-2.54,21-11.85,42.85-5.62,63.6,5.16,17.17,15.13,37.32,25.55,51.35,5.65,7.62,12.2,17.62,20,22.75,9.79,6.47,19.85,9.54,31.14,11C160.84,330,181.28,322.23,200.93,322.23Z"/><path class="cls-5" d="M283.19,282.41c2-14.82,1-22.2-7.43-33.34-12.94-17-33.6-34.62-41.85-54.83-9.26-22.68,13.27-44,10.36-67.42-1.78-14.32-7.77-26.19-13.37-38.92-5.17-11.74-6.71-20.31-6.92-32.32-5.88-.38-11.72-1.59-17.46-1.87-5.75.28-11.59.57-17.46,1-.21,12-1.76,21.5-6.92,33.24-5.61,12.74-11.59,24.61-13.37,38.92-2.92,23.42,19.62,44.74,10.36,67.42-8.25,20.21-28.91,37.81-41.85,54.83-8.47,11.14-9.39,18.52-7.43,33.34,1.76,13.28,5.78,26.49,10.32,38.89.74,2,1.52,4.9,2.51,7.54,2.46.57,5,1,7.55,1.36,18.42,2.5,37.74-5.3,56.31-5.3s37.88,7.8,56.31,5.3c2.58-.35,5.09-2.63,7.55-3.2,1-2.64,1.77-5.52,2.51-7.54C277.41,307.06,281.43,295.69,283.19,282.41Z"/><path class="cls-6" d="M103.34,163c20-18.76,38.52-14,51.14,10a2.11,2.11,0,0,1-.85,2.84c-15.69,8.38-35.37.12-49.94-9.09A2.42,2.42,0,0,1,103.34,163Z"/><path class="cls-7" d="M75.5,92C72.44,78,60.34,53.05,74.12,55.86c.7.14,16.5,12.57,22.77,20.13a1.82,1.82,0,0,1-.27,2.58L78.39,93A1.82,1.82,0,0,1,75.5,92Z"/><path class="cls-8" d="M221.82,249c-5-2.87-12.08-3.21-19.22-3h-.7c-7.14-.25-14.2.1-19.22,3-18.94,10.83-10,19.27,3.32,26.45,6.14,3.32,11.09,5.46,15.87,5.81a2.28,2.28,0,0,0,.75,0c4.78-.35,9.73-2.49,15.87-5.81C231.77,268.27,240.76,259.84,221.82,249Z"/><path class="cls-7" d="M329.47,92c3.05-13.93,3.69-22.23,1.38-36.1a1.81,1.81,0,0,0-3-1A256.72,256.72,0,0,0,308.08,76a1.82,1.82,0,0,0,.27,2.58L326.57,93A1.82,1.82,0,0,0,329.47,92Z"/><path class="cls-6" d="M309.07,165.76c-20-18.76-38.52-14-51.14,10a2.11,2.11,0,0,0,.85,2.84c15.69,8.38,35.37.12,49.94-9.09A2.42,2.42,0,0,0,309.07,165.76Z"/><circle class="cls-8" cx="129.42" cy="164.75" r="12.39"/><circle class="cls-8" cx="282.68" cy="167.5" r="12.39"/><g id="WlWi4P.tif"><path class="cls-1" d="M290.81,133.24a378.79,378.79,0,0,1,48.36,2.18c4.59.54,26.77.47,29.13,3.41,2,2.44-.33,12.66-1.52,15.22-2.18,4.7-7,6.27-9.17,10.63-2.28,4.67-1.85,11.42-2.55,16.48-1.76,12.83-3.94,25.7-12.23,36.14-16.28,20.49-48.87,22.65-72.57,17.26-26.84-6.1-40.68-25.32-50.35-49.73-3.71-9.37-7.6-23.95-21.32-17.32-10.23,4.94-13.89,31.87-20.6,42.18-16.45,25.28-47.69,30.82-76,27.51-25.67-3-40.71-18.95-46.15-43.6-1.56-7-.58-18.17-4-24.7-2.37-4.46-7.86-5.91-9.89-10.07-9.81-20,11.13-18.63,24.78-20.52,38.59-5.34,73.83-.88,111.87,7.15C216,153.35,253.42,138.55,290.81,133.24ZM116.56,143.35c-33.53,3.73-59.1,7.86-50.29,48.6,6.55,30.29,31.88,43.69,61.85,39.43,28.81-4.1,47.87-25.51,48.94-54.69C178.29,143.38,140.92,146.3,116.56,143.35Zm176.88-1.52c0-.32-36.69,5.65-41.65,7.16-15,4.56-21,12.09-20.13,28,1.68,30.64,26.94,53.28,57,53.68,28.88.38,49.31-13.58,54.44-42.37C350,149.23,326.55,144.88,293.44,141.83Zm-229,9.93M360,150.49c.84-6.84-15.48-7.22-16-1.46Z"/><path class="cls-9" d="M116.56,143.35c22.44,2.72,60.11-.2,60.69,30.7.56,30-19.84,53.16-49.13,57.33-28.54,4.06-53.82-7.86-61.19-36.72C56.19,152.55,81.48,147.25,116.56,143.35Z"/><path class="cls-9" d="M293.44,141.83c32.87,3,56.68,7.55,49.64,46.43-5.2,28.72-25.5,42.75-54.44,42.37-30-.4-55.29-23-57-53.68-.86-15.72,5.33-23.34,20.13-28C256.17,147.62,293.46,141.63,293.44,141.83Z"/><path class="cls-10" d="M64.43,151.76l-16,1.48-.28-2.56c5.06-3.1,10.47-3.46,16.15-1.6Z"/><path class="cls-10" d="M360,150.49,344,149l.22-2.41c5.57-2.49,10.91-1.44,16.16.87Z"/></g><rect class="cls-11" width="398.03" height="361.38"/></g></g></svg>