<svg xmlns="http://www.w3.org/2000/svg" viewBox="0 0 398.03 361.38"><defs><style>.cls-1{opacity:0.66;}.cls-2{fill:#754c24;}.cls-2,.cls-3{stroke:#f0f;stroke-width:6px;}.cls-2,.cls-3,.cls-4,.cls-8{stroke-miterlimit:10;}.cls-10,.cls-3,.cls-4{fill:#fff;}.cls-4{stroke:#020000;stroke-width:5px;}.cls-5{fill:#070000;}.cls-6{fill:#fff8a4;}.cls-7{fill:#f0f;}.cls-11,.cls-8{fill:#f90;}.cls-8{stroke:#f90066;stroke-width:4px;}.cls-9{fill:#b7b7b7;}.cls-12{fill:#60f1fc;opacity:0.25;}.cls-13{fill:none;}</style></defs><title>arjan_deploy_logo_1</title><g id="Layer_2" data-name="Layer 2"><g id="Layer_2-2" data-name="Layer 2"><g class="cls-1"><path class="cls-2" d="M197.48,314.53c17,0,34.72,6.76,51.61,4.59,9.78-1.26,18.49-3.92,27-9.52,6.72-4.44,12.39-13.1,17.29-19.7,9-12.15,17.66-29.61,22.13-44.48,5.4-18-2.67-36.87-4.86-55.09-2.25-18.67,6.26-36.11,2.84-54.57a10.63,10.63,0,0,1,1-6.62c5.49-11.11,10-21.66,9.51-34.79-.53-14,33.48-4.08,24.68-14.32-1.18-1.38-39.55-16.73-41.29-16.25-12.76,3.53-13.82,9.38-20.71,17.29-3,3.48-7,7.76-10.84,10.29-5.28,3.46-7,0-13.1-1.58a314.36,314.36,0,0,0-65.18-10.16,314.36,314.36,0,0,0-65.18,10.16c-6.08,1.62-7.82,5-13.1,1.58-3.87-2.54-7.81-6.81-10.84-10.29-6.84-7.84-21.26-16-23.05-15.23C3.61,102.28,71.55,80.42,71,94.35c-.5,13.08,4,23.61,9.45,34.68a11.07,11.07,0,0,1,1,6.87c-3.37,18.41,5.11,35.82,2.86,54.44-2.2,18.22-10.27,37.12-4.86,55.09,4.47,14.87,13.11,32.33,22.13,44.48,4.9,6.6,10.57,15.26,17.29,19.7,8.48,5.6,17.2,8.27,27,9.52C162.75,321.29,180.46,314.53,197.48,314.53Z"/></g><path class="cls-3" d="M264,279.33c1.7-12.83.9-19.23-6.43-28.88-11.21-14.75-29.11-30-36.25-47.5-8-19.64,11.5-38.11,9-58.4-1.54-12.4-6.73-22.68-11.58-33.72-4.48-10.17-5.81-17.59-6-28-5.09-.33-10.15-1.38-15.13-1.62-5,.24-10,.49-15.13.83-.19,10.41-1.52,18.62-6,28.79-4.86,11-10,21.32-11.58,33.72-2.53,20.29,17,38.75,9,58.4-7.15,17.51-25,32.75-36.25,47.5-7.33,9.65-8.13,16-6.43,28.88,1.53,11.51,5,22.95,8.94,33.68.64,1.75,1.32,4.24,2.17,6.53,2.13.49,4.3.88,6.54,1.18,16,2.17,32.69-4.59,48.77-4.59s32.81,6.76,48.77,4.59c2.23-.3,4.41-2.28,6.54-2.77.86-2.29,1.53-4.78,2.17-6.53C259,300.69,262.44,290.84,264,279.33Z"/><path class="cls-4" d="M112.06,175.1c17.31-16.25,33.36-12.13,44.3,8.7a1.82,1.82,0,0,1-.73,2.46c-13.59,7.26-30.64.11-43.25-7.87A2.09,2.09,0,0,1,112.06,175.1Z"/><path class="cls-5" d="M214.69,249.59c-4.35-2.49-10.46-2.78-16.64-2.57h-.61c-6.19-.22-12.3.08-16.64,2.57-16.41,9.38-8.62,16.69,2.88,22.91,5.32,2.88,9.6,4.73,13.75,5a2,2,0,0,0,.65,0c4.14-.3,8.43-2.16,13.75-5C223.31,266.28,231.1,259,214.69,249.59Z"/><path class="cls-4" d="M290.26,177.48c-17.31-16.25-33.36-12.13-44.3,8.7a1.82,1.82,0,0,0,.73,2.46c13.59,7.26,30.64.11,43.25-7.87A2.09,2.09,0,0,0,290.26,177.48Z"/><circle class="cls-5" cx="134.65" cy="176.61" r="10.73"/><circle class="cls-5" cx="267.4" cy="178.99" r="10.73"/><g id="xWrKPt.tif"><path class="cls-6" d="M30.65,137.24A15.7,15.7,0,0,0,41.39,122.9c.07-6-3.93-11.44-10.09-13.62-4.57-1.62-8.26-1.36-12.13,1.3a17.33,17.33,0,0,0-7.31,13.7c-.06,1.57-.09,3.13-.1,4.69C17.75,137,23.87,139.46,30.65,137.24Zm-7-23.55c-3.55,6.61-3.44,13,1.21,19.23-4.94,0-8.78-3.87-9.16-9A9.42,9.42,0,0,1,23.69,113.69Z"/><path class="cls-6" d="M367.67,109.25c-6.61,1.9-11.16,7.57-11.11,13.85a15.73,15.73,0,0,0,11.13,14.53c6.44,1.94,12.59-.6,17.35-7.09a31.32,31.32,0,0,0,1.06-12.07C380.49,109.93,374.83,107.2,367.67,109.25Zm14.54,15.5c-.69,5.1-4.67,8.73-9.31,8.52,4.69-7,4.95-9.66,1.87-19.19A9.39,9.39,0,0,1,382.21,124.75Z"/><path class="cls-7" d="M387.9,72.79a8.88,8.88,0,0,0-3.12-3.21,65.77,65.77,0,0,0-26.3-8.93c-6.75-.73-13.63-.37-20.45-.34a2.56,2.56,0,0,1-2.64-1.44c-8.68-14.34-19.94-20-34-29.18C282.34,17.23,261.2,10.37,238.94,6.87,226.81,5,214.53,4.09,202.32,2.75c-.63-.07-1.24-.25-1.86-.38H190.33c-3.92.3-7.83.61-11.75.9-17.11,1.24-33.74,3.89-49.77,10A135.43,135.43,0,0,0,72.07,53.7a135.29,135.29,0,0,0-8.19,11.36C63,66.45,62,60.5,60.52,60.34c-14.26-1.48-28.09.17-41.25,6.11A68.91,68.91,0,0,0,12.68,70a6,6,0,0,0-2.83,4.22C9.4,76.19,8,78,7,79.88v54.66c1.35,2.06,2.47,4.33,4.11,6.12,2,2.22,4.9,2.92,7.93,2.87,7.31-.11,14.62-.19,21.94-.27a6,6,0,0,1,1,.22l-.55,11c-2.42,0-4.65.14-6.85,0-2.94-.24-4.3,1.14-5.19,3.83a77.82,77.82,0,0,0-3.9,27.62,126.31,126.31,0,0,0,5.5,32.8c.75,2.43,1.94,3.46,4.51,3.15a51.81,51.81,0,0,1,5.86,0c.29,3,.42,6.14.92,9.19,1.66,10,3,20.09,5.38,29.92,1.68,6.89,4.4,13.53,6,20.5,2,8.34,6.66,15.5,11.1,22.69,2.7,4.39,5.69,8.59,8.45,12.94a9,9,0,0,1,1.35,3.49c.74,5.51,1.41,11,1.93,16.56a4.67,4.67,0,0,0,3.3,4.43c13.13,5.27,26.2,10.68,39.28,16.07.94.39,1.82.94,2.72,1.41h1.93c5.27-1.6,10.52-3.26,15.82-4.8,9.87-2.86,19.93-3,30.11-2.28,16.77,1.18,33.55,1.69,50.33-.12a155.73,155.73,0,0,0,41.84-11c12.72-5.16,25.27-10.81,37.6-16.84,17.13-8.38,30-21.68,40.63-37.28,1.06-1.55,2-2.19,3.9-1.82,2.9.57,5.86.84,8.77,1.35,2.51.44,5.2-.34,6.24-2.62a34.84,34.84,0,0,0,3.14-9.28A94.89,94.89,0,0,0,363,259c-.08-3.47-1.48-4.38-4.87-4.74-2.08-.22-4.16-.4-6.24-.61a3.06,3.06,0,0,1-.63-.27l3.86-31.54c2.89,0,5.76-.06,8.62,0,1.67,0,2.75-.48,3.26-2.17,5.67-18.71,8.21-37.6,3.3-56.91-.49-1.95-1.29-3.81-1.85-5.74a3.22,3.22,0,0,0-3.59-2.52c-2.15,0-4.31,0-6.73,0l-.59-10.91h6.82c4.1,0,8.21-.21,12.3.07,7.11.48,11.93-2.38,14.4-9.12V79.88C390,77.5,389.16,75,387.9,72.79ZM377,71.14c-5.48,0-11-.05-16.45,0a14.62,14.62,0,0,0-4.71.74,11.37,11.37,0,0,0-7.38,10.61,21.77,21.77,0,0,1-.32,4.29c-1.44-3.61-2.83-7.24-4.33-10.83s-3.12-7.21-4.82-11.13C352.31,63.49,365,65.23,377,71.14ZM306.16,39.58a105,105,0,0,1,24.28,25.66A125.54,125.54,0,0,1,344.2,93.64c0,.08,0,.16.06.23,4.64,11.18,4.59,22.95,4.18,34.73-.16,4.58.23,8.88,4,12.15a2,2,0,0,1,.5,1.29c.23,3.85.41,7.71.62,11.77H345.4c-.38-6-.58-12.06-1.18-18.05-.76-7.69-1.45-15.42-2.87-23-1.86-10-12.28-14.57-21.34-9.79a125.31,125.31,0,0,0-34-20.68c-1.52-.64-1.19-1.66-1-2.76a95.54,95.54,0,0,0-.1-29.15c-1.31-7.85-3.31-15.59-5-23.37-.17-.77-.38-1.52-.68-2.67A126.64,126.64,0,0,1,306.16,39.58ZM58.23,215.44c2.33-5.63,4.09-11.31,3.85-17.7-.37-10.14.12-20.31.35-30.46.05-2.36-.67-3.75-3.45-3.72l.42-3.05c4.76-.44,5.73-1.39,5.94-6.44a133.32,133.32,0,0,1,6.2-36.32,32.89,32.89,0,0,1,11.53-16.43C98,89.78,114.77,82.38,132.78,77.52c24.44-6.6,49.39-8.39,74.58-7.57,21.71.71,43.08,3.62,63.81,10.39,15.31,5,29.63,11.9,42.55,21.7,7.41,5.62,12.42,12.43,14.74,21.59A147,147,0,0,1,333,153.42c0,.72.07,1.45.12,2.17.39,5.21,1.74,6.35,6.75,5.71l.54.76a15,15,0,0,0-2.45,1.66c-.77.77-1.88,1.77-1.87,2.66.08,13.3.32,26.6.55,39.9a3.47,3.47,0,0,0,.48,1.83,15,15,0,0,1,2.77,11.27c-2,12.15-3.44,24.46-6.4,36.38-2.41,9.7-6.6,19-10.2,28.36-.63,1.65-2.14,3-3.39,4.35-12.22,13.28-26.86,23.22-43.06,30.92-20.44,9.72-42.07,14.95-64.55,16.66-25.84,2-51.42.25-76.52-6.57C117,324.37,99.7,316.33,85.29,302.9a137.23,137.23,0,0,1-11.12-12.36c-5.58-6.65-7.45-14.76-9.05-23.09-2.93-15.19-6.33-30.28-7.75-45.72A12.61,12.61,0,0,1,58.23,215.44Zm-1.56-64c1-12.5,2.2-25,3.32-37.49a9.43,9.43,0,0,1,.21-1.19c1.61-7.26,5.67-10,13.6-8.78-8.47,16.64-11.64,34.46-12,53.06C56.85,155.93,56.34,155.51,56.67,151.39Zm268.19-46.23c8.08-1.22,12.34,1.6,13.48,9.53,1.3,9.07,2,18.22,2.94,27.35.33,3.36.41,6.75.54,10.13.18,4.55.15,4.55-4.75,6.14a39.08,39.08,0,0,1-.57-4.06c-.5-13.69-2.69-27.05-7.72-39.85C327.59,111.34,326.23,108.36,324.86,105.16ZM343.4,221.41h7.16l-4.12,31.7-8.12-.6Zm1.32-5.55-1.55-5.55c3.05-.19,3.23-2.32,3.47-4.57a140.36,140.36,0,0,0-.54-36.17c-.25-1.66-1.45-3.22-1.55-4.86-.11-1.86.53-3.77.95-6.29C350.89,167.47,350.31,205.14,344.72,215.86ZM274.36,22.53a2.16,2.16,0,0,1,.93,1.3c5.52,17.84,9,35.93,6.33,54.73-.07.47-.18.94-.33,1.76-2.89-1.34-5.68-2.54-8.34-4-.51-.27-.75-1.48-.72-2.24q.42-12.2,1-24.39A66.39,66.39,0,0,0,268.58,23c-.3-.81-.57-1.63-1.06-3C270.09,20.94,272.26,21.67,274.36,22.53ZM128.7,20.47A182,182,0,0,1,176,9.69c28.93-2.59,57.25.87,85.17,8.4a4.62,4.62,0,0,1,2.63,2.35c4.12,9.41,6.53,19.18,6,29.56-.4,7.81-.66,15.62-1,23.43,0,.71-.16,1.43-.26,2.21C219.43,62.94,170.66,62.84,121.73,77c-.09-.68-.24-1.45-.27-2.21-.34-8.7-.69-17.39-1-26.09-.29-9.13,2.09-17.71,5.6-26A4.79,4.79,0,0,1,128.7,20.47Zm-13.52,6c2-1,4.15-1.94,6.86-3.17-2.86,8-5,15.35-4.93,23.09,0,7.32.39,14.64.64,22,.09,2.73.33,5.47.36,8.2a2.36,2.36,0,0,1-1,1.84c-2.54,1.15-5.17,2.11-8.23,3.32-.34-3.13-.74-5.95-.93-8.78-1-15.4,1.84-30.29,6.14-45A2.6,2.6,0,0,1,115.19,26.47ZM68.06,66.81a120,120,0,0,1,39.52-36.2c.67-.39,1.39-.7,2.39-1.2-1.13,5-2.25,9.71-3.23,14.41a107.19,107.19,0,0,0-1.2,38c.18,1.17.16,1.88-1.09,2.47a115.9,115.9,0,0,0-25.63,16.19,3.3,3.3,0,0,1-2.13.4c-2.32-.14-4.64-.63-6.94-.56-6.82.22-11.21,3.56-12.43,10.26-1.38,7.59-2.23,15.3-3,23-.61,6.17-.75,12.39-1.11,18.58,0,.55-.15,1.09-.24,1.74H46.16a14.27,14.27,0,0,1-.08-2c1.31-13.79,1.95-27.69,4.13-41.34A106.85,106.85,0,0,1,68.06,66.81ZM51.88,207c.24,2,1,3.2,3.46,3l-1.4,5.24-.92-.09A112.1,112.1,0,0,1,52.4,159c.82,2.2,3.28,4.23.59,6.73-.44.41-.46,1.35-.57,2.05A144.52,144.52,0,0,0,51.88,207Zm8-142.17L49.55,89c0-2.41,0-4.43,0-6.46A11.4,11.4,0,0,0,38.05,71.08c-2.81,0-5.63,0-8.44,0s-5.62,0-8.46-.24C33.49,65,46.47,63.41,59.86,64.88Zm-21.17,74c-2.73.08-5.47,0-8.2,0-3.78,0-7.56,0-11.34,0-5.39,0-7.62-2.23-7.66-7.62,0-.8,0-1.6,0-3l.28.37a102.47,102.47,0,0,1,.6-11.42l-.78,1c0-.91-.1-1.6-.1-2.29q0-16.2,0-32.4c0-5.82,2.2-8,8.05-8,6,0,12.06,0,18.09,0C42.67,75.6,45,78,45,83c0,9.19.29,18.39-.05,27.56-.25,6.74-1.32,13.46-2,20.19-.15,1.44-.24,2.89-.34,4.34C42.42,138.18,41.85,138.8,38.69,138.89Zm-2.31,78.29A2,2,0,0,1,35,216c-5-17.93-7.27-36-2-54.29.55-1.9,1.36-2.81,3.46-2.73,3.67.15,7.34,0,10.85,0A119.82,119.82,0,0,0,49,217.24C44.81,217.24,40.6,217.28,36.38,217.18Zm9.79,4.39c1.32-.08,2.58-.19,3.84-.23s2.39,0,3.3,0l8.9,50.47H58.32A123.75,123.75,0,0,1,46.17,221.57ZM80.69,332.88l-1.51-12.57,6.5,4.21-4.46,8.39Zm40.46,20.62L82.57,337.67,88.75,326,126.52,342Zm3.89-.25c1.52-3.25,2.86-6.22,4.31-9.14a1.56,1.56,0,0,1,1.34-.6c5.72,1.21,11.42,2.49,17.76,3.9Zm197.32-51.92c-10.15,11.09-23,18.19-36.45,24.43-18,8.39-36.41,15.92-56,19.91-15.24,3.1-30.69,3-46.14,2.48-3.86-.14-7.71-.52-11.56-.57-14.32-.18-28-4.3-41.56-7.93-9.77-2.61-18.88-7.69-28.32-11.57-8.11-3.34-16.24-6.61-23.31-12a8.83,8.83,0,0,1-2.27-2.1c-5.07-8.13-10.32-16.16-15-24.51-2.35-4.22-3.61-9-5.57-14.15,2.51,0,4.25-.07,6,0a1.76,1.76,0,0,1,1.29,1c2.56,10.73,9.3,18.84,16.75,26.37,14,14.14,31.2,22.83,50,28.58,24.81,7.6,50.28,9.76,76.08,8.52,22.92-1.1,45.11-5.71,66.26-14.8,18.52-8,35.13-18.78,49.2-33.4a32.33,32.33,0,0,0,7.21-12.37c1.09-3.19,2.41-6.3,3.82-10,.93,5.47-1.07,10.93,3.3,16C331.75,290.38,327.23,296,322.36,301.33Zm35.87-35.75.6.07-1,8.33h-.69Zm-3.47-7.06L352,281.06c-4-.38-8.57-.78-13.16-1.33-.42-.05-1-1-1.06-1.53-.6-6.56-.4-13.06,2.2-19.24a2.9,2.9,0,0,1,2.18-1.5C346.47,257.69,350.78,258.16,354.76,258.52Zm8.77-99.36c.53,0,1.24,1.1,1.48,1.83a70.71,70.71,0,0,1,3.28,26.2A129.71,129.71,0,0,1,364,214.31c-.59,2.2-1.42,3.15-3.88,2.94-3.49-.29-7-.07-10.56-.07a119.82,119.82,0,0,0,1.65-58.11C355.13,159.07,359.34,159,363.54,159.16ZM378.72,139c-6.19,0-12.37,0-18.56,0-4.76,0-7.16-2.39-7.17-7.12q0-24.53,0-49.06c0-4.62,2.39-7.08,7-7.12q9.88-.09,19.77,0c4.07.05,6.69,2.23,6.74,6.06.15,12.23.06,24.46.06,37.3l-.39-.59A31.32,31.32,0,0,1,385,130.54c.38-.52.75-1,1.11-1.61C387.92,135,385,139,378.72,139Z"/><path class="cls-8" d="M268.57,75.64C219.43,62.94,170.66,62.84,121.73,77c-.09-.68-.24-1.45-.27-2.21-.33-8.7-.69-17.39-1-26.09-.29-9.13,2.09-17.71,5.6-26a4.79,4.79,0,0,1,2.6-2.18A182,182,0,0,1,176,9.69c28.93-2.59,57.25.87,85.17,8.4a4.62,4.62,0,0,1,2.63,2.35c4.12,9.41,6.53,19.18,6,29.56-.4,7.81-.66,15.62-1,23.43C268.79,74.15,268.66,74.86,268.57,75.64Z"/><path class="cls-9" d="M340.45,162.06a15,15,0,0,0-2.45,1.66c-.77.77-1.88,1.77-1.87,2.66.08,13.3.32,26.6.55,39.9a3.47,3.47,0,0,0,.48,1.83,15,15,0,0,1,2.77,11.27c-2,12.15-3.44,24.46-6.4,36.38-2.41,9.7-6.6,19-10.2,28.36-.63,1.65-2.14,3-3.39,4.35-12.22,13.28-26.86,23.22-43.06,30.92-20.44,9.72-42.07,14.95-64.55,16.66-25.84,2-51.42.25-76.52-6.57C117,324.37,99.7,316.33,85.29,302.9a137.23,137.23,0,0,1-11.12-12.36c-5.58-6.65-7.45-14.76-9.05-23.09-2.93-15.19-6.33-30.28-7.75-45.72a12.61,12.61,0,0,1,.87-6.28c2.33-5.63,4.09-11.31,3.85-17.7-.37-10.14.12-20.31.35-30.46.05-2.36-.67-3.75-3.45-3.72l.42-3.05c4.76-.44,5.73-1.39,5.94-6.44a133.32,133.32,0,0,1,6.2-36.33,32.89,32.89,0,0,1,11.53-16.43C98,89.78,114.77,82.38,132.78,77.52c24.44-6.6,49.39-8.39,74.58-7.57,21.71.71,43.08,3.62,63.81,10.39,15.31,5,29.63,11.9,42.55,21.7,7.41,5.62,12.42,12.43,14.74,21.59A147,147,0,0,1,333,153.42c0,.72.07,1.45.12,2.17.39,5.21,1.74,6.35,6.75,5.71Zm-6.14,32.51a181.09,181.09,0,0,0-12.45-73.86,28.85,28.85,0,0,0-14.16-15.76C288,94.39,266.93,88,245,84.2a297.25,297.25,0,0,0-62.24-3.7c-17.7.68-35.27,2.5-52.53,6.68-13.5,3.27-26.51,7.8-38.33,15.32-8.49,5.41-15.07,12.1-17.15,22.52-2.17,10.89-5.13,21.63-7.18,32.54a214,214,0,0,0-3.51,52,453,453,0,0,0,6.21,50.84,91.92,91.92,0,0,0,3.5,15.25c2.32,6.5,6.56,12,11.25,17,13.86,14.94,31.43,23.48,50.63,29,19.61,5.67,39.75,7.54,60.07,7.74,24.36.24,48.07-3.22,70.69-12.69,19.83-8.3,37.09-20.24,50.86-36.91,2.8-3.38,6.16-7,7.21-11a269.85,269.85,0,0,0,7-34.52C333.17,221.17,333.44,207.83,334.31,194.57Z"/><path class="cls-10" d="M279.14,24.32a126.64,126.64,0,0,1,27,15.26,105,105,0,0,1,24.28,25.66A125.55,125.55,0,0,1,344.2,93.64c0,.08,0,.16.06.23,4.64,11.18,4.59,22.95,4.18,34.73-.16,4.58.23,8.88,4,12.15a2,2,0,0,1,.5,1.29c.23,3.85.41,7.71.62,11.77H345.4c-.38-6-.58-12.06-1.18-18.05-.76-7.69-1.45-15.42-2.87-23-1.86-10-12.28-14.57-21.34-9.79a125.32,125.32,0,0,0-34-20.68c-1.52-.64-1.19-1.66-1-2.76a95.54,95.54,0,0,0-.1-29.15c-1.31-7.85-3.31-15.59-5-23.37C279.65,26.23,279.44,25.48,279.14,24.32Z"/><path class="cls-10" d="M332.74,269.35c.93,5.47-1.07,10.93,3.3,16-4.29,5-8.81,10.68-13.68,16-10.15,11.09-23,18.19-36.45,24.43-18,8.39-36.41,15.92-56,19.91-15.24,3.1-30.69,3-46.14,2.48-3.86-.14-7.71-.52-11.56-.57-14.32-.18-28-4.3-41.56-7.93-9.77-2.61-18.88-7.69-28.32-11.57-8.11-3.34-16.24-6.61-23.31-12a8.83,8.83,0,0,1-2.27-2.1c-5.07-8.13-10.32-16.16-15-24.51-2.35-4.22-3.61-9-5.57-14.15,2.51,0,4.25-.07,6,0a1.76,1.76,0,0,1,1.29,1c2.56,10.73,9.3,18.84,16.75,26.37,14,14.14,31.2,22.83,50,28.58,24.81,7.6,50.28,9.76,76.08,8.52,22.92-1.1,45.11-5.71,66.26-14.8,18.52-8,35.13-18.78,49.2-33.4a32.33,32.33,0,0,0,7.21-12.37C330,276.12,331.33,273,332.74,269.35Z"/><path class="cls-10" d="M53,153.86H46.16a14.26,14.26,0,0,1-.08-2c1.31-13.79,1.95-27.69,4.13-41.34A106.85,106.85,0,0,1,68.06,66.81a120,120,0,0,1,39.52-36.2c.67-.39,1.39-.7,2.39-1.2-1.13,5-2.25,9.71-3.23,14.41a107.19,107.19,0,0,0-1.2,38c.18,1.17.16,1.88-1.09,2.47a115.9,115.9,0,0,0-25.63,16.19,3.3,3.3,0,0,1-2.13.4c-2.32-.14-4.64-.63-6.94-.56-6.82.22-11.21,3.56-12.43,10.26-1.38,7.59-2.23,15.3-3,23-.61,6.17-.75,12.39-1.11,18.58C53.18,152.67,53.07,153.21,53,153.86Z"/><path class="cls-10" d="M47.31,159A119.82,119.82,0,0,0,49,217.24c-4.2,0-8.42,0-12.64-.06A2,2,0,0,1,35,216c-5-17.93-7.27-36-2-54.29.55-1.9,1.36-2.81,3.46-2.73C40.13,159.1,43.81,159,47.31,159Z"/><path class="cls-10" d="M349.54,217.18a119.82,119.82,0,0,0,1.65-58.11c3.94,0,8.15-.07,12.35.08.53,0,1.24,1.1,1.48,1.83a70.71,70.71,0,0,1,3.28,26.2A129.7,129.7,0,0,1,364,214.31c-.59,2.2-1.42,3.15-3.88,2.94C356.61,217,353.08,217.18,349.54,217.18Z"/><path class="cls-9" d="M386.5,119.06c-5.75-9-11.5-11.91-18.83-9.81-6.61,1.9-11.16,7.57-11.11,13.85a15.73,15.73,0,0,0,11.13,14.53c6.95,2.1,13.57-1,18.47-8.71C387.92,135,385,139,378.72,139s-12.37,0-18.56,0c-4.76,0-7.16-2.39-7.17-7.12q0-24.53,0-49.06c0-4.62,2.39-7.08,7-7.12q9.88-.09,19.77,0c4.07.05,6.69,2.23,6.74,6.06C386.59,94,386.5,106.22,386.5,119.06Zm-.68-26.18c.12-8.14-6.72-15.31-14.75-15.46-8.33-.15-15.54,6.39-15.64,14.18A15.61,15.61,0,0,0,370.35,107C378.55,107.08,385.69,100.57,385.81,92.88Z"/><path class="cls-9" d="M11.49,128.36c6.08,8.36,12.27,11.13,19.16,8.88A15.7,15.7,0,0,0,41.39,122.9c.07-6-3.93-11.44-10.09-13.62-7.38-2.62-12.46-.33-19.71,9,0-.91-.1-1.6-.1-2.29q0-16.2,0-32.4c0-5.82,2.2-8,8.05-8,6,0,12.06,0,18.09,0C42.67,75.6,45,78,45,83c0,9.19.29,18.39-.05,27.56-.25,6.74-1.32,13.46-2,20.19-.15,1.44-.24,2.89-.34,4.34-.22,3.11-.8,3.73-4,3.83-2.73.08-5.47,0-8.2,0-3.78,0-7.56,0-11.34,0-5.39,0-7.62-2.23-7.66-7.62C11.48,130.53,11.49,129.73,11.49,128.36Zm15.93-21.71A15.55,15.55,0,0,0,42.56,91.54c0-7.67-7-14.38-15.18-14.45S12.16,84.16,12.18,92.37C12.19,100.12,19.17,106.66,27.42,106.65Z"/><path class="cls-10" d="M82.57,337.67,88.75,326,126.52,342l-5.38,11.54Z"/><path class="cls-9" d="M281.29,80.32c-2.89-1.34-5.68-2.54-8.34-4-.51-.27-.75-1.48-.72-2.24q.42-12.2,1-24.39A66.39,66.39,0,0,0,268.58,23c-.3-.81-.57-1.63-1.06-3,2.57.93,4.74,1.66,6.84,2.52a2.16,2.16,0,0,1,.93,1.3c5.52,17.84,9,35.93,6.33,54.73C281.56,79,281.45,79.49,281.29,80.32Z"/><path class="cls-9" d="M122,23.3c-2.86,8-5,15.35-4.93,23.09,0,7.32.39,14.64.64,22,.09,2.73.33,5.47.36,8.2a2.36,2.36,0,0,1-1,1.84c-2.54,1.15-5.17,2.11-8.23,3.32-.34-3.13-.74-5.95-.93-8.78-1-15.4,1.84-30.29,6.14-45a2.6,2.6,0,0,1,1.05-1.5C117.22,25.43,119.33,24.53,122,23.3Z"/><path class="cls-10" d="M61.85,157c-5-1.06-5.51-1.48-5.18-5.6,1-12.5,2.2-25,3.32-37.49a9.43,9.43,0,0,1,.21-1.19c1.61-7.26,5.67-10,13.6-8.78C65.34,120.57,62.17,138.39,61.85,157Z"/><path class="cls-10" d="M62.2,271.8H58.32a123.75,123.75,0,0,1-12.15-50.23c1.32-.08,2.58-.19,3.84-.23s2.39,0,3.3,0Z"/><path class="cls-10" d="M324.86,105.16c8.08-1.22,12.34,1.6,13.48,9.53,1.3,9.07,2,18.22,2.94,27.35.33,3.36.41,6.75.54,10.13.18,4.55.15,4.55-4.75,6.14a39.09,39.09,0,0,1-.57-4.06c-.5-13.69-2.69-27.05-7.72-39.85C327.59,111.34,326.23,108.36,324.86,105.16Z"/><path class="cls-10" d="M354.76,258.52,352,281.06c-4-.38-8.57-.78-13.16-1.33-.42-.05-1-1-1.06-1.53-.6-6.56-.4-13.06,2.2-19.24a2.9,2.9,0,0,1,2.18-1.5C346.47,257.69,350.78,258.16,354.76,258.52Z"/><path class="cls-10" d="M59.86,64.88,49.55,89c0-2.41,0-4.43,0-6.46A11.4,11.4,0,0,0,38.05,71.08c-2.81,0-5.63,0-8.44,0s-5.62,0-8.46-.24C33.49,65,46.47,63.41,59.86,64.88Z"/><path class="cls-10" d="M339,64.85c13.29-1.37,25.94.38,38,6.29-5.48,0-11-.05-16.45,0a14.62,14.62,0,0,0-4.71.74,11.37,11.37,0,0,0-7.38,10.61,21.76,21.76,0,0,1-.32,4.29c-1.44-3.61-2.83-7.24-4.33-10.83S340.72,68.77,339,64.85Z"/><path class="cls-10" d="M350.56,221.41l-4.12,31.7-8.12-.6,5.09-31.1Z"/><path class="cls-10" d="M344.72,215.86l-1.55-5.55c3.05-.19,3.23-2.32,3.47-4.57a140.36,140.36,0,0,0-.54-36.17c-.25-1.66-1.45-3.22-1.55-4.86-.11-1.86.53-3.77.95-6.29C350.89,167.47,350.31,205.14,344.72,215.86Z"/><path class="cls-10" d="M148.45,347.41,125,353.25c1.52-3.25,2.86-6.22,4.31-9.14a1.56,1.56,0,0,1,1.34-.6C136.41,344.73,142.11,346,148.45,347.41Z"/><path class="cls-10" d="M52.4,159c.82,2.2,3.28,4.23.59,6.73-.44.41-.46,1.35-.57,2.05A144.52,144.52,0,0,0,51.88,207c.24,2,1,3.2,3.46,3l-1.4,5.24-.92-.09A112.1,112.1,0,0,1,52.4,159Z"/><path class="cls-11" d="M24.89,132.93c-4.94,0-8.78-3.87-9.16-9a9.42,9.42,0,0,1,8-10.27C20.14,120.3,20.25,126.64,24.89,132.93Z"/><path class="cls-11" d="M372.9,133.27c4.69-7,4.95-9.66,1.87-19.19a9.39,9.39,0,0,1,7.44,10.67C381.51,129.85,377.54,133.49,372.9,133.27Z"/><path class="cls-10" d="M79.18,320.31l6.5,4.21-4.46,8.39-.54,0Z"/><path class="cls-10" d="M357.13,274l1.1-8.4.6.07-1,8.33Z"/><path class="cls-6" d="M385.81,92.88c-.12,7.69-7.26,14.2-15.46,14.08a15.61,15.61,0,0,1-14.92-15.35c.09-7.79,7.31-14.34,15.64-14.18C379.1,77.57,385.94,84.74,385.81,92.88ZM373.31,102c5.41-1.59,8.44-6,7.83-10.89a9.39,9.39,0,0,0-8.75-8.5C376.9,88.77,377.14,95.13,373.31,102Z"/><path class="cls-6" d="M27.42,106.65c-8.25,0-15.22-6.53-15.24-14.28,0-8.21,7.1-15.36,15.21-15.28s15.22,6.79,15.18,14.45A15.55,15.55,0,0,1,27.42,106.65ZM26.18,82c-6.09,1.11-9.66,5.18-9.38,10.28.26,4.77,3.53,8.77,7.45,9C20.8,94.55,21.25,88.21,26.18,82Z"/><path class="cls-12" d="M321.61,121.12a28.85,28.85,0,0,0-14.16-15.76c-19.73-10.56-40.77-16.95-62.67-20.74a297.25,297.25,0,0,0-62.24-3.7c-17.7.68-35.27,2.5-52.53,6.68-13.5,3.27-26.51,7.8-38.33,15.32-8.49,5.41-15.07,12.1-17.15,22.52-2.17,10.89-5.13,21.63-7.18,32.54a214,214,0,0,0-3.51,52A453,453,0,0,0,70,260.8a91.92,91.92,0,0,0,3.5,15.25c2.32,6.5,6.56,12,11.25,17,13.86,14.94,31.43,23.48,50.63,29,19.61,5.67,39.75,7.54,60.07,7.74,24.36.24,48.07-3.22,70.69-12.69,19.83-8.3,37.09-20.24,50.86-36.91,2.8-3.38,6.16-7,7.21-11a269.86,269.86,0,0,0,7-34.52c1.65-13.16,1.92-26.5,2.79-39.77A181.09,181.09,0,0,0,321.61,121.12Zm22.87,113.41a6,6,0,0,1-.25,1.25Z"/><path class="cls-11" d="M373.31,102c3.83-6.89,3.58-13.25-.92-19.39a9.39,9.39,0,0,1,8.75,8.5C381.76,96,378.72,100.44,373.31,102Z"/><path class="cls-11" d="M26.18,82c-4.93,6.2-5.38,12.55-1.93,19.24-3.92-.19-7.19-4.18-7.45-9C16.52,87.19,20.09,83.11,26.18,82Z"/></g><rect class="cls-13" width="398.03" height="361.38"/></g></g></svg>