<svg xmlns="http://www.w3.org/2000/svg" viewBox="0 0 349.06 306"><defs><style>.cls-1{fill:#141414;}.cls-2,.cls-3,.cls-4,.cls-6,.cls-7{fill:#fff;}.cls-2,.cls-9{stroke:lime;stroke-width:6px;}.cls-11,.cls-12,.cls-2,.cls-3,.cls-4,.cls-9{stroke-miterlimit:10;}.cls-3{stroke:#141414;}.cls-11,.cls-3,.cls-4{stroke-width:3px;}.cls-4{stroke:#020000;}.cls-5{fill:#070000;}.cls-6,.cls-8{opacity:0.2;}.cls-9{fill:none;}.cls-10{fill:#515151;}.cls-11,.cls-13{fill:#cacaca;}.cls-11{stroke:#000;}.cls-12{fill:#f90;stroke:#f90066;stroke-width:4px;}</style></defs><title>logo_localize_cat</title><g id="Layer_2" data-name="Layer 2"><g id="Layer_2-2" data-name="Layer 2"><path class="cls-1" d="M333.29,44.06c-.7-7.91-3.24-21.91-13.84-38.57a5.09,5.09,0,0,0-5.75-2.13,117,117,0,0,0-29.61,13.49c-11,7-18.4,14.45-24.79,20.84a191.62,191.62,0,0,0-15,16.87,5.08,5.08,0,0,1-5.81,1.6,147.13,147.13,0,0,0-50-9.78v0h-2.08v0a147.13,147.13,0,0,0-50,9.78,5.08,5.08,0,0,1-5.81-1.6,191.62,191.62,0,0,0-15-16.87c-6.4-6.39-13.77-13.79-24.79-20.84A117,117,0,0,0,61.28,3.36a5.09,5.09,0,0,0-5.75,2.13C44.93,22.15,42.39,36.14,41.69,44.06c-.75,8.4-.13,17.63.39,24.92a177.45,177.45,0,0,0,3,23.68,162.81,162.81,0,0,0,6.33,21.47c2.94,7.54,4.74,10.06,5.65,16.28.6,4.07.4,7.3,0,13.75-.52,8.42-1.24,9.39-2.07,18.42-.7,7.55-1.18,13-.55,20.1a86.57,86.57,0,0,0,2.75,14.87,124.49,124.49,0,0,0,9.91,26.15A120.88,120.88,0,0,0,79,242.48c9.11,11.61,19.57,18.49,40.24,31.58,16.06,10.17,9.75,4.89,34.64,19.36,5.63,3.27,14.07,8.26,26,9.17a50.08,50.08,0,0,0,7.26,0,5.32,5.32,0,0,1,.73,0,50.08,50.08,0,0,0,7.26,0c11.92-.91,20.35-5.9,26-9.17,24.9-14.47,18.58-9.19,34.64-19.36,20.67-13.1,31.14-20,40.24-31.58a120.89,120.89,0,0,0,11.87-18.78,124.49,124.49,0,0,0,9.91-26.15,86.57,86.57,0,0,0,2.75-14.87c.62-7.07.15-12.54-.55-20.1-.83-9-1.55-10-2.07-18.42-.4-6.45-.6-9.68,0-13.75.92-6.22,2.72-8.75,5.65-16.28a162.8,162.8,0,0,0,6.33-21.47,177.44,177.44,0,0,0,3-23.68C333.42,61.69,334,52.45,333.29,44.06Z"/><path class="cls-2" d="M130.45,111.26a39.81,39.81,0,0,1-5.19-6.67c-3.87-7-3.5-14.37-7.09-26.5a127.07,127.07,0,0,0-6.36-16.34c-8.14-18.4-36-63.38-52.45-58.36-11.93,3.64-17.21,33.3-18,39-.16,1.16-.3,2.38-.3,2.38-.83,7-.42,13,.47,24.91a177.44,177.44,0,0,0,3.1,23.67A162.81,162.81,0,0,0,51,114.81c3,7.53,4.77,10,5.7,16.26.61,4.07.42,7.3,0,13.75-.49,8.42-1.21,9.39-2,18.42-.67,7.56-1.13,13-.49,20.1a86.57,86.57,0,0,0,2.8,14.86,124.49,124.49,0,0,0,10,26.12A120.88,120.88,0,0,0,79,243.07c9.14,11.58,19.63,18.43,40.34,31.46,16.09,10.12,9.76,4.86,34.7,19.25,5.64,3.25,14.09,8.21,26,9.09a50.07,50.07,0,0,0,7.26,0,5.34,5.34,0,0,1,.73,0,50.08,50.08,0,0,0,7.26-.05c11.91-1,20.33-6,26-9.25,24.85-14.55,18.55-9.24,34.58-19.47C286.09,254.78,296,242.39,296,242.39c4.16-15.61,1.29-24.26-2-29.24-15.31-23.37-60.92-3-86.89-29.39-17.5-17.8-1.53-38.31-20.36-51.17C170.72,121.65,147.37,129.82,130.45,111.26Z"/><path class="cls-1" d="M209.39,212.81c-.1-.8-1-1.23-2.77-2.1a17.85,17.85,0,0,0-10.13-1.43,22.48,22.48,0,0,0-5.92,1.56,22.48,22.48,0,0,0-5.92-1.56,17.85,17.85,0,0,0-10.13,1.43c-1.78.87-2.67,1.31-2.77,2.1-.28,2.16,5.26,5.52,10.29,8.59a5.15,5.15,0,0,1,1.73,1.55c1,1.46.34,2.34,1,4.14a6.44,6.44,0,0,0,3.62,3.62,10.2,10.2,0,0,0,4.3,0,6.44,6.44,0,0,0,3.62-3.62c.7-1.8.05-2.68,1-4.14a5.15,5.15,0,0,1,1.73-1.55C204.13,218.34,209.67,215,209.39,212.81Z"/><path class="cls-1" d="M160.47,254.94a29.1,29.1,0,0,0,8,1.6,25.1,25.1,0,0,0,7.77-.77,27.86,27.86,0,0,0,3.62-1.28,26.7,26.7,0,0,0,3.35-1.83,24.34,24.34,0,0,0,5.63-5l1.44-1.79,1.57,1.67a30.94,30.94,0,0,0,5.93,4.91,31.32,31.32,0,0,0,7,3.32,32.16,32.16,0,0,0,7.75,1.5,39.08,39.08,0,0,0,8.16-.28,25.62,25.62,0,0,1-8.11,2.24,28.11,28.11,0,0,1-16.75-3.53,29.67,29.67,0,0,1-6.89-5.42l3-.11a24.86,24.86,0,0,1-6.77,5.76,23.22,23.22,0,0,1-8.33,2.92,22.89,22.89,0,0,1-8.68-.35A21.27,21.27,0,0,1,160.47,254.94Z"/><path class="cls-3" d="M104.1,160.48c24.47-16.92,43.59-8.84,53.28,19a2.29,2.29,0,0,1-1.36,2.91c-18.18,6.48-38-5.55-52.14-17.78A2.62,2.62,0,0,1,104.1,160.48Z"/><circle class="cls-1" cx="131.8" cy="166.54" r="13.45" transform="translate(-52.42 272.23) rotate(-81.48)"/><path class="cls-4" d="M271.75,160.48c-24.47-16.92-43.59-8.84-53.28,19a2.29,2.29,0,0,0,1.36,2.91c18.18,6.48,38-5.55,52.14-17.78A2.62,2.62,0,0,0,271.75,160.48Z"/><circle class="cls-5" cx="244.05" cy="166.54" r="13.45" transform="translate(-21.97 37.97) rotate(-8.52)"/><path class="cls-6" d="M307.66,92.3c3.52-26.27,19.84-72.88-.75-68.57-1,.22-23.94,22.69-32.8,36.61a4.19,4.19,0,0,0,.62,4.92l28.64,28.8C305,95.71,307.33,94.76,307.66,92.3Z"/><path class="cls-7" d="M61.41,13.93"/><path class="cls-8" d="M66.94,87.57C63.42,61.3,47.1,14.69,67.69,19c1,.22,23.94,22.69,32.8,36.61a4.19,4.19,0,0,1-.62,4.92L71.23,89.33C69.58,91,67.27,90,66.94,87.57Z"/><path class="cls-9" d="M333.57,44.06c-.7-7.91-3.24-21.91-13.84-38.57A5.09,5.09,0,0,0,314,3.36a117,117,0,0,0-29.61,13.49c-11,7-18.4,14.45-24.79,20.84a191.62,191.62,0,0,0-15,16.87,5.08,5.08,0,0,1-5.81,1.6,147.13,147.13,0,0,0-50-9.78v0h-2.08v0a147.13,147.13,0,0,0-50,9.78,5.08,5.08,0,0,1-5.81-1.6,191.62,191.62,0,0,0-15-16.87c-6.4-6.39-13.77-13.79-24.79-20.84A115.25,115.25,0,0,0,72.62,7.26c-4.38-3.14-8.57-4.77-12.25-4.11a5.09,5.09,0,0,0-4.36,2c-9.58,7.48-13.94,32.06-14.66,37.19-.16,1.16-.3,2.38-.3,2.38-.83,7-.42,13,.47,24.91a177.44,177.44,0,0,0,3.1,23.67A162.81,162.81,0,0,0,51,114.81c3,7.53,4.77,10,5.7,16.26.61,4.07.42,7.3,0,13.75-.49,8.42-1.21,9.39-2,18.42-.67,7.56-1.13,13-.49,20.1a86.57,86.57,0,0,0,2.8,14.86,124.49,124.49,0,0,0,10,26.12A120.88,120.88,0,0,0,79,243.07c9.14,11.58,19.63,18.43,40.34,31.46,16.09,10.12,9.76,4.86,34.7,19.25,5.64,3.25,14.09,8.21,26,9.09a50.07,50.07,0,0,0,7.26,0,5.34,5.34,0,0,1,.73,0,50.08,50.08,0,0,0,7.26-.05c11.91-1,20.33-6,26-9.25,12.13-7.1,16.84-9.47,20.34-11.23A126.28,126.28,0,0,0,256,274.06c20.67-13.1,31.14-20,40.24-31.58a120.89,120.89,0,0,0,11.87-18.78A124.49,124.49,0,0,0,318,197.54a86.57,86.57,0,0,0,2.75-14.87c.62-7.07.15-12.54-.55-20.1-.83-9-1.55-10-2.07-18.42-.4-6.45-.6-9.68,0-13.75.92-6.22,2.72-8.75,5.65-16.28a162.8,162.8,0,0,0,6.33-21.47,177.44,177.44,0,0,0,3-23.68C333.7,61.69,334.31,52.45,333.57,44.06Z"/><path class="cls-1" d="M152.89,236c-6.27,2.81-12.39,5.78-18.3,9.13-2.94,1.7-5.86,3.41-8.69,5.27s-5.64,3.75-8.34,5.78-5.4,4.09-8,6.27-5.11,4.45-7.59,6.76c-4.94,4.66-9.59,9.64-14.11,14.8a97.26,97.26,0,0,1,12.45-16.45c2.33-2.55,4.84-4.93,7.4-7.26s5.29-4.46,8.06-6.53A112.15,112.15,0,0,1,133.51,243,97.9,97.9,0,0,1,152.89,236Z"/><path class="cls-1" d="M151.4,232.38a163.61,163.61,0,0,0-22.1,5.39c-3.58,1.19-7.14,2.44-10.61,3.92s-6.91,3-10.24,4.75a138.52,138.52,0,0,0-19.16,11.94,164.18,164.18,0,0,0-17.23,14.86,94.21,94.21,0,0,1,15.78-16.7,102.3,102.3,0,0,1,9.26-6.92c3.22-2.12,6.57-4.05,10-5.86a106.08,106.08,0,0,1,21.57-8.24A94.49,94.49,0,0,1,151.4,232.38Z"/><path class="cls-1" d="M150.5,229.1a186.66,186.66,0,0,0-24.08,2.32l-5.92,1.11c-2,.45-3.92.85-5.86,1.34-3.88,1-7.76,2-11.55,3.33a163.84,163.84,0,0,0-22.24,9.13,221.88,221.88,0,0,0-21,12,111.12,111.12,0,0,1,9.58-7.55c1.66-1.19,3.38-2.28,5.08-3.4s3.47-2.14,5.26-3.13c3.53-2.06,7.23-3.81,10.95-5.52,1.88-.8,3.76-1.62,5.68-2.32l2.87-1.09,2.91-1a119.56,119.56,0,0,1,23.94-5.23A107.19,107.19,0,0,1,150.5,229.1Z"/><path class="cls-1" d="M227.7,236A97.89,97.89,0,0,1,247.09,243a112.15,112.15,0,0,1,17.73,10.71c2.77,2.07,5.47,4.24,8.06,6.53s5.07,4.71,7.4,7.26A97.26,97.26,0,0,1,292.73,284c-4.53-5.17-9.18-10.14-14.11-14.8-2.49-2.31-5-4.6-7.59-6.76s-5.24-4.28-8-6.27-5.49-4-8.34-5.78-5.75-3.58-8.69-5.27C240.1,241.75,234,238.77,227.7,236Z"/><path class="cls-1" d="M229.2,232.38A94.49,94.49,0,0,1,252,235.53a106.08,106.08,0,0,1,21.57,8.24c3.41,1.8,6.75,3.74,10,5.86a102.3,102.3,0,0,1,9.26,6.92,94.21,94.21,0,0,1,15.78,16.7,164.16,164.16,0,0,0-17.23-14.86,138.52,138.52,0,0,0-19.16-11.94c-3.34-1.74-6.77-3.3-10.24-4.75s-7-2.73-10.61-3.92A163.6,163.6,0,0,0,229.2,232.38Z"/><path class="cls-1" d="M230.09,229.1a107.18,107.18,0,0,1,24.4,0,119.56,119.56,0,0,1,23.94,5.23l2.91,1,2.87,1.09c1.92.7,3.8,1.52,5.68,2.32,3.72,1.71,7.42,3.46,10.95,5.52,1.79,1,3.53,2.06,5.26,3.13s3.42,2.22,5.08,3.4a111.12,111.12,0,0,1,9.58,7.55,221.91,221.91,0,0,0-21-12,163.85,163.85,0,0,0-22.24-9.13c-3.79-1.3-7.66-2.34-11.55-3.33-1.94-.49-3.91-.89-5.86-1.34l-5.92-1.11A186.66,186.66,0,0,0,230.09,229.1Z"/><path class="cls-10" d="M54.86,72.29c5.35-5.74,8.29-13,13.63-18C88.86,34.93,114.77,21,148.88,16.33,199.8,9.38,246,21.58,286.8,49.63c28.81,19.8,46.54,44,55.38,71.14a12.13,12.13,0,0,0,3.11,4.45c2.76,2.71,4.21,5.55,3.66,8.65-1.1,6.28-2.24,12.56-3.59,18.79-1.22,5.61-7.92,8.64-15.51,7.26-7.76-1.41-13-6.38-12.21-12.17.9-6.52,2.25-13,3.67-19.4a6.21,6.21,0,0,1,2.74-4.17c3-1.61,2.47-3.56,1.6-5.91C312.56,82.65,285,56.94,239,39.8,187.32,20.52,141,24.87,101,48.91c-11.72,7-16.8,9.66-24.61,19.25-1.41,1.73-5.37,7.39-8.21,6.71C64.15,73.91,60.06,73.28,54.86,72.29Z"/><rect class="cls-11" x="5.51" y="75.69" width="23.82" height="72.9" transform="translate(12.19 -1.22) rotate(6.19)"/><path class="cls-10" d="M49.18,163.68C63.71,215,94.45,255.89,149.24,272.79c2-7.55,7.5-8.85,14.22-9,10.85-.17,21.69-.88,32.54-1.34,7.37-.31,11.42,3.27,11.8,10.42.16,3,.34,6,.38,9,.08,5.9-3.8,10.08-10,10.41q-18.81,1-37.63,1.65c-5.11.18-8.85-2.41-10.19-7.12-.6-2.11-1.69-3-3.76-3.56C87,265.67,53.15,225.55,38.05,169.1c-.06-.23-.69-4.27-.72-4.8C40.93,164.14,45.26,163.85,49.18,163.68Z"/><circle cx="165.54" cy="273.97" r="1.97" transform="translate(-45.06 32.91) rotate(-10)"/><circle cx="165.63" cy="283.55" r="1.97" transform="translate(-46.72 33.07) rotate(-10)"/><circle cx="172.06" cy="279.22" r="1.97" transform="translate(-45.87 34.12) rotate(-10)"/><circle cx="178.35" cy="274.11" r="1.97" transform="translate(-44.89 35.13) rotate(-10)"/><circle cx="178.44" cy="283.69" r="1.97" transform="translate(-46.55 35.3) rotate(-10)"/><circle cx="184.87" cy="279.36" r="1.97" transform="matrix(0.98, -0.17, 0.17, 0.98, -45.7, 36.35)"/><circle cx="191.16" cy="274.25" r="1.97" transform="translate(-44.72 37.36) rotate(-10)"/><circle cx="191.25" cy="283.82" r="1.97" transform="translate(-46.38 37.52) rotate(-10)"/><path class="cls-12" d="M15.85,107.84c1.42-10.79,2.8-21.59,4.27-32.38C21.88,62.5,32.68,54,46.29,55.21a186.2,186.2,0,0,1,19.42,2.64c12.7,2.46,20.83,13.59,19.23,25.89-2.68,13.21-7.29,14.74-8.05,64.62-.2,13.23-11.82,21.35-25.56,20.81a113.37,113.37,0,0,1-22.08-3.1,22.78,22.78,0,0,1-17.7-25.47c1.36-10.93,2.85-21.84,4.29-32.76ZM32.73,88.32c-.49,3.72-1,7.43-1.45,11.16-.46,4.23,1.5,7.58,5.71,8.75a30.33,30.33,0,0,0,9.24,1,7,7,0,0,0,7.08-6.33q1.76-11.68,3.08-23.43c.46-4.11-2.39-7.61-6.65-8.53a49.55,49.55,0,0,0-6.21-.84c-4.92-.41-8.58,2.33-9.32,7C33.63,80.86,33.22,84.59,32.73,88.32Z"/><path class="cls-13" d="M32.73,88.27c.49-3.72.9-7.45,1.48-11.16.74-4.71,4.4-7.46,9.32-7a49.55,49.55,0,0,1,6.21.84c4.26.91,7.11,4.42,6.65,8.53q-1.32,11.74-3.08,23.43a7,7,0,0,1-7.08,6.33,30.33,30.33,0,0,1-9.24-1c-4.21-1.17-6.17-4.53-5.71-8.75C31.69,95.7,32.24,92,32.73,88.27Z"/></g></g></svg>