<svg xmlns="http://www.w3.org/2000/svg" viewBox="0 0 80.37 36.74"><defs><style>.cls-1{opacity:0.1;}.cls-2{fill:#f2f2f2;}.cls-3{opacity:0.8;}.cls-4{fill:none;stroke:#f2f2f2;}</style></defs><title>npm_logo_4</title><g id="Layer_2" data-name="Layer 2"><g id="Layer_2-2" data-name="Layer 2"><g id="Q9hO1Z" class="cls-1"><path class="cls-2" d="M.5,31.19V.5H79.87c0,.14,0,.29,0,.43q0,14.91,0,29.82v.42H40.16v5.06H22.58v-.39q0-2.14,0-4.28c0-.4,0-.4-.41-.4H.84Zm66.17-20.4h3.71c.63,0,.63,0,.63.61q0,7.1,0,14.2v.5h4.44V5.59H49V26.12h8.42c.44,0,.45,0,.45-.46q0-7.22,0-14.45v-.4h4.32v.42q0,7.25,0,14.51c0,.3.08.38.38.38,1.25,0,2.5,0,3.75,0l.36,0ZM44.59,5.57H27.29c-.3,0-.38.08-.38.38q0,12.45,0,24.89c0,.3.08.38.38.38h8.52v-5.1h8.79Zm-39.68,0V26.12h8.41c.45,0,.45,0,.45-.46q0-7.21,0-14.41v-.43h4.34V26.12h.35c1.25,0,2.5,0,3.75,0,.3,0,.38-.08.38-.38q0-9.92,0-19.84c0-.11,0-.22,0-.33Z"/><path class="cls-2" d="M35.81,10.81h4.33V20.87H35.81Z"/></g><g id="Q9hO1Z-2" data-name="Q9hO1Z" class="cls-3"><path class="cls-4" d="M.5,31.19V.5H79.87c0,.14,0,.29,0,.43q0,14.91,0,29.82v.42H40.16v5.06H22.58v-.39q0-2.14,0-4.28c0-.4,0-.4-.41-.4H.84Zm66.17-20.4h3.71c.63,0,.63,0,.63.61q0,7.1,0,14.2v.5h4.44V5.59H49V26.12h8.42c.44,0,.45,0,.45-.46q0-7.22,0-14.45v-.4h4.32v.42q0,7.25,0,14.51c0,.3.08.38.38.38,1.25,0,2.5,0,3.75,0l.36,0ZM44.59,5.57H27.29c-.3,0-.38.08-.38.38q0,12.45,0,24.89c0,.3.08.38.38.38h8.52v-5.1h8.79Zm-39.68,0V26.12h8.41c.45,0,.45,0,.45-.46q0-7.21,0-14.41v-.43h4.34V26.12h.35c1.25,0,2.5,0,3.75,0,.3,0,.38-.08.38-.38q0-9.92,0-19.84c0-.11,0-.22,0-.33Z"/><path class="cls-4" d="M35.81,10.81h4.33V20.87H35.81Z"/></g></g></g></svg>