<svg xmlns="http://www.w3.org/2000/svg" viewBox="0 0 68.64 30.91"><defs><style>.cls-1{opacity:0.4;}.cls-2{fill:#f2f2f2;}</style></defs><title>npm_logo</title><g id="Layer_2" data-name="Layer 2"><g id="Layer_2-2" data-name="Layer 2"><g id="Q9hO1Z" class="cls-1"><path class="cls-2" d="M0,26.55V0H68.64c0,.12,0,.25,0,.37q0,12.9,0,25.79v.36H34.31v4.38H19.09v-.34q0-1.85,0-3.7c0-.34,0-.34-.35-.34H.29ZM57.23,8.9h3.21c.54,0,.54,0,.54.53q0,6.14,0,12.28v.43h3.84V4.41H41.95V22.16h7.28c.38,0,.39,0,.39-.4q0-6.25,0-12.49V8.92h3.74v.37q0,6.27,0,12.55c0,.26.07.33.33.33,1.08,0,2.16,0,3.24,0h.31ZM38.14,4.38h-15c-.26,0-.33.07-.33.33q0,10.77,0,21.53c0,.26.07.33.33.33h7.37V22.15h7.6ZM3.81,4.4V22.16h7.28c.39,0,.39,0,.39-.4q0-6.23,0-12.47V8.92h3.76V22.16h.3c1.08,0,2.16,0,3.24,0,.26,0,.33-.07.33-.33q0-8.58,0-17.16c0-.09,0-.19,0-.28Z"/><path class="cls-2" d="M30.54,8.92h3.75v8.7H30.54Z"/></g></g></g></svg>