<svg xmlns="http://www.w3.org/2000/svg" viewBox="0 0 151.86 68.92"><defs><style>.cls-1{opacity:0.15;}.cls-2{fill:#f2f2f2;}.cls-3{opacity:0.6;}.cls-4{fill:none;stroke:#f2f2f2;stroke-miterlimit:10;}</style></defs><title>npm_logo_2</title><g id="Layer_2" data-name="Layer 2"><g id="Layer_2-2" data-name="Layer 2"><g id="Q9hO1Z" class="cls-1"><path class="cls-2" d="M.5,58.83V.5H151.34c0,.27,0,.55,0,.82q0,28.34,0,56.68v.8H75.89v9.62H42.46v-.74q0-4.07,0-8.13c0-.76,0-.76-.78-.76H1.14C.93,58.79.71,58.82.5,58.83ZM126.26,20.06h7c1.2,0,1.2,0,1.2,1.17q0,13.49,0,27v.95H143v-39H92.67v39h16c.85,0,.85,0,.85-.87q0-13.73,0-27.46v-.76h8.22v.8q0,13.79,0,27.57c0,.57.15.73.72.72,2.38,0,4.75,0,7.13,0l.68,0Zm-42-9.92h-.66q-16.11,0-32.23,0c-.56,0-.73.14-.72.72q0,23.66,0,47.31c0,.57.15.72.72.72,5.17,0,10.33,0,15.5,0h.7V49.17H84.3Zm-75.42,0v39h16c.85,0,.85,0,.85-.87q0-13.7,0-27.39v-.82H34V49.2h.66c2.38,0,4.75,0,7.13,0,.58,0,.72-.16.72-.72q0-18.85,0-37.7c0-.21,0-.41,0-.62Z"/><path class="cls-2" d="M67.62,20.1h8.23V39.21H67.62Z"/></g><g id="Q9hO1Z-2" data-name="Q9hO1Z" class="cls-3"><path class="cls-4" d="M.5,58.83V.5H151.34c0,.27,0,.55,0,.82q0,28.34,0,56.68v.8H75.89v9.62H42.46v-.74q0-4.07,0-8.13c0-.76,0-.76-.78-.76H1.14C.93,58.79.71,58.82.5,58.83ZM126.26,20.06h7c1.2,0,1.2,0,1.2,1.17q0,13.49,0,27v.95H143v-39H92.67v39h16c.85,0,.85,0,.85-.87q0-13.73,0-27.46v-.76h8.22v.8q0,13.79,0,27.57c0,.57.15.73.72.72,2.38,0,4.75,0,7.13,0l.68,0Zm-42-9.92h-.66q-16.11,0-32.23,0c-.56,0-.73.14-.72.72q0,23.66,0,47.31c0,.57.15.72.72.72,5.17,0,10.33,0,15.5,0h.7V49.17H84.3Zm-75.42,0v39h16c.85,0,.85,0,.85-.87q0-13.7,0-27.39v-.82H34V49.2h.66c2.38,0,4.75,0,7.13,0,.58,0,.72-.16.72-.72q0-18.85,0-37.7c0-.21,0-.41,0-.62Z"/><path class="cls-4" d="M67.62,20.1h8.23V39.21H67.62Z"/></g></g></g></svg>