<svg xmlns="http://www.w3.org/2000/svg" viewBox="0 0 428 428"><defs><style>.cls-1,.cls-7{fill:#f90;stroke:#000;}.cls-1,.cls-2,.cls-3,.cls-4,.cls-7{stroke-miterlimit:10;}.cls-1{stroke-width:4px;}.cls-2{fill:#c69c6d;}.cls-2,.cls-3,.cls-4{stroke:#020000;}.cls-2,.cls-3{stroke-width:6px;}.cls-3,.cls-4{fill:#fff;}.cls-4{stroke-width:5px;}.cls-5{fill:#e0b892;}.cls-6{fill:#070000;}.cls-7{stroke-width:3px;}.cls-8{fill:#60f1fc;opacity:0.37;}.cls-9{fill:none;}</style></defs><title>optimize_2</title><g id="Layer_2" data-name="Layer 2"><g id="Layer_1-2" data-name="Layer 1"><rect class="cls-1" x="343.78" y="133.76" width="14.58" height="70.47" transform="translate(-37.7 143.1) rotate(-21.89)"/><rect class="cls-1" x="69.96" y="140.49" width="14.44" height="60.8" transform="translate(64.26 -16.17) rotate(20.35)"/><path class="cls-2" d="M213.93,364.76c18.94,0,38.64,7.52,57.44,5.11,10.89-1.39,20.58-4.36,30-10.59,7.49-4.95,13.8-14.59,19.25-21.93,10-13.53,19.66-33,24.63-49.51,6-20-3-41-5.41-61.32-2.51-20.77,7-40.19,3.16-60.74a11.77,11.77,0,0,1,1.07-7.36c6.1-12.37,11.14-24.12,10.58-38.73-.59-15.6,37.27-4.54,27.47-15.94-1.31-1.53-44-18.62-46-18.09-14.2,3.93-15.38,10.45-23.05,19.25-3.38,3.88-7.76,8.63-12.07,11.46-5.88,3.85-7.81,0-14.58-1.76a349.71,349.71,0,0,0-72.55-11.3,349.81,349.81,0,0,0-72.56,11.3c-6.77,1.81-8.7,5.61-14.58,1.76-4.31-2.83-8.69-7.58-12.07-11.46C107.11,96.18,91.06,87.08,89.06,88c-90.92,40.55-15.29,16.23-15.88,31.72-.56,14.56,4.44,26.28,10.52,38.59a12.4,12.4,0,0,1,1.11,7.65c-3.76,20.49,5.68,39.86,3.18,60.59-2.44,20.28-11.42,41.32-5.41,61.32,5,16.55,14.59,36,24.63,49.51,5.45,7.34,11.76,17,19.25,21.93,9.44,6.23,19.13,9.2,30,10.59C175.28,372.28,195,364.76,213.93,364.76Z"/><path class="cls-3" d="M291.94,323.8c1.9-14.28,1-21.4-7.16-32.14-12.48-16.42-32.4-33.38-40.35-52.87-8.92-21.86,12.8-42.41,10-65-1.72-13.81-7.49-25.25-12.9-37.53-5-11.32-6.46-19.58-6.67-31.16-5.66-.37-11.29-1.54-16.84-1.8-5.54.26-11.17.55-16.83.92-.21,11.58-1.69,20.72-6.68,32-5.4,12.28-11.17,23.72-12.89,37.53-2.81,22.58,18.91,43.13,10,65-7.95,19.49-27.88,36.45-40.35,52.87-8.17,10.74-9.06,17.86-7.16,32.14,1.7,12.81,5.57,25.54,9.95,37.49.71,1.95,1.46,4.72,2.42,7.27,2.36.54,4.78,1,7.27,1.31,17.76,2.41,36.38-5.11,54.28-5.11s36.53,7.52,54.29,5.11c2.49-.34,4.91-2.54,7.27-3.08,1-2.55,1.71-5.32,2.42-7.27C286.37,347.57,290.24,336.61,291.94,323.8Z"/><path class="cls-4" d="M118.55,208.69c19.27-18.09,37.14-13.5,49.31,9.68a2,2,0,0,1-.82,2.74c-15.12,8.08-34.1.11-48.14-8.76A2.33,2.33,0,0,1,118.55,208.69Z"/><path class="cls-5" d="M91.71,140.19c-2.95-13.43-14.62-37.51-1.33-34.81.67.14,15.91,12.12,22,19.41a1.76,1.76,0,0,1-.27,2.49L94.5,141.19A1.75,1.75,0,0,1,91.71,140.19Z"/><path class="cls-6" d="M232.78,291.6c-4.84-2.77-11.64-3.1-18.53-2.86h-.68c-6.88-.24-13.69.09-18.52,2.86-18.27,10.44-9.6,18.57,3.2,25.5,5.92,3.2,10.69,5.27,15.3,5.6a2.18,2.18,0,0,0,.72,0c4.62-.33,9.39-2.4,15.3-5.6C242.37,310.17,251,302,232.78,291.6Z"/><path class="cls-5" d="M336.56,140.19c2.94-13.43,3.56-21.43,1.33-34.81a1.75,1.75,0,0,0-2.93-1,249.49,249.49,0,0,0-19,20.38,1.77,1.77,0,0,0,.26,2.49l17.57,13.91A1.75,1.75,0,0,0,336.56,140.19Z"/><path class="cls-4" d="M316.89,211.34c-19.27-18.09-37.13-13.5-49.3,9.68a2,2,0,0,0,.81,2.74c15.13,8.09,34.11.12,48.15-8.76A2.33,2.33,0,0,0,316.89,211.34Z"/><circle class="cls-6" cx="143.69" cy="210.37" r="11.94"/><circle class="cls-6" cx="291.45" cy="213.02" r="11.94"/><g id="WlWi4P.tif"><path class="cls-7" d="M298.16,177.64a364.88,364.88,0,0,1,46.63,2.11c4.42.51,25.8.45,28.08,3.29,1.88,2.35-.32,12.2-1.46,14.67-2.1,4.53-6.79,6-8.84,10.24-2.2,4.5-1.79,11-2.46,15.89-1.69,12.37-3.79,24.78-11.79,34.84-15.7,19.75-47.11,21.83-70,16.64-25.88-5.89-39.22-24.41-48.54-47.95-3.58-9-7.33-23.09-20.56-16.7-9.87,4.76-13.39,30.72-19.86,40.67-15.85,24.37-46,29.71-73.26,26.52-24.74-2.9-39.25-18.27-44.5-42C70.15,229,71.09,218.3,67.75,212c-2.29-4.3-7.58-5.7-9.54-9.7-9.46-19.31,10.73-18,23.89-19.79,37.2-5.15,71.18-.85,107.85,6.89C226,197,262.11,182.77,298.16,177.64Zm-168,9.75c-32.32,3.59-57,7.58-48.48,46.86,6.31,29.2,30.73,42.12,59.63,38,27.77-4,46.14-24.59,47.18-52.73C189.68,187.42,153.65,190.24,130.16,187.39Zm170.53-1.47c0-.3-35.37,5.45-40.15,6.91-14.44,4.4-20.25,11.66-19.41,26.95,1.62,29.54,26,51.37,54.93,51.76,27.84.36,47.54-13.1,52.49-40.85C355.26,193.06,332.62,188.87,300.69,185.92Zm64.21,8.35c.81-6.59-14.93-7-15.43-1.41Z"/><path class="cls-8" d="M130.16,187.39c21.64,2.62,58-.19,58.51,29.6.54,28.95-19.13,51.25-47.36,55.27-27.51,3.91-51.89-7.58-59-35.4C72,196.26,96.35,191.15,130.16,187.39Z"/><path class="cls-8" d="M300.69,185.92c31.69,2.93,54.65,7.28,47.86,44.77-5,27.69-24.59,41.22-52.49,40.85-28.94-.39-53.31-22.2-54.93-51.76-.84-15.16,5.14-22.5,19.41-26.95C264.77,191.51,300.71,185.73,300.69,185.92Z"/><path class="cls-1" d="M79.91,195.5l-15.38,1.42-.26-2.46c4.87-3,10.09-3.34,15.57-1.55Z"/><path class="cls-1" d="M364.9,194.27l-15.43-1.41.21-2.32c5.37-2.39,10.51-1.38,15.57.85Z"/></g></g><g id="Layer_2-2" data-name="Layer 2"><rect class="cls-9" width="428" height="428"/></g></g></svg>