<svg xmlns="http://www.w3.org/2000/svg" viewBox="0 0 415.67 349.51"><defs><style>.cls-1,.cls-7{fill:#f90;stroke:#000;}.cls-1,.cls-2,.cls-3,.cls-4,.cls-7{stroke-miterlimit:10;}.cls-1{stroke-width:4px;}.cls-2{fill:#c69c6d;}.cls-2,.cls-3,.cls-4{stroke:#020000;}.cls-2,.cls-3{stroke-width:6px;}.cls-3,.cls-4{fill:#fff;}.cls-4{stroke-width:5px;}.cls-5{fill:#e0b892;}.cls-6{fill:#070000;}.cls-7{stroke-width:3px;}.cls-8{fill:#60f1fc;opacity:0.37;}</style></defs><title>optimize</title><g id="Layer_2" data-name="Layer 2"><g id="Layer_1-2" data-name="Layer 1"><rect class="cls-1" x="364.43" y="61.05" width="17.59" height="85.03" transform="translate(-11.7 146.64) rotate(-21.89)"/><rect class="cls-1" x="33.68" y="68.42" width="17.22" height="72.52" transform="translate(39.05 -8.17) rotate(20.35)"/><path class="cls-2" d="M207.74,339.77c22.86,0,46.64,9.08,69.31,6.17,13.14-1.69,24.84-5.26,36.23-12.79,9-6,16.64-17.6,23.22-26.46,12.12-16.32,23.72-39.76,29.72-59.74,7.26-24.13-3.58-49.51-6.53-74-3-25.07,8.41-48.49,3.81-73.28a14.28,14.28,0,0,1,1.29-8.89c7.37-14.92,13.45-29.1,12.78-46.73-.72-18.82,45-5.47,33.14-19.23C409.12,23,357.59,2.37,355.26,3c-17.14,4.75-18.56,12.61-27.82,23.23-4.08,4.67-9.37,10.41-14.56,13.82-7.1,4.65-9.43.06-17.6-2.12A422.36,422.36,0,0,0,207.74,24.3,422.46,422.46,0,0,0,120.2,37.94c-8.17,2.18-10.5,6.77-17.59,2.12C97.41,36.65,92.12,30.91,88,26.24,78.86,15.71,59.49,4.72,57.09,5.79-52.61,54.73,38.63,25.38,37.92,44.07c-.67,17.57,5.36,31.71,12.69,46.57A14.83,14.83,0,0,1,52,99.86C47.42,124.59,58.81,148,55.8,173c-3,24.47-13.79,49.85-6.54,74,6,20,17.61,43.42,29.72,59.74,6.58,8.86,14.19,20.5,23.22,26.46,11.39,7.53,23.1,11.1,36.23,12.79C161.11,348.85,184.89,339.77,207.74,339.77Z"/><path class="cls-3" d="M301.88,290.35c2.28-17.24,1.21-25.82-8.64-38.78-15.06-19.81-39.09-40.28-48.69-63.79C233.78,161.4,260,136.6,256.6,109.35c-2.07-16.65-9-30.46-15.56-45.28-6-13.65-7.8-23.62-8-37.59-6.83-.45-13.63-1.86-20.31-2.18-6.69.32-13.48.67-20.32,1.11-.25,14-2,25-8.05,38.66-6.52,14.82-13.48,28.63-15.56,45.28-3.39,27.25,22.82,52.05,12.05,78.43-9.59,23.51-33.63,44-48.68,63.79-9.85,13-10.93,21.54-8.64,38.78,2,15.45,6.72,30.81,12,45.23.86,2.35,1.77,5.7,2.92,8.77,2.86.66,5.78,1.18,8.78,1.59,21.43,2.91,43.9-6.17,65.5-6.17s44.06,9.08,65.5,6.17c3-.41,5.92-3.07,8.77-3.72,1.15-3.08,2.06-6.43,2.92-8.77C295.16,319,299.83,305.8,301.88,290.35Z"/><path class="cls-4" d="M92.67,151.45c23.25-21.82,44.8-16.28,59.49,11.69a2.45,2.45,0,0,1-1,3.3c-18.25,9.75-41.15.14-58.09-10.57A2.81,2.81,0,0,1,92.67,151.45Z"/><path class="cls-5" d="M60.28,68.81c-3.56-16.21-17.64-45.26-1.61-42,.81.16,19.2,14.62,26.48,23.42a2.11,2.11,0,0,1-.31,3L63.65,70A2.11,2.11,0,0,1,60.28,68.81Z"/><path class="cls-6" d="M230.49,251.49c-5.84-3.34-14.05-3.74-22.35-3.45-.28,0-.55,0-.82,0-8.31-.29-16.52.11-22.36,3.45-22,12.6-11.58,22.41,3.87,30.77,7.14,3.86,12.89,6.36,18.46,6.76a1.15,1.15,0,0,0,.44,0,1.12,1.12,0,0,0,.43,0c5.57-.4,11.32-2.9,18.46-6.76C242.07,273.9,252.52,264.09,230.49,251.49Z"/><path class="cls-5" d="M355.71,68.81c3.55-16.21,4.29-25.87,1.61-42a2.11,2.11,0,0,0-3.54-1.17,300,300,0,0,0-22.95,24.59,2.12,2.12,0,0,0,.32,3L352.34,70A2.11,2.11,0,0,0,355.71,68.81Z"/><path class="cls-4" d="M332,154.66c-23.25-21.83-44.8-16.29-59.49,11.68a2.44,2.44,0,0,0,1,3.3c18.24,9.76,41.15.14,58.08-10.57A2.8,2.8,0,0,0,332,154.66Z"/><circle class="cls-6" cx="123" cy="153.48" r="14.41"/><circle class="cls-6" cx="301.29" cy="156.68" r="14.41"/><g id="WlWi4P.tif"><path class="cls-7" d="M309.38,114c19.08-.17,37.31.32,56.26,2.54,5.34.63,31.14.55,33.88,4,2.28,2.84-.38,14.73-1.76,17.71-2.54,5.47-8.19,7.29-10.67,12.36-2.65,5.43-2.15,13.28-3,19.17-2.05,14.92-4.58,29.89-14.23,42-18.94,23.83-56.84,26.35-84.41,20.08-31.22-7.1-47.33-29.45-58.57-57.86-4.32-10.9-8.84-27.85-24.81-20.15-11.9,5.75-16.15,37.07-24,49.07-19.13,29.41-55.48,35.86-88.39,32-29.86-3.5-47.36-22-53.69-50.72-1.81-8.2-.67-21.14-4.71-28.74-2.75-5.19-9.14-6.88-11.51-11.71-11.41-23.3,13-21.67,28.83-23.87,44.89-6.21,85.89-1,130.13,8.32C222.36,137.39,265.89,120.18,309.38,114Zm-202.7,11.77c-39,4.33-68.75,9.14-58.51,56.53,7.62,35.24,37.08,50.83,72,45.87,33.52-4.77,55.68-29.67,56.94-63.62C178.49,125.79,135,129.19,106.68,125.76ZM312.43,124c0-.37-42.67,6.57-48.45,8.33-17.41,5.31-24.43,14.07-23.41,32.52,2,35.64,31.33,62,66.27,62.45,33.6.44,57.36-15.8,63.33-49.29C378.27,132.6,351,127.54,312.43,124Zm77.48,10.07c1-8-18-8.4-18.62-1.7Z"/><path class="cls-8" d="M106.68,125.76c26.1,3.16,69.92-.23,70.6,35.71.65,34.93-23.09,61.84-57.16,66.69C86.93,232.88,57.51,219,49,185.44,36.45,136.46,65.88,130.29,106.68,125.76Z"/><path class="cls-8" d="M312.43,124c38.24,3.53,65.94,8.78,57.74,54-6.05,33.41-29.66,49.73-63.33,49.29-34.92-.47-64.32-26.79-66.27-62.45-1-18.29,6.2-27.15,23.41-32.52C269.09,130.73,312.46,123.76,312.43,124Z"/><path class="cls-1" d="M46.05,135.54l-18.56,1.72-.32-3c5.88-3.6,12.17-4,18.79-1.86Z"/><path class="cls-1" d="M389.91,134.06l-18.62-1.7c.08-.93.17-1.86.25-2.8,6.48-2.89,12.69-1.67,18.79,1Z"/></g></g></g></svg>