<svg xmlns="http://www.w3.org/2000/svg" viewBox="0 0 120.26 120.5"><defs><style>.cls-1{opacity:0.8;}.cls-2,.cls-3,.cls-4,.cls-5{fill:none;stroke-miterlimit:10;stroke-width:2px;}.cls-2{stroke:#36c5f0;}.cls-3{stroke:#2eb67d;}.cls-4{stroke:#ecb22e;}.cls-5{stroke:#e01e5a;}.cls-6{opacity:0.2;}.cls-7{fill:#36c5f0;}.cls-8{fill:#2eb67d;}.cls-9{fill:#ecb22e;}.cls-10{fill:#e01e5a;}</style></defs><title>slack_logo_2</title><g id="Layer_2" data-name="Layer 2"><g id="Layer_2-2" data-name="Layer 2"><g class="cls-1"><path class="cls-2" d="M44.36,1a11.85,11.85,0,0,0,0,23.7H56.19V12.85A11.85,11.85,0,0,0,44.36,1h0m0,31.6H12.83a11.85,11.85,0,0,0,0,23.7H44.36a11.85,11.85,0,0,0,0-23.7Z"/><path class="cls-3" d="M119.26,44.45a11.83,11.83,0,1,0-23.66,0V56.3h11.83A11.84,11.84,0,0,0,119.26,44.45Zm-31.54,0V12.85a11.83,11.83,0,1,0-23.65,0v31.6a11.83,11.83,0,1,0,23.65,0Z"/><path class="cls-4" d="M75.9,119.5a11.85,11.85,0,0,0,0-23.7H64.07v11.85A11.84,11.84,0,0,0,75.9,119.5Zm0-31.6h31.54a11.85,11.85,0,0,0,0-23.7H75.9a11.85,11.85,0,0,0,0,23.7Z"/><path class="cls-5" d="M1,76a11.83,11.83,0,1,0,23.66,0V64.2H12.83A11.84,11.84,0,0,0,1,76Zm31.54,0v31.6a11.83,11.83,0,1,0,23.65,0V76.06a11.83,11.83,0,1,0-23.65,0h0"/></g><g class="cls-6"><path class="cls-7" d="M44.36,1a11.85,11.85,0,0,0,0,23.7H56.19V12.85A11.85,11.85,0,0,0,44.36,1h0m0,31.6H12.83a11.85,11.85,0,0,0,0,23.7H44.36a11.85,11.85,0,0,0,0-23.7Z"/><path class="cls-8" d="M119.26,44.45a11.83,11.83,0,1,0-23.66,0V56.3h11.83A11.84,11.84,0,0,0,119.26,44.45Zm-31.54,0V12.85a11.83,11.83,0,1,0-23.65,0v31.6a11.83,11.83,0,1,0,23.65,0Z"/><path class="cls-9" d="M75.9,119.5a11.85,11.85,0,0,0,0-23.7H64.07v11.85A11.84,11.84,0,0,0,75.9,119.5Zm0-31.6h31.54a11.85,11.85,0,0,0,0-23.7H75.9a11.85,11.85,0,0,0,0,23.7Z"/><path class="cls-10" d="M1,76a11.83,11.83,0,1,0,23.66,0V64.2H12.83A11.84,11.84,0,0,0,1,76Zm31.54,0v31.6a11.83,11.83,0,1,0,23.65,0V76.06a11.83,11.83,0,1,0-23.65,0h0"/></g></g></g></svg>