<svg xmlns="http://www.w3.org/2000/svg" viewBox="0 0 426.44 399.9"><defs><style>.cls-1,.cls-10{fill:#cacaca;}.cls-1,.cls-9{stroke:#000;stroke-width:3px;}.cls-1,.cls-2,.cls-3,.cls-4,.cls-9{stroke-miterlimit:10;}.cls-2{fill:#c69c6d;}.cls-2,.cls-3,.cls-4{stroke:#020000;}.cls-2,.cls-3{stroke-width:6px;}.cls-3,.cls-4{fill:#fff;}.cls-4{stroke-width:5px;}.cls-5{fill:#e0b892;}.cls-6{fill:#070000;}.cls-7{fill:#515151;}.cls-8{font-size:34.04px;font-family:KozGoPr6N-Regular-83pv-RKSJ-H, Kozuka Gothic Pr6N;}.cls-9{fill:#f90;}.cls-11{font-size:19.72px;font-family:MyriadPro-Regular, Myriad Pro;}.cls-12{letter-spacing:0.01em;}</style></defs><title>translate</title><g id="Layer_2" data-name="Layer 2"><g id="Layer_1-2" data-name="Layer 1"><rect class="cls-1" x="10.17" y="90.12" width="30.27" height="92.63" transform="translate(14.86 -1.93) rotate(6.19)"/><path class="cls-2" d="M236.28,332.51c20.87,0,42.59,8.28,63.3,5.63,12-1.54,22.69-4.81,33.09-11.68,8.25-5.45,15.2-16.07,21.21-24.17C364.94,287.38,375.54,266,381,247.73c6.63-22-3.27-45.22-6-67.57-2.76-22.89,7.68-44.29,3.48-66.93a13.09,13.09,0,0,1,1.18-8.12c6.73-13.63,12.28-26.58,11.67-42.68-.66-17.19,41.06-5,30.27-17.57-1.45-1.69-48.52-20.52-50.65-19.93-15.66,4.33-16.95,11.51-25.41,21.21-3.72,4.27-8.55,9.52-13.3,12.63-6.48,4.24-8.6,0-16.07-1.94a386.13,386.13,0,0,0-80-12.46,386.33,386.33,0,0,0-80,12.46c-7.46,2-9.59,6.18-16.07,1.94-4.74-3.11-9.57-8.36-13.3-12.63-8.38-9.61-26.08-19.65-28.27-18.67-100.2,44.69-16.86,17.89-17.51,35-.61,16.05,4.9,29,11.59,42.53A13.63,13.63,0,0,1,94,113.39c-4.14,22.58,6.26,43.93,3.51,66.77-2.7,22.35-12.59,45.53-6,67.57C97,266,107.61,287.38,118.68,302.29c6,8.1,13,18.72,21.2,24.17,10.41,6.87,21.1,10.14,33.09,11.68C193.69,340.79,215.4,332.51,236.28,332.51Z"/><path class="cls-3" d="M322.25,287.36c2.09-15.74,1.11-23.58-7.89-35.42-13.75-18.09-35.7-36.78-44.46-58.25-9.84-24.1,14.1-46.75,11-71.63-1.89-15.21-8.25-27.83-14.21-41.36-5.49-12.47-7.12-21.57-7.35-34.34-6.24-.4-12.45-1.69-18.55-2-6.11.3-12.32.61-18.56,1-.23,12.76-1.86,22.84-7.35,35.31-6,13.53-12.32,26.15-14.21,41.36-3.1,24.88,20.84,47.53,11,71.63-8.76,21.47-30.71,40.16-44.46,58.25-9,11.84-10,19.68-7.89,35.42,1.87,14.12,6.13,28.15,11,41.32.78,2.14,1.61,5.2,2.67,8,2.61.6,5.27,1.07,8,1.45,19.58,2.65,40.1-5.63,59.83-5.63s40.24,8.28,59.82,5.63c2.74-.38,5.4-2.8,8-3.4,1.06-2.81,1.89-5.87,2.67-8C316.12,313.56,320.38,301.48,322.25,287.36Z"/><path class="cls-4" d="M131.18,160.51c21.23-19.94,40.92-14.88,54.33,10.67a2.23,2.23,0,0,1-.9,3c-16.66,8.91-37.58.13-53.05-9.65A2.56,2.56,0,0,1,131.18,160.51Z"/><path class="cls-5" d="M101.59,95c-3.24-14.8-16.11-41.34-1.47-38.36.74.15,17.54,13.36,24.19,21.39a1.92,1.92,0,0,1-.29,2.74L104.67,96.12A1.93,1.93,0,0,1,101.59,95Z"/><path class="cls-6" d="M257.05,251.88c-5.33-3-12.83-3.42-20.41-3.15q-.37,0-.75,0c-7.59-.27-15.08.1-20.42,3.15-20.12,11.5-10.57,20.47,3.53,28.1,6.52,3.53,11.78,5.8,16.86,6.18a2.68,2.68,0,0,0,.8,0c5.08-.38,10.34-2.65,16.86-6.18C267.63,272.35,277.18,263.38,257.05,251.88Z"/><path class="cls-5" d="M371.42,95c3.25-14.8,3.92-23.62,1.47-38.36a1.93,1.93,0,0,0-3.23-1.07,276.65,276.65,0,0,0-21,22.46,1.93,1.93,0,0,0,.29,2.74l19.36,15.33A1.92,1.92,0,0,0,371.42,95Z"/><path class="cls-4" d="M349.75,163.43c-21.23-19.93-40.92-14.87-54.33,10.67a2.24,2.24,0,0,0,.9,3c16.66,8.91,37.58.13,53.05-9.65A2.57,2.57,0,0,0,349.75,163.43Z"/><circle class="cls-6" cx="158.88" cy="162.36" r="13.16"/><circle class="cls-6" cx="321.72" cy="165.28" r="13.16"/><path class="cls-7" d="M70.05,64.58c6.19-6.45,9.56-14.6,15.74-20.29C109.35,22.59,139.4,7,179.05,2,238.24-5.53,292,8.55,339.7,40.52c33.65,22.55,54.44,50,64.89,80.74a14,14,0,0,0,3.65,5c3.22,3.08,4.93,6.3,4.31,9.8-1.24,7.09-2.51,14.17-4,21.2-1.38,6.33-9.16,9.71-18,8.1-9-1.65-15.17-7.3-14.28-13.83,1-7.36,2.53-14.64,4.14-21.89a6.88,6.88,0,0,1,3.16-4.7c3.51-1.79,2.85-4,1.82-6.66C369.89,78,337.66,48.76,284.08,29.1,223.79,7,169.93,11.58,123.51,38.47,109.93,46.33,104,49.27,95,60.05c-1.63,1.94-6.21,8.32-9.51,7.53C80.86,66.47,76.11,65.73,70.05,64.58Z"/><path class="cls-7" d="M61.67,205.7C68.52,273.14,98,331.09,162.81,364.33c4.15-9,11.33-9.42,19.77-8.07,13.61,2.17,27.33,3.68,41,5.5,9.29,1.24,13.56,6.61,12.47,15.64-.46,3.79-.9,7.59-1.51,11.35-1.21,7.4-7,11.78-14.8,10.82q-23.75-2.9-47.45-6.23c-6.43-.9-10.54-5-11.19-11.16-.29-2.78-1.46-4.07-3.92-5.29C86.48,341.68,53,284,46.54,210c0-.31.08-5.5.17-6.17C51.23,204.46,56.72,205.05,61.67,205.7Z"/><path class="cls-7" d="M20.26,88.26c-4,30.57-7.94,64.33-11.86,94.13-7.94.35-7.76-1.7-8.1-8.31a261.27,261.27,0,0,1,10-84.32C11.44,86.9,11.44,86.9,20.26,88.26Z"/><text class="cls-8" transform="translate(254.39 388.37) scale(1.27 1)">你好</text><circle cx="182.94" cy="369.4" r="2.5"/><circle cx="180.94" cy="381.4" r="2.5"/><circle cx="189.94" cy="377.4" r="2.5"/><circle cx="198.94" cy="372.4" r="2.5"/><circle cx="196.94" cy="384.4" r="2.5"/><circle cx="205.94" cy="380.4" r="2.5"/><circle cx="214.94" cy="375.4" r="2.5"/><circle cx="212.94" cy="387.4" r="2.5"/><path class="cls-9" d="M23.3,131c1.81-13.72,3.56-27.44,5.43-41.15C31,73.36,44.69,62.6,62,64.09a235.63,235.63,0,0,1,24.68,3.36c16.14,3.12,26.47,17.26,24.44,32.89-3.41,16.78-9.26,18.73-10.24,82.11-.25,16.81-15,27.13-32.47,26.44a144.27,144.27,0,0,1-28-3.94C25,201.22,16,187.68,17.84,172.59c1.72-13.89,3.62-27.75,5.45-41.63Zm21.46-24.81c-.62,4.72-1.33,9.44-1.84,14.18-.59,5.37,1.9,9.63,7.25,11.12a38.75,38.75,0,0,0,11.75,1.3,8.92,8.92,0,0,0,9-8q2.24-14.83,3.92-29.77c.58-5.23-3-9.68-8.45-10.84A63.29,63.29,0,0,0,58.48,83c-6.25-.53-10.9,3-11.84,9C45.9,96.69,45.38,101.43,44.76,106.16Z"/><path class="cls-10" d="M44.76,106.1c.62-4.73,1.14-9.47,1.88-14.18.94-6,5.59-9.47,11.84-9A65.21,65.21,0,0,1,66.38,84c5.41,1.17,9,5.62,8.45,10.84q-1.69,14.93-3.92,29.78a8.91,8.91,0,0,1-9,8,38.44,38.44,0,0,1-11.75-1.3c-5.35-1.48-7.84-5.75-7.25-11.12C43.43,115.55,44.14,110.83,44.76,106.1Z"/><text class="cls-11" transform="matrix(0.99, 0.13, -0.13, 0.99, 48.7, 113.73)"><tspan class="cls-12">H</tspan><tspan x="13.05" y="0">i</tspan></text></g></g></svg>