<svg xmlns="http://www.w3.org/2000/svg" viewBox="0 0 428 428"><defs><style>.cls-1,.cls-9{fill:#cacaca;}.cls-1,.cls-8{stroke:#000;stroke-width:3px;}.cls-1,.cls-2,.cls-3,.cls-4,.cls-8{stroke-miterlimit:10;}.cls-2{fill:#c69c6d;}.cls-2,.cls-3,.cls-4{stroke:#020000;}.cls-2,.cls-3{stroke-width:6px;}.cls-3,.cls-4{fill:#fff;}.cls-4{stroke-width:5px;}.cls-5{fill:#e0b892;}.cls-6{fill:#070000;}.cls-7{fill:#515151;}.cls-8{fill:#f90;}.cls-10{fill:none;}</style></defs><title>translate_1</title><g id="Layer_2" data-name="Layer 2"><g id="Layer_1-2" data-name="Layer 1"><rect class="cls-1" x="32.83" y="146.26" width="27.21" height="83.26" transform="translate(20.53 -3.91) rotate(6.19)"/><path class="cls-2" d="M236.07,364.13c18.77,0,38.29,7.45,56.91,5.06,10.78-1.38,20.39-4.31,29.74-10.49,7.41-4.9,13.66-14.45,19.06-21.73,10-13.4,19.47-32.64,24.4-49,6-19.81-2.94-40.65-5.36-60.74-2.48-20.58,6.9-39.81,3.13-60.16a11.73,11.73,0,0,1,1.06-7.3c6.05-12.24,11-23.88,10.48-38.36-.58-15.45,36.92-4.49,27.22-15.79-1.31-1.52-43.61-18.45-45.53-17.92C343.11,91.56,342,98,334.34,106.73c-3.35,3.84-7.69,8.55-11.95,11.35-5.83,3.81-7.74,0-14.45-1.74a347.19,347.19,0,0,0-71.87-11.2,347.29,347.29,0,0,0-71.87,11.2c-6.7,1.79-8.62,5.55-14.44,1.74-4.27-2.8-8.61-7.51-12-11.35-7.53-8.65-23.44-17.67-25.41-16.79C22.33,130.12,97.23,106,96.65,121.37c-.55,14.42,4.4,26,10.42,38.23a12.22,12.22,0,0,1,1.1,7.57c-3.72,20.3,5.64,39.49,3.16,60C108.9,247.28,100,268.12,106,287.93c4.93,16.4,14.46,35.64,24.41,49,5.4,7.28,11.64,16.83,19.06,21.73,9.35,6.18,19,9.11,29.74,10.49C197.79,371.58,217.31,364.13,236.07,364.13Z"/><path class="cls-3" d="M313.35,323.56c1.88-14.15,1-21.2-7.09-31.84-12.36-16.26-32.09-33.07-40-52.37-8.84-21.66,12.68-42,9.89-64.38-1.7-13.68-7.41-25-12.77-37.18-4.93-11.21-6.4-19.39-6.61-30.86-5.61-.37-11.19-1.53-16.68-1.79-5.49.26-11.06.55-16.67.91-.21,11.47-1.68,20.53-6.61,31.74-5.36,12.17-11.07,23.5-12.78,37.18-2.78,22.36,18.74,42.72,9.9,64.38-7.88,19.3-27.61,36.11-40,52.37-8.09,10.64-9,17.69-7.1,31.84,1.69,12.68,5.52,25.3,9.86,37.13.7,1.93,1.45,4.68,2.4,7.2q3.51.81,7.2,1.3c17.6,2.39,36-5.06,53.77-5.06s36.18,7.45,53.78,5.06c2.46-.33,4.86-2.51,7.2-3.05.95-2.52,1.69-5.27,2.4-7.2C307.84,347.1,311.67,336.24,313.35,323.56Z"/><path class="cls-4" d="M141.6,209.53c19.09-17.92,36.78-13.37,48.84,9.59a2,2,0,0,1-.81,2.71c-15,8-33.78.12-47.68-8.68A2.3,2.3,0,0,1,141.6,209.53Z"/><path class="cls-5" d="M115,150.67c-2.92-13.31-14.48-37.16-1.32-34.48.66.13,15.76,12,21.74,19.22a1.73,1.73,0,0,1-.26,2.46l-17.4,13.79A1.73,1.73,0,0,1,115,150.67Z"/><path class="cls-6" d="M254.75,291.66c-4.8-2.74-11.54-3.07-18.35-2.83h-.68c-6.82-.24-13.56.09-18.35,2.83-18.09,10.34-9.51,18.4,3.17,25.26,5.87,3.17,10.59,5.22,15.16,5.55a2.17,2.17,0,0,0,.72,0c4.57-.33,9.29-2.38,15.15-5.55C264.25,310.06,272.84,302,254.75,291.66Z"/><path class="cls-5" d="M357.55,150.67c2.92-13.31,3.52-21.24,1.32-34.48a1.73,1.73,0,0,0-2.9-1,244.7,244.7,0,0,0-18.84,20.18,1.73,1.73,0,0,0,.26,2.46l17.39,13.79A1.74,1.74,0,0,0,357.55,150.67Z"/><path class="cls-4" d="M338.07,212.16c-19.09-17.92-36.78-13.37-48.84,9.59a2,2,0,0,0,.81,2.71c15,8,33.78.12,47.69-8.68A2.3,2.3,0,0,0,338.07,212.16Z"/><circle class="cls-6" cx="166.5" cy="211.19" r="11.83"/><circle class="cls-6" cx="312.87" cy="213.82" r="11.83"/><path class="cls-7" d="M86.66,123.3c5.56-5.8,8.59-13.12,14.14-18.23C122,85.56,149,71.56,184.64,67c53.2-6.75,101.55,5.91,144.4,34.64C359.28,122,378,146.58,387.37,174.25a12.57,12.57,0,0,0,3.27,4.54c2.9,2.77,4.43,5.66,3.88,8.81-1.12,6.37-2.26,12.74-3.64,19.06-1.24,5.68-8.22,8.72-16.17,7.27-8.12-1.47-13.63-6.56-12.83-12.43.9-6.62,2.27-13.16,3.72-19.67a6.2,6.2,0,0,1,2.84-4.22c3.16-1.62,2.56-3.6,1.64-6-13.91-36.25-42.88-62.53-91-80.2-54.19-19.89-102.61-15.75-144.33,8.42-12.21,7.07-17.51,9.71-25.61,19.4-1.46,1.75-5.58,7.48-8.55,6.77C96.38,125,92.1,124.34,86.66,123.3Z"/><path class="cls-7" d="M86.21,233.91c16.6,58.62,51.71,105.32,114.29,124.63,2.27-8.63,8.56-10.11,16.24-10.23,12.39-.2,24.78-1,37.16-1.53,8.42-.36,13,3.73,13.49,11.9.18,3.43.38,6.85.43,10.28.09,6.74-4.34,11.51-11.41,11.89q-21.48,1.14-43,1.89c-5.83.2-10.1-2.76-11.64-8.14-.69-2.41-1.93-3.37-4.3-4.07-68.09-20.12-106.75-66-124-130.43-.07-.26-.79-4.87-.82-5.48C76.78,234.44,81.73,234.11,86.21,233.91Z"/><path class="cls-7" d="M41.9,144.59c-3.61,27.48-7.14,57.83-10.66,84.61-7.14.32-7-1.53-7.28-7.47a234.8,234.8,0,0,1,9-75.79C34,143.37,34,143.37,41.9,144.59Z"/><circle cx="219.12" cy="359.89" r="2.25"/><circle cx="219.22" cy="370.82" r="2.25"/><circle cx="226.56" cy="365.88" r="2.25"/><circle cx="233.75" cy="360.05" r="2.25"/><circle cx="233.85" cy="370.98" r="2.25"/><circle cx="241.2" cy="366.04" r="2.25"/><circle cx="248.38" cy="360.21" r="2.25"/><circle cx="248.49" cy="371.14" r="2.25"/><path class="cls-8" d="M44.64,183c1.62-12.32,3.2-24.66,4.87-37,2-14.8,14.35-24.47,29.89-23.13a211.82,211.82,0,0,1,22.18,3c14.51,2.81,23.8,15.52,22,29.56-3.06,15.09-8.32,16.84-9.2,73.81-.23,15.11-13.49,24.39-29.19,23.77A129.23,129.23,0,0,1,60,249.47C46.14,246.13,38,234,39.72,220.39c1.55-12.48,3.26-24.95,4.9-37.42Zm19.28-22.3c-.56,4.25-1.19,8.49-1.65,12.75-.53,4.83,1.71,8.66,6.52,10a34.44,34.44,0,0,0,10.56,1.16,8,8,0,0,0,8.08-7.22q2-13.35,3.52-26.77c.53-4.7-2.73-8.7-7.6-9.74a55.94,55.94,0,0,0-7.09-1c-5.62-.48-9.8,2.66-10.65,8C65,152.16,64.48,156.43,63.92,160.67Z"/><path class="cls-9" d="M63.92,160.62c.56-4.24,1-8.51,1.69-12.74.85-5.38,5-8.52,10.65-8a55.94,55.94,0,0,1,7.09,1c4.87,1,8.13,5,7.6,9.74Q89.44,164,87.43,177.3a8,8,0,0,1-8.08,7.23,34.44,34.44,0,0,1-10.56-1.16c-4.81-1.34-7.05-5.17-6.52-10C62.73,169.11,63.36,164.87,63.92,160.62Z"/></g><g id="Layer_2-2" data-name="Layer 2"><rect class="cls-10" width="428" height="428"/></g></g></svg>