<svg xmlns="http://www.w3.org/2000/svg" viewBox="0 0 71.99 58.49"><defs><style>.cls-1{fill:#ccc;}</style></defs><title>twitter_logo</title><g id="Layer_2" data-name="Layer 2"><g id="Layer_2-2" data-name="Layer 2"><path class="cls-1" d="M72,6.92a30.77,30.77,0,0,1-8.5,2.33A14.68,14.68,0,0,0,70,1.1a29.49,29.49,0,0,1-9.36,3.57A14.76,14.76,0,0,0,35.09,14.76a15.2,15.2,0,0,0,.34,3.37A41.77,41.77,0,0,1,5,2.69,14.76,14.76,0,0,0,9.55,22.42,14.58,14.58,0,0,1,2.88,20.6v.16A14.83,14.83,0,0,0,14.7,35.26a14.73,14.73,0,0,1-3.87.49A13,13,0,0,1,8,35.5,14.9,14.9,0,0,0,21.83,45.78a29.65,29.65,0,0,1-18.3,6.29A27.64,27.64,0,0,1,0,51.87a41.55,41.55,0,0,0,22.64,6.62c27.16,0,42-22.5,42-42,0-.65,0-1.28-.05-1.91A29.44,29.44,0,0,0,72,6.92Z"/></g></g></svg>