<svg xmlns="http://www.w3.org/2000/svg" viewBox="0 0 118.3 97"><defs><style>.cls-1{opacity:0.7;}.cls-2{fill:none;stroke:#ccc;stroke-width:2px;}</style></defs><title>twitter_logo_1</title><g id="Layer_2" data-name="Layer 2"><g id="Layer_2-2" data-name="Layer 2"><g class="cls-1"><path class="cls-2" d="M117.47,12.25A50,50,0,0,1,103.65,16,23.84,23.84,0,0,0,114.2,2.78,47.9,47.9,0,0,1,99,8.59,24,24,0,0,0,57.53,25a24.68,24.68,0,0,0,.56,5.47A67.85,67.85,0,0,1,8.68,5.37a24,24,0,0,0,7.37,32,23.67,23.67,0,0,1-10.83-3v.26a24.08,24.08,0,0,0,19.2,23.55,23.92,23.92,0,0,1-6.28.79,21.19,21.19,0,0,1-4.54-.41A24.2,24.2,0,0,0,36,75.35,48.16,48.16,0,0,1,6.28,85.57a44.9,44.9,0,0,1-5.74-.33A67.48,67.48,0,0,0,37.31,96c44.11,0,68.22-36.54,68.22-68.21,0-1.06,0-2.08-.09-3.1A47.82,47.82,0,0,0,117.47,12.25Z"/></g></g></g></svg>