<svg xmlns="http://www.w3.org/2000/svg" viewBox="0 0 1036.33 410.92"><defs><style>.cls-1,.cls-3{font-size:46.54px;fill:#fff;font-family:Avenir-Light, Avenir;}.cls-1{letter-spacing:0.05em;}.cls-2{fill:none;stroke:lime;stroke-miterlimit:10;}.cls-3{letter-spacing:0.05em;}</style></defs><title>workflow_diagram_2</title><g id="Layer_2" data-name="Layer 2"><g id="Layer_2-2" data-name="Layer 2"><text class="cls-1" transform="translate(706.91 356.55)">CSV</text><path class="cls-2" d="M994.58,34"/><path class="cls-2" d="M1035.83,158.73H916.24V.5h79.34l-.16,33.31,40.42.33Z"/><path class="cls-2" d="M995.53.5,1035.59,34"/><rect class="cls-2" x="934.13" y="68.3" width="43.68" height="13.42"/><rect class="cls-2" x="977.81" y="68.3" width="43.68" height="13.42"/><rect class="cls-2" x="934.13" y="81.72" width="43.68" height="13.42"/><rect class="cls-2" x="977.81" y="81.72" width="43.68" height="13.42"/><rect class="cls-2" x="934.13" y="95.14" width="43.68" height="13.42"/><rect class="cls-2" x="977.81" y="95.14" width="43.68" height="13.42"/><rect class="cls-2" x="934.13" y="108.57" width="43.68" height="13.42"/><rect class="cls-2" x="977.81" y="108.57" width="43.68" height="13.42"/><circle class="cls-2" cx="77.01" cy="82.1" r="76.39"/><ellipse class="cls-2" cx="77.01" cy="82.35" rx="45.69" ry="76.39"/><ellipse class="cls-2" cx="77.01" cy="82.35" rx="10.84" ry="76.39"/><circle class="cls-2" cx="77.13" cy="82.23" r="76.39"/><ellipse class="cls-2" cx="76.89" cy="82.23" rx="76.39" ry="45.69"/><ellipse class="cls-2" cx="76.89" cy="82.23" rx="76.39" ry="10.84"/><text class="cls-3" transform="translate(220.29 356.87)">HTML</text><rect class="cls-2" x="172.44" y="276.58" width="232.13" height="133.84"/><rect class="cls-2" x="637.59" y="276.58" width="232.13" height="133.84"/><rect class="cls-2" x="410.46" y="13.88" width="232.13" height="133.84"/><text class="cls-3" transform="translate(459.92 93.42)">JSON</text><path class="cls-2" d="M70.91,158.73V354.11h100.7"/><path class="cls-2" d="M84.74,159V342h88.45"/><path class="cls-2" d="M283.33,276V74.56H410"/><path class="cls-2" d="M298.73,276.74V88.18H410"/><path class="cls-2" d="M517.77,148.51V353.05H635.64"/><path class="cls-2" d="M533.81,148.82V340.33H637.35"/><path class="cls-2" d="M750.63,276V74.56H917.42"/><path class="cls-2" d="M768.56,277.53V89H915.06"/></g></g></svg>