<svg xmlns="http://www.w3.org/2000/svg" viewBox="0 0 1036.3 410.9">
  <defs>
    <style>
      .diagram_text{font-size:46.54px;fill:#fff;font-family:Avenir-Light,Avenir;letter-spacing:.05em}.diagram_line{fill:none;stroke:#0f0;stroke-miterlimit:10}
    </style>
  </defs>
  <g id="Layer_2-2" data-name="Layer 2">
    <text transform="translate(707 357)" letter-spacing=".1em" font-size="46.5" fill="#fff" font-family="Avenir-Light,Avenir">
      CSV
    </text>
    <path class="diagram_line" d="M1036 159H916V1h80l-1 33h41zM996 1l40 33"/>
    <path class="diagram_line" d="M934 68h44v14h-44zM978 68h44v14h-44zM934 82h44v13h-44zM978 82h44v13h-44zM934 95h44v14h-44zM978 95h44v14h-44zM934 109h44v13h-44zM978 109h44v13h-44z"/>
    <circle class="diagram_line" cx="77" cy="82.1" r="76.4"/>
    <ellipse class="diagram_line" cx="77" cy="82.3" rx="45.7" ry="76.4"/>
    <ellipse class="diagram_line" cx="77" cy="82.3" rx="10.8" ry="76.4"/>
    <circle class="diagram_line" cx="77.1" cy="82.2" r="76.4"/>
    <ellipse class="diagram_line" cx="76.9" cy="82.2" rx="76.4" ry="45.7"/>
    <ellipse class="diagram_line" cx="76.9" cy="82.2" rx="76.4" ry="10.8"/>
    <text class="diagram_text" transform="translate(220 357)">
      HTML
    </text>
    <path class="diagram_line" d="M172 277h233v133H172zM638 277h232v133H638zM411 14h232v134H411z"/>
    <text class="diagram_text" transform="translate(460 93)">
      JSON
    </text>
    <path class="diagram_line" d="M71 159v195h101"/>
    <path class="diagram_line" d="M86 157v183h86M283 276V75h127"/>
    <path class="diagram_line" d="M299 277V88h111M519 149v204h118"/>
    <path class="diagram_line" d="M534 148v190h103M750 276V75h166"/>
    <path class="diagram_line" d="M764 277V90h152"/>
  </g>
</svg>
